<?xml version="1.0" encoding="UTF-8" standalone="no"?>
<svg
   xmlns:dc="http://purl.org/dc/elements/1.1/"
   xmlns:cc="http://creativecommons.org/ns#"
   xmlns:rdf="http://www.w3.org/1999/02/22-rdf-syntax-ns#"
   xmlns:svg="http://www.w3.org/2000/svg"
   xmlns="http://www.w3.org/2000/svg"
   version="1.1"
   id="svg2"
   viewBox="0 0 509.62215 487.46051"
   height="13.757219cm"
   width="14.382669cm">
  <metadata
     id="metadata7">
    <rdf:RDF>
      <cc:Work
         rdf:about="">
        <dc:format>image/svg+xml</dc:format>
        <dc:type
           rdf:resource="http://purl.org/dc/dcmitype/StillImage" />
        <dc:title></dc:title>
      </cc:Work>
    </rdf:RDF>
  </metadata>
  <g
     style="display:inline"
     transform="translate(-145.18892,-314.34618)"
     id="g61929">
    <path
       id="path57820-3"
       transform="translate(145.18892,314.34615)"
       d="m 177.45508,219.43164 c -2.7588,0.0439 -5.5127,0.0879 -8.27149,0.12695 -1.15235,0.10742 -2.30078,0.21582 -3.45312,0.31836 -2.65625,0.29785 -5.31641,0.59572 -7.97266,0.88867 -2.66114,0.55176 -5.32226,1.09864 -7.97851,1.6504 -2.63184,0.7959 -5.26855,1.59081 -7.90039,2.38671 -2.58301,1.03516 -5.16699,2.07618 -7.75,3.11133 -2.50488,1.26465 -5.00978,2.5293 -7.51953,3.79883 -0.37597,0.19532 -0.75196,0.38477 -1.13282,0.58008 -2.26562,1.40137 -4.53613,2.79785 -6.80664,4.19922 -2.14844,1.58691 -4.30176,3.17968 -6.45508,4.77148 -2.0166,1.76757 -4.03222,3.5293 -6.04882,5.29688 -1.86036,1.92871 -3.72169,3.85254 -5.58204,5.78125 -1.684566,2.06543 -3.36816,4.13086 -5.05273,6.20117 -0.22581,0.3306 -0.451734,0.66159 -0.677734,0.99219 l -0.002,0.002 c -0.003,0.004 -0.0068,0.008 -0.0098,0.0117 -0.38435,0.56222 -0.767714,1.12528 -1.152344,1.6875 -0.0631,0.0925 -0.126343,0.18488 -0.189453,0.27734 -0.81915,1.19734 -1.639211,2.39446 -2.457031,3.5918 -0.31739,0.46875 -0.639642,0.9375 -0.957031,1.40625 -1.36718,2.42676 -2.738279,4.8545 -4.105469,7.28125 -1.1377,2.50489 -2.276363,5.01367 -3.414063,7.52344 -0.89844,2.56836 -1.795893,5.13281 -2.689453,7.70117 -0.64941,2.60254 -1.293939,5.20019 -1.943359,7.80273 -0.23925,1.11328 -0.484376,2.23046 -0.728516,3.34375 -0.41015,2.73437 -0.814459,5.46973 -1.224609,8.19922 -0.13672,2.71973 -0.273437,5.4336 -0.410157,8.14844 0.0488,1.36719 0.0977,2.73048 0.146485,4.09766 l 0.423828,8.30468 c 0.42481,2.69531 0.844731,5.39062 1.269531,8.08594 0.38086,1.49414 0.757812,2.99414 1.138672,4.48828 0.71777,2.66113 1.440433,5.32715 2.158203,7.98828 0.99609,2.53906 1.991208,5.07226 2.992188,7.61133 0.708,1.49414 1.420896,2.99414 2.128906,4.48828 l 3.853516,7.26563 c 1.54785,2.24609 3.089842,4.49609 4.632812,6.74218 1.01074,1.37696 2.017578,2.75391 3.023438,4.13086 -1.55273,-2.25586 -3.101557,-4.51562 -4.654297,-6.77148 -1.28906,-2.43652 -2.582034,-4.86816 -3.871094,-7.30469 -1.01563,-2.58789 -2.037104,-5.17675 -3.052734,-7.75976 -0.73242,-2.71972 -1.463862,-5.4336 -2.201172,-8.14844 -0.43945,-2.81738 -0.883795,-5.63575 -1.328125,-8.45313 -0.14649,-2.89551 -0.293943,-5.78613 -0.445313,-8.68164 0.15137,-2.93945 0.298823,-5.87891 0.445313,-8.81836 0.44433,-2.95899 0.888675,-5.91211 1.328125,-8.87109 0.73731,-2.94922 1.468752,-5.89453 2.201172,-8.84375 1.01563,-2.91503 2.037104,-5.82422 3.052734,-8.73438 1.28906,-2.84178 2.582034,-5.68847 3.871094,-8.53515 1.55274,-2.74902 3.101567,-5.49804 4.654297,-8.25195 1.80176,-2.63183 3.59765,-5.26465 5.39453,-7.89649 2.02637,-2.48535 4.05763,-4.96973 6.08399,-7.45508 2.23633,-2.31446 4.47265,-4.63477 6.70898,-6.94922 2.42187,-2.12403 4.84863,-4.24804 7.27539,-6.37695 2.58789,-1.90918 5.17578,-3.82227 7.76367,-5.73633 2.72949,-1.67969 5.45997,-3.36523 8.18946,-5.04492 l 8.52539,-4.30664 c 2.92969,-1.17676 5.8584,-2.35352 8.7832,-3.52539 2.98828,-0.90332 5.97754,-1.80566 8.96094,-2.70898 3.01758,-0.625 6.03028,-1.2461 9.04297,-1.8711 3.0127,-0.33691 6.02539,-0.66894 9.04297,-1.00586 2.98338,-0.0488 5.9707,-0.0918 8.95898,-0.14062 2.92481,0.24414 5.85547,0.48828 8.78516,0.73242 l 8.52539,1.5957 c 2.72949,0.81543 5.45801,1.62598 8.1875,2.44141 2.58789,1.08887 5.17578,2.17773 7.76367,3.27148 2.42676,1.35254 4.85352,2.70606 7.27539,4.0586 l 6.70898,4.81836 c 2.02637,1.84082 4.05763,3.68261 6.08399,5.52343 -1.24511,-1.17188 -2.48926,-2.33985 -3.73438,-3.51172 -2.0166,-1.83104 -4.0381,-3.66112 -6.05468,-5.49218 -2.22656,-1.60156 -4.44923,-3.19824 -6.67579,-4.79492 -1.40137,-0.88867 -2.80176,-1.78321 -4.20312,-2.67188 l -7.13477,-3.98437 c -2.53907,-1.06446 -5.07812,-2.13379 -7.61718,-3.20313 -1.44531,-0.56152 -2.88965,-1.12207 -4.33008,-1.68359 -2.6123,-0.77637 -5.22559,-1.5586 -7.83789,-2.33985 l -8.15821,-1.52343 c -1.36231,-0.21973 -2.71973,-0.4336 -4.08203,-0.64844 -2.70508,-0.22949 -5.41015,-0.45508 -8.11523,-0.67969 z"
       style="display:inline;fill:#7f7f7f;fill-opacity:0.125;fill-rule:nonzero;stroke:none" />
  </g>
  <g
     id="g57818"
     transform="translate(-145.18892,-314.34618)"
     style="display:inline">
    <path
       id="path57820"
       transform="translate(145.18892,314.34615)"
       d="m 177.45508,219.43164 c -2.75879,0.0439 -5.5127,0.0879 -8.27149,0.12695 -1.15235,0.10742 -2.30078,0.21582 -3.45312,0.31836 -2.65625,0.29785 -5.31641,0.59571 -7.97266,0.88867 -2.66114,0.55176 -5.32226,1.09864 -7.97851,1.6504 -2.63184,0.7959 -5.26855,1.59081 -7.90039,2.38671 -2.58301,1.03516 -5.16699,2.07618 -7.75,3.11133 -2.50488,1.26465 -5.00977,2.5293 -7.51953,3.79883 -0.37597,0.19532 -0.75196,0.38477 -1.13282,0.58008 -2.26562,1.40137 -4.53613,2.79785 -6.80664,4.19922 -2.14844,1.58691 -4.30176,3.17968 -6.45508,4.77148 -2.0166,1.76757 -4.03222,3.5293 -6.04882,5.29688 -1.86036,1.92871 -3.72169,3.85254 -5.58204,5.78125 -1.684566,2.06543 -3.36816,4.13086 -5.05273,6.20117 -0.22949,0.33203 -0.459963,0.66894 -0.689453,1.00586 -0.384344,0.56222 -0.767719,1.12528 -1.152344,1.6875 -0.0631,0.0925 -0.126342,0.18488 -0.189453,0.27734 -0.819151,1.19734 -1.639204,2.39446 -2.457031,3.5918 -0.31739,0.46875 -0.639642,0.9375 -0.957031,1.40625 -1.36718,2.42676 -2.738279,4.8545 -4.105469,7.28125 -1.1377,2.50489 -2.276363,5.01367 -3.414063,7.52344 -0.89844,2.56836 -1.795893,5.13281 -2.689453,7.70117 -0.64941,2.60254 -1.293939,5.20019 -1.943359,7.80273 -0.23925,1.11328 -0.484376,2.23046 -0.728516,3.34375 -0.41015,2.73437 -0.814459,5.46973 -1.224609,8.19922 -0.13672,2.71973 -0.273437,5.4336 -0.410157,8.14844 0.04879,1.36719 0.09768,2.73048 0.146485,4.09766 l 0.423828,8.30468 c 0.42481,2.69531 0.844731,5.39062 1.269531,8.08594 0.38086,1.49414 0.757812,2.99414 1.138672,4.48828 0.71777,2.66113 1.440433,5.32715 2.158203,7.98828 0.99609,2.53906 1.991208,5.07226 2.992188,7.61133 0.708,1.49414 1.420896,2.99414 2.128906,4.48828 l 3.853516,7.26563 c 1.54785,2.24609 3.089842,4.49609 4.632812,6.74218 1.01074,1.37696 2.017578,2.75391 3.023438,4.13086 1.80176,2.06055 3.597649,4.12208 5.394529,6.17774 2.02637,1.84082 4.05763,3.68066 6.08399,5.52148 l 6.70898,4.82032 c 2.42187,1.35253 4.84863,2.70411 7.27539,4.05664 2.58789,1.09375 5.17578,2.18261 7.76367,3.27148 2.72949,0.81543 5.45997,1.62598 8.18946,2.44141 l 8.52539,1.59765 c 2.92969,0.24414 5.8584,0.48828 8.7832,0.73242 2.98828,-0.0488 5.97754,-0.0938 8.96094,-0.14257 3.01758,-0.33692 6.03028,-0.66895 9.04297,-1.00586 3.0127,-0.625 6.02539,-1.24414 9.04297,-1.86914 2.98339,-0.90332 5.9707,-1.80762 8.95898,-2.71094 2.92481,-1.17188 5.85547,-2.34863 8.78516,-3.52539 l 8.52539,-4.30664 c 2.72949,-1.67969 5.45801,-3.36328 8.1875,-5.04297 2.58789,-1.91406 5.17578,-3.8291 7.76367,-5.73828 2.42676,-2.12891 4.85352,-4.25293 7.27539,-6.37696 2.23633,-2.31445 4.47265,-4.63281 6.70898,-6.94726 2.02637,-2.48535 4.05763,-4.97167 6.08399,-7.45703 1.79688,-2.63183 3.59472,-5.2627 5.39648,-7.89453 1.55274,-2.75391 3.09962,-5.50293 4.65235,-8.25196 1.28906,-2.84668 2.58398,-5.69336 3.87304,-8.53515 1.01563,-2.91016 2.03516,-5.82129 3.05078,-8.73633 0.73242,-2.94921 1.46582,-5.89258 2.20313,-8.8418 0.43945,-2.95898 0.88379,-5.91407 1.32812,-8.87305 0.14649,-2.93944 0.29199,-5.8789 0.44336,-8.81835 -0.15137,-2.89551 -0.29687,-5.78614 -0.44336,-8.68165 -0.44433,-2.81738 -0.88867,-5.63379 -1.32812,-8.45117 -0.73731,-2.71484 -1.47071,-5.43066 -2.20313,-8.15039 -1.01562,-2.583 -2.03515,-5.16991 -3.05078,-7.75781 -1.28906,-2.43652 -2.58398,-4.86817 -3.87304,-7.30469 -1.55273,-2.25586 -3.09961,-4.51758 -4.65235,-6.77344 -1.80176,-2.06054 -3.5996,-4.12012 -5.39648,-6.17578 -1.24511,-1.17188 -2.48926,-2.33985 -3.73438,-3.51172 -2.0166,-1.83105 -4.03809,-3.66112 -6.05468,-5.49218 -2.22656,-1.60156 -4.44923,-3.19824 -6.67579,-4.79492 -1.40137,-0.88867 -2.80176,-1.78321 -4.20312,-2.67188 l -7.13477,-3.98437 c -2.53907,-1.06446 -5.07812,-2.13379 -7.61718,-3.20313 -1.44531,-0.56152 -2.88965,-1.12207 -4.33008,-1.68359 -2.6123,-0.77637 -5.22559,-1.5586 -7.83789,-2.33985 l -8.15821,-1.52343 c -1.36231,-0.21973 -2.71973,-0.4336 -4.08203,-0.64844 -2.70508,-0.22949 -5.41015,-0.45508 -8.11523,-0.67969 z"
       style="fill:#7f7f7f;fill-opacity:0.125;fill-rule:nonzero;stroke:none" />
  </g>
  <g
     id="layer3">
    <path
       d="m 180.83114,654.2845 438.3377,-69.69525"
       style="display:inline;fill:none;stroke:#808080;stroke-width:0.41249999;stroke-linecap:round;stroke-linejoin:round;stroke-miterlimit:10;stroke-dasharray:none;stroke-opacity:1"
       id="path4175"
       transform="translate(-145.18892,-314.34618)" />
  </g>
  <g
     style="display:inline"
     id="layer2">
    <path
       d="m 463.44384,363.88675 -9.975,10.60375 6.63875,3.5675 3.33625,-14.17125"
       style="fill:#000000;fill-opacity:1;fill-rule:nonzero;stroke:none"
       id="path22639"
       transform="translate(-145.18892,-314.34618)" />
    <path
       d="m 463.44384,363.88675 -9.975,10.60375 6.63875,3.5675 3.33625,-14.17125 z"
       style="fill:none;stroke:#000000;stroke-width:0.9375;stroke-linecap:round;stroke-linejoin:round;stroke-miterlimit:10;stroke-dasharray:none;stroke-opacity:1"
       id="path22641"
       transform="translate(-145.18892,-314.34618)" />
    <path
       d="m 463.01759,358.7605 -1.03125,0 0,-2.86875 c 0.37375,0.32875 1.03125,0.7025 1.92875,0.7025 2.04625,0 3.64625,-1.24125 3.64625,-3.4225 0,-2.0625 -1.39,-3.3925 -3.4075,-3.3925 -0.8825,0 -1.64375,0.29875 -2.24125,0.7775 l 0,-0.7775 -2.58625,0.12 0,0.6425 c 0.9275,0 1.03125,0 1.03125,0.5825 l 0,7.63625 -1.03125,0 0,0.6425 3.69125,0 0,-0.6425 z m -1.03125,-7.48625 c 0.5525,-0.7175 1.345,-0.9575 1.92875,-0.9575 0.97125,0 1.8525,0.8825 1.8525,2.855 0,2.1675 -1.07625,2.92875 -2.0325,2.92875 -0.6425,0 -1.285,-0.32875 -1.74875,-1.03125 l 0,-3.795"
       style="fill:#000000;fill-opacity:1;fill-rule:nonzero;stroke:none"
       id="path22643"
       transform="translate(-145.18892,-314.34618)" />
    <path
       d="m 463.44384,363.88675 0,133.88875"
       style="fill:none;stroke:#000000;stroke-width:0.3125;stroke-linecap:round;stroke-linejoin:round;stroke-miterlimit:10;stroke-dasharray:none;stroke-opacity:1"
       id="path22645"
       transform="translate(-145.18892,-314.34618)" />
    <path
       d="m 549.95759,461.7055 -13.5475,5.33 4.48,6.06 9.0675,-11.39"
       style="fill:#000000;fill-opacity:1;fill-rule:nonzero;stroke:none"
       id="path22655"
       transform="translate(-145.18892,-314.34618)" />
    <path
       d="m 549.95759,461.7055 -13.5475,5.33 4.48,6.06 9.0675,-11.39 z"
       style="fill:none;stroke:#000000;stroke-width:0.9375;stroke-linecap:round;stroke-linejoin:round;stroke-miterlimit:10;stroke-dasharray:none;stroke-opacity:1"
       id="path22657"
       transform="translate(-145.18892,-314.34618)" />
    <path
       d="m 557.99759,459.90175 2.54,0 c 2.49625,0 3.88625,-1.27 3.88625,-2.80875 0,-1.61375 -1.42,-2.88375 -3.88625,-2.88375 l -6.09625,0 0,0.6425 1.58375,0 0,8.96625 -1.58375,0 0,0.6425 5.14,0 0,-0.6425 -1.58375,0 0,-3.91625 z m 2.0025,-5.05 c 2.31625,0 2.31625,1.225 2.31625,2.24125 0,0.98625 0,2.24125 -2.31625,2.24125 l -2.0775,0 0,-4.4825 2.0775,0 z m 10.00625,4.805 c 0.0588,-0.13875 0.0588,-0.15875 0.0588,-0.18875 0,-0.13 -0.0988,-0.23 -0.22875,-0.23 -0.16,0 -0.19875,0.12 -0.23875,0.22 l -3.5775,9.325 c -0.0588,0.13875 -0.0588,0.15875 -0.0588,0.18875 0,0.13 0.0987,0.22875 0.22875,0.22875 0.16,0 0.19875,-0.11875 0.23875,-0.21875 l 3.5775,-9.325 z m 3.0175,3.14875 1.215,0 0,-0.51875 -1.275,0 0,-0.97625 c 0,-0.5475 0.23,-1.165 1.04625,-1.165 0.03,0 0.13,0 0.13,0.02 0,0.009 0,0.02 -0.02,0.04 -0.11,0.11875 -0.16,0.27875 -0.16,0.4375 0,0.43875 0.34875,0.6575 0.65875,0.6575 0.29875,0 0.65625,-0.21875 0.65625,-0.6575 0,-0.4575 -0.3975,-0.91625 -1.235,-0.91625 -1.00625,0 -2.17125,0.40875 -2.17125,1.59375 l 0,0.96625 -0.7875,0 0,0.51875 0.7875,0 0,3.38625 -0.6575,0 0,0.51875 2.63,0 0,-0.51875 -0.8175,0 0,-3.38625"
       style="fill:#000000;fill-opacity:1;fill-rule:nonzero;stroke:none"
       id="path22659"
       transform="translate(-145.18892,-314.34618)" />
    <path
       d="m 549.95759,461.7055 0,133.88875"
       style="fill:none;stroke:#000000;stroke-width:0.3125;stroke-linecap:round;stroke-linejoin:round;stroke-miterlimit:10;stroke-dasharray:none;stroke-opacity:1"
       id="path22661"
       transform="translate(-145.18892,-314.34618)" />
    <path
       d="m 463.44384,363.88675 86.51375,97.81875"
       style="fill:none;stroke:#000000;stroke-width:0.625;stroke-linecap:round;stroke-linejoin:round;stroke-miterlimit:10;stroke-dasharray:4.836575, 4.836575;stroke-dashoffset:0;stroke-opacity:1"
       id="path22663"
       transform="translate(-145.18892,-314.34618)" />
    <path
       d="m 549.95759,595.59425 -14.48,-1.51375 1.18375,7.4425 13.29625,-5.92875"
       style="fill:#000000;fill-opacity:1;fill-rule:nonzero;stroke:none"
       id="path22671"
       transform="translate(-145.18892,-314.34618)" />
    <path
       d="m 549.95759,595.59425 -14.48,-1.51375 1.18375,7.4425 13.29625,-5.92875 z"
       style="fill:none;stroke:#000000;stroke-width:0.9375;stroke-linecap:round;stroke-linejoin:round;stroke-miterlimit:10;stroke-dasharray:none;stroke-opacity:1"
       id="path22673"
       transform="translate(-145.18892,-314.34618)" />
    <path
       d="m 556.81884,607.74425 -1.03125,0 0,-2.86875 c 0.37375,0.32875 1.03125,0.7025 1.9275,0.7025 2.0475,0 3.6475,-1.24125 3.6475,-3.4225 0,-2.06125 -1.39,-3.3925 -3.4075,-3.3925 -0.8825,0 -1.645,0.3 -2.24125,0.7775 l 0,-0.7775 -2.58625,0.12 0,0.6425 c 0.92625,0 1.03125,0 1.03125,0.5825 l 0,7.63625 -1.03125,0 0,0.6425 3.69125,0 0,-0.6425 z m -1.03125,-7.48625 c 0.5525,-0.7175 1.345,-0.95625 1.9275,-0.95625 0.97125,0 1.85375,0.88125 1.85375,2.85375 0,2.1675 -1.07625,2.92875 -2.0325,2.92875 -0.6425,0 -1.285,-0.32875 -1.74875,-1.03125 l 0,-3.795 z m 12.43625,1.49375 c 0,-0.4325 -0.35875,-0.79125 -0.79125,-0.79125 -0.43375,0 -0.7925,0.35875 -0.7925,0.79125 0,0.43375 0.35875,0.7925 0.7925,0.7925 0.4325,0 0.79125,-0.35875 0.79125,-0.7925 z m 7.61375,0.37375 c 0,-0.4925 0.105,-2.86875 1.85375,-2.86875 -0.21,0.16375 -0.31375,0.41875 -0.31375,0.6875 0,0.6125 0.4925,0.86625 0.86625,0.86625 0.37375,0 0.8675,-0.25375 0.8675,-0.86625 0,-0.7625 -0.7775,-1.18125 -1.495,-1.18125 -1.18,0 -1.68875,1.03125 -1.8975,1.65875 l -0.015,0 0,-1.65875 -2.45125,0.12 0,0.6425 c 0.92625,0 1.03125,0 1.03125,0.5825 l 0,4.7375 -1.03125,0 0,0.6425 3.88625,0 0,-0.6425 -1.30125,0 0,-2.72"
       style="fill:#000000;fill-opacity:1;fill-rule:nonzero;stroke:none"
       id="path22675"
       transform="translate(-145.18892,-314.34618)" />
    <path
       d="m 312.46759,724.82462 0,0.6425 c 0.92625,0 1.03125,0 1.03125,0.58263 l 0,3.019 c -0.32875,-0.28425 -0.98625,-0.71725 -2.0175,-0.71725 -2.1225,0 -3.63125,1.31488 -3.63125,3.40712 0,2.13675 1.47875,3.40726 3.46625,3.40726 0.8225,0 1.525,-0.28413 2.1075,-0.77725 l 0,0.77725 2.66,-0.0897 0,-0.64263 c -0.92625,0 -1.03125,0 -1.03125,-0.583 l 0,-9.1455 -2.585,0.11962 z m 0.95625,8.74213 c -0.6275,0.91163 -1.39,1.106 -1.9275,1.106 -1.85375,0 -1.85375,-1.898 -1.85375,-2.88425 0,-0.70263 0,-1.44975 0.32875,-2.01763 0.46375,-0.83687 1.345,-0.92625 1.68875,-0.92625 0.6125,0 1.27125,0.269 1.76375,0.92625 l 0,3.79588"
       style="fill:#000000;fill-opacity:1;fill-rule:nonzero;stroke:none"
       id="path4183"
       transform="translate(-145.18892,-314.34618)" />
    <path
       d="m 319.25384,453.75675 0,312.40769"
       style="fill:none;stroke:#808080;stroke-width:0.41249999;stroke-linecap:round;stroke-linejoin:round;stroke-miterlimit:10;stroke-dasharray:none;stroke-opacity:1"
       id="path4185"
       transform="translate(-145.18892,-314.34618)" />
    <path
       d="M 549.95759,595.59425 463.44384,497.7755 232.73984,534.458"
       style="fill:none;stroke:#000000;stroke-width:0.3125;stroke-linecap:round;stroke-linejoin:round;stroke-miterlimit:10;stroke-dasharray:none;stroke-opacity:1"
       id="path22647"
       transform="translate(-145.18892,-314.34618)" />
    <path
       d="M 538.65009,470.06425 319.25384,632.2755"
       style="fill:none;stroke:#000000;stroke-width:0.9375;stroke-linecap:round;stroke-linejoin:round;stroke-miterlimit:10;stroke-dasharray:none;stroke-opacity:1"
       id="path22653"
       transform="translate(-145.18892,-314.34618)" />
    <path
       d="m 536.06884,597.80175 -216.815,34.47375"
       style="fill:none;stroke:#000000;stroke-width:0.9375;stroke-linecap:round;stroke-linejoin:round;stroke-miterlimit:10;stroke-dasharray:none;stroke-opacity:1"
       id="path22669"
       transform="translate(-145.18892,-314.34618)" />
    <path
       d="m 319.25384,498.38675 -3.76875,14.0625 7.53625,0 -3.7675,-14.0625"
       style="fill:#000000;fill-opacity:1;fill-rule:nonzero;stroke:none"
       id="path22679"
       transform="translate(-145.18892,-314.34618)" />
    <path
       d="m 319.25384,498.38675 -3.76875,14.0625 7.53625,0 -3.7675,-14.0625 z"
       style="fill:none;stroke:#000000;stroke-width:0.9375;stroke-linecap:round;stroke-linejoin:round;stroke-miterlimit:10;stroke-dasharray:none;stroke-opacity:1"
       id="path22681"
       transform="translate(-145.18892,-314.34618)" />
    <path
       d="m 291.37121,494.57425 -1.03125,0 0,-2.86875 c 0.37351,0.32875 1.03125,0.7025 1.92775,0.7025 2.04738,0 3.64651,-1.24125 3.64651,-3.4225 0,-2.0625 -1.39025,-3.3925 -3.40725,-3.3925 -0.88188,0 -1.64413,0.29875 -2.24176,0.7775 l 0,-0.7775 -2.58537,0.11875 0,0.64375 c 0.92675,0 1.03125,0 1.03125,0.5825 l 0,7.63625 -1.03125,0 0,0.6425 3.69137,0 0,-0.6425 z m -1.03125,-7.4875 c 0.55275,-0.71625 1.34475,-0.95625 1.92775,-0.95625 0.97113,0 1.85301,0.8825 1.85301,2.855 0,2.16625 -1.07626,2.92875 -2.03226,2.92875 -0.64262,0 -1.28512,-0.32875 -1.7485,-1.03125 l 0,-3.79625 z m 12.43601,1.495 c 0,-0.43375 -0.35838,-0.79125 -0.79201,-0.79125 -0.43312,0 -0.792,0.3575 -0.792,0.79125 0,0.43375 0.35888,0.7925 0.792,0.7925 0.43363,0 0.79201,-0.35875 0.79201,-0.7925 z m 9.69162,-6.515 0,0.6425 c 0.92625,0 1.03125,0 1.03125,0.5825 l 0,3.01875 c -0.32875,-0.28375 -0.98625,-0.7175 -2.0175,-0.7175 -2.1225,0 -3.63125,1.315 -3.63125,3.4075 0,2.13625 1.47875,3.4075 3.46625,3.4075 0.8225,0 1.525,-0.285 2.1075,-0.7775 l 0,0.7775 2.66,-0.09 0,-0.6425 c -0.92625,0 -1.03125,0 -1.03125,-0.58375 l 0,-9.145 -2.585,0.12 z m 0.95625,8.74125 c -0.6275,0.9125 -1.39,1.10625 -1.9275,1.10625 -1.85375,0 -1.85375,-1.8975 -1.85375,-2.88375 0,-0.7025 0,-1.45 0.32875,-2.0175 0.46375,-0.8375 1.345,-0.92625 1.68875,-0.92625 0.6125,0 1.27125,0.26875 1.76375,0.92625 l 0,3.795"
       style="fill:#000000;fill-opacity:1;fill-rule:nonzero;stroke:none"
       id="path22683"
       transform="translate(-145.18892,-314.34618)" />
    <path
       d="M 319.25384,632.2755 206.78571,505.11175"
       style="fill:none;stroke:#808080;stroke-width:0.41249999;stroke-linecap:round;stroke-linejoin:round;stroke-miterlimit:10;stroke-dasharray:none;stroke-opacity:1"
       id="path4195"
       transform="translate(-145.18892,-314.34618)" />
    <path
       d="M 456.78759,376.27425 319.25384,632.2755"
       style="fill:none;stroke:#000000;stroke-width:0.9375;stroke-linecap:round;stroke-linejoin:round;stroke-miterlimit:10;stroke-dasharray:none;stroke-opacity:1"
       id="path22637"
       transform="translate(-145.18892,-314.34618)" />
    <path
       d="m 330.36134,578.2505 c 0,-1.45 -0.8225,-2.81 -2.40625,-2.81 -1.9575,0 -3.915,2.1375 -3.915,4.26 0,1.3 0.80625,2.48 2.33125,2.48 0.92625,0 2.0325,-0.35875 3.0925,-1.255 0.21,0.83625 0.6725,1.255 1.315,1.255 0.8075,0 1.21125,-0.83625 1.21125,-1.03125 0,-0.13375 -0.105,-0.13375 -0.15,-0.13375 -0.11875,0 -0.13375,0.045 -0.17875,0.16375 -0.135,0.37375 -0.47875,0.7025 -0.8375,0.7025 -0.4625,0 -0.4625,-0.95625 -0.4625,-1.86875 1.52375,-1.8225 1.8825,-3.705 1.8825,-3.72 0,-0.135 -0.11875,-0.135 -0.16375,-0.135 -0.135,0 -0.15,0.045 -0.21,0.31375 -0.19375,0.6575 -0.5825,1.82375 -1.50875,3.04875 l 0,-1.27 z m -0.94125,2.31625 c -1.315,1.18125 -2.49625,1.315 -3.01875,1.315 -1.06125,0 -1.36,-0.94125 -1.36,-1.64375 0,-0.6425 0.32875,-2.16625 0.79125,-2.98875 0.61375,-1.04625 1.45,-1.51 2.1225,-1.51 1.44875,0 1.44875,1.89875 1.44875,3.15375 0,0.37375 -0.0138,0.7625 -0.0138,1.13625 0,0.29875 0.0138,0.3725 0.03,0.5375"
       style="fill:#000000;fill-opacity:1;fill-rule:nonzero;stroke:none"
       id="path22651"
       transform="translate(-145.18892,-314.34618)" />
    <path
       d="M 549.95759,461.7055 319.25384,498.38675"
       style="fill:none;stroke:#000000;stroke-width:0.625;stroke-linecap:round;stroke-linejoin:round;stroke-miterlimit:10;stroke-dasharray:4.97025, 4.97025;stroke-dashoffset:0;stroke-opacity:1"
       id="path22685"
       transform="translate(-145.18892,-314.34618)" />
    <path
       d="m 319.25384,721.5345 3.7675,-14.0625 -7.53625,0 3.76875,14.0625 z"
       style="fill:none;stroke:#000000;stroke-width:0.9375;stroke-linecap:round;stroke-linejoin:round;stroke-miterlimit:10;stroke-dasharray:none;stroke-opacity:1"
       id="path4181"
       transform="translate(-145.18892,-314.34618)" />
    <path
       d="M 319.25384,632.2755 356.79759,562.393"
       style="fill:none;stroke:#000000;stroke-width:1.5625;stroke-linecap:round;stroke-linejoin:round;stroke-miterlimit:10;stroke-dasharray:none;stroke-opacity:1"
       id="path22635"
       transform="translate(-145.18892,-314.34618)" />
    <path
       d="m 284.64809,593.148 0,0 c 24.03075,-17.76625 50.24325,-28.3875 72.15075,-30.75625"
       style="fill:none;stroke:#000000;stroke-width:0.9375;stroke-linecap:round;stroke-linejoin:round;stroke-miterlimit:10;stroke-dasharray:none;stroke-opacity:1"
       id="path22649"
       transform="translate(-145.18892,-314.34618)" />
    <path
       d="m 319.25384,512.44925 0,119.82625"
       style="fill:none;stroke:#000000;stroke-width:0.9375;stroke-linecap:round;stroke-linejoin:round;stroke-miterlimit:10;stroke-dasharray:none;stroke-opacity:1"
       id="path22677"
       transform="translate(-145.18892,-314.34618)" />
    <path
       d="m 418.71384,591.96675 c 0,-1.525 -0.4775,-3.00375 -1.7025,-3.00375 -2.0925,0 -4.31875,4.37875 -4.31875,7.66625 0,0.6875 0.14875,3.00375 1.71875,3.00375 2.03125,0 4.3025,-4.27375 4.3025,-7.66625 z m -4.5275,2.10625 c 0.225,-0.88125 0.53875,-2.13625 1.13625,-3.1975 0.4925,-0.89625 1.01625,-1.61375 1.67375,-1.61375 0.4925,0 0.82125,0.41875 0.82125,1.8525 0,0.53875 -0.045,1.285 -0.47875,2.95875 l -3.1525,0 z m 3.04875,0.44875 c -0.37375,1.465 -0.6875,2.40625 -1.225,3.3475 -0.43375,0.7625 -0.95625,1.465 -1.585,1.465 -0.4625,0 -0.83625,-0.35875 -0.83625,-1.83875 0,-0.97125 0.23875,-1.9875 0.47875,-2.97375 l 3.1675,0"
       style="fill:#000000;fill-opacity:1;fill-rule:nonzero;stroke:none"
       id="path22667"
       transform="translate(-145.18892,-314.34618)" />
    <path
       d="m 411.53509,617.603 c 0,-16.7975 -4.7975,-31.75 -13.13875,-43.84125"
       style="display:inline;fill:none;stroke:#000000;stroke-width:0.9375;stroke-linecap:round;stroke-linejoin:round;stroke-miterlimit:10;stroke-dasharray:none;stroke-opacity:1"
       id="path22665"
       transform="translate(-145.18892,-314.34618)" />
    <path
       d="m 417.29009,624.1355 c 0,-0.49375 0.105,-2.87 1.85375,-2.87 -0.21,0.165 -0.31375,0.41875 -0.31375,0.6875 0,0.6125 0.4925,0.8675 0.86625,0.8675 0.37375,0 0.86625,-0.255 0.86625,-0.8675 0,-0.76125 -0.77625,-1.18 -1.49375,-1.18 -1.18,0 -1.68875,1.03 -1.8975,1.65875 l -0.015,0 0,-1.65875 -2.45125,0.11875 0,0.64375 c 0.92625,0 1.03125,0 1.03125,0.5825 l 0,4.73625 -1.03125,0 0,0.64375 3.88625,0 0,-0.64375 -1.30125,0 0,-2.71875"
       style="display:inline;fill:#000000;fill-opacity:1;fill-rule:nonzero;stroke:none"
       id="path4173"
       transform="translate(-145.18892,-314.34618)" />
    <path
       d="m 284.64809,593.148 0,0 c 50.96575,-8.10375 107.7745,2.845 126.887,24.455 2.05,2.3175 3.58375,4.66375 4.62375,7.015"
       style="display:inline;fill:none;stroke:#000000;stroke-width:0.3125;stroke-linecap:round;stroke-linejoin:round;stroke-miterlimit:10;stroke-dasharray:none;stroke-opacity:1"
       id="path4199"
       transform="translate(-145.18892,-314.34618)" />
    <path
       d="m 411.53509,617.603 c 0,49.29625 -41.31625,95.828 -92.28125,103.9315 -50.96563,8.10362 -92.28163,-25.29 -92.28163,-74.58638 0,-49.29637 41.316,-95.82762 92.28163,-103.93137 50.965,-8.10375 92.28125,25.28875 92.28125,74.58625 z"
       style="display:inline;fill:none;stroke:#000000;stroke-width:0.3125;stroke-linecap:round;stroke-linejoin:round;stroke-miterlimit:10;stroke-dasharray:none;stroke-opacity:1"
       id="path4197"
       transform="translate(-145.18892,-314.34618)" />
    <path
       d="m 319.25384,721.5345 3.7675,-14.0625 -7.53625,0 3.76875,14.0625"
       style="display:inline;fill:#000000;fill-opacity:1;fill-rule:nonzero;stroke:none"
       id="path4179"
       transform="translate(-145.18892,-314.34618)" />
    <path
       d="m 319.25384,707.472 0,-75.1965"
       style="display:inline;fill:none;stroke:#000000;stroke-width:0.9375;stroke-linecap:round;stroke-linejoin:round;stroke-miterlimit:10;stroke-dasharray:none;stroke-opacity:1"
       id="path4177"
       transform="translate(-145.18892,-314.34618)" />
    <path
       d="m 411.53509,617.603 -14.47875,-1.51375 1.1825,7.4425 13.29625,-5.92875"
       style="display:inline;fill:#000000;fill-opacity:1;fill-rule:nonzero;stroke:none"
       id="path4169"
       transform="translate(-145.18892,-314.34618)" />
    <path
       d="m 411.53509,617.603 -14.47875,-1.51375 1.1825,7.4425 13.29625,-5.92875 z"
       style="display:inline;fill:none;stroke:#000000;stroke-width:0.9375;stroke-linecap:round;stroke-linejoin:round;stroke-miterlimit:10;stroke-dasharray:none;stroke-opacity:1"
       id="path4171"
       transform="translate(-145.18892,-314.34618)" />
    <path
       d="m 397.64759,619.8105 -78.39375,12.465"
       style="display:inline;fill:none;stroke:#000000;stroke-width:0.9375;stroke-linecap:round;stroke-linejoin:round;stroke-miterlimit:10;stroke-dasharray:none;stroke-opacity:1"
       id="path4167"
       transform="translate(-145.18892,-314.34618)" />
    <path
       d="m 284.64809,593.148 6.49412,13.03 5.645,-4.9925 -12.13912,-8.0375"
       style="display:inline;fill:#000000;fill-opacity:1;fill-rule:nonzero;stroke:none"
       id="path4189"
       transform="translate(-145.18892,-314.34618)" />
    <path
       d="m 284.64809,593.148 6.49412,13.03 5.645,-4.9925 -12.13912,-8.0375 z"
       style="display:inline;fill:none;stroke:#000000;stroke-width:0.9375;stroke-linecap:round;stroke-linejoin:round;stroke-miterlimit:10;stroke-dasharray:none;stroke-opacity:1"
       id="path4191"
       transform="translate(-145.18892,-314.34618)" />
    <path
       d="m 293.96447,603.68175 25.28937,28.59375"
       style="display:inline;fill:none;stroke:#000000;stroke-width:0.9375;stroke-linecap:round;stroke-linejoin:round;stroke-miterlimit:10;stroke-dasharray:none;stroke-opacity:1"
       id="path4187"
       transform="translate(-145.18892,-314.34618)" />
    <path
       d="m 278.41459,600.78675 1.70363,0 0,-0.6425 -1.77826,0 0,-1.54 c 0,-1.55375 0.98625,-1.7925 1.47951,-1.7925 0.16449,0 0.19424,0.015 0.28412,0.045 -0.22413,0.14875 -0.35887,0.4025 -0.35887,0.71625 0,0.59875 0.47849,0.8675 0.86674,0.8675 0.32901,0 0.86663,-0.22375 0.86663,-0.88125 0,-0.6125 -0.53762,-1.24125 -1.59863,-1.24125 -1.35987,0 -3.019,0.5675 -3.019,2.3025 l 0,1.52375 -1.1055,0 0,0.6425 1.1055,0 0,5.35 -1.03074,0 0,0.6425 3.88524,0 0,-0.6425 -1.30037,0 0,-5.35"
       style="display:inline;fill:#000000;fill-opacity:1;fill-rule:nonzero;stroke:none"
       id="path4193"
       transform="translate(-145.18892,-314.34618)" />
    <path
       d="m 284.64809,593.148 0,0 c -50.96588,8.10375 -76.78813,32.19125 -57.67588,53.80012 2.04988,2.31788 4.53326,4.51325 7.397,6.57525"
       style="display:inline;fill:none;stroke:#000000;stroke-width:0.3125;stroke-linecap:round;stroke-linejoin:round;stroke-miterlimit:10;stroke-dasharray:none;stroke-opacity:1"
       id="path4201"
       transform="translate(-145.18892,-314.34618)" />
  </g>
</svg>
