<?xml version="1.0" encoding="UTF-8" standalone="no"?>
<svg
   xmlns:dc="http://purl.org/dc/elements/1.1/"
   xmlns:cc="http://creativecommons.org/ns#"
   xmlns:rdf="http://www.w3.org/1999/02/22-rdf-syntax-ns#"
   xmlns:svg="http://www.w3.org/2000/svg"
   xmlns="http://www.w3.org/2000/svg"
   version="1.1"
   id="svg2"
   viewBox="0 0 504.86723 493.86612"
   height="13.938cm"
   width="14.248475cm">
  <metadata
     id="metadata7">
    <rdf:RDF>
      <cc:Work
         rdf:about="">
        <dc:format>image/svg+xml</dc:format>
        <dc:type
           rdf:resource="http://purl.org/dc/dcmitype/StillImage" />
        <dc:title></dc:title>
      </cc:Work>
    </rdf:RDF>
  </metadata>
  <g
     id="g13380"
     transform="translate(-127.56639,-274.00054)"
     style="display:inline">
    <path
       id="path13390"
       transform="translate(127.56639,274.00054)"
       d="m 249.51172,35.414062 c -1.82617,0.0293 -3.65333,0.06445 -5.48438,0.09375 -6.00586,0.38575 -12.01562,0.765625 -18.02148,1.146485 -6.01075,0.92774 -12.01659,1.861322 -18.02734,2.789062 -5.94726,1.46972 -11.89942,2.934567 -17.85157,4.404297 l -17.50586,5.976563 c -5.66407,2.49511 -11.32812,4.995104 -16.99218,7.490234 -5.43946,2.97851 -10.87305,5.957037 -16.3125,8.935547 -5.16114,3.43262 -10.3174,6.865229 -15.47852,10.292969 -4.83399,3.85254 -9.66406,7.705064 -14.49805,11.552734 -4.45801,4.2334 -8.91114,8.465819 -13.369137,12.699217 -4.04298,4.5752 -8.08106,9.15138 -12.119141,13.72656 -3.58399,4.86816 -7.167963,9.74025 -10.751953,14.61329 -0.88378,1.45508 -1.7666,2.90624 -2.65039,4.36132 -3.23731,5.36621 -6.479497,10.73145 -9.716797,16.09766 -2.69531,5.57617 -5.390628,11.15332 -8.085938,16.73437 -2.12403,5.73242 -4.243167,11.46388 -6.367187,17.20118 -1.53322,5.83496 -3.062503,11.66991 -4.595703,17.50976 -0.64942,2.63183 -1.29395,5.26465 -1.94336,7.89649 -0.95704,6.09375 -1.91309,12.1875 -2.875,18.28125 -0.31739,6.0791 -0.639651,12.16308 -0.957031,18.24218 -0.005,3.06641 -0.01172,6.13282 -0.01172,9.19922 l 0.002,0 0.980468,18.48633 c 0.98143,6.03028 1.963873,12.05958 2.945313,18.08985 0.70801,3.23243 1.41113,6.46484 2.11914,9.69726 1.65039,5.92773 3.294923,11.85645 4.945313,17.7793 2.28515,5.67871 4.576168,11.35643 6.861328,17.03515 1.39649,3.125 2.787104,6.25098 4.183594,9.38086 l 8.746094,16.20117 c 3.510729,5.03907 7.015624,10.08302 10.521484,15.12696 l 12.1875,13.91601 c 4.58496,4.18457 9.166014,8.37402 13.746103,12.5586 5.05371,3.70117 10.10643,7.39746 15.16015,11.09375 5.47851,3.16895 10.95702,6.33788 16.43554,9.51172 5.84961,2.6123 11.70508,5.2246 17.55469,7.84179 6.16699,2.03125 12.3291,4.0625 18.49609,6.09375 6.4209,1.43066 12.84669,2.86036 19.26758,4.29102 l 19.84765,2.44726 c 6.74805,0.19042 13.4961,0.38574 20.24415,0.57618 6.81153,-0.43457 13.62403,-0.86425 20.43555,-1.29883 l 20.43359,-3.16406 c 6.74805,-1.66015 13.49611,-3.32521 20.24415,-4.99024 6.61622,-2.26075 13.2334,-4.5166 19.8496,-6.77734 6.42091,-2.83203 12.84668,-5.66408 19.26757,-8.4961 6.16699,-3.37891 12.32911,-6.75391 18.4961,-10.13281 5.84961,-3.89161 11.70312,-7.78223 17.55273,-11.67383 l 16.43555,-13.0957 15.16211,-14.40039 c 4.58007,-5.18554 9.15918,-10.375 13.74414,-15.56055 4.0625,-5.52246 8.125,-11.0498 12.1875,-16.57226 3.50586,-5.81054 7.0127,-11.61719 10.52344,-17.42774 2.91504,-6.03515 5.8291,-12.07421 8.74414,-18.10937 2.2998,-6.20605 4.59961,-12.41309 6.89453,-18.61914 1.66016,-6.31836 3.31641,-12.63672 4.97656,-18.95508 0.9961,-6.36719 1.99707,-12.7334 2.99805,-19.0957 0.33691,-6.35254 0.67382,-12.70507 1.00586,-19.0625 -0.33204,-6.27929 -0.66895,-12.56348 -1.00586,-18.84766 -1.00098,-6.14746 -2.00195,-12.2959 -2.99805,-18.44336 -1.66015,-5.95703 -3.3164,-11.9082 -4.97656,-17.86523 -2.29492,-5.70801 -4.59473,-11.41114 -6.89453,-17.11915 l -8.74414,-16.20117 c -3.51074,-5.03907 -7.01758,-10.08301 -10.52344,-15.12695 -1.98241,-2.77344 -3.96388,-5.542 -5.94141,-8.31055 -4.04786,-4.61914 -8.0918,-9.23338 -12.13476,-13.84765 -2.46094,-2.270493 -4.92188,-4.545899 -7.38282,-6.816409 -4.49219,-4.10645 -8.98437,-8.213883 -13.47656,-12.320313 -4.95605,-3.62794 -9.91113,-7.250966 -14.86719,-10.878906 -2.70508,-1.58202 -5.41601,-3.16796 -8.12109,-4.75 -5.23926,-3.03711 -10.48242,-6.070312 -15.72656,-9.107422 -5.5957,-2.5 -11.1963,-5 -16.79688,-7.5 -5.89844,-1.94824 -11.80273,-3.890624 -17.70117,-5.833984 -2.48535,-0.7373 -4.96973,-1.474607 -7.45508,-2.216797 -5.93262,-1.31836 -11.86621,-2.642578 -17.79882,-3.960938 -6.11327,-0.75684 -12.22657,-1.507805 -18.33985,-2.259765 -6.23535,-0.18067 -12.46484,-0.357413 -18.69531,-0.533204 z"
       style="fill:#7f7f7f;fill-opacity:0.125;fill-rule:nonzero;stroke:none" />
  </g>
  <g
     style="display:inline"
     id="layer1">
    <path
       id="path13390-3"
       d="m 249.51172,35.414062 c -1.82617,0.0293 -3.65333,0.06445 -5.48438,0.09375 -6.00586,0.385751 -12.01562,0.765625 -18.02148,1.146485 -6.01075,0.92774 -12.01659,1.861322 -18.02734,2.789062 -5.94726,1.46972 -11.89942,2.934567 -17.85157,4.404297 l -17.50586,5.976563 c -5.66407,2.49511 -11.32812,4.995104 -16.99218,7.490234 -5.43946,2.97851 -10.87305,5.957037 -16.3125,8.935547 -5.16114,3.43262 -10.3174,6.865229 -15.47852,10.292969 -4.83399,3.85254 -9.66406,7.705064 -14.49805,11.552734 -4.45801,4.2334 -8.91114,8.465821 -13.369137,12.699217 -4.04298,4.5752 -8.08106,9.15138 -12.119141,13.72656 -3.58399,4.86816 -7.167963,9.74025 -10.751953,14.61329 -0.88378,1.45508 -1.7666,2.90624 -2.65039,4.36132 -3.23731,5.36621 -6.479497,10.73145 -9.716797,16.09766 -2.69531,5.57617 -5.390628,11.15332 -8.085938,16.73437 -2.12403,5.73242 -4.243167,11.46388 -6.367187,17.20118 -1.53322,5.83496 -3.062503,11.66991 -4.595703,17.50976 -0.64942,2.63183 -1.29395,5.26465 -1.94336,7.89649 -0.95704,6.09375 -1.91309,12.1875 -2.875,18.28125 -0.31739,6.0791 -0.639651,12.16308 -0.957031,18.24218 -0.005,3.06641 -0.0098,6.13282 -0.0098,9.19922 l 0.980468,18.48633 c 0.98143,6.03028 1.963873,12.05957 2.945313,18.08985 0.70801,3.23243 1.41113,6.46484 2.11914,9.69726 1.65039,5.92773 3.294923,11.85645 4.945313,17.7793 2.28515,5.67871 4.576168,11.35643 6.861328,17.03515 1.39649,3.125 2.787104,6.25098 4.183594,9.38086 -2.29981,-5.70801 -4.59961,-11.41113 -6.894532,-17.11914 -1.660148,-5.95703 -3.314449,-11.91014 -4.974609,-17.86719 -0.99609,-6.14746 -1.997057,-12.29394 -2.998047,-18.4414 -0.33691,-6.28418 -0.673839,-12.56836 -1.005859,-18.84766 0.33202,-6.35742 0.668939,-12.70996 1.005859,-19.0625 1.00099,-6.3623 2.001957,-12.73046 2.998047,-19.09765 1.66016,-6.31836 3.314459,-12.63672 4.974609,-18.95508 2.294921,-6.20605 4.594722,-12.41114 6.894532,-18.61719 2.91504,-6.03516 5.831054,-12.07618 8.746094,-18.11133 3.510729,-5.81055 7.015624,-11.61524 10.521484,-17.42578 4.0625,-5.52247 8.125,-11.0498 12.1875,-16.57226 4.58496,-5.18555 9.16602,-10.37695 13.746093,-15.5625 l 15.16015,-14.39844 16.43555,-13.09571 c 5.84961,-3.8916 11.70508,-7.784176 17.55469,-11.675776 6.16699,-3.3789 12.3291,-6.75195 18.49609,-10.13086 6.4209,-2.83202 12.84669,-5.664063 19.26758,-8.496093 6.61621,-2.26075 13.23144,-4.516604 19.84766,-6.777344 6.74805,-1.66503 13.49609,-3.330073 20.24414,-4.990235 l 20.43555,-3.164062 c 6.81152,-0.43456 13.62208,-0.864258 20.4336,-1.298828 6.74804,0.19042 13.4961,0.385742 20.24414,0.576172 l 19.84961,2.445312 c 6.4209,1.43066 12.84667,2.862309 19.26756,4.292969 6.16699,2.03125 12.32912,4.0625 18.49611,6.09375 5.8496,2.61719 11.70312,5.229497 17.55273,7.841797 5.47852,3.17382 10.95704,6.342769 16.43554,9.511719 5.05372,3.69629 10.10841,7.39258 15.16211,11.09375 4.58007,4.184569 9.15918,8.374029 13.74414,12.558589 l 12.1875,13.91602 c -1.98241,-2.77344 -3.96388,-5.542 -5.94141,-8.31055 -4.04786,-4.61914 -8.0918,-9.23338 -12.13476,-13.84765 -2.46093,-2.270496 -4.92187,-4.545899 -7.38281,-6.816409 -4.49219,-4.10645 -8.98437,-8.213883 -13.47656,-12.320313 -4.95605,-3.62794 -9.91114,-7.250966 -14.86719,-10.878906 -2.70508,-1.58202 -5.41601,-3.16796 -8.12109,-4.75 -5.23926,-3.03711 -10.48242,-6.070312 -15.72656,-9.107422 -5.5957,-2.5 -11.1963,-5 -16.79688,-7.5 -5.89844,-1.94824 -11.80273,-3.890624 -17.70117,-5.833984 -2.48535,-0.7373 -4.96973,-1.474607 -7.45508,-2.216797 -5.93262,-1.31836 -11.86622,-2.642578 -17.79882,-3.960938 -6.11327,-0.75684 -12.22657,-1.507805 -18.33985,-2.259765 -6.23535,-0.18067 -12.46484,-0.357413 -18.69531,-0.533204 z"
       style="display:inline;fill:#7f7f7f;fill-opacity:0.125;fill-rule:nonzero;stroke:none" />
  </g>
  <g
     style="display:inline"
     id="layer2">
    <path
       d="m 586.6593,501.35361 -14.38875,-2.22125 0.81875,7.49125 13.57,-5.27 z"
       style="fill:none;stroke:#000000;stroke-width:0.9375;stroke-linecap:round;stroke-linejoin:round;stroke-miterlimit:10;stroke-dasharray:none;stroke-opacity:1"
       id="path22603"
       transform="translate(-127.56639,-274.00054)" />
    <path
       d="m 593.72805,501.35361 c 0,-0.49375 0.105,-2.87 1.8525,-2.87 -0.20875,0.16375 -0.31375,0.41875 -0.31375,0.6875 0,0.6125 0.49375,0.8675 0.8675,0.8675 0.3725,0 0.86625,-0.255 0.86625,-0.8675 0,-0.7625 -0.7775,-1.18 -1.49375,-1.18 -1.18125,0 -1.68875,1.03 -1.89875,1.65875 l -0.015,0 0,-1.65875 -2.45,0.11875 0,0.6425 c 0.92625,0 1.03125,0 1.03125,0.5825 l 0,4.7375 -1.03125,0 0,0.6425 3.885,0 0,-0.6425 -1.3,0 0,-2.71875"
       style="fill:#000000;fill-opacity:1;fill-rule:nonzero;stroke:none"
       id="path22605"
       transform="translate(-127.56639,-274.00054)" />
    <path
       d="m 586.6593,501.35361 -14.38875,-2.22125 0.81875,7.49125 13.57,-5.27"
       style="fill:#000000;fill-opacity:1;fill-rule:nonzero;stroke:none"
       id="path22601"
       transform="translate(-127.56639,-274.00054)" />
    <path
       d="m 572.68055,502.87736 -194.54,21.22625"
       style="fill:none;stroke:#000000;stroke-width:0.9375;stroke-linecap:round;stroke-linejoin:round;stroke-miterlimit:10;stroke-dasharray:none;stroke-opacity:1"
       id="path22599"
       transform="translate(-127.56639,-274.00054)" />
    <path
       d="m 586.6593,501.35361 c 0,106.80313 -93.35625,203.57075 -208.51875,216.13562 -115.161,12.56547 -208.51799,-63.82999 -208.51799,-170.63437 0,-106.80375 93.35699,-203.57125 208.51799,-216.13625 115.1625,-12.565 208.51875,63.83 208.51875,170.635 z"
       style="fill:none;stroke:#000000;stroke-width:0.3125;stroke-linecap:round;stroke-linejoin:round;stroke-miterlimit:10;stroke-dasharray:none;stroke-opacity:1"
       id="path22627"
       transform="translate(-127.56639,-274.00054)" />
    <path
       d="m 378.14055,703.42673 0,-179.32312"
       style="fill:none;stroke:#000000;stroke-width:0.9375;stroke-linecap:round;stroke-linejoin:round;stroke-miterlimit:10;stroke-dasharray:none;stroke-opacity:1"
       id="path22609"
       transform="translate(-127.56639,-274.00054)" />
    <path
       d="m 333.00055,445.30111 45.14,78.8025"
       style="fill:none;stroke:#000000;stroke-width:0.9375;stroke-linecap:round;stroke-linejoin:round;stroke-miterlimit:10;stroke-dasharray:none;stroke-opacity:1"
       id="path22619"
       transform="translate(-127.56639,-274.00054)" />
    <path
       d="m 326.0118,433.09861 0,0 c 0,106.80375 23.33875,234.13038 52.12875,284.39062"
       style="fill:none;stroke:#000000;stroke-width:0.3125;stroke-linecap:round;stroke-linejoin:round;stroke-miterlimit:10;stroke-dasharray:none;stroke-opacity:1"
       id="path22631"
       transform="translate(-127.56639,-274.00054)" />
    <path
       d="m 472.0293,386.15111 -93.88875,137.9525"
       style="fill:none;stroke:#000000;stroke-width:0.9375;stroke-linecap:round;stroke-linejoin:round;stroke-miterlimit:10;stroke-dasharray:none;stroke-opacity:1"
       id="path22637"
       transform="translate(-127.56639,-274.00054)" />
    <path
       d="M 378.14055,524.10361 169.62256,546.85486"
       style="fill:none;stroke:#808080;stroke-width:0.41249999;stroke-linecap:round;stroke-linejoin:round;stroke-miterlimit:10;stroke-dasharray:none;stroke-opacity:1"
       id="path22607"
       transform="translate(-127.56639,-274.00054)" />
    <path
       d="m 378.14055,524.10361 0,-193.385"
       style="fill:none;stroke:#808080;stroke-width:0.41249999;stroke-linecap:round;stroke-linejoin:round;stroke-miterlimit:10;stroke-dasharray:none;stroke-opacity:1"
       id="path22617"
       transform="translate(-127.56639,-274.00054)" />
    <path
       d="m 367.71555,505.90236 0,0 c 10.85875,-7.2275 22,-11.23875 30.78625,-11.715"
       style="fill:none;stroke:#000000;stroke-width:0.625;stroke-linecap:round;stroke-linejoin:round;stroke-miterlimit:10;stroke-dasharray:none;stroke-opacity:1"
       id="path22647"
       transform="translate(-127.56639,-274.00054)" />
    <path
       d="m 385.82805,489.20486 c 0,-1.45 -0.82125,-2.81 -2.40625,-2.81 -1.9575,0 -3.915,2.1375 -3.915,4.26 0,1.29875 0.8075,2.48 2.33125,2.48 0.92625,0 2.0325,-0.35875 3.0925,-1.255 0.21,0.83625 0.67375,1.255 1.31625,1.255 0.8075,0 1.21,-0.8375 1.21,-1.03125 0,-0.13375 -0.10375,-0.13375 -0.14875,-0.13375 -0.12,0 -0.135,0.0438 -0.18,0.16375 -0.135,0.37375 -0.4775,0.7025 -0.83625,0.7025 -0.46375,0 -0.46375,-0.95625 -0.46375,-1.86875 1.525,-1.8225 1.8825,-3.70625 1.8825,-3.72 0,-0.135 -0.11875,-0.135 -0.16375,-0.135 -0.135,0 -0.15,0.045 -0.21,0.31375 -0.19375,0.6575 -0.5825,1.82375 -1.50875,3.04875 l 0,-1.27 z m -0.94125,2.31625 c -1.315,1.18 -2.49625,1.315 -3.01875,1.315 -1.06125,0 -1.36,-0.94125 -1.36,-1.64375 0,-0.6425 0.32875,-2.1675 0.7925,-2.98875 0.6125,-1.04625 1.45,-1.51 2.12125,-1.51 1.45,0 1.45,1.89875 1.45,3.15375 0,0.37375 -0.015,0.7625 -0.015,1.135 0,0.3 0.015,0.37375 0.03,0.53875"
       style="fill:#000000;fill-opacity:1;fill-rule:nonzero;stroke:none"
       id="path22649"
       transform="translate(-127.56639,-274.00054)" />
    <path
       d="m 326.0118,433.09861 3.72,14.07625 6.53875,-3.74625 -10.25875,-10.33 z"
       style="fill:none;stroke:#000000;stroke-width:0.9375;stroke-linecap:round;stroke-linejoin:round;stroke-miterlimit:10;stroke-dasharray:none;stroke-opacity:1"
       id="path22623"
       transform="translate(-127.56639,-274.00054)" />
    <path
       d="m 319.77805,440.73736 1.70375,0 0,-0.6425 -1.77875,0 0,-1.53875 c 0,-1.555 0.98625,-1.79375 1.48,-1.79375 0.16375,0 0.19375,0.015 0.28375,0.045 -0.22375,0.14875 -0.35875,0.4025 -0.35875,0.7175 0,0.5975 0.47875,0.86625 0.86625,0.86625 0.33,0 0.8675,-0.22375 0.8675,-0.88125 0,-0.6125 -0.5375,-1.24125 -1.59875,-1.24125 -1.36,0 -3.02,0.56875 -3.02,2.3025 l 0,1.52375 -1.105,0 0,0.6425 1.105,0 0,5.35 -1.03,0 0,0.6425 3.885,0 0,-0.6425 -1.3,0 0,-5.35"
       style="fill:#000000;fill-opacity:1;fill-rule:nonzero;stroke:none"
       id="path22625"
       transform="translate(-127.56639,-274.00054)" />
    <path
       d="m 479.9418,374.52486 -135.73375,90.34 158.29125,-17.27125"
       style="fill:none;stroke:#000000;stroke-width:0.625;stroke-linecap:round;stroke-linejoin:round;stroke-miterlimit:10;stroke-dasharray:4.95815, 4.95815;stroke-dashoffset:0;stroke-opacity:1"
       id="path22651"
       transform="translate(-127.56639,-274.00054)" />
    <path
       d="m 326.0118,433.09861 3.72,14.07625 6.53875,-3.74625 -10.25875,-10.33"
       style="fill:#000000;fill-opacity:1;fill-rule:nonzero;stroke:none"
       id="path22621"
       transform="translate(-127.56639,-274.00054)" />
    <path
       d="m 326.0118,433.09861 0,0 c 54.29875,-36.13875 110,-56.19625 153.93125,-58.57625"
       style="fill:none;stroke:#000000;stroke-width:0.625;stroke-linecap:round;stroke-linejoin:round;stroke-miterlimit:10;stroke-dasharray:none;stroke-opacity:1"
       id="path22645"
       transform="translate(-127.56639,-274.00054)" />
    <path
       d="m 379.97305,441.05986 c 3.77,5.40375 5.9375,11.97625 5.9375,19.255 l 0,0"
       style="fill:none;stroke:#000000;stroke-width:0.625;stroke-linecap:round;stroke-linejoin:round;stroke-miterlimit:10;stroke-dasharray:none;stroke-opacity:1"
       id="path22655"
       transform="translate(-127.56639,-274.00054)" />
    <path
       d="m 394.91305,447.81986 c 0,-1.52375 -0.4775,-3.00375 -1.7025,-3.00375 -2.0925,0 -4.32,4.37875 -4.32,7.66625 0,0.6875 0.15,3.00375 1.71875,3.00375 2.0325,0 4.30375,-4.27375 4.30375,-7.66625 z m -4.5275,2.1075 c 0.22375,-0.8825 0.53875,-2.1375 1.13625,-3.19875 0.4925,-0.89625 1.01625,-1.61375 1.67375,-1.61375 0.4925,0 0.82125,0.41875 0.82125,1.85375 0,0.5375 -0.045,1.285 -0.47875,2.95875 l -3.1525,0 z m 3.04875,0.44875 c -0.37375,1.46375 -0.6875,2.40625 -1.225,3.3475 -0.43375,0.76125 -0.95625,1.46375 -1.585,1.46375 -0.4625,0 -0.83625,-0.35875 -0.83625,-1.8375 0,-0.9725 0.23875,-1.9875 0.4775,-2.97375 l 3.16875,0"
       style="fill:#000000;fill-opacity:1;fill-rule:nonzero;stroke:none"
       id="path22657"
       transform="translate(-127.56639,-274.00054)" />
    <path
       d="m 326.0118,433.09861 0,0 c 115.16125,-12.565 231.8575,17.99375 260.6475,68.255"
       style="fill:none;stroke:#000000;stroke-width:0.3125;stroke-linecap:round;stroke-linejoin:round;stroke-miterlimit:10;stroke-dasharray:none;stroke-opacity:1"
       id="path22629"
       transform="translate(-127.56639,-274.00054)" />
    <path
       d="m 326.0118,433.09861 0,0 c -115.16175,12.565 -185.17975,63.49625 -156.38924,113.75625"
       style="fill:none;stroke:#000000;stroke-width:0.3125;stroke-linecap:round;stroke-linejoin:round;stroke-miterlimit:10;stroke-dasharray:none;stroke-opacity:1"
       id="path22633"
       transform="translate(-127.56639,-274.00054)" />
    <path
       d="m 326.0118,433.09861 0,0 c 0,-106.80375 23.33875,-152.64 52.12875,-102.38"
       style="fill:none;stroke:#000000;stroke-width:0.3125;stroke-linecap:round;stroke-linejoin:round;stroke-miterlimit:10;stroke-dasharray:none;stroke-opacity:1"
       id="path22635"
       transform="translate(-127.56639,-274.00054)" />
    <path
       d="m 479.9418,374.52486 -11.0275,9.50625 6.23,4.24 4.7975,-13.74625 z"
       style="fill:none;stroke:#000000;stroke-width:0.9375;stroke-linecap:round;stroke-linejoin:round;stroke-miterlimit:10;stroke-dasharray:none;stroke-opacity:1"
       id="path22641"
       transform="translate(-127.56639,-274.00054)" />
    <path
       d="m 480.00055,356.77236 -2.28625,1.8975 0.38875,0.5075 1.8975,-1.27 1.8825,1.27 0.38875,-0.5075 -2.27125,-1.8975 z m -0.485,12.6275 -1.03125,0 0,-2.87 c 0.37375,0.33 1.03125,0.7025 1.9275,0.7025 2.0475,0 3.64625,-1.24 3.64625,-3.42125 0,-2.0625 -1.39,-3.3925 -3.40625,-3.3925 -0.8825,0 -1.645,0.29875 -2.2425,0.77625 l 0,-0.77625 -2.585,0.11875 0,0.64375 c 0.92625,0 1.03125,0 1.03125,0.5825 l 0,7.63625 -1.03125,0 0,0.6425 3.69125,0 0,-0.6425 z m -1.03125,-7.4875 c 0.5525,-0.7175 1.345,-0.95625 1.9275,-0.95625 0.97125,0 1.85375,0.88125 1.85375,2.855 0,2.16625 -1.07625,2.92875 -2.0325,2.92875 -0.6425,0 -1.285,-0.32875 -1.74875,-1.03125 l 0,-3.79625"
       style="fill:#000000;fill-opacity:1;fill-rule:nonzero;stroke:none"
       id="path22643"
       transform="translate(-127.56639,-274.00054)" />
    <path
       d="m 479.9618,374.51111 c 14.30875,20.50875 22.5375,45.45625 22.5375,73.0825 l 0,0"
       style="fill:none;stroke:#000000;stroke-width:0.625;stroke-linecap:round;stroke-linejoin:round;stroke-miterlimit:10;stroke-dasharray:none;stroke-opacity:1"
       id="path22653"
       transform="translate(-127.56639,-274.00054)" />
    <path
       d="m 479.9418,374.52486 -11.0275,9.50625 6.23,4.24 4.7975,-13.74625"
       style="fill:#000000;fill-opacity:1;fill-rule:nonzero;stroke:none"
       id="path22639"
       transform="translate(-127.56639,-274.00054)" />
    <path
       d="m 378.14055,717.48923 3.76875,-14.0625 -7.53625,0 3.7675,14.0625"
       style="fill:#000000;fill-opacity:1;fill-rule:nonzero;stroke:none"
       id="path22611"
       transform="translate(-127.56639,-274.00054)" />
    <path
       d="m 378.14055,717.48923 3.76875,-14.0625 -7.53625,0 3.7675,14.0625 z"
       style="fill:none;stroke:#000000;stroke-width:0.9375;stroke-linecap:round;stroke-linejoin:round;stroke-miterlimit:10;stroke-dasharray:none;stroke-opacity:1"
       id="path22613"
       transform="translate(-127.56639,-274.00054)" />
    <path
       d="m 378.6418,722.0923 0,0.64259 c 0.92625,0 1.03125,0 1.03125,0.58251 l 0,3.01905 c -0.32875,-0.28419 -0.98625,-0.71729 -2.0175,-0.71729 -2.1225,0 -3.63125,1.31494 -3.63125,3.40722 0,2.13672 1.47875,3.40723 3.46625,3.40723 0.8225,0 1.525,-0.28418 2.1075,-0.77734 l 0,0.77734 2.66,-0.0898 0,-0.64258 c -0.92625,0 -1.03125,0 -1.03125,-0.583 l 0,-9.14552 -2.585,0.11963 z m 0.95625,8.74219 c -0.6275,0.91162 -1.39,1.10596 -1.9275,1.10596 -1.85375,0 -1.85375,-1.89795 -1.85375,-2.88428 0,-0.70263 0,-1.44971 0.32875,-2.01759 0.46375,-0.83691 1.345,-0.92626 1.68875,-0.92626 0.6125,0 1.27125,0.26904 1.76375,0.92626 l 0,3.79591"
       style="fill:#000000;fill-opacity:1;fill-rule:nonzero;stroke:none"
       id="path22615"
       transform="translate(-127.56639,-274.00054)" />
  </g>
</svg>
