<?xml version="1.0" encoding="UTF-8"?>
<svg width="14.382cm" height="13.485cm" version="1.1" viewBox="0 0 543.59 509.65" xml:space="preserve" xmlns="http://www.w3.org/2000/svg" xmlns:cc="http://creativecommons.org/ns#" xmlns:dc="http://purl.org/dc/elements/1.1/" xmlns:rdf="http://www.w3.org/1999/02/22-rdf-syntax-ns#"><metadata><rdf:RDF><cc:Work rdf:about=""><dc:format>image/svg+xml</dc:format><dc:type rdf:resource="http://purl.org/dc/dcmitype/StillImage"/><dc:title/></cc:Work></rdf:RDF></metadata><g transform="matrix(1.3333 0 0 -1.3333 37.795 471.86)" fill="#7f7f7f" fill-opacity=".125"><path transform="matrix(.75 0 0 -.75 0 325.55)" d="m233.21 56.535c-1.3646 0.0208-2.7292 0.04822-4.0938 0.07422-4.4948 0.28125-8.9857 0.56706-13.48 0.85352-4.4896 0.69271-8.9831 1.3913-13.473 2.084-4.4479 1.099-8.8965 2.1973-13.35 3.291-4.3594 1.4896-8.7246 2.9792-13.084 4.4688-4.2344 1.8698-8.4688 3.7337-12.703 5.6035-4.0677 2.224-8.1296 4.4538-12.197 6.6777-3.8594 2.5677-7.7129 5.1296-11.572 7.6973-3.6094 2.8802-7.2253 5.7565-10.84 8.6367-3.3281 3.1667-6.6608 6.3275-9.9941 9.4941-3.0208 3.4167-6.0417 6.8379-9.0625 10.26-2.6771 3.6406-5.3548 7.2819-8.0371 10.928-0.65626 1.0833-1.3171 2.1725-1.9785 3.2559-2.4219 4.0156-4.8438 8.0247-7.2656 12.035-2.0156 4.1719-4.0306 8.3398-6.041 12.512-1.5885 4.2865-3.1771 8.5729-4.7656 12.859-1.1406 4.3646-2.2878 8.7292-3.4336 13.094-0.48437 1.9635-0.96875 3.9316-1.4531 5.9004-0.71876 4.5573-1.4316 9.1087-2.1504 13.666-0.23957 4.5469-0.4733 9.0938-0.71289 13.641-0.0053 2.2917-0.0064 4.5833-0.01172 6.875 0.24479 4.6042 0.49024 9.2142 0.74024 13.818 0.72917 4.5104 1.4629 9.015 2.1973 13.525 0.52604 2.4167 1.0579 4.8333 1.584 7.25 1.2344 4.4323 2.4629 8.8607 3.6973 13.293 1.7083 4.2448 3.4225 8.4896 5.1309 12.734 1.0417 2.3385 2.0833 4.6764 3.125 7.0098 2.1823 4.0417 4.3587 8.0788 6.541 12.115 2.6198 3.7708 5.2454 7.5417 7.8652 11.312 1.4792 2.0677 2.9642 4.14 4.4434 6.2129 3.026 3.4479 6.0462 6.9017 9.0723 10.35l5.5156 5.0938c3.3594 3.0729 6.7187 6.14 10.078 9.2129 3.7031 2.7083 7.4121 5.4225 11.115 8.1309 2.026 1.1875 4.0456 2.3692 6.0664 3.5566 3.9219 2.2656 7.8398 4.5371 11.762 6.8027 4.1875 1.8698 8.3691 3.7396 12.557 5.6094 4.4115 1.4531 8.8229 2.905 13.234 4.3633 1.8594 0.54687 3.7129 1.1003 5.5723 1.6524 4.4375 0.98958 8.8711 1.9785 13.309 2.9629 4.5677 0.56772 9.1393 1.1308 13.707 1.6934 4.6614 0.13014 9.3242 0.26432 13.98 0.39454 1.3646-0.0208 2.7292-0.0463 4.0938-0.0723 4.4948-0.28124 8.9837-0.56706 13.479-0.85351 4.4896-0.69271 8.985-1.3913 13.475-2.084 4.4479-1.099 8.8945-2.1973 13.348-3.291 4.3594-1.4896 8.7246-2.9792 13.084-4.4688 4.2344-1.8698 8.4688-3.7357 12.703-5.6055 4.0677-2.224 8.1296-4.4518 12.197-6.6758 3.8594-2.5677 7.7148-5.1315 11.574-7.6992 3.6094-2.8802 7.2233-5.7546 10.838-8.6348 3.3281-3.1667 6.6608-6.3275 9.9941-9.4941 3.0208-3.4167 6.0417-6.8398 9.0625-10.262 2.6771-3.6406 5.3548-7.28 8.0371-10.926 0.65626-1.0833 1.317-2.1725 1.9785-3.2559 2.4219-4.0156 4.8437-8.0267 7.2656-12.037 2.0156-4.1719 4.0326-8.3379 6.043-12.51 1.5885-4.2865 3.1771-8.5729 4.7656-12.859 1.1406-4.3646 2.2858-8.7292 3.4316-13.094 0.48437-1.9636 0.96875-3.9316 1.4531-5.9004 0.71875-4.5573 1.4316-9.1107 2.1504-13.668 0.23959-4.5469 0.47527-9.0938 0.71485-13.641 5e-3 -2.2917 4e-3 -4.5833 0.01-6.875-0.2448-4.6042-0.49023-9.2122-0.74023-13.816-0.72917-4.5104-1.4629-9.0169-2.1973-13.527-0.52604-2.4167-1.0579-4.8333-1.584-7.25-1.2344-4.4323-2.4629-8.8587-3.6973-13.291-1.7083-4.2448-3.4225-8.4896-5.1309-12.734-1.0417-2.3386-2.0833-4.6764-3.125-7.0098-2.1823-4.0417-4.3587-8.0788-6.541-12.115-2.6198-3.7708-5.2454-7.5417-7.8652-11.312-1.4792-2.0677-2.9622-4.14-4.4414-6.2129-3.026-3.4479-6.0482-6.9017-9.0742-10.35-1.8386-1.6979-3.6771-3.3958-5.5156-5.0938-3.3594-3.0729-6.7188-6.14-10.078-9.2129-3.7031-2.7083-7.4102-5.4225-11.113-8.1309-2.026-1.1875-4.0475-2.3691-6.0684-3.5566-3.9219-2.2656-7.8379-4.5371-11.76-6.8027-4.1875-1.8698-8.3711-3.7396-12.559-5.6094-4.4114-1.4531-8.8229-2.9069-13.234-4.3652-1.8594-0.54688-3.7129-1.0983-5.5723-1.6504-4.4375-0.98959-8.8692-1.9785-13.307-2.9629-4.5677-0.56771-9.1413-1.1309-13.709-1.6934-4.6615-0.1302-9.3223-0.26622-13.979-0.39648z"/><path d="m174.9 283.15c-1.0234-0.0156-2.0469-0.0362-3.0703-0.0557-3.3711-0.21094-6.7393-0.4253-10.11-0.64014-3.3672-0.51953-6.7373-1.0435-10.104-1.563-3.3359-0.82422-6.6724-1.648-10.012-2.4683-3.2695-1.1172-6.5435-2.2344-9.813-3.3516-3.1758-1.4024-6.3516-2.8003-9.5274-4.2026-3.0508-1.668-6.0972-3.3403-9.1479-5.0083-2.8945-1.9258-5.7847-3.8472-8.6792-5.773-2.707-2.1602-5.419-4.3174-8.1299-6.4775-2.4961-2.375-4.9956-4.7456-7.4956-7.1206-2.2656-2.5625-4.5313-5.1284-6.7969-7.6948-2.0078-2.7305-4.0161-5.4614-6.0278-8.1958-0.4922-0.8125-0.9878-1.6294-1.4839-2.4419-1.8164-3.0117-3.6328-6.0186-5.4492-9.0264-1.5117-3.1289-3.023-6.2549-4.5308-9.3838-1.1914-3.2148-2.3828-6.4296-3.5742-9.6445-0.85547-3.2734-1.7158-6.5469-2.5752-9.8203-0.36328-1.4727-0.72656-2.9487-1.0898-4.4253-0.53907-3.418-1.0737-6.8315-1.6128-10.25-0.17968-3.4102-0.35498-6.8203-0.53467-10.23-4e-3 -1.7187-0.0048-3.4375-0.0088-5.1562 0.18359-3.4531 0.36768-6.9106 0.55518-10.364 0.54688-3.3828 1.0972-6.7612 1.6479-10.144 0.39453-1.8125 0.79346-3.625 1.188-5.4375 0.92578-3.3242 1.8472-6.6455 2.7729-9.9697 1.2813-3.1836 2.5669-6.3672 3.8481-9.5508 0.78126-1.7539 1.5625-3.5073 2.3438-5.2573 1.6367-3.0312 3.269-6.0591 4.9058-9.0864 1.9648-2.8281 3.9341-5.6563 5.8989-8.4844 1.1094-1.5508 2.2231-3.105 3.3325-4.6597 2.2695-2.586 4.5347-5.1763 6.8042-7.7622l4.1367-3.8203c2.5195-2.3047 5.0391-4.605 7.5586-6.9097 2.7773-2.0312 5.5591-4.0669 8.3364-6.0981 1.5195-0.89062 3.0342-1.7769 4.5498-2.6675 2.9414-1.6992 5.8799-3.4028 8.8213-5.1021 3.1406-1.4023 6.2769-2.8047 9.4175-4.207 3.3086-1.0898 6.6172-2.1787 9.9258-3.2725 1.3945-0.41016 2.7847-0.82521 4.1792-1.2393 3.3281-0.74218 6.6533-1.4839 9.9815-2.2222 3.4258-0.42579 6.8545-0.84814 10.28-1.27 3.4961-0.09761 6.9932-0.19824 10.485-0.2959 1.0234 0.0156 2.0469 0.03472 3.0703 0.05423 3.3711 0.21093 6.7378 0.4253 10.109 0.64013 3.3672 0.51953 6.7388 1.0435 10.106 1.563 3.3359 0.82422 6.6709 1.648 10.011 2.4683 3.2695 1.1172 6.5435 2.2344 9.813 3.3516 3.1758 1.4023 6.3516 2.8018 9.5274 4.2041 3.0508 1.668 6.0972 3.3389 9.148 5.0068 2.8945 1.9258 5.7861 3.8486 8.6807 5.7744 2.707 2.1602 5.4175 4.3159 8.1284 6.4761 2.4961 2.375 4.9956 4.7456 7.4956 7.1206 2.2656 2.5625 4.5312 5.1299 6.7969 7.6963 2.0078 2.7305 4.0161 5.46 6.0278 8.1943 0.4922 0.81249 0.98779 1.6294 1.4839 2.4419 1.8164 3.0117 3.6328 6.02 5.4492 9.0278 1.5117 3.1289 3.0244 6.2534 4.5322 9.3823 1.1914 3.2148 2.3828 6.4297 3.5742 9.6445 0.85546 3.2734 1.7144 6.5469 2.5737 9.8203 0.36328 1.4727 0.72656 2.9487 1.0898 4.4253 0.53906 3.418 1.0737 6.833 1.6128 10.251 0.17969 3.4102 0.35645 6.8203 0.53614 10.23 4e-3 1.7188 3e-3 3.4375 8e-3 5.1562-0.1836 3.4531-0.36767 6.9092-0.55517 10.362-0.54688 3.3828-1.0972 6.7627-1.648 10.146-0.39453 1.8125-0.79345 3.625-1.188 5.4375-0.92578 3.3242-1.8472 6.644-2.773 9.9683-1.2812 3.1836-2.5669 6.3672-3.8482 9.5508-0.78124 1.7539-1.5625 3.5073-2.3438 5.2573-1.6367 3.0312-3.269 6.0591-4.9058 9.0864-1.9648 2.8281-3.9341 5.6562-5.8989 8.4844-1.1094 1.5508-2.2217 3.105-3.331 4.6597-2.2695 2.5859-4.5361 5.1763-6.8057 7.7622-1.3789 1.2734-2.7578 2.5469-4.1367 3.8203-2.5195 2.3047-5.0391 4.605-7.5586 6.9097-2.7773 2.0312-5.5576 4.0669-8.335 6.0982-1.5195 0.89062-3.0356 1.7768-4.5513 2.6675-2.9414 1.6992-5.8784 3.4028-8.8198 5.102-3.1406 1.4023-6.2783 2.8047-9.419 4.207-3.3086 1.0898-6.6172 2.1802-9.9258 3.2739-1.3945 0.41016-2.7847 0.82373-4.1792 1.2378-3.3281 0.74219-6.6519 1.4839-9.98 2.2222-3.4258 0.42578-6.856 0.84814-10.282 1.27-3.4961 0.0976-6.9917 0.19966-10.484 0.29736z"/></g><g transform="translate(37.795 37.789)"><g fill="none" stroke="#000000" stroke-linecap="round" stroke-linejoin="round" stroke-miterlimit="10"><path transform="matrix(1.3333 0 0 -1.3333 0 434.07)" d="m0.125 143.64 350.75 38.269" stroke-width=".25"/><path transform="matrix(1.3333 0 0 -1.3333 0 434.07)" d="m175.5 325.42v-325.3" stroke-width=".25"/><path transform="matrix(1.3333 0 0 -1.3333 0 434.07)" d="m281.23 174.31-105.73-11.537" stroke-width=".75"/><path transform="matrix(1.3333 0 0 -1.3333 0 434.07)" d="m151.86 204.04 23.637-41.265" stroke-width=".75"/><path transform="matrix(1.3333 0 0 -1.3333 0 434.07)" d="m219.34 86.232-87.688 153.08" stroke-width=".25"/><path transform="matrix(1.3333 0 0 -1.3333 0 434.07)" d="m175.5 65.591v97.181" stroke-width=".75"/></g><path transform="matrix(1.3333 0 0 -1.3333 0 434.07)" d="m146.27 213.8 2.976-11.26 5.232 2.997-8.208 8.263" fill="#000000"/><path transform="matrix(1.3333 0 0 -1.3333 0 434.07)" d="m140.23 206.64h1.362v0.514h-1.422v1.231c0 1.244 0.789 1.435 1.183 1.435 0.132 0 0.156-0.012 0.228-0.036-0.18-0.119-0.287-0.323-0.287-0.574 0-0.478 0.382-0.693 0.693-0.693 0.263 0 0.693 0.179 0.693 0.705 0 0.49-0.43 0.993-1.279 0.993-1.087 0-2.415-0.455-2.415-1.842v-1.219h-0.884v-0.514h0.884v-4.28h-0.824v-0.514h3.108v0.514h-1.04v4.28" fill="#000000"/><path transform="matrix(1.3333 0 0 -1.3333 0 434.07)" d="m146.27 213.8 2.976-11.26 5.232 2.997z" fill="none" stroke="#000000" stroke-linecap="round" stroke-linejoin="round" stroke-miterlimit="10" stroke-width=".75"/><path transform="matrix(1.3333 0 0 -1.3333 0 434.07)" d="m167.23 64.806v-0.5141c0.742 0 0.825 0 0.825-0.466v-2.4152c-0.263 0.2273-0.789 0.5738-1.614 0.5738-1.697 0-2.905-1.052-2.905-2.7258 0-1.7094 1.184-2.7258 2.774-2.7258 0.657 0 1.219 0.2274 1.686 0.6219v-0.6219l2.127 0.0719v0.5141c-0.741 0-0.824 0-0.824 0.4664v7.3164zm0.766-6.9938c-0.503-0.7293-1.113-0.8847-1.543-0.8847-1.482 0-1.482 1.5183-1.482 2.3074 0 0.5621 0 1.1597 0.263 1.614 0.371 0.6696 1.076 0.7411 1.351 0.7411 0.49 0 1.016-0.2153 1.411-0.7411v-3.0367" fill="#000000"/><path transform="matrix(1.3333 0 0 -1.3333 0 434.07)" d="m146.27 213.8v0c0-59.885 13.086-131.28 29.229-159.46 16.143-28.181 29.229-2.4801 29.229 57.405" fill="none" stroke="#808080" stroke-linecap="round" stroke-linejoin="round" stroke-miterlimit="10" stroke-width=".33"/><path transform="matrix(1.3333 0 0 -1.3333 0 434.07)" d="m175.5 54.341 3.014 11.25h-6.028l3.014-11.25" fill="#000000"/><path transform="matrix(1.3333 0 0 -1.3333 0 434.07)" d="m175.5 54.341 3.014 11.25h-6.028z" fill="none" stroke="#000000" stroke-linecap="round" stroke-linejoin="round" stroke-miterlimit="10" stroke-width=".75"/><path transform="matrix(1.3333 0 0 -1.3333 0 434.07)" d="m292.42 175.53-11.511 1.776 0.654-5.993 10.857 4.217" fill="#000000"/><path transform="matrix(1.3333 0 0 -1.3333 0 434.07)" d="m292.42 175.53-11.511 1.776 0.654-5.993z" fill="none" stroke="#000000" stroke-linecap="round" stroke-linejoin="round" stroke-miterlimit="10" stroke-width=".75"/><path transform="matrix(1.3333 0 0 -1.3333 0 434.07)" d="m286.99 167.46c0 0.395 0.084 2.296 1.483 2.296-0.168-0.132-0.251-0.335-0.251-0.55 0-0.49 0.394-0.694 0.693-0.694s0.693 0.204 0.693 0.694c0 0.609-0.621 0.944-1.195 0.944-0.945 0-1.351-0.824-1.518-1.327h-0.012v1.327l-1.961-0.095v-0.515c0.741 0 0.825 0 0.825-0.466v-3.789h-0.825v-0.514h3.109v0.514h-1.041v2.175" fill="#000000"/><g fill="none" stroke="#808080" stroke-linecap="round" stroke-linejoin="round" stroke-miterlimit="10" stroke-width=".33"><path transform="matrix(1.3333 0 0 -1.3333 0 434.07)" d="m292.42 175.53c0-59.885-52.346-114.14-116.92-121.19s-116.92 35.79-116.92 95.675c0 59.885 52.346 114.14 116.92 121.19s116.92-35.79 116.92-95.675z"/><path transform="matrix(1.3333 0 0 -1.3333 0 434.07)" d="m146.27 213.8c64.571 7.045 130-10.089 146.15-38.27 16.142-28.181-23.117-56.738-87.688-63.783"/><path transform="matrix(1.3333 0 0 -1.3333 0 434.07)" d="m146.27 213.8c-64.571-7.045-103.83-35.602-87.688-63.783 16.143-28.182 81.575-45.316 146.15-38.27"/><path transform="matrix(1.3333 0 0 -1.3333 0 434.07)" d="m146.27 213.8c0 59.885 13.086 85.586 29.229 57.405s29.229-99.573 29.229-159.46"/></g></g></svg>
