<svg viewBox="0 0 16 16">
    <g transform="matrix(0.1104612,0,0,0.1104612,-1.8551055,-2.809287)">
        <path d="m 89.219,27.242924 0,0.002 0,-0.002 c -33.675,0 -61.172,9.053005 -61.172,20.294016 0,2.961003 7.343,45.415045 10.256,62.25106 1.306,7.551 20.818,18.621 50.9,18.621 l 0.031,-0.09 0,0.09 c 30.081,0 49.593,-11.07 50.899,-18.621 2.913,-16.836015 10.256,-59.290057 10.256,-62.25106 10e-4,-11.240011 -27.495,-20.294016 -61.17,-20.294016 z m 0,87.527076 c -10.739,0 -19.445,-8.707 -19.445,-19.445012 0,-10.740011 8.706,-19.44502 19.445,-19.44502 10.739,0 19.445,8.705009 19.445,19.44502 C 108.664,106.063 99.958,114.77 89.219,114.77 Z M 89.208,53.809946 c -21.636,-0.035 -39.169,-3.794004 -39.162,-8.398008 0.007,-4.604005 17.554,-8.307009 39.19,-8.272009 21.636,0.034 39.169,3.793004 39.162,8.398009 -0.008,4.605004 -17.554,8.306008 -39.19,8.272008 z"/>
        <path d="m 133.185,126.662 c -0.93,0 -1.675,0.658 -1.675,0.658 0,0 -15.064,11.929 -42.29,11.93 -27.227,-0.001 -42.29,-11.93 -42.29,-11.93 0,0 -0.746,-0.658 -1.675,-0.658 -1.111,0 -2.164,0.746 -2.164,2.393 0,0.174 0.017,0.348 0.049,0.518 2.338,12.514 4.046,21.393 4.346,22.744 2.041,9.205 20.048,16.151 41.733,16.152 l 0,0 0.001,0 0.001,0 0,0 c 21.686,-0.001 39.692,-6.947 41.733,-16.152 0.3,-1.352 2.008,-10.23 4.346,-22.744 0.032,-0.17 0.049,-0.344 0.049,-0.518 0,-1.647 -1.054,-2.393 -2.164,-2.393 z"/>
        <circle r="9.7449999" cy="95.319" cx="89.199997"/>
    </g>
</svg>
