<?xml version="1.0" encoding="UTF-8"?>
<svg width="11.159cm" height="6.6455cm" version="1.1" viewBox="0 0 43934 26163" xmlns="http://www.w3.org/2000/svg" xmlns:cc="http://creativecommons.org/ns#" xmlns:dc="http://purl.org/dc/elements/1.1/" xmlns:rdf="http://www.w3.org/1999/02/22-rdf-syntax-ns#">
  <metadata>
    <rdf:RDF>
      <cc:Work rdf:about="">
        <dc:format>image/svg+xml</dc:format>
        <dc:type rdf:resource="http://purl.org/dc/dcmitype/StillImage"/>
        <dc:title>SVG Picture created as sram-cell.svg date 2020/06/03 10:57:01</dc:title>
      </cc:Work>
    </rdf:RDF>
  </metadata>
  <title>SVG Picture created as sram-cell.svg date 2020/06/03 10:57:01</title>
  <desc>Picture generated by Eeschema-SVG</desc>
  <g transform="translate(-35533 -34313)" stroke-linecap="round" stroke-linejoin="round">
    <g fill-opacity="0">
      <g stroke-width="0">
        <g fill="#840000" fill-opacity="0" stroke="#840000" stroke-width="100">
          <circle cx="42500" cy="46650" r="1100"/>
        </g>
        <g fill="#840000" fill-opacity="1" stroke="#840000" stroke-width="60">
          <circle cx="41800" cy="47000" r="100"/>
          <circle cx="43200" cy="47000" r="100"/>
        </g>
        <g fill-opacity="0" stroke="#840000">
          <g stroke-width="60">
            <path d="m42500 46100v-1100" fill="none" stroke="#840000" stroke-linecap="round" stroke-linejoin="round" stroke-width="60"/>
          </g>
          <g fill="none" stroke-width="100">
            <path d="m43250 46100h-1500"/>
            <path d="m42000 46300h-400"/>
            <path d="m42700 46300h-400"/>
            <path d="m43400 46300h-400"/>
          </g>
          <g fill="none" stroke-width="60">
            <path d="m43500 47000h-300"/>
            <path d="m41500 47000h1e3v-700"/>
            <path d="m41800 46300v1e3h1400v-1e3"/>
          </g>
        </g>
        <g stroke-width="60">
          <g fill="#840000" fill-opacity="1" stroke="#840000">
            <path d="m42500 46400 150 400h-300z" fill="#840000" fill-opacity="1" fill-rule="evenodd" stroke="#840000" stroke-linecap="round" stroke-linejoin="round" stroke-width="60"/>
          </g>
          <g fill="#840000" fill-opacity="0" stroke="#840000">
            <path d="m42700 47100-50 50v300l-50 50" fill="none" stroke="#840000" stroke-linecap="round" stroke-linejoin="round" stroke-width="60"/>
            <path d="m42650 47300-250-150v300z" fill="none" stroke="#840000" stroke-linecap="round" stroke-linejoin="round" stroke-width="60"/>
            <path d="m42500 45000v-1e3"/>
            <g transform="rotate(-90,42600,44500)">
              <text x="42600" y="45000" font-size="660px" opacity="0" text-anchor="middle" lengthAdjust="spacingAndGlyphs" textLength="540">1</text>
            </g>
            <path d="m43070 44350v290"/>
            <path d="m43070 44500h-500l70 40 50 50 20 50"/>
            <path d="m41500 47000h-1e3"/>
            <text x="41000" y="47600" font-size="660px" opacity="0" text-anchor="middle" lengthAdjust="spacingAndGlyphs" textLength="540">2</text>
            <path d="m40850 47120 30-20 40-30h120l50 30 20 20 30 50v40l-30 80-280 280h310"/>
            <path d="m43500 47000h1e3"/>
            <text x="44000" y="47600" font-size="660px" opacity="0" text-anchor="middle" lengthAdjust="spacingAndGlyphs" textLength="540">3</text>
            <path d="m43830 47070h310l-170 190h70l50 30 20 20 30 50v120l-30 40-20 30-50 20h-140l-50-20-20-30"/>
          </g>
          <g fill="#008484" fill-opacity="0" stroke="#008484">
            <text x="42500" y="48770" font-size="660px" opacity="0" text-anchor="middle" lengthAdjust="spacingAndGlyphs" textLength="1060">Q5</text>
            <path d="m42450 48790-50-20-120-120-50-30h-40"/>
            <path d="m42210 48740-50-20-50-50-20-100v-160l20-100 50-40 50-30h90l50 30 50 40 20 100v160l-20 100-50 50-50 20h-90"/>
            <path d="m42880 48240h-240l-30 240 30-20 50-30h110l50 30 30 20 20 50v120l-20 40-30 30-50 20h-110l-50-20-30-30"/>
            <text x="42500" y="49680" font-size="660px" opacity="0" text-anchor="middle" lengthAdjust="spacingAndGlyphs" textLength="4010">NMOS_GSD</text>
            <path d="m40640 49650v-500l280 500v-500"/>
            <path d="m41160 49650v-500l170 360 170-360v500"/>
            <path d="m41830 49150h90l50 30 50 40 20 100v160l-20 100-50 50-50 20h-90l-50-20-50-50-20-100v-160l20-100 50-40 50-30"/>
            <path d="m42230 49630 70 20h120l50-20 30-30 20-40v-50l-20-50-30-20-50-30-90-20-50-20-20-30-30-50v-40l30-50 20-20 50-30h120l70 30"/>
            <path d="m42610 49700h390"/>
            <path d="m43380 49180-50-30h-70l-70 30-50 40-30 50-20 100v70l20 90 30 50 50 50 70 20h40l80-20 20-30v-160h-100"/>
            <path d="m43590 49630 70 20h120l50-20 20-30 30-40v-50l-30-50-20-20-50-30-90-20-50-20-30-30-20-50v-40l20-50 30-20 50-30h110l80 30"/>
            <path d="m44090 49650v-500h120l70 30 50 40 20 50 30 100v70l-30 90-20 50-50 50-70 20h-120"/>
          </g>
        </g>
      </g>
      <g stroke-width="0">
        <g fill="#840000" fill-opacity="0" stroke="#840000" stroke-width="100">
          <circle cx="72500" cy="48150" r="1100"/>
        </g>
        <g fill="#840000" fill-opacity="1" stroke="#840000" stroke-width="60">
          <circle cx="73200" cy="48500" r="100"/>
          <circle cx="71800" cy="48500" r="100"/>
        </g>
        <g fill-opacity="0" stroke="#840000">
          <g stroke-width="60">
            <path d="m72500 47600v-1100" fill="none" stroke="#840000" stroke-linecap="round" stroke-linejoin="round" stroke-width="60"/>
          </g>
          <g fill="none" stroke-width="100">
            <path d="m71750 47600h1500"/>
            <path d="m73000 47800h400"/>
            <path d="m72300 47800h400"/>
            <path d="m71600 47800h400"/>
          </g>
          <g fill="none" stroke-width="60">
            <path d="m71500 48500h300"/>
            <path d="m73500 48500h-1e3v-700"/>
            <path d="m73200 47800v1e3h-1400v-1e3"/>
          </g>
        </g>
        <g stroke-width="60">
          <g fill="#840000" fill-opacity="1" stroke="#840000">
            <path d="m72500 47900-150 400h300z" fill="#840000" fill-opacity="1" fill-rule="evenodd" stroke="#840000" stroke-linecap="round" stroke-linejoin="round" stroke-width="60"/>
          </g>
          <g fill="#840000" fill-opacity="0" stroke="#840000">
            <path d="m72300 48600 50 50v300l50 50" fill="none" stroke="#840000" stroke-linecap="round" stroke-linejoin="round" stroke-width="60"/>
            <path d="m72350 48800 250-150v300z" fill="none" stroke="#840000" stroke-linecap="round" stroke-linejoin="round" stroke-width="60"/>
            <path d="m72500 46500v-1e3"/>
            <g transform="rotate(-90,72600,46000)">
              <text x="72600" y="46500" font-size="660px" opacity="0" text-anchor="middle" lengthAdjust="spacingAndGlyphs" textLength="540">1</text>
            </g>
            <path d="m73070 45850v290"/>
            <path d="m73070 46000h-500l70 40 50 50 20 50"/>
            <path d="m73500 48500h1e3"/>
            <text x="74000" y="49100" font-size="660px" opacity="0" text-anchor="middle" lengthAdjust="spacingAndGlyphs" textLength="540">2</text>
            <path d="m73850 48620 30-20 40-30h120l50 30 20 20 30 50v40l-30 80-280 280h310"/>
            <path d="m71500 48500h-1e3"/>
            <text x="71000" y="49100" font-size="660px" opacity="0" text-anchor="middle" lengthAdjust="spacingAndGlyphs" textLength="540">3</text>
            <path d="m70830 48570h310l-170 190h70l50 30 20 20 30 50v120l-30 40-20 30-50 20h-140l-50-20-20-30"/>
          </g>
          <g fill="#008484" fill-opacity="0" stroke="#008484">
            <text x="72500" y="50270" font-size="660px" opacity="0" text-anchor="middle" lengthAdjust="spacingAndGlyphs" textLength="1060">Q6</text>
            <path d="m72450 50290-50-20-120-120-50-30h-40"/>
            <path d="m72210 50240-50-20-50-50-20-100v-160l20-100 50-40 50-30h90l50 30 50 40 20 100v160l-20 100-50 50-50 20h-90"/>
            <path d="m72850 49740h-90l-50 30-20 20-50 70-30 100v190l30 40 20 30 50 20h90l50-20 30-30 20-40v-120l-20-50-30-20-50-30h-90l-50 30-20 20-30 50"/>
            <text x="72490" y="51180" font-size="660px" opacity="0" text-anchor="middle" lengthAdjust="spacingAndGlyphs" textLength="4010">NMOS_GSD</text>
            <path d="m70630 51150v-500l280 500v-500"/>
            <path d="m71150 51150v-500l170 360 170-360v500"/>
            <path d="m71820 50650h90l50 30 50 40 20 100v160l-20 100-50 50-50 20h-90l-50-20-50-50-20-100v-160l20-100 50-40 50-30"/>
            <path d="m72220 51130 70 20h120l50-20 30-30 20-40v-50l-20-50-30-20-50-30-90-20-50-20-20-30-30-50v-40l30-50 20-20 50-30h120l70 30"/>
            <path d="m72600 51200h390"/>
            <path d="m73370 50680-50-30h-70l-70 30-50 40-30 50-20 100v70l20 90 30 50 50 50 70 20h40l80-20 20-30v-160h-100"/>
            <path d="m73580 51130 70 20h120l50-20 20-30 30-40v-50l-30-50-20-20-50-30-90-20-50-20-30-30-20-50v-40l20-50 30-20 50-30h110l80 30"/>
            <path d="m74080 51150v-500h120l70 30 50 40 20 50 30 100v70l-30 90-20 50-50 50-70 20h-120"/>
          </g>
        </g>
      </g>
      <g stroke-width="0">
        <g fill="#840000" fill-opacity="0" stroke="#840000" stroke-width="100">
          <circle cx="61150" cy="44500" r="1100"/>
        </g>
        <g fill="#840000" fill-opacity="1" stroke="#840000" stroke-width="60">
          <circle cx="61500" cy="43800" r="100"/>
          <circle cx="61500" cy="45200" r="100"/>
        </g>
        <g fill-opacity="0" stroke="#840000">
          <g stroke-width="60">
            <path d="m60600 44500h-1100" fill="none" stroke="#840000" stroke-linecap="round" stroke-linejoin="round" stroke-width="60"/>
          </g>
          <g fill="none" stroke-width="100">
            <path d="m60600 45250v-1500"/>
            <path d="m60800 44000v-400"/>
            <path d="m60800 44700v-400"/>
            <path d="m60800 45400v-400"/>
          </g>
          <g fill="none" stroke-width="60">
            <path d="m61500 45500v-300"/>
            <path d="m61500 43500v1e3h-700"/>
            <path d="m60800 45200h1e3v-1400h-1e3"/>
          </g>
        </g>
        <g stroke-width="60">
          <g fill="#840000" fill-opacity="1" stroke="#840000">
            <path d="m61400 44500-400 150v-300z" fill="#840000" fill-opacity="1" fill-rule="evenodd" stroke="#840000" stroke-linecap="round" stroke-linejoin="round" stroke-width="60"/>
          </g>
          <g fill="#840000" fill-opacity="0" stroke="#840000">
            <path d="m61600 44300 50 50h300l50 50" fill="none" stroke="#840000" stroke-linecap="round" stroke-linejoin="round" stroke-width="60"/>
            <path d="m61800 44350-150 250h300z" fill="none" stroke="#840000" stroke-linecap="round" stroke-linejoin="round" stroke-width="60"/>
            <path d="m59500 44500h-1e3"/>
            <text x="59000" y="45100" font-size="660px" opacity="0" text-anchor="middle" lengthAdjust="spacingAndGlyphs" textLength="540">1</text>
            <path d="m59140 45070h-290"/>
            <path d="m59000 45070v-500l-50 70-50 50-50 20"/>
            <path d="m61500 43500v-1e3"/>
            <g transform="rotate(-90,61600,43000)">
              <text x="61600" y="43500" font-size="660px" opacity="0" text-anchor="middle" lengthAdjust="spacingAndGlyphs" textLength="540">2</text>
            </g>
            <path d="m61620 43140-20-30-30-40v-120l30-50 20-20 50-30h40l80 30 280 280v-310"/>
            <path d="m61500 45500v1e3"/>
            <g transform="rotate(-90,61600,46000)">
              <text x="61600" y="46500" font-size="660px" opacity="0" text-anchor="middle" lengthAdjust="spacingAndGlyphs" textLength="540">3</text>
            </g>
            <path d="m61570 46160v-310l190 170v-70l30-50 20-20 50-30h120l40 30 30 20 20 50v140l-20 50-30 20"/>
          </g>
          <g fill="#008484" fill-opacity="0" stroke="#008484">
            <text x="63090" y="45180" font-size="660px" opacity="0" text-anchor="middle" lengthAdjust="spacingAndGlyphs" textLength="1060">Q2</text>
            <path d="m63040 45200-50-20-120-120-50-30h-40"/>
            <path d="m62800 45150-50-20-50-50-20-100v-160l20-100 50-40 50-30h90l50 30 50 40 20 100v160l-20 100-50 50-50 20h-90"/>
            <path d="m63200 44700 30-20 50-30h110l50 30 30 20 20 50v40l-20 80-290 280h310"/>
            <text x="64550" y="44270" font-size="660px" opacity="0" text-anchor="middle" lengthAdjust="spacingAndGlyphs" textLength="3990">PMOS_GSD</text>
            <path d="m62700 44240v-500h190l50 30 20 20 30 50v70l-30 50-20 20-50 20h-190"/>
            <path d="m63200 44240v-500l170 360 160-360v500"/>
            <path d="m63870 43740h90l50 30 50 40 20 100v160l-20 100-50 50-50 20h-90l-50-20-50-50-20-100v-160l20-100 50-40 50-30"/>
            <path d="m64270 44220 70 20h120l50-20 20-30 30-40v-50l-30-50-20-20-50-30-90-20-50-20-20-30-30-50v-40l30-50 20-20 50-30h120l70 30"/>
            <path d="m64650 44290h380"/>
            <path d="m65410 43770-40-30h-70l-80 30-40 40-30 50-20 100v70l20 90 30 50 40 50 80 20h40l70-20 30-30v-160h-100"/>
            <path d="m65630 44220 70 20h120l50-20 20-30 20-40v-50l-20-50-20-20-50-30-100-20-40-20-30-30-20-50v-40l20-50 30-20 40-30h120l70 30"/>
            <path d="m66130 44240v-500h120l70 30 50 40 20 50 20 100v70l-20 90-20 50-50 50-70 20h-120"/>
          </g>
        </g>
      </g>
      <g stroke-width="0">
        <g fill="#840000" fill-opacity="0" stroke="#840000" stroke-width="100">
          <circle cx="53850" cy="44500" r="1100"/>
        </g>
        <g fill="#840000" fill-opacity="1" stroke="#840000" stroke-width="60">
          <circle cx="53500" cy="43800" r="100"/>
          <circle cx="53500" cy="45200" r="100"/>
        </g>
        <g fill-opacity="0" stroke="#840000">
          <g stroke-width="60">
            <path d="m54400 44500h1100" fill="none" stroke="#840000" stroke-linecap="round" stroke-linejoin="round" stroke-width="60"/>
          </g>
          <g fill="none" stroke-width="100">
            <path d="m54400 45250v-1500"/>
            <path d="m54200 44000v-400"/>
            <path d="m54200 44700v-400"/>
            <path d="m54200 45400v-400"/>
          </g>
          <g fill="none" stroke-width="60">
            <path d="m53500 45500v-300"/>
            <path d="m53500 43500v1e3h700"/>
            <path d="m54200 45200h-1e3v-1400h1e3"/>
          </g>
        </g>
        <g stroke-width="60">
          <g fill="#840000" fill-opacity="1" stroke="#840000">
            <path d="m53600 44500 400 150v-300z" fill="#840000" fill-opacity="1" fill-rule="evenodd" stroke="#840000" stroke-linecap="round" stroke-linejoin="round" stroke-width="60"/>
          </g>
          <g fill="#840000" fill-opacity="0" stroke="#840000">
            <path d="m53400 44300-50 50h-300l-50 50" fill="none" stroke="#840000" stroke-linecap="round" stroke-linejoin="round" stroke-width="60"/>
            <path d="m53200 44350 150 250h-300z" fill="none" stroke="#840000" stroke-linecap="round" stroke-linejoin="round" stroke-width="60"/>
            <path d="m55500 44500h1e3"/>
            <text x="56000" y="45100" font-size="660px" opacity="0" text-anchor="middle" lengthAdjust="spacingAndGlyphs" textLength="540">1</text>
            <path d="m56140 45070h-290"/>
            <path d="m56000 45070v-500l-50 70-50 50-50 20"/>
            <path d="m53500 43500v-1e3"/>
            <g transform="rotate(-90,53600,43000)">
              <text x="53600" y="43500" font-size="660px" opacity="0" text-anchor="middle" lengthAdjust="spacingAndGlyphs" textLength="540">2</text>
            </g>
            <path d="m53620 43140-20-30-30-40v-120l30-50 20-20 50-30h40l80 30 280 280v-310"/>
            <path d="m53500 45500v1e3"/>
            <g transform="rotate(-90,53600,46000)">
              <text x="53600" y="46500" font-size="660px" opacity="0" text-anchor="middle" lengthAdjust="spacingAndGlyphs" textLength="540">3</text>
            </g>
            <path d="m53570 46160v-310l190 170v-70l30-50 20-20 50-30h120l40 30 30 20 20 50v140l-20 50-30 20"/>
          </g>
          <g fill="#008484" fill-opacity="0" stroke="#008484">
            <text x="51910" y="44260" font-size="660px" opacity="0" text-anchor="middle" lengthAdjust="spacingAndGlyphs" textLength="1060">Q1</text>
            <path d="m51860 44280-50-20-120-120-50-30h-40"/>
            <path d="m51620 44230-50-20-50-50-20-100v-160l20-100 50-40 50-30h90l50 30 50 40 20 100v160l-20 100-50 50-50 20h-90"/>
            <path d="m52310 44230h-290"/>
            <path d="m52170 44230v-500l-50 70-50 50-50 20"/>
            <text x="50440" y="45170" font-size="660px" opacity="0" text-anchor="middle" lengthAdjust="spacingAndGlyphs" textLength="3990">PMOS_GSD</text>
            <path d="m48590 45140v-500h190l50 30 20 20 30 50v70l-30 50-20 20-50 20h-190"/>
            <path d="m49090 45140v-500l170 360 160-360v500"/>
            <path d="m49760 44640h90l50 30 50 40 20 100v160l-20 100-50 50-50 20h-90l-50-20-50-50-20-100v-160l20-100 50-40 50-30"/>
            <path d="m50160 45120 70 20h120l50-20 20-30 30-40v-50l-30-50-20-20-50-30-90-20-50-20-20-30-30-50v-40l30-50 20-20 50-30h120l70 30"/>
            <path d="m50540 45190h380"/>
            <path d="m51300 44670-40-30h-70l-80 30-40 40-30 50-20 100v70l20 90 30 50 40 50 80 20h40l70-20 30-30v-160h-100"/>
            <path d="m51520 45120 70 20h120l50-20 20-30 20-40v-50l-20-50-20-20-50-30-100-20-40-20-30-30-20-50v-40l20-50 30-20 40-30h120l70 30"/>
            <path d="m52020 45140v-500h120l70 30 50 40 20 50 20 100v70l-20 90-20 50-50 50-70 20h-120"/>
          </g>
        </g>
      </g>
      <g stroke-width="0">
        <g fill="#840000" fill-opacity="0" stroke="#840000" stroke-width="100">
          <circle cx="61150" cy="51500" r="1100"/>
        </g>
        <g fill="#840000" fill-opacity="1" stroke="#840000" stroke-width="60">
          <circle cx="61500" cy="52200" r="100"/>
          <circle cx="61500" cy="50800" r="100"/>
        </g>
        <g fill-opacity="0" stroke="#840000">
          <g stroke-width="60">
            <path d="m60600 51500h-1100" fill="none" stroke="#840000" stroke-linecap="round" stroke-linejoin="round" stroke-width="60"/>
          </g>
          <g fill="none" stroke-width="100">
            <path d="m60600 50750v1500"/>
            <path d="m60800 52000v400"/>
            <path d="m60800 51300v400"/>
            <path d="m60800 50600v400"/>
          </g>
          <g fill="none" stroke-width="60">
            <path d="m61500 50500v300"/>
            <path d="m61500 52500v-1e3h-700"/>
            <path d="m60800 52200h1e3v-1400h-1e3"/>
          </g>
        </g>
        <g stroke-width="60">
          <g fill="#840000" fill-opacity="1" stroke="#840000">
            <path d="m60900 51500 400-150v300z" fill="#840000" fill-opacity="1" fill-rule="evenodd" stroke="#840000" stroke-linecap="round" stroke-linejoin="round" stroke-width="60"/>
          </g>
          <g fill="#840000" fill-opacity="0" stroke="#840000">
            <path d="m61600 51300 50 50h300l50 50" fill="none" stroke="#840000" stroke-linecap="round" stroke-linejoin="round" stroke-width="60"/>
            <path d="m61800 51350-150 250h300z" fill="none" stroke="#840000" stroke-linecap="round" stroke-linejoin="round" stroke-width="60"/>
            <path d="m59500 51500h-1e3"/>
            <text x="59000" y="52100" font-size="660px" opacity="0" text-anchor="middle" lengthAdjust="spacingAndGlyphs" textLength="540">1</text>
            <path d="m59140 52070h-290"/>
            <path d="m59000 52070v-500l-50 70-50 50-50 20"/>
            <path d="m61500 52500v1e3"/>
            <g transform="rotate(-90,61600,53000)">
              <text x="61600" y="53500" font-size="660px" opacity="0" text-anchor="middle" lengthAdjust="spacingAndGlyphs" textLength="540">2</text>
            </g>
            <path d="m61620 53140-20-30-30-40v-120l30-50 20-20 50-30h40l80 30 280 280v-310"/>
            <path d="m61500 50500v-1e3"/>
            <g transform="rotate(-90 61600 5e4)">
              <text x="61600" y="50500" font-size="660px" opacity="0" text-anchor="middle" lengthAdjust="spacingAndGlyphs" textLength="540">3</text>
            </g>
            <path d="m61570 50160v-310l190 170v-70l30-50 20-20 50-30h120l40 30 30 20 20 50v140l-20 50-30 20"/>
          </g>
          <g fill="#008484" fill-opacity="0" stroke="#008484">
            <text x="63080" y="51310" font-size="660px" opacity="0" text-anchor="middle" lengthAdjust="spacingAndGlyphs" textLength="1060">Q4</text>
            <path d="m63030 51330-50-20-120-120-50-30h-40"/>
            <path d="m62790 51280-50-20-50-50-20-100v-160l20-100 50-40 50-30h90l50 30 50 40 20 100v160l-20 100-50 50-50 20h-90"/>
            <path d="m63430 50950v330"/>
            <path d="m63310 50760-120 350h310"/>
            <text x="64550" y="52220" font-size="660px" opacity="0" text-anchor="middle" lengthAdjust="spacingAndGlyphs" textLength="4010">NMOS_GSD</text>
            <path d="m62690 52190v-500l280 500v-500"/>
            <path d="m63210 52190v-500l170 360 170-360v500"/>
            <path d="m63880 51690h90l50 30 50 40 20 100v160l-20 100-50 50-50 20h-90l-50-20-50-50-20-100v-160l20-100 50-40 50-30"/>
            <path d="m64280 52170 70 20h120l50-20 30-30 20-40v-50l-20-50-30-20-50-30-90-20-50-20-20-30-30-50v-40l30-50 20-20 50-30h120l70 30"/>
            <path d="m64660 52240h390"/>
            <path d="m65430 51720-50-30h-70l-70 30-50 40-30 50-20 100v70l20 90 30 50 50 50 70 20h40l80-20 20-30v-160h-100"/>
            <path d="m65640 52170 70 20h120l50-20 20-30 30-40v-50l-30-50-20-20-50-30-90-20-50-20-30-30-20-50v-40l20-50 30-20 50-30h110l80 30"/>
            <path d="m66140 52190v-500h120l70 30 50 40 20 50 30 100v70l-30 90-20 50-50 50-70 20h-120"/>
          </g>
        </g>
      </g>
      <g stroke-width="0">
        <g fill="#840000" fill-opacity="0" stroke="#840000" stroke-width="100">
          <circle cx="53850" cy="51500" r="1100"/>
        </g>
        <g fill="#840000" fill-opacity="1" stroke="#840000" stroke-width="60">
          <circle cx="53500" cy="52200" r="100"/>
          <circle cx="53500" cy="50800" r="100"/>
        </g>
        <g fill-opacity="0" stroke="#840000">
          <g stroke-width="60">
            <path d="m54400 51500h1100" fill="none" stroke="#840000" stroke-linecap="round" stroke-linejoin="round" stroke-width="60"/>
          </g>
          <g fill="none" stroke-width="100">
            <path d="m54400 50750v1500"/>
            <path d="m54200 52000v400"/>
            <path d="m54200 51300v400"/>
            <path d="m54200 50600v400"/>
          </g>
          <g fill="none" stroke-width="60">
            <path d="m53500 50500v300"/>
            <path d="m53500 52500v-1e3h700"/>
            <path d="m54200 52200h-1e3v-1400h1e3"/>
          </g>
        </g>
        <g stroke-width="60">
          <g fill="#840000" fill-opacity="1" stroke="#840000">
            <path d="m54100 51500-400-150v300z" fill="#840000" fill-opacity="1" fill-rule="evenodd" stroke="#840000" stroke-linecap="round" stroke-linejoin="round" stroke-width="60"/>
          </g>
          <g fill="#840000" fill-opacity="0" stroke="#840000">
            <path d="m53400 51300-50 50h-300l-50 50" fill="none" stroke="#840000" stroke-linecap="round" stroke-linejoin="round" stroke-width="60"/>
            <path d="m53200 51350 150 250h-300z" fill="none" stroke="#840000" stroke-linecap="round" stroke-linejoin="round" stroke-width="60"/>
            <path d="m55500 51500h1e3"/>
            <text x="56000" y="52100" font-size="660px" opacity="0" text-anchor="middle" lengthAdjust="spacingAndGlyphs" textLength="540">1</text>
            <path d="m56140 52070h-290"/>
            <path d="m56000 52070v-500l-50 70-50 50-50 20"/>
            <path d="m53500 52500v1e3"/>
            <g transform="rotate(-90,53600,53000)">
              <text x="53600" y="53500" font-size="660px" opacity="0" text-anchor="middle" lengthAdjust="spacingAndGlyphs" textLength="540">2</text>
            </g>
            <path d="m53620 53140-20-30-30-40v-120l30-50 20-20 50-30h40l80 30 280 280v-310"/>
            <path d="m53500 50500v-1e3"/>
            <g transform="rotate(-90 53600 5e4)">
              <text x="53600" y="50500" font-size="660px" opacity="0" text-anchor="middle" lengthAdjust="spacingAndGlyphs" textLength="540">3</text>
            </g>
            <path d="m53570 50160v-310l190 170v-70l30-50 20-20 50-30h120l40 30 30 20 20 50v140l-20 50-30 20"/>
          </g>
          <g fill="#008484" fill-opacity="0" stroke="#008484">
            <text x="51910" y="52230" font-size="660px" opacity="0" text-anchor="middle" lengthAdjust="spacingAndGlyphs" textLength="1060">Q3</text>
            <path d="m51860 52250-50-20-120-120-50-30h-40"/>
            <path d="m51620 52200-50-20-50-50-20-100v-160l20-100 50-40 50-30h90l50 30 50 40 20 100v160l-20 100-50 50-50 20h-90"/>
            <path d="m52000 51700h310l-170 190h70l50 30 30 20 20 50v120l-20 40-30 30-50 20h-140l-50-20-20-30"/>
            <text x="50430" y="51320" font-size="660px" opacity="0" text-anchor="middle" lengthAdjust="spacingAndGlyphs" textLength="4010">NMOS_GSD</text>
            <path d="m48570 51290v-500l280 500v-500"/>
            <path d="m49090 51290v-500l170 360 170-360v500"/>
            <path d="m49760 50790h90l50 30 50 40 20 100v160l-20 100-50 50-50 20h-90l-50-20-50-50-20-100v-160l20-100 50-40 50-30"/>
            <path d="m50160 51270 70 20h120l50-20 30-30 20-40v-50l-20-50-30-20-50-30-90-20-50-20-20-30-30-50v-40l30-50 20-20 50-30h120l70 30"/>
            <path d="m50540 51340h390"/>
            <path d="m51310 50820-50-30h-70l-70 30-50 40-30 50-20 100v70l20 90 30 50 50 50 70 20h40l80-20 20-30v-160h-100"/>
            <path d="m51520 51270 70 20h120l50-20 20-30 30-40v-50l-30-50-20-20-50-30-90-20-50-20-30-30-20-50v-40l20-50 30-20 50-30h110l80 30"/>
            <path d="m52020 51290v-500h120l70 30 50 40 20 50 30 100v70l-30 90-20 50-50 50-70 20h-120"/>
          </g>
        </g>
      </g>
      <g stroke-width="60">
        <g stroke="#840000">
          <path d="m57500 54500v500h500l-500 500-500-500h500" fill="none" stroke="#840000" stroke-linecap="round" stroke-linejoin="round" stroke-width="60"/>
        </g>
        <g fill="#008484" stroke="#008484">
          <text x="57550" y="56500" font-size="660px" opacity="0" text-anchor="middle" lengthAdjust="spacingAndGlyphs" textLength="1580">GND</text>
          <path d="m57160 56000-40-30h-70l-80 30-40 40-30 50-20 100v70l20 90 30 50 40 50 80 20h40l70-20 30-30v-160h-100"/>
          <path d="m57400 56470v-500l290 500v-500"/>
          <path d="m57930 56470v-500h120l70 30 40 40 30 50 20 100v70l-20 90-30 50-40 50-70 20h-120"/>
        </g>
      </g>
      <g stroke-width="60">
        <g fill="#840000" stroke="#840000">
          <circle cx="57500" cy="40750" r="250"/>
          <path d="m57500 41500v-500" fill="none" stroke="#840000" stroke-linecap="round" stroke-linejoin="round" stroke-width="60"/>
        </g>
        <g fill="#008484" stroke="#008484">
          <text x="57670" y="40040" font-size="660px" opacity="0" text-anchor="middle" lengthAdjust="spacingAndGlyphs" textLength="1490">VDD</text>
          <path d="m57000 39510 170 500 160-500"/>
          <path d="m57500 40010v-500h120l70 30 50 40 20 50 20 100v70l-20 90-20 50-50 50-70 20h-120"/>
          <path d="m58000 40010v-500h120l70 30 50 40 20 50 20 100v70l-20 90-20 50-50 50-70 20h-120"/>
        </g>
      </g>
      <g stroke="#840000">
        <g fill="#840000" stroke-width="60">
          <text x="47310" y="48250" font-size="660px" opacity="0" lengthAdjust="spacingAndGlyphs" textLength="3730">Internal_L</text>
          <path d="m47450 48220v-500"/>
          <path d="m47690 47890v330"/>
          <path d="m47690 47940 30-30 40-20h80l40 20 30 50v260"/>
          <path d="m48070 47890h190"/>
          <path d="m48140 47720v430l30 50 50 20h40"/>
          <path d="m48620 48200-50 20h-90l-50-20-20-50v-190l20-50 50-20h90l50 20 20 50v50l-230 40"/>
          <path d="m48860 48220v-330"/>
          <path d="m48860 47980 20-40 30-30 40-20h50"/>
          <path d="m49170 47890v330"/>
          <path d="m49170 47940 20-30 50-20h70l50 20 20 50v260"/>
          <path d="m49840 48220v-260l-30-50-50-20h-90l-50 20"/>
          <path d="m49840 48200-50 20h-120l-50-20-20-50v-50l20-50 50-20h120l50-20"/>
          <path d="m50140 48220-40-20-30-50v-430"/>
          <path d="m50220 48270h380"/>
          <path d="m50950 48220h-230v-500"/>
        </g>
        <g stroke-width="100">
          <path d="m47000 48000 250 440h3900v-880h-3900z" fill="none" stroke="#840000" stroke-linecap="round" stroke-linejoin="round" stroke-width="100"/>
        </g>
        <g fill="#840000" stroke-width="60">
          <text x="65310" y="47750" font-size="660px" opacity="0" lengthAdjust="spacingAndGlyphs" textLength="3820">Internal_R</text>
          <path d="m65450 47720v-500"/>
          <path d="m65690 47390v330"/>
          <path d="m65690 47440 30-30 40-20h80l40 20 30 50v260"/>
          <path d="m66070 47390h190"/>
          <path d="m66140 47220v430l30 50 50 20h40"/>
          <path d="m66620 47700-50 20h-90l-50-20-20-50v-190l20-50 50-20h90l50 20 20 50v50l-230 40"/>
          <path d="m66860 47720v-330"/>
          <path d="m66860 47480 20-40 30-30 40-20h50"/>
          <path d="m67170 47390v330"/>
          <path d="m67170 47440 20-30 50-20h70l50 20 20 50v260"/>
          <path d="m67840 47720v-260l-30-50-50-20h-90l-50 20"/>
          <path d="m67840 47700-50 20h-120l-50-20-20-50v-50l20-50 50-20h120l50-20"/>
          <path d="m68140 47720-40-20-30-50v-430"/>
          <path d="m68220 47770h380"/>
          <path d="m69000 47720-160-240"/>
          <path d="m68720 47720v-500h190l40 30 30 20 20 50v70l-20 50-30 20-40 20h-190"/>
        </g>
        <g stroke-width="100">
          <path d="m65000 47500 250 440h3990v-880h-3990z" fill="none" stroke="#840000" stroke-linecap="round" stroke-linejoin="round" stroke-width="100"/>
        </g>
      </g>
    </g>
    <g fill="#008400" stroke="#008400" stroke-width="100">
      <g>
        <circle cx="57500" cy="42500" r="200"/>
      </g>
      <g>
        <circle cx="46000" cy="47000" r="200"/>
      </g>
      <g>
        <circle cx="57500" cy="53500" r="200"/>
      </g>
      <g>
        <circle cx="64000" cy="48500" r="200"/>
      </g>
      <g>
        <circle cx="53500" cy="47000" r="200"/>
      </g>
      <g>
        <circle cx="58500" cy="47000" r="200"/>
      </g>
      <g>
        <circle cx="56500" cy="48500" r="200"/>
      </g>
      <g>
        <circle cx="61500" cy="48500" r="200"/>
      </g>
      <g>
        <circle cx="42500" cy="38500" r="200"/>
      </g>
    </g>
    <g fill-opacity="0" stroke="#008400" stroke-width="60">
      <path d="m57500 42500v-1e3"/>
      <path d="m57500 42500h4e3"/>
      <path d="m42500 44000v-5500"/>
      <path d="m42500 38500h3500"/>
      <path d="m72500 38500v7e3"/>
      <path d="m40500 47000h-1e3"/>
      <path d="m75500 48500h-1e3"/>
      <path d="m75500 2e4v28500"/>
      <path d="m39500 26000v21000"/>
      <path d="m56500 44500v4e3"/>
      <path d="m19000 38500h23500"/>
      <path d="m46000 48000h1e3"/>
      <path d="m46000 47000v1e3"/>
      <path d="m64000 47500h1e3"/>
      <path d="m64000 47500v1e3"/>
      <path d="m64000 48500h6500"/>
      <path d="m46000 38500h26500"/>
      <path d="m57500 54500v-1e3"/>
      <path d="m58500 51500v-4500"/>
      <path d="m53500 42500h4e3"/>
      <path d="m53500 53500h4e3"/>
      <path d="m61500 49500v-1e3"/>
      <path d="m53500 46500v500"/>
      <path d="m61500 48500h2500"/>
      <path d="m61500 48500v-2e3"/>
      <path d="m61500 48500h-5e3"/>
      <path d="m56500 48500v3e3"/>
      <path d="m58500 47000v-2500"/>
      <path d="m58500 47000h-5e3"/>
      <path d="m53500 47000v2500"/>
      <path d="m44500 47000h1500"/>
      <path d="m46000 47000h7500"/>
      <path d="m57500 53500h4e3"/>
    </g>
  </g>
</svg>
