<?xml version="1.0" encoding="UTF-8"?>
<svg width="11.591cm" height="10.27cm" version="1.1" viewBox="0 0 45635 40433" xmlns="http://www.w3.org/2000/svg" xmlns:cc="http://creativecommons.org/ns#" xmlns:dc="http://purl.org/dc/elements/1.1/" xmlns:rdf="http://www.w3.org/1999/02/22-rdf-syntax-ns#">
  <metadata>
    <rdf:RDF>
      <cc:Work rdf:about="">
        <dc:format>image/svg+xml</dc:format>
        <dc:type rdf:resource="http://purl.org/dc/dcmitype/StillImage"/>
        <dc:title>SVG Picture created as sram-cell.svg date 2020/06/03 10:57:01</dc:title>
      </cc:Work>
    </rdf:RDF>
  </metadata>
  <title>SVG Picture created as sram-cell.svg date 2020/06/03 10:57:01</title>
  <desc>Picture generated by Eeschema-SVG</desc>
  <g transform="translate(-8331.7 -6043)" stroke-linecap="round" stroke-linejoin="round">
    <g fill-opacity="0">
      <g stroke="#008400">
        <path d="m46000 37500h1e3" stroke-width="60"/>
        <path d="m46000 37500v1e3" stroke-width="60"/>
        <path d="m45981 38500h9542.7" stroke-width="36.005"/>
        <path d="m42500 47099v-8585.6" stroke-width="74.965"/>
        <path d="m42500 38500h3500" stroke-width="60"/>
        <path d="m39484 2e4h16657" stroke-width="40.812"/>
        <path d="m39500 26000v21000" stroke-width="60"/>
      </g>
      <g fill="#840000" stroke="#840000" stroke-width="60">
        <text x="47310" y="37750" font-size="660px" opacity="0" lengthAdjust="spacingAndGlyphs" textLength="2560">Enable</text>
        <path d="m47450 37460h170"/>
        <path d="m47690 37720h-240v-500h240"/>
        <path d="m47910 37390v330"/>
        <path d="m47910 37440 20-30 50-20h70l50 20 20 50v260"/>
        <path d="m48570 37720v-260l-20-50-50-20h-90l-50 20"/>
        <path d="m48570 37700-40 20h-120l-50-20-20-50v-50l20-50 50-20h120l40-20"/>
        <path d="m48810 37720v-500"/>
        <path d="m48810 37410 50-20h90l50 20 30 30 20 40v150l-20 40-30 30-50 20h-90l-50-20"/>
        <path d="m49340 37720-50-20-30-50v-430"/>
        <path d="m49720 37700-50 20h-100l-40-20-30-50v-190l30-50 40-20h100l50 20 20 50v50l-240 40"/>
      </g>
      <g stroke="#840000" stroke-width="100">
        <path d="m47000 37500 250 440h2730v-880h-2730z" fill="none" stroke="#840000" stroke-linecap="round" stroke-linejoin="round" stroke-width="100"/>
      </g>
    </g>
    <g fill="#008400" stroke="#008400" stroke-width="100">
      <circle cx="46000" cy="38500" r="200"/>
    </g>
    <g fill="#008400" stroke="#008400" stroke-width="100">
      <circle cx="42500" cy="38500" r="200"/>
    </g>
    <g fill-opacity="0">
      <g stroke-width="60">
        <g fill="#840000" stroke="#840000">
          <circle cx="24700" cy="16000" r="200"/>
          <circle cx="26300" cy="16000" r="200"/>
          <path d="m25500 15500v-700" fill="none" stroke="#840000" stroke-linecap="round" stroke-linejoin="round" stroke-width="60"/>
          <path d="m26500 15500h-2e3" fill="none" stroke="#840000" stroke-linecap="round" stroke-linejoin="round" stroke-width="60"/>
          <path d="m24500 16000h-1e3"/>
          <path d="m26500 16000h1e3"/>
        </g>
        <g fill="#008484" stroke="#008484">
          <text x="25500" y="13420" font-size="660px" opacity="0" text-anchor="middle" lengthAdjust="spacingAndGlyphs" textLength="1580">SW1</text>
          <path d="m24830 13370 70 20h120l50-20 20-30 20-40v-50l-20-50-20-20-50-30-100-20-40-20-30-30-20-50v-40l20-50 30-20 40-30h120l70 30"/>
          <path d="m25280 12890 120 500 100-360 90 360 120-500"/>
          <path d="m26160 13390h-280"/>
          <path d="m26020 13390v-500l-50 70-50 50-40 20"/>
          <text x="25500" y="14330" font-size="660px" opacity="0" text-anchor="middle" lengthAdjust="spacingAndGlyphs" textLength="3320">SW_Write</text>
          <path d="m23960 14280 70 20h120l50-20 20-30 30-40v-50l-30-50-20-20-50-30-100-20-40-20-30-30-20-50v-40l20-50 30-20 40-30h120l80 30"/>
          <path d="m24410 13800 120 500 100-360 90 360 120-500"/>
          <path d="m24910 14350h380"/>
          <path d="m25360 13800 120 500 100-360 90 360 120-500"/>
          <path d="m25980 14300v-330"/>
          <path d="m25980 14060 30-40 20-30 50-20h50"/>
          <path d="m26290 14300v-330"/>
          <path d="m26290 13800-20 30 20 20 30-20-30-30v50"/>
          <path d="m26460 13970h190"/>
          <path d="m26530 13800v430l20 50 50 20h50"/>
          <path d="m27010 14280-50 20h-100l-40-20-30-50v-190l30-50 40-20h100l50 20 20 50v50l-240 40"/>
        </g>
      </g>
      <g stroke-width="60">
        <g fill="#840000" stroke="#840000">
          <g fill="none" stroke="#840000" stroke-linecap="round" stroke-linejoin="round" stroke-width="60">
            <path d="m33500 14400v100"/>
            <path d="m33500 12600v-100"/>
            <path d="m33500 13800 400 150-800 300 400 150"/>
            <path d="m33500 13200 400 150-800 300 400 150"/>
            <path d="m33500 12600 400 150-800 300 400 150"/>
          </g>
          <path d="m33500 12500v-500"/>
          <path d="m33500 14500v500"/>
        </g>
        <g fill="#008484" stroke="#008484">
          <text x="34930" y="13310" font-size="660px" opacity="0" text-anchor="middle" lengthAdjust="spacingAndGlyphs" textLength="1510">R19</text>
          <path d="m34600 13280-160-240"/>
          <path d="m34320 13280v-500h190l50 30 20 20 20 50v70l-20 50-20 20-50 20h-190"/>
          <path d="m35080 13280h-290"/>
          <path d="m34940 13280v-500l-50 70-50 50-50 20"/>
          <path d="m35320 13280h90l50-20 20-30 50-70 30-90v-190l-30-50-20-20-50-30h-90l-50 30-30 20-20 50v120l20 40 30 30 50 20h90l50-20 20-30 30-40"/>
          <text x="34930" y="14220" font-size="660px" opacity="0" text-anchor="middle" lengthAdjust="spacingAndGlyphs" textLength="1510">10K</text>
          <path d="m34580 14190h-290"/>
          <path d="m34440 14190v-500l-50 70-50 50-50 20"/>
          <path d="m34890 13690h50l40 30 30 20 20 50 30 90v120l-30 100-20 40-30 30-40 20h-50l-50-20-20-30-30-40-20-100v-120l20-90 30-50 20-20 50-30"/>
          <path d="m35270 14190v-500"/>
          <path d="m35560 14190-220-280"/>
          <path d="m35560 13690-290 290"/>
        </g>
      </g>
      <g stroke-width="60">
        <g fill="#840000" stroke="#840000">
          <circle cx="17800" cy="26000" r="200"/>
          <circle cx="16200" cy="25000" r="200"/>
          <circle cx="16200" cy="27000" r="200"/>
          <path d="m17600 26100-1250 800" fill="none" stroke="#840000" stroke-linecap="round" stroke-linejoin="round" stroke-width="60"/>
          <path d="m16000 27000h-1e3"/>
          <text x="15500" y="27600" font-size="660px" opacity="0" text-anchor="middle" lengthAdjust="spacingAndGlyphs" textLength="540">4</text>
          <path d="m15590 27240v330"/>
          <path d="m15470 27050-120 350h310"/>
          <path d="m18000 26000h1e3"/>
          <text x="18500" y="26600" font-size="660px" opacity="0" text-anchor="middle" lengthAdjust="spacingAndGlyphs" textLength="540">5</text>
          <path d="m18610 26070h-230l-30 240 30-20 40-30h120l50 30 20 20 30 50v120l-30 40-20 30-50 20h-120l-40-20-30-30"/>
          <path d="m16000 25000h-1e3"/>
          <text x="15500" y="25600" font-size="660px" opacity="0" text-anchor="middle" lengthAdjust="spacingAndGlyphs" textLength="540">6</text>
          <path d="m15590 25070h-90l-50 30-30 20-40 70-30 100v190l30 40 20 30 50 20h90l50-20 20-30 30-40v-120l-30-50-20-20-50-30h-90l-50 30-20 20-30 50"/>
        </g>
        <g fill="#008484" stroke="#008484">
          <text x="17000" y="22970" font-size="660px" opacity="0" text-anchor="middle" lengthAdjust="spacingAndGlyphs" textLength="2080">SW2B</text>
          <path d="m16080 22920 70 20h120l50-20 20-30 20-40v-50l-20-50-20-20-50-30-100-20-40-20-30-30-20-50v-40l20-50 30-20 40-30h120l70 30"/>
          <path d="m16530 22440 120 500 100-360 90 360 120-500"/>
          <path d="m17130 22490 20-20 50-30h120l40 30 30 20 20 50v40l-20 80-290 280h310"/>
          <path d="m17790 22680 70 20 30 30 20 40v80l-20 40-30 30-40 20h-190v-500h160l50 30 20 20 30 50v40l-30 50-20 30-50 20h-160"/>
          <text x="16990" y="23880" font-size="660px" opacity="0" text-anchor="middle" lengthAdjust="spacingAndGlyphs" textLength="3370">SW_Input</text>
          <path d="m15430 23830 70 20h120l40-20 30-30 20-40v-50l-20-50-30-20-40-30-100-20-50-20-20-30-20-50v-40l20-50 20-20 50-30h120l70 30"/>
          <path d="m15880 23350 120 500 90-360 100 360 120-500"/>
          <path d="m16380 23900h380"/>
          <path d="m16880 23850v-500"/>
          <path d="m17120 23520v330"/>
          <path d="m17120 23570 20-30 50-20h70l50 20 20 50v260"/>
          <path d="m17570 23520v500"/>
          <path d="m17570 23540 50-20h90l50 20 20 30 30 40v150l-30 40-20 30-50 20h-90l-50-20"/>
          <path d="m18240 23520v330"/>
          <path d="m18020 23520v260l20 50 50 20h70l50-20 30-30"/>
          <path d="m18400 23520h190"/>
          <path d="m18470 23350v430l30 50 40 20h50"/>
        </g>
      </g>
      <g stroke-width="60">
        <g fill="#840000" stroke="#840000">
          <circle cx="17800" cy="2e4" r="200"/>
          <circle cx="16200" cy="19000" r="200"/>
          <circle cx="16200" cy="21000" r="200"/>
          <path d="m17600 20100-1250 800" fill="none" stroke="#840000" stroke-linecap="round" stroke-linejoin="round" stroke-width="60"/>
          <path d="m16000 21000h-1e3"/>
          <text x="15500" y="21600" font-size="660px" opacity="0" text-anchor="middle" lengthAdjust="spacingAndGlyphs" textLength="540">1</text>
          <path d="m15640 21570h-290"/>
          <path d="m15500 21570v-500l-50 70-50 50-50 20"/>
          <path d="m18000 2e4h1e3"/>
          <text x="18500" y="20600" font-size="660px" opacity="0" text-anchor="middle" lengthAdjust="spacingAndGlyphs" textLength="540">2</text>
          <path d="m18350 20120 30-20 40-30h120l50 30 20 20 30 50v40l-30 80-280 280h310"/>
          <path d="m16000 19000h-1e3"/>
          <text x="15500" y="19600" font-size="660px" opacity="0" text-anchor="middle" lengthAdjust="spacingAndGlyphs" textLength="540">3</text>
          <path d="m15330 19070h310l-170 190h70l50 30 20 20 30 50v120l-30 40-20 30-50 20h-140l-50-20-20-30"/>
        </g>
        <g fill="#008484" stroke="#008484">
          <text x="16990" y="16970" font-size="660px" opacity="0" text-anchor="middle" lengthAdjust="spacingAndGlyphs" textLength="2010">SW2A</text>
          <path d="m16100 16920 80 20h110l50-20 30-30 20-40v-50l-20-50-30-20-50-30-90-20-50-20-20-30-30-50v-40l30-50 20-20 50-30h120l70 30"/>
          <path d="m16560 16440 120 500 90-360 100 360 120-500"/>
          <path d="m17150 16490 30-20 40-30h120l50 30 20 20 30 50v40l-30 80-280 280h310"/>
          <path d="m17630 16800h240"/>
          <path d="m17580 16940 170-500 160 500"/>
          <text x="16990" y="17880" font-size="660px" opacity="0" text-anchor="middle" lengthAdjust="spacingAndGlyphs" textLength="3370">SW_Input</text>
          <path d="m15430 17830 70 20h120l40-20 30-30 20-40v-50l-20-50-30-20-40-30-100-20-50-20-20-30-20-50v-40l20-50 20-20 50-30h120l70 30"/>
          <path d="m15880 17350 120 500 90-360 100 360 120-500"/>
          <path d="m16380 17900h380"/>
          <path d="m16880 17850v-500"/>
          <path d="m17120 17520v330"/>
          <path d="m17120 17570 20-30 50-20h70l50 20 20 50v260"/>
          <path d="m17570 17520v500"/>
          <path d="m17570 17540 50-20h90l50 20 20 30 30 40v150l-30 40-20 30-50 20h-90l-50-20"/>
          <path d="m18240 17520v330"/>
          <path d="m18020 17520v260l20 50 50 20h70l50-20 30-30"/>
          <path d="m18400 17520h190"/>
          <path d="m18470 17350v430l30 50 40 20h50"/>
        </g>
      </g>
      <g stroke-width="60">
        <g fill="#840000" stroke="#840000">
          <circle cx="35000" cy="17250" r="250"/>
          <path d="m35000 18000v-500" fill="none" stroke="#840000" stroke-linecap="round" stroke-linejoin="round" stroke-width="60"/>
        </g>
        <g fill="#008484" stroke="#008484">
          <text x="35170" y="16540" font-size="660px" opacity="0" text-anchor="middle" lengthAdjust="spacingAndGlyphs" textLength="1490">VDD</text>
          <path d="m34500 16010 170 500 160-500"/>
          <path d="m35000 16510v-500h120l70 30 50 40 20 50 20 100v70l-20 90-20 50-50 50-70 20h-120"/>
          <path d="m35500 16510v-500h120l70 30 50 40 20 50 20 100v70l-20 90-20 50-50 50-70 20h-120"/>
        </g>
      </g>
      <g stroke-width="60">
        <g fill="#840000" stroke="#840000">
          <circle cx="13000" cy="17250" r="250"/>
          <path d="m13000 18000v-500" fill="none" stroke="#840000" stroke-linecap="round" stroke-linejoin="round" stroke-width="60"/>
        </g>
        <g fill="#008484" stroke="#008484">
          <text x="13170" y="16540" font-size="660px" opacity="0" text-anchor="middle" lengthAdjust="spacingAndGlyphs" textLength="1490">VDD</text>
          <path d="m12500 16010 170 500 160-500"/>
          <path d="m13000 16510v-500h120l70 30 50 40 20 50 20 100v70l-20 90-20 50-50 50-70 20h-120"/>
          <path d="m13500 16510v-500h120l70 30 50 40 20 50 20 100v70l-20 90-20 50-50 50-70 20h-120"/>
        </g>
      </g>
      <g stroke-width="60">
        <g fill="#840000" stroke="#840000">
          <circle cx="33500" cy="11250" r="250"/>
          <path d="m33500 12000v-500" fill="none" stroke="#840000" stroke-linecap="round" stroke-linejoin="round" stroke-width="60"/>
        </g>
        <g fill="#008484" stroke="#008484">
          <text x="33670" y="10540" font-size="660px" opacity="0" text-anchor="middle" lengthAdjust="spacingAndGlyphs" textLength="1490">VDD</text>
          <path d="m33000 10010 170 500 160-500"/>
          <path d="m33500 10510v-500h120l70 30 50 40 20 50 20 100v70l-20 90-20 50-50 50-70 20h-120"/>
          <path d="m34000 10510v-500h120l70 30 50 40 20 50 20 100v70l-20 90-20 50-50 50-70 20h-120"/>
        </g>
      </g>
      <g>
        <g stroke="#840000" stroke-width="100">
          <path d="m29000 25000v2e3l2500-1e3z" fill="none" stroke="#840000" stroke-linecap="round" stroke-linejoin="round" stroke-width="100"/>
        </g>
        <g fill="#840000" stroke="#840000" stroke-width="60">
          <circle cx="30500" cy="25300" r="200"/>
          <path d="m30500 25100v-1100"/>
          <g transform="rotate(-90,30400,24750)">
            <text x="30400" y="24750" font-size="530px" opacity="0" text-anchor="middle" lengthAdjust="spacingAndGlyphs" textLength="440">1</text>
          </g>
          <path d="m30380 24630v230"/>
          <path d="m30380 24750h-400l50 30 40 40 20 40"/>
          <path d="m29000 26000h-1500"/>
          <text x="28250" y="25900" font-size="530px" opacity="0" text-anchor="middle" lengthAdjust="spacingAndGlyphs" textLength="440">2</text>
          <path d="m28130 25510 60-30h90l60 30 20 40v40l-20 60-230 230h250"/>
          <path d="m31500 26000h1500"/>
          <text x="32250" y="25900" font-size="530px" opacity="0" text-anchor="middle" lengthAdjust="spacingAndGlyphs" textLength="440">4</text>
          <path d="m32320 25610v270"/>
          <path d="m32230 25460-100 280h250"/>
        </g>
        <g fill="#008484" stroke="#008484" stroke-width="60">
          <text x="30250" y="28020" font-size="660px" opacity="0" text-anchor="middle" lengthAdjust="spacingAndGlyphs" textLength="1060">U2</text>
          <path d="m29860 27490v410l30 40 20 30 50 20h90l50-20 30-30 20-40v-410"/>
          <path d="m30360 27540 30-20 50-30h110l50 30 30 20 20 50v40l-20 80-290 280h310"/>
          <text x="30250" y="28930" font-size="660px" opacity="0" text-anchor="middle" lengthAdjust="spacingAndGlyphs" textLength="5940">MC74VHC1G125</text>
          <path d="m27420 28900v-500l170 360 170-360v500"/>
          <path d="m28280 28850-20 30-70 20h-50l-70-20-50-50-20-50-30-90v-70l30-100 20-50 50-40 70-30h50l70 30 20 20"/>
          <path d="m28450 28400h330l-210 500"/>
          <path d="m29190 28570v330"/>
          <path d="m29070 28380-120 350h310"/>
          <path d="m29380 28400 160 500 170-500"/>
          <path d="m29880 28900v-500"/>
          <path d="m29880 28640h280"/>
          <path d="m30160 28900v-500"/>
          <path d="m30690 28850-30 30-70 20h-50l-70-20-50-50-20-50-20-90v-70l20-100 20-50 50-40 70-30h50l70 30 30 20"/>
          <path d="m31160 28900h-280"/>
          <path d="m31020 28900v-500l-50 70-50 50-40 20"/>
          <path d="m31640 28430-50-30h-70l-70 30-50 40-20 50-30 100v70l30 90 20 50 50 50 70 20h50l70-20 20-30v-160h-90"/>
          <path d="m32140 28900h-290"/>
          <path d="m31990 28900v-500l-40 70-50 50-50 20"/>
          <path d="m32330 28450 20-20 50-30h120l50 30 20 20 20 50v40l-20 80-290 280h310"/>
          <path d="m33070 28400h-240l-30 240 30-20 50-30h110l50 30 30 20 20 50v120l-20 40-30 30-50 20h-110l-50-20-30-30"/>
        </g>
      </g>
      <g>
        <g stroke="#840000" stroke-width="100">
          <path d="m28500 19000v2e3l2500-1e3z" fill="none" stroke="#840000" stroke-linecap="round" stroke-linejoin="round" stroke-width="100"/>
        </g>
        <g fill="#840000" stroke="#840000" stroke-width="60">
          <circle cx="3e4" cy="19300" r="200"/>
          <path d="m3e4 19100v-1100"/>
          <g transform="rotate(-90,29900,18750)">
            <text x="29900" y="18750" font-size="530px" opacity="0" text-anchor="middle" lengthAdjust="spacingAndGlyphs" textLength="440">1</text>
          </g>
          <path d="m29880 18630v230"/>
          <path d="m29880 18750h-400l50 30 40 40 20 40"/>
          <path d="m28500 2e4h-1500"/>
          <text x="27750" y="19900" font-size="530px" opacity="0" text-anchor="middle" lengthAdjust="spacingAndGlyphs" textLength="440">2</text>
          <path d="m27630 19510 60-30h90l60 30 20 40v40l-20 60-230 230h250"/>
          <path d="m31000 2e4h1500"/>
          <text x="31750" y="19900" font-size="530px" opacity="0" text-anchor="middle" lengthAdjust="spacingAndGlyphs" textLength="440">4</text>
          <path d="m31820 19610v270"/>
          <path d="m31730 19460-100 280h250"/>
        </g>
        <g fill="#008484" stroke="#008484" stroke-width="60">
          <text x="29750" y="22020" font-size="660px" opacity="0" text-anchor="middle" lengthAdjust="spacingAndGlyphs" textLength="1060">U1</text>
          <path d="m29360 21490v410l30 40 20 30 50 20h90l50-20 30-30 20-40v-410"/>
          <path d="m30150 21990h-290"/>
          <path d="m30010 21990v-500l-50 70-50 50-50 20"/>
          <text x="29750" y="22930" font-size="660px" opacity="0" text-anchor="middle" lengthAdjust="spacingAndGlyphs" textLength="5940">MC74VHC1G125</text>
          <path d="m26920 22900v-500l170 360 170-360v500"/>
          <path d="m27780 22850-20 30-70 20h-50l-70-20-50-50-20-50-30-90v-70l30-100 20-50 50-40 70-30h50l70 30 20 20"/>
          <path d="m27950 22400h330l-210 500"/>
          <path d="m28690 22570v330"/>
          <path d="m28570 22380-120 350h310"/>
          <path d="m28880 22400 160 500 170-500"/>
          <path d="m29380 22900v-500"/>
          <path d="m29380 22640h280"/>
          <path d="m29660 22900v-500"/>
          <path d="m30190 22850-30 30-70 20h-50l-70-20-50-50-20-50-20-90v-70l20-100 20-50 50-40 70-30h50l70 30 30 20"/>
          <path d="m30660 22900h-280"/>
          <path d="m30520 22900v-500l-50 70-50 50-40 20"/>
          <path d="m31140 22430-50-30h-70l-70 30-50 40-20 50-30 100v70l30 90 20 50 50 50 70 20h50l70-20 20-30v-160h-90"/>
          <path d="m31640 22900h-290"/>
          <path d="m31490 22900v-500l-40 70-50 50-50 20"/>
          <path d="m31830 22450 20-20 50-30h120l50 30 20 20 20 50v40l-20 80-290 280h310"/>
          <path d="m32570 22400h-240l-30 240 30-20 50-30h110l50 30 30 20 20 50v120l-20 40-30 30-50 20h-110l-50-20-30-30"/>
        </g>
      </g>
      <g stroke-width="60">
        <g stroke="#840000">
          <path d="m14000 28000v500h500l-500 500-500-500h500" fill="none" stroke="#840000" stroke-linecap="round" stroke-linejoin="round" stroke-width="60"/>
        </g>
        <g fill="#008484" stroke="#008484">
          <text x="14050" y="30000" font-size="660px" opacity="0" text-anchor="middle" lengthAdjust="spacingAndGlyphs" textLength="1580">GND</text>
          <path d="m13660 29500-40-30h-70l-80 30-40 40-30 50-20 100v70l20 90 30 50 40 50 80 20h40l70-20 30-30v-160h-100"/>
          <path d="m13900 29970v-500l290 500v-500"/>
          <path d="m14430 29970v-500h120l70 30 40 40 30 50 20 100v70l-20 90-30 50-40 50-70 20h-120"/>
        </g>
      </g>
      <g stroke-width="60">
        <g stroke="#840000">
          <path d="m23500 16000v500h500l-500 500-500-500h500" fill="none" stroke="#840000" stroke-linecap="round" stroke-linejoin="round" stroke-width="60"/>
        </g>
        <g fill="#008484" stroke="#008484">
          <text x="23550" y="18000" font-size="660px" opacity="0" text-anchor="middle" lengthAdjust="spacingAndGlyphs" textLength="1580">GND</text>
          <path d="m23160 17500-40-30h-70l-80 30-40 40-30 50-20 100v70l20 90 30 50 40 50 80 20h40l70-20 30-30v-160h-100"/>
          <path d="m23400 17970v-500l290 500v-500"/>
          <path d="m23930 17970v-500h120l70 30 40 40 30 50 20 100v70l-20 90-30 50-40 50-70 20h-120"/>
        </g>
      </g>
      <g stroke-width="60">
        <g stroke="#840000">
          <path d="m34500 28000v500h500l-500 500-500-500h500" fill="none" stroke="#840000" stroke-linecap="round" stroke-linejoin="round" stroke-width="60"/>
        </g>
        <g fill="#008484" stroke="#008484">
          <text x="34550" y="30000" font-size="660px" opacity="0" text-anchor="middle" lengthAdjust="spacingAndGlyphs" textLength="1580">GND</text>
          <path d="m34160 29500-40-30h-70l-80 30-40 40-30 50-20 100v70l20 90 30 50 40 50 80 20h40l70-20 30-30v-160h-100"/>
          <path d="m34400 29970v-500l290 500v-500"/>
          <path d="m34930 29970v-500h120l70 30 40 40 30 50 20 100v70l-20 90-30 50-40 50-70 20h-120"/>
        </g>
      </g>
      <g stroke="#008400" stroke-width="60">
        <path d="m14000 25000h1e3"/>
        <path d="m14000 28000v-3e3"/>
        <path d="m19000 2e4h8e3"/>
        <path d="m14000 21000v4e3"/>
        <path d="m15000 21000h-1e3"/>
        <path d="m13000 27000h2e3"/>
        <path d="m13000 19000v8e3"/>
        <path d="m13000 19000h2e3"/>
        <path d="m13000 18000v1e3"/>
        <path d="m34500 21000h-4e3"/>
        <path d="m30500 19000v500"/>
        <path d="m35000 19000v6e3"/>
        <path d="m35000 25000h-4e3"/>
        <path d="m31000 25000v500"/>
        <path d="m35000 18000v1e3"/>
        <path d="m31000 26500v500"/>
        <path d="m31000 27000h3500"/>
        <path d="m34500 27000v1e3"/>
        <path d="m34500 27000v-6e3"/>
        <path d="m35000 19000h-4500"/>
        <path d="m30500 21000v-500"/>
        <path d="m40500 26000h-1e3"/>
        <path d="m39500 21000v-1e3"/>
        <path d="m39500 21000h1e3"/>
        <path d="m19000 26000h8500"/>
        <path d="m33500 15000v1e3"/>
        <path d="m30500 24000h3e3"/>
        <path d="m27500 16000h2500"/>
        <path d="m33500 16000h-3500"/>
        <path d="m3e4 16000v2e3"/>
        <path d="m33500 16000v8e3"/>
      </g>
      <g stroke="#840000">
        <g fill="#840000" stroke-width="60">
          <text x="40810" y="21250" font-size="660px" opacity="0" lengthAdjust="spacingAndGlyphs" textLength="3990">External_R</text>
          <path d="m40950 20960h170"/>
          <path d="m41190 21220h-240v-500h240"/>
          <path d="m41360 21220 260-330"/>
          <path d="m41360 20890 260 330"/>
          <path d="m41740 20890h190"/>
          <path d="m41810 20720v430l30 50 40 20h50"/>
          <path d="m42290 21200-50 20h-100l-40-20-30-50v-190l30-50 40-20h100l50 20 20 50v50l-240 40"/>
          <path d="m42530 21220v-330"/>
          <path d="m42530 20980 20-40 20-30 50-20h50"/>
          <path d="m42840 20890v330"/>
          <path d="m42840 20940 20-30 50-20h70l50 20 20 50v260"/>
          <path d="m43500 21220v-260l-20-50-50-20h-90l-50 20"/>
          <path d="m43500 21200-50 20h-110l-50-20-30-50v-50l30-50 50-20h110l50-20"/>
          <path d="m43810 21220-50-20-20-50v-430"/>
          <path d="m43880 21270h380"/>
          <path d="m44670 21220-170-240"/>
          <path d="m44380 21220v-500h190l50 30 20 20 30 50v70l-30 50-20 20-50 20h-190"/>
        </g>
        <g stroke-width="100">
          <path d="m40500 21000 250 440h4160v-880h-4160z" fill="none" stroke="#840000" stroke-linecap="round" stroke-linejoin="round" stroke-width="100"/>
        </g>
        <g fill="#840000" stroke-width="60">
          <text x="40810" y="26250" font-size="660px" opacity="0" lengthAdjust="spacingAndGlyphs" textLength="3890">External_L</text>
          <path d="m40950 25960h170"/>
          <path d="m41190 26220h-240v-500h240"/>
          <path d="m41360 26220 260-330"/>
          <path d="m41360 25890 260 330"/>
          <path d="m41740 25890h190"/>
          <path d="m41810 25720v430l30 50 40 20h50"/>
          <path d="m42290 26200-50 20h-100l-40-20-30-50v-190l30-50 40-20h100l50 20 20 50v50l-240 40"/>
          <path d="m42530 26220v-330"/>
          <path d="m42530 25980 20-40 20-30 50-20h50"/>
          <path d="m42840 25890v330"/>
          <path d="m42840 25940 20-30 50-20h70l50 20 20 50v260"/>
          <path d="m43500 26220v-260l-20-50-50-20h-90l-50 20"/>
          <path d="m43500 26200-50 20h-110l-50-20-30-50v-50l30-50 50-20h110l50-20"/>
          <path d="m43810 26220-50-20-20-50v-430"/>
          <path d="m43880 26270h380"/>
          <path d="m44620 26220h-240v-500"/>
        </g>
        <g stroke-width="100">
          <path d="m40500 26000 250 440h4060v-880h-4060z" fill="none" stroke="#840000" stroke-linecap="round" stroke-linejoin="round" stroke-width="100"/>
        </g>
      </g>
    </g>
    <g fill="#008400" stroke="#008400" stroke-width="100">
      <g>
        <circle cx="13000" cy="19000" r="200"/>
      </g>
      <g>
        <circle cx="33500" cy="16000" r="200"/>
      </g>
      <g>
        <circle cx="3e4" cy="16000" r="200"/>
      </g>
      <g>
        <circle cx="14000" cy="25000" r="200"/>
      </g>
      <g>
        <circle cx="35000" cy="19000" r="200"/>
      </g>
      <g>
        <circle cx="34500" cy="27000" r="200"/>
      </g>
      <g>
        <circle cx="39500" cy="2e4" r="200"/>
      </g>
      <g>
        <circle cx="39500" cy="26000" r="200"/>
      </g>
    </g>
    <g fill-opacity="0" stroke-width="60">
      <g>
        <g fill="#840000" stroke="#840000">
          <circle cx="17800" cy="38500" r="200"/>
          <circle cx="16200" cy="39500" r="200"/>
          <circle cx="16200" cy="37500" r="200"/>
          <path d="m17600 38400-1250-800" fill="none" stroke="#840000" stroke-linecap="round" stroke-linejoin="round" stroke-width="60"/>
          <path d="m16000 37500h-1e3"/>
          <text x="15500" y="38100" font-size="660px" opacity="0" text-anchor="middle" lengthAdjust="spacingAndGlyphs" textLength="540">1</text>
          <path d="m15640 38070h-290"/>
          <path d="m15500 38070v-500l-50 70-50 50-50 20"/>
          <path d="m18000 38500h1e3"/>
          <text x="18500" y="39100" font-size="660px" opacity="0" text-anchor="middle" lengthAdjust="spacingAndGlyphs" textLength="540">2</text>
          <path d="m18350 38620 30-20 40-30h120l50 30 20 20 30 50v40l-30 80-280 280h310"/>
          <path d="m16000 39500h-1e3"/>
          <text x="15500" y="40100" font-size="660px" opacity="0" text-anchor="middle" lengthAdjust="spacingAndGlyphs" textLength="540">3</text>
          <path d="m15330 39570h310l-170 190h70l50 30 20 20 30 50v120l-30 40-20 30-50 20h-140l-50-20-20-30"/>
        </g>
        <g fill="#008484" stroke="#008484">
          <text x="17000" y="35920" font-size="660px" opacity="0" text-anchor="middle" lengthAdjust="spacingAndGlyphs" textLength="1580">SW3</text>
          <path d="m16330 35870 70 20h120l50-20 20-30 20-40v-50l-20-50-20-20-50-30-100-20-40-20-30-30-20-50v-40l20-50 30-20 40-30h120l70 30"/>
          <path d="m16780 35390 120 500 100-360 90 360 120-500"/>
          <path d="m17350 35390h310l-160 190h70l40 30 30 20 20 50v120l-20 40-30 30-40 20h-150l-40-20-30-30"/>
          <text x="16990" y="36830" font-size="660px" opacity="0" text-anchor="middle" lengthAdjust="spacingAndGlyphs" textLength="3990">SW_Enable</text>
          <path d="m15120 36780 70 20h120l40-20 30-30 20-40v-50l-20-50-30-20-40-30-100-20-50-20-20-30-20-50v-40l20-50 20-20 50-30h120l70 30"/>
          <path d="m15570 36300 120 500 90-360 100 360 120-500"/>
          <path d="m16070 36850h380"/>
          <path d="m16570 36540h170"/>
          <path d="m16810 36800h-240v-500h240"/>
          <path d="m17020 36470v330"/>
          <path d="m17020 36520 20-30 50-20h70l50 20 30 50v260"/>
          <path d="m17690 36800v-260l-30-50-40-20h-100l-50 20"/>
          <path d="m17690 36780-50 20h-120l-50-20-20-50v-50l20-50 50-20h120l50-20"/>
          <path d="m17930 36800v-500"/>
          <path d="m17930 36490 40-20h100l50 20 20 30 20 40v150l-20 40-20 30-50 20h-100l-40-20"/>
          <path d="m18450 36800-50-20-20-50v-430"/>
          <path d="m18830 36780-50 20h-90l-50-20-20-50v-190l20-50 50-20h90l50 20 20 50v50l-230 40"/>
        </g>
      </g>
      <g>
        <g stroke="#840000">
          <path d="m13000 40500v500h500l-500 500-500-500h500" fill="none" stroke="#840000" stroke-linecap="round" stroke-linejoin="round" stroke-width="60"/>
        </g>
        <g fill="#008484" stroke="#008484">
          <text x="13050" y="42500" font-size="660px" opacity="0" text-anchor="middle" lengthAdjust="spacingAndGlyphs" textLength="1580">GND</text>
          <path d="m12660 42000-40-30h-70l-80 30-40 40-30 50-20 100v70l20 90 30 50 40 50 80 20h40l70-20 30-30v-160h-100"/>
          <path d="m12900 42470v-500l290 500v-500"/>
          <path d="m13430 42470v-500h120l70 30 40 40 30 50 20 100v70l-20 90-30 50-40 50-70 20h-120"/>
        </g>
      </g>
      <g>
        <g fill="#840000" stroke="#840000">
          <circle cx="13000" cy="35750" r="250"/>
          <path d="m13000 36500v-500" fill="none" stroke="#840000" stroke-linecap="round" stroke-linejoin="round" stroke-width="60"/>
        </g>
        <g fill="#008484" stroke="#008484">
          <text x="13170" y="35040" font-size="660px" opacity="0" text-anchor="middle" lengthAdjust="spacingAndGlyphs" textLength="1490">VDD</text>
          <path d="m12500 34510 170 500 160-500"/>
          <path d="m13000 35010v-500h120l70 30 50 40 20 50 20 100v70l-20 90-20 50-50 50-70 20h-120"/>
          <path d="m13500 35010v-500h120l70 30 50 40 20 50 20 100v70l-20 90-20 50-50 50-70 20h-120"/>
        </g>
      </g>
      <g stroke="#008400">
        <path d="m15000 37500h-2e3"/>
        <path d="m13000 37500v-1e3"/>
        <path d="m13000 40500v-1e3"/>
        <path d="m13000 39500h2e3"/>
        <path d="m19000 38500h23500"/>
        <path d="m33000 26000h6500"/>
        <path d="m32500 2e4h7e3"/>
      </g>
    </g>
  </g>
</svg>
