<?xml version="1.0" encoding="UTF-8"?>
<svg id="VJ_iOD-XTz_-a8sbSLiE_top" class="w-100 h-100" width="212" height="212" clip-rule="evenodd" fill-rule="evenodd" stroke-linecap="round" stroke-linejoin="round" stroke-width="0" version="1.1" viewBox="127000 -127000 56092 56092" xmlns="http://www.w3.org/2000/svg" xmlns:cc="http://creativecommons.org/ns#" xmlns:dc="http://purl.org/dc/elements/1.1/" xmlns:rdf="http://www.w3.org/1999/02/22-rdf-syntax-ns#" xmlns:xlink="http://www.w3.org/1999/xlink">
  <metadata>
    <rdf:RDF>
      <cc:Work rdf:about="">
        <dc:format>image/svg+xml</dc:format>
        <dc:type rdf:resource="http://purl.org/dc/dcmitype/StillImage"/>
        <dc:title/>
      </cc:Work>
    </rdf:RDF>
  </metadata>
  <defs>
    <style>.VJ_iOD-XTz_-a8sbSLiE_fr4 {color: #666666;}
.VJ_iOD-XTz_-a8sbSLiE_cu {color: #cccccc;}
.VJ_iOD-XTz_-a8sbSLiE_cf {color: #cc9933;}
.VJ_iOD-XTz_-a8sbSLiE_sm {color: #4b0082; opacity: 0.75;}
.VJ_iOD-XTz_-a8sbSLiE_ss {color: #ffffff;}
.VJ_iOD-XTz_-a8sbSLiE_sp {color: #999999;}
.VJ_iOD-XTz_-a8sbSLiE_out {color: #000000;}</style>
    <circle id="POGXLcr4nFloyce2h4aj_pad-10" r="800"/>
    <rect id="POGXLcr4nFloyce2h4aj_pad-11" x="-600" y="-950" width="1200" height="1900" rx="600" ry="600"/>
    <circle id="POGXLcr4nFloyce2h4aj_pad-12" r="725"/>
    <circle id="POGXLcr4nFloyce2h4aj_pad-13" r="850"/>
    <rect id="POGXLcr4nFloyce2h4aj_pad-14" x="-850" y="-850" width="1700" height="1700" rx="850" ry="850"/>
    <circle id="POGXLcr4nFloyce2h4aj_pad-15" r="500"/>
    <rect id="POGXLcr4nFloyce2h4aj_pad-16" x="-500" y="-500" width="1e3" height="1e3" rx="500" ry="500"/>
    <circle id="POGXLcr4nFloyce2h4aj_pad-17" r="2800"/>
    <circle id="POGXLcr4nFloyce2h4aj_pad-18" r="1e3"/>
    <rect id="POGXLcr4nFloyce2h4aj_pad-19" x="-950" y="-400" width="1900" height="800"/>
    <rect id="POGXLcr4nFloyce2h4aj_pad-20" x="-400" y="-950" width="800" height="1900"/>
    <circle id="POGXLcr4nFloyce2h4aj_pad-21" r="400"/>
    <circle id="ePcopufPLei-O0ZSrdcM_pad-1" r="7.85"/>
    <circle id="ePcopufPLei-O0ZSrdcM_pad-3" r="12.8"/>
    <circle id="ePcopufPLei-O0ZSrdcM_pad-4" r="16.75"/>
    <circle id="ePcopufPLei-O0ZSrdcM_pad-5" r="17.7"/>
    <circle id="ePcopufPLei-O0ZSrdcM_pad-6" r="19.7"/>
    <circle id="ePcopufPLei-O0ZSrdcM_pad-7" r="21.65"/>
    <circle id="ePcopufPLei-O0ZSrdcM_pad-8" r="63"/>
    <g id="VJ_iOD-XTz_-a8sbSLiE_top_soldermask">
      <path d="m164268-124579 122.72-37.23 113.08-60.44 99.13-81.36 81.36-99.13 60.44-113.08 9.69-31.94 27.54-90.78 9.42-95.65v-763.94l-9.42-95.65-27.54-90.78-9.69-31.94-60.44-113.09-81.36-99.12-99.13-81.36-113.09-60.44-31.93-9.69-90.78-27.54-127.62-12.57-127.62 12.57-122.72 37.23-113.08 60.44-99.13 81.36-81.36 99.13-60.44 113.08-9.69 31.94-27.54 90.78-9.42 95.65v763.94l9.42 95.65 37.22 122.71 24.97 46.7 35.49 66.39 81.35 99.13 99.13 81.36 113.09 60.44 31.93 9.69 90.78 27.54 127.62 12.57 127.62-12.57"/>
      <path d="m171268-124579 90.78-27.54 31.93-9.69 113.09-60.44 99.13-81.36 81.36-99.13 60.44-113.08 9.69-31.94 27.54-90.78 9.42-95.65v-763.94l-9.42-95.65-27.54-90.78-9.69-31.94-60.44-113.09-81.36-99.12-99.13-81.36-113.08-60.44-122.72-37.23-127.62-12.57-127.62 12.57-90.78 27.54-31.93 9.69-113.09 60.44-99.13 81.36-81.35 99.12-60.45 113.09-37.22 122.71-9.42 95.65v763.94l9.42 95.65 37.22 122.71 60.44 113.08 81.36 99.13 99.13 81.36 113.08 60.44 122.72 37.23 127.62 12.57 127.62-12.57"/>
      <path d="m137274-123056 149.3-29.69 163.97-67.92 147.57-98.61 125.5-125.5 98.61-147.57 67.92-163.97 34.62-174.07v-177.48l-34.62-174.07-67.92-163.97-98.61-147.57-125.5-125.5-147.57-98.61-163.97-67.92-149.3-29.69-24.77-4.93h-177.48l-24.77 4.93-149.3 29.69-163.97 67.92-147.57 98.61-125.5 125.5-98.61 147.57-67.92 163.97-34.62 174.07v177.48l34.62 174.07 67.92 163.97 98.61 147.57 125.5 125.5 147.57 98.61 163.97 67.92 149.3 29.69 24.77 4.93h177.48l24.77-4.93"/>
      <path d="m134734-123056 149.3-29.69 163.97-67.92 147.57-98.61 125.5-125.5 98.61-147.57 67.92-163.97 34.62-174.07v-177.48l-34.62-174.07-67.92-163.97-98.61-147.57-125.5-125.5-147.57-98.61-163.97-67.92-149.3-29.69-24.77-4.93h-177.48l-24.77 4.93-149.3 29.69-163.97 67.92-147.57 98.61-125.5 125.5-98.61 147.57-67.92 163.97-34.62 174.07v177.48l34.62 174.07 67.92 163.97 98.61 147.57 125.5 125.5 147.57 98.61 163.97 67.92 149.3 29.69 24.77 4.93h177.48l24.77-4.93"/>
      <path d="m132194-123056 149.3-29.69 163.97-67.92 147.57-98.61 125.5-125.5 98.61-147.57 67.92-163.97 34.62-174.07v-177.48l-34.62-174.07-67.92-163.97-98.61-147.57-125.5-125.5-147.57-98.61-163.97-67.92-149.3-29.69-24.77-4.93h-177.48l-24.77 4.93-149.3 29.69-163.97 67.92-147.57 98.61-125.5 125.5-98.61 147.57-67.92 163.97-34.62 174.07v177.48l34.62 174.07 67.92 163.97 98.61 147.57 125.5 125.5 147.57 98.61 163.97 67.92 149.3 29.69 24.77 4.93h177.48l24.77-4.93"/>
      <path d="m170366-122124 141.22-58.5 127.09-84.92 108.09-108.09 84.92-127.09 58.5-141.22 29.82-149.92v-152.86l-27.59-138.69-2.23-11.23-58.5-141.22-84.92-127.09-108.09-108.09-127.09-84.92-141.22-58.5-149.92-29.82h-152.86l-149.92 29.82-141.22 58.5-127.09 84.92-108.09 108.09-84.92 127.09-58.5 141.22-2.23 11.23-27.59 138.69v152.86l29.82 149.92 58.5 141.22 84.92 127.09 108.09 108.09 127.09 84.92 141.22 58.5 149.92 29.82h152.86l149.92-29.82"/>
      <path d="m165366-122124 141.22-58.5 127.09-84.92 108.09-108.09 84.92-127.09 58.5-141.22 29.82-149.92v-152.86l-27.59-138.69-2.23-11.23-58.5-141.22-84.92-127.09-108.09-108.09-127.09-84.92-141.22-58.5-149.92-29.82h-152.86l-149.92 29.82-141.22 58.5-127.09 84.92-108.09 108.09-84.92 127.09-58.5 141.22-2.23 11.23-27.59 138.69v152.86l29.82 149.92 58.5 141.22 84.92 127.09 108.09 108.09 127.09 84.92 141.22 58.5 149.92 29.82h152.86l149.92-29.82"/>
      <path d="m175746-118443 179.26-54.38 165.2-88.31 144.81-118.84 118.84-144.81 88.31-165.2 54.38-179.26 18.36-186.42-18.36-186.43-54.38-179.26-88.31-165.2-118.84-144.81-144.81-118.84-165.2-88.31-179.26-54.38-139.7-13.76h-693.44l-139.7 13.76-179.26 54.38-165.2 88.31-144.81 118.84-118.84 144.81-88.31 165.2-54.38 179.26-18.36 186.43 18.36 186.42 54.38 179.26 88.31 165.2 118.84 144.81 144.81 118.84 165.2 88.31 179.26 54.38 139.7 13.76h693.44l139.7-13.76"/>
      <path d="m130026-118443 179.26-54.38 165.2-88.31 144.81-118.84 118.84-144.81 88.31-165.2 54.38-179.26 18.36-186.42-18.36-186.43-54.38-179.26-88.31-165.2-118.84-144.81-144.81-118.84-165.2-88.31-179.26-54.38-139.71-13.76h-693.44l-139.7 13.76-179.26 54.38-165.2 88.31-144.81 118.84-118.84 144.81-88.31 165.2-54.38 179.26-18.36 186.43 18.36 186.42 54.38 179.26 88.31 165.2 118.84 144.81 144.81 118.84 165.2 88.31 179.26 54.38 139.7 13.76h693.44l139.71-13.76"/>
      <path d="m164577-116275h-2002v902h2002v-902"/>
      <path d="m142249-116209h-2002v902h2002v-902"/>
      <path d="m161577-115325h-2002v902h2002v-902"/>
      <path d="m145249-115259h-2002v902h2002v-902"/>
      <path d="m164577-114375h-2002v902h2002v-902"/>
      <path d="m142249-114309h-2002v902h2002v-902"/>
      <path d="m154918-112347 179.26-54.38 165.2-88.31 144.81-118.84 118.84-144.81 88.31-165.2 54.38-179.26 18.36-186.42-18.36-186.43-54.38-179.26-88.31-165.2-118.84-144.81-144.81-118.84-165.2-88.31-179.26-54.38-139.7-13.76h-693.44l-139.7 13.76-179.26 54.38-165.2 88.31-144.81 118.84-118.84 144.81-88.31 165.2-54.38 179.26-18.36 186.43 18.36 186.42 54.38 179.26 88.31 165.2 118.84 144.81 144.81 118.84 165.2 88.31 179.26 54.38 139.7 13.76h693.44l139.7-13.76"/>
      <path d="m150854-112347 179.26-54.38 165.2-88.31 144.81-118.84 118.84-144.81 88.31-165.2 54.38-179.26 18.36-186.42-18.36-186.43-54.38-179.26-88.31-165.2-118.84-144.81-144.81-118.84-165.2-88.31-179.26-54.38-139.7-13.76h-693.44l-139.7 13.76-179.26 54.38-165.2 88.31-144.81 118.84-118.84 144.81-88.31 165.2-54.38 179.26-18.36 186.43 18.36 186.42 54.38 179.26 88.31 165.2 118.84 144.81 144.81 118.84 165.2 88.31 179.26 54.38 139.7 13.76h693.44l139.7-13.76"/>
      <path d="m136021-112737h-902v2002h902v-2002"/>
      <path d="m134121-112737h-902v2002h902v-2002"/>
      <path d="m169681-110705h-902v2002h902v-2002"/>
      <path d="m171581-110705h-902v2002h902v-2002"/>
      <path d="m140902-107475 179.26-54.38 165.2-88.31 144.81-118.84 118.84-144.81 88.31-165.2 54.38-179.27 13.76-139.7v-693.44l-13.76-139.7-54.38-179.26-88.31-165.2-118.84-144.81-144.81-118.84-165.2-88.31-179.26-54.38-186.42-18.36-186.42 18.36-179.26 54.38-165.2 88.31-144.81 118.84-118.84 144.81-88.31 165.21-54.38 179.26-13.76 139.71v693.44l13.76 139.7 54.38 179.26 88.31 165.2 118.84 144.81 144.81 118.84 165.2 88.31 179.26 54.38 186.42 18.36 186.42-18.36"/>
      <path d="m148014-107475 179.26-54.38 165.2-88.31 144.81-118.84 118.84-144.81 88.31-165.2 54.38-179.27 13.76-139.7v-693.44l-13.76-139.7-54.38-179.26-88.31-165.2-118.84-144.81-144.81-118.84-165.2-88.31-179.26-54.38-186.42-18.36-186.42 18.36-179.26 54.38-165.2 88.31-144.81 118.84-118.84 144.81-88.31 165.21-54.38 179.26-13.76 139.71v693.44l13.76 139.7 54.38 179.26 88.31 165.2 118.84 144.81 144.81 118.84 165.2 88.31 179.26 54.38 186.42 18.36 186.42-18.36"/>
      <path d="m135071-109737h-902v2002h902v-2002"/>
      <path d="m157158-105443 179.26-54.38 165.2-88.31 144.81-118.84 118.84-144.81 88.31-165.2 54.38-179.27 13.76-139.7v-693.44l-13.76-139.7-54.38-179.26-88.31-165.2-118.84-144.81-144.81-118.84-165.2-88.31-179.26-54.38-186.42-18.36-186.42 18.36-179.26 54.38-165.2 88.31-144.81 118.84-118.84 144.81-88.31 165.21-54.38 179.26-13.76 139.71v693.44l13.76 139.7 54.38 179.26 88.31 165.2 118.84 144.81 144.81 118.84 165.2 88.31 179.26 54.38 186.42 18.36 186.42-18.36"/>
      <path d="m164270-105443 179.26-54.38 165.2-88.31 144.81-118.84 118.84-144.81 88.31-165.2 54.38-179.27 13.76-139.7v-693.44l-13.76-139.7-54.38-179.26-88.31-165.2-118.84-144.81-144.81-118.84-165.2-88.31-179.26-54.38-186.42-18.36-186.42 18.36-179.26 54.38-165.2 88.31-144.81 118.84-118.84 144.81-88.31 165.21-54.38 179.26-13.76 139.71v693.44l13.76 139.7 54.38 179.26 88.31 165.2 118.84 144.81 144.81 118.84 165.2 88.31 179.26 54.38 186.42 18.36 186.42-18.36"/>
      <path d="m170631-107705h-902v2002h902v-2002"/>
      <path d="m154918-101171 179.26-54.38 165.2-88.31 144.81-118.84 118.84-144.81 88.31-165.2 13.38-44.12 41-135.15 18.36-186.42-18.36-186.43-54.38-179.26-88.31-165.2-118.84-144.81-144.81-118.84-165.2-88.31-179.26-54.38-139.7-13.76h-693.44l-139.7 13.76-179.26 54.38-165.2 88.31-144.81 118.84-118.84 144.81-88.31 165.2-54.38 179.26-18.36 186.43 18.36 186.42 41 135.15 13.38 44.12 88.31 165.2 118.84 144.81 144.81 118.84 165.2 88.31 179.26 54.38 139.7 13.76h693.44l139.7-13.76"/>
      <path d="m150854-101171 179.26-54.38 165.2-88.31 144.81-118.84 118.84-144.81 88.31-165.2 13.38-44.12 41-135.15 18.36-186.42-18.36-186.43-54.38-179.26-88.31-165.2-118.84-144.81-144.81-118.84-165.2-88.31-179.26-54.38-139.7-13.76h-693.44l-139.7 13.76-179.26 54.38-165.2 88.31-144.81 118.84-118.84 144.81-88.31 165.2-54.38 179.26-18.36 186.43 18.36 186.42 41 135.15 13.38 44.12 88.31 165.2 118.84 144.81 144.81 118.84 165.2 88.31 179.26 54.38 139.7 13.76h693.44l139.7-13.76"/>
      <path d="m175746-100663 179.26-54.38 165.2-88.31 144.81-118.84 118.84-144.81 54.34-101.66 33.97-63.55 54.38-179.26 18.36-186.42-18.36-186.43-54.38-179.26-88.31-165.2-118.84-144.81-144.81-118.84-148.06-79.15-17.15-9.16-179.26-54.38-139.7-13.76h-693.44l-139.7 13.76-179.26 54.38-17.15 9.16-148.06 79.15-144.81 118.84-118.84 144.81-88.31 165.2-54.38 179.26-18.36 186.43 18.36 186.42 54.38 179.26 33.97 63.55 54.34 101.66 118.84 144.81 144.81 118.84 165.2 88.31 179.26 54.38 139.7 13.76h693.44l139.7-13.76"/>
      <path d="m130026-100663 179.26-54.38 165.2-88.31 144.81-118.84 118.84-144.81 54.34-101.66 33.97-63.55 54.38-179.26 18.36-186.42-18.36-186.43-54.38-179.26-88.31-165.2-118.84-144.81-144.81-118.84-148.06-79.15-17.15-9.16-179.26-54.38-139.71-13.76h-693.44l-139.7 13.76-179.26 54.38-17.15 9.16-148.06 79.15-144.81 118.84-118.84 144.81-88.31 165.2-54.38 179.26-18.36 186.43 18.36 186.42 54.38 179.26 33.97 63.55 54.34 101.66 118.84 144.81 144.81 118.84 165.2 88.31 179.26 54.38 139.7 13.76h693.44l139.71-13.76"/>
      <path d="m142249-101985h-2002v902h2002v-902"/>
      <path d="m164553-101985h-2002v902h2002v-902"/>
      <path d="m161553-101035h-2002v902h2002v-902"/>
      <path d="m145249-101035h-2002v902h2002v-902"/>
      <path d="m142249-100085h-2002v902h2002v-902"/>
      <path d="m164553-100085h-2002v902h2002v-902"/>
      <path d="m135106-95583 179.26-54.379 165.2-88.304 144.81-118.84 118.84-144.81 88.31-165.21 54.38-179.26 18.36-186.42-18.36-186.42-54.38-179.26-88.31-165.21-118.84-144.81-144.81-118.84-165.2-88.304-179.26-54.379-139.7-13.76h-693.44l-139.7 13.76-179.26 54.379-165.2 88.304-144.81 118.84-118.84 144.81-88.31 165.21-54.38 179.26-18.36 186.42 18.36 186.42 54.38 179.26 88.31 165.21 118.84 144.81 144.81 118.84 165.2 88.304 179.26 54.379 139.7 13.76h693.44l139.7-13.76"/>
      <path d="m170666-95583 179.26-54.379 165.2-88.304 144.81-118.84 118.84-144.81 88.31-165.21 54.38-179.26 18.36-186.42-18.36-186.42-54.38-179.26-88.31-165.21-118.84-144.81-144.81-118.84-165.2-88.304-179.26-54.379-139.7-13.76h-693.44l-139.7 13.76-179.26 54.379-165.2 88.304-144.81 118.84-118.84 144.81-88.31 165.21-54.38 179.26-18.36 186.42 18.36 186.42 54.38 179.26 88.31 165.21 118.84 144.81 144.81 118.84 165.2 88.304 179.26 54.379 139.7 13.76h693.44l139.7-13.76"/>
      <path d="m144458-87663 179.26-54.379 165.2-88.304 144.81-118.84 118.84-144.81 88.31-165.21 54.38-179.27 13.76-139.71v-693.44l-13.76-139.71-54.38-179.26-88.31-165.21-118.84-144.81-144.81-118.84-165.2-88.304-179.26-54.379-186.42-18.361-186.42 18.361-179.26 54.379-165.2 88.304-144.81 118.84-118.84 144.81-88.31 165.21-54.38 179.26-13.76 139.71v693.44l13.76 139.71 54.38 179.26 88.31 165.21 118.84 144.81 144.81 118.84 165.2 88.304 179.26 54.379 186.42 18.361 186.42-18.361"/>
      <path d="m160714-87663 179.26-54.379 165.2-88.304 144.81-118.84 118.84-144.81 88.31-165.21 54.38-179.27 13.76-139.71v-693.44l-13.76-139.71-54.38-179.26-88.31-165.21-118.84-144.81-144.81-118.84-165.2-88.304-179.26-54.379-186.42-18.361-186.42 18.361-179.26 54.379-165.2 88.304-144.81 118.84-118.84 144.81-88.31 165.21-54.38 179.26-13.76 139.71v693.44l13.76 139.71 54.38 179.26 88.31 165.21 118.84 144.81 144.81 118.84 165.2 88.304 179.26 54.379 186.42 18.361 186.42-18.361"/>
      <path d="m167439-84333 191.27-79.226v-1e-3l172.14-115.02 146.39-146.39 55.61-83.212 59.42-88.928 79.22-191.27 40.39-203.05v-207.03l-40.39-203.05-28.03-67.665-51.2-123.61-115.02-172.14-146.39-146.39-172.14-115.02v-1e-3l-191.27-79.226-203.04-40.389h-207.04l-203.04 40.389-191.27 79.226v1e-3l-172.14 115.02-146.39 146.39-115.02 172.14-51.2 123.61-28.03 67.665-40.39 203.05v207.03l40.39 203.05 79.22 191.27 59.43 88.928 55.6 83.212 146.39 146.39 172.14 115.02v1e-3l191.27 79.226 203.04 40.389h207.04l203.04-40.389"/>
      <path d="m171939-84333 191.27-79.226v-1e-3l172.14-115.02 146.39-146.39 55.61-83.212 59.42-88.928 79.22-191.27 40.39-203.05v-207.03l-40.39-203.05-28.03-67.665-51.2-123.61-115.02-172.14-146.39-146.39-172.14-115.02v-1e-3l-191.27-79.226-203.04-40.389h-207.04l-203.04 40.389-191.27 79.226v1e-3l-172.14 115.02-146.39 146.39-115.02 172.14-51.2 123.61-28.03 67.665-40.39 203.05v207.03l40.39 203.05 79.22 191.27 59.43 88.928 55.6 83.212 146.39 146.39 172.14 115.02v1e-3l191.27 79.226 203.04 40.389h207.04l203.04-40.389"/>
      <path d="m145028-84652 154.87-64.15 139.38-93.132 118.54-118.53 93.13-139.38 64.15-154.87 32.7-164.41v-167.63l-32.7-164.41-64.15-154.87-93.13-139.38-118.54-118.53-139.38-93.132-154.87-64.15-164.41-32.703h-167.64l-164.41 32.703-154.87 64.15-139.38 93.132-118.54 118.53-93.13 139.38-64.15 154.87-32.7 164.41v167.63l32.7 164.41 64.15 154.87 93.13 139.38 118.54 118.53 139.38 93.132 154.87 64.15 164.41 32.703h167.64l164.41-32.703"/>
      <path d="m160268-84652 154.87-64.15 139.38-93.132 118.54-118.53 93.13-139.38 64.15-154.87 32.7-164.41v-167.63l-32.7-164.41-64.15-154.87-93.13-139.38-118.54-118.53-139.38-93.132-154.87-64.15-164.41-32.703h-167.64l-164.41 32.703-154.87 64.15-139.38 93.132-118.54 118.53-93.13 139.38-64.15 154.87-32.7 164.41v167.63l32.7 164.41 64.15 154.87 93.13 139.38 118.54 118.53 139.38 93.132 154.87 64.15 164.41 32.703h167.64l164.41-32.703"/>
      <path d="m147528-84652 154.87-64.15 139.38-93.132 118.54-118.53 93.13-139.38 64.15-154.87 32.7-164.41v-167.63l-32.7-164.41-64.15-154.87-93.13-139.38-118.54-118.53-139.38-93.132-154.87-64.15-164.41-32.703h-167.64l-164.41 32.703-154.87 64.15-139.38 93.132-118.54 118.53-93.13 139.38-64.15 154.87-32.7 164.41v167.63l32.7 164.41 64.15 154.87 93.13 139.38 118.54 118.53 139.38 93.132 154.87 64.15 164.41 32.703h167.64l164.41-32.703"/>
      <path d="m142528-84652 154.87-64.15 139.38-93.132 118.54-118.53 93.13-139.38 64.15-154.87 32.7-164.41v-167.63l-32.7-164.41-64.15-154.87-93.13-139.38-118.54-118.53-139.38-93.132-154.87-64.15-164.41-32.703h-167.64l-164.41 32.703-154.87 64.15-139.38 93.132-118.54 118.53-93.13 139.38-64.15 154.87-32.7 164.41v167.63l32.7 164.41 64.15 154.87 93.13 139.38 118.54 118.53 139.38 93.132 154.87 64.15 164.41 32.703h167.64l164.41-32.703"/>
      <path d="m157768-84652 154.87-64.15 139.38-93.132 118.54-118.53 93.13-139.38 64.15-154.87 32.7-164.41v-167.63l-32.7-164.41-64.15-154.87-93.13-139.38-118.54-118.53-139.38-93.132-154.87-64.15-164.41-32.703h-167.64l-164.41 32.703-154.87 64.15-139.38 93.132-118.54 118.53-93.13 139.38-64.15 154.87-32.7 164.41v167.63l32.7 164.41 64.15 154.87 93.13 139.38 118.54 118.53 139.38 93.132 154.87 64.15 164.41 32.703h167.64l164.41-32.703"/>
      <path d="m162768-84652 154.87-64.15 139.38-93.132 118.54-118.53 93.13-139.38 64.15-154.87 32.7-164.41v-167.63l-32.7-164.41-64.15-154.87-93.13-139.38-118.54-118.53-139.38-93.132-154.87-64.15-164.41-32.703h-167.64l-164.41 32.703-154.87 64.15-139.38 93.132-118.54 118.53-93.13 139.38-64.15 154.87-32.7 164.41v167.63l32.7 164.41 64.15 154.87 93.13 139.38 118.54 118.53 139.38 93.132 154.87 64.15 164.41 32.703h167.64l164.41-32.703"/>
      <path d="m175746-82883 179.26-54.379 165.2-88.304 144.81-118.84 118.84-144.81 88.31-165.21 54.38-179.26 18.36-186.42-18.36-186.42-54.38-179.26-88.31-165.21-118.84-144.81-144.81-118.84-165.2-88.304-179.26-54.379-139.7-13.76h-693.44l-139.7 13.76-179.26 54.379-165.2 88.304-144.81 118.84-118.84 144.81-88.31 165.21-54.38 179.26-18.36 186.42 18.36 186.42 54.38 179.26 88.31 165.21 118.84 144.81 144.81 118.84 165.2 88.304 179.26 54.379 139.7 13.76h693.44l139.7-13.76"/>
      <path d="m130026-82883 179.26-54.379 165.2-88.304 144.81-118.84 118.84-144.81 88.31-165.21 54.38-179.26 18.36-186.42-18.36-186.42-54.38-179.26-88.31-165.21-118.84-144.81-144.81-118.84-165.2-88.304-179.26-54.379-139.71-13.76h-693.44l-139.7 13.76-179.26 54.379-165.2 88.304-144.81 118.84-118.84 144.81-88.31 165.21-54.38 179.26-18.36 186.42 18.36 186.42 54.38 179.26 88.31 165.21 118.84 144.81 144.81 118.84 165.2 88.304 179.26 54.379 139.7 13.76h693.44l139.71-13.76"/>
      <path d="m136192-77468 275.41-54.781 518.84-214.91 466.96-312.01 397.11-397.11 312-466.95 14.07-33.969 146.95-354.75 53.9-130.13 68.71-345.43 40.85-205.38v-561.6l-109.56-550.81-214.92-518.85-312-466.95-397.11-397.11-466.96-312.01-518.84-214.91-275.41-54.781-275.4-54.781h-561.6l-275.4 54.781-275.41 54.781-518.84 214.91-466.96 312.01-397.11 397.11-312 466.95-214.92 518.85-109.56 550.81v561.6l40.85 205.38 68.71 345.43 53.9 130.13 146.95 354.75 14.07 33.969 312 466.95 397.11 397.11 466.96 312.01 518.84 214.91 275.41 54.781 275.4 54.781h561.6l275.4-54.781"/>
      <path d="m160268-81352 154.87-64.15 139.38-93.132 118.54-118.53 93.13-139.38 64.15-154.87 32.7-164.41v-167.63l-32.7-164.41-64.15-154.87-93.13-139.38-118.54-118.53-139.38-93.132-154.87-64.15-164.41-32.703h-167.64l-164.41 32.703-154.87 64.15-139.38 93.132-118.54 118.53-93.13 139.38-64.15 154.87-32.7 164.41v167.63l32.7 164.41 64.15 154.87 93.13 139.38 118.54 118.53 139.38 93.132 154.87 64.15 164.41 32.703h167.64l164.41-32.703"/>
      <path d="m157768-81352 154.87-64.15 139.38-93.132 118.54-118.53 93.13-139.38 64.15-154.87 32.7-164.41v-167.63l-32.7-164.41-64.15-154.87-93.13-139.38-118.54-118.53-139.38-93.132-154.87-64.15-164.41-32.703h-167.64l-164.41 32.703-154.87 64.15-139.38 93.132-118.54 118.53-93.13 139.38-64.15 154.87-32.7 164.41v167.63l32.7 164.41 64.15 154.87 93.13 139.38 118.54 118.53 139.38 93.132 154.87 64.15 164.41 32.703h167.64l164.41-32.703"/>
      <path d="m147528-81352 154.87-64.15 139.38-93.132 118.54-118.53 93.13-139.38 64.15-154.87 32.7-164.41v-167.63l-32.7-164.41-64.15-154.87-93.13-139.38-118.54-118.53-139.38-93.132-154.87-64.15-164.41-32.703h-167.64l-164.41 32.703-154.87 64.15-139.38 93.132-118.54 118.53-93.13 139.38-64.15 154.87-32.7 164.41v167.63l32.7 164.41 64.15 154.87 93.13 139.38 118.54 118.53 139.38 93.132 154.87 64.15 164.41 32.703h167.64l164.41-32.703"/>
      <path d="m145028-81352 154.87-64.15 139.38-93.132 118.54-118.53 93.13-139.38 64.15-154.87 32.7-164.41v-167.63l-32.7-164.41-64.15-154.87-93.13-139.38-118.54-118.53-139.38-93.132-154.87-64.15-164.41-32.703h-167.64l-164.41 32.703-154.87 64.15-139.38 93.132-118.54 118.53-93.13 139.38-64.15 154.87-32.7 164.41v167.63l32.7 164.41 64.15 154.87 93.13 139.38 118.54 118.53 139.38 93.132 154.87 64.15 164.41 32.703h167.64l164.41-32.703"/>
      <path d="m142528-81352 154.87-64.15 139.38-93.132 118.54-118.53 93.13-139.38 64.15-154.87 32.7-164.41v-167.63l-32.7-164.41-64.15-154.87-93.13-139.38-118.54-118.53-139.38-93.132-154.87-64.15-164.41-32.703h-167.64l-164.41 32.703-154.87 64.15-139.38 93.132-118.54 118.53-93.13 139.38-64.15 154.87-32.7 164.41v167.63l32.7 164.41 64.15 154.87 93.13 139.38 118.54 118.53 139.38 93.132 154.87 64.15 164.41 32.703h167.64l164.41-32.703"/>
      <path d="m162768-81352 154.87-64.15 139.38-93.132 118.54-118.53 93.13-139.38 64.15-154.87 32.7-164.41v-167.63l-32.7-164.41-64.15-154.87-93.13-139.38-118.54-118.53-139.38-93.132-154.87-64.15-164.41-32.703h-167.64l-164.41 32.703-154.87 64.15-139.38 93.132-118.54 118.53-93.13 139.38-64.15 154.87-32.7 164.41v167.63l32.7 164.41 64.15 154.87 93.13 139.38 118.54 118.53 139.38 93.132 154.87 64.15 164.41 32.703h167.64l164.41-32.703"/>
      <path d="m167439-77833 191.27-79.226v-1e-3l172.14-115.02 146.39-146.39 115.03-172.14 79.22-191.27 40.39-203.05v-207.03l-40.39-203.05-62.84-151.7-16.39-39.566-115.02-172.14-146.39-146.39-172.14-115.02v-1e-3l-191.27-79.226-203.04-40.389h-207.04l-203.04 40.389-191.27 79.226v1e-3l-172.14 115.02-146.39 146.39-115.02 172.14-16.39 39.566-62.84 151.7-40.39 203.05v207.03l40.39 203.05 79.22 191.27 115.03 172.14 146.39 146.39 172.14 115.02v1e-3l191.27 79.226 203.04 40.389h207.04l203.04-40.389"/>
      <path d="m171939-77833 191.27-79.226v-1e-3l172.14-115.02 146.39-146.39 115.03-172.14 79.22-191.27 40.39-203.05v-207.03l-40.39-203.05-62.84-151.7-16.39-39.566-115.02-172.14-146.39-146.39-172.14-115.02v-1e-3l-191.27-79.226-203.04-40.389h-207.04l-203.04 40.389-191.27 79.226v1e-3l-172.14 115.02-146.39 146.39-115.02 172.14-16.39 39.566-62.84 151.7-40.39 203.05v207.03l40.39 203.05 79.22 191.27 115.03 172.14 146.39 146.39 172.14 115.02v1e-3l191.27 79.226 203.04 40.389h207.04l203.04-40.389"/>
      <path d="m162721-77448 100.28-41.535 90.24-60.3 76.75-76.748 60.3-90.245 41.54-100.27 21.17-106.45v-108.54l-21.17-106.45-41.54-100.27-60.3-90.246-76.75-76.748-45.43-30.355-44.81-29.946-75.39-31.225-21.61-11.551-18.94-15.545-15.55-18.942-11.55-21.611-7.11-23.449-2.4-24.386 2.4-24.386 7.11-23.449 11.55-21.611 15.55-18.941 18.94-15.546 21.61-11.551 75.39-31.225 90.24-60.3 76.75-76.748 11.22-16.789 49.08-73.458 41.54-100.27 21.17-106.45v-108.54l-21.17-106.45-41.54-100.27-29.94-44.817-30.36-45.43-76.75-76.748-45.43-30.355-44.81-29.946-100.28-41.535-106.45-21.174h-108.54l-106.45 21.174-100.27 41.535-90.25 60.301-76.75 76.748-30.35 45.43-29.95 44.817-41.54 100.27-21.17 106.45v108.54l21.17 106.45 41.54 100.27 49.08 73.458 11.22 16.789 76.75 76.748 90.24 60.3 75.38 31.225 21.61 11.551 18.94 15.545 15.55 18.942 11.55 21.611 7.11 23.449 2.4 24.386-2.4 24.386-7.11 23.449-11.55 21.611-15.55 18.941-18.94 15.546-21.61 11.551-75.38 31.225-90.25 60.301-76.75 76.748-60.3 90.246-41.54 100.27-21.17 106.45v108.54l21.17 106.45 41.54 100.27 60.3 90.245 76.75 76.748 90.24 60.3 100.27 41.535 106.45 21.174h108.54l106.45-21.174"/>
      <path d="m142401-77448 100.28-41.535 90.24-60.3 76.75-76.748 60.3-90.245 41.54-100.27 21.17-106.45v-108.54l-21.17-106.45-41.54-100.27-60.3-90.246-76.75-76.748-45.43-30.355-44.81-29.946-75.39-31.225-21.61-11.551-18.94-15.545-15.55-18.942-11.55-21.611-7.11-23.449-2.4-24.386 2.4-24.386 7.11-23.449 11.55-21.611 15.55-18.941 18.94-15.546 21.61-11.551 75.39-31.225 90.24-60.3 76.75-76.748 11.22-16.789 49.08-73.458 41.54-100.27 21.17-106.45v-108.54l-21.17-106.45-41.54-100.27-29.94-44.817-30.36-45.43-76.75-76.748-45.43-30.355-44.81-29.946-100.28-41.535-106.45-21.174h-108.54l-106.45 21.174-100.27 41.535-90.25 60.301-76.75 76.748-30.35 45.43-29.95 44.817-41.54 100.27-21.17 106.45v108.54l21.17 106.45 41.54 100.27 49.08 73.458 11.22 16.789 76.75 76.748 90.24 60.3 75.38 31.225 21.61 11.551 18.94 15.545 15.55 18.942 11.55 21.611 7.11 23.449 2.4 24.386-2.4 24.386-7.11 23.449-11.55 21.611-15.55 18.941-18.94 15.546-21.61 11.551-75.38 31.225-90.25 60.301-76.75 76.748-60.3 90.246-41.54 100.27-21.17 106.45v108.54l21.17 106.45 41.54 100.27 60.3 90.245 76.75 76.748 90.24 60.3 100.27 41.535 106.45 21.174h108.54l106.45-21.174"/>
    </g>
    <g id="VJ_iOD-XTz_-a8sbSLiE_top_copper">
      <use x="147280" y="-82170" width="100%" height="100%" xlink:href="#POGXLcr4nFloyce2h4aj_pad-10"/>
      <use x="142280" y="-82170" width="100%" height="100%" xlink:href="#POGXLcr4nFloyce2h4aj_pad-10"/>
      <use x="144780" y="-82170" width="100%" height="100%" xlink:href="#POGXLcr4nFloyce2h4aj_pad-10"/>
      <use x="142280" y="-85470" width="100%" height="100%" xlink:href="#POGXLcr4nFloyce2h4aj_pad-10"/>
      <use x="144780" y="-85470" width="100%" height="100%" xlink:href="#POGXLcr4nFloyce2h4aj_pad-10"/>
      <use x="147280" y="-85470" width="100%" height="100%" xlink:href="#POGXLcr4nFloyce2h4aj_pad-10"/>
      <use x="164140" y="-125570.5" width="100%" height="100%" xlink:href="#POGXLcr4nFloyce2h4aj_pad-11"/>
      <use x="171140" y="-125570.5" width="100%" height="100%" xlink:href="#POGXLcr4nFloyce2h4aj_pad-11"/>
      <use x="165140" y="-122870.5" width="100%" height="100%" xlink:href="#POGXLcr4nFloyce2h4aj_pad-12"/>
      <use x="170140" y="-122870.5" width="100%" height="100%" xlink:href="#POGXLcr4nFloyce2h4aj_pad-12"/>
      <use x="137160" y="-123952" width="100%" height="100%" xlink:href="#POGXLcr4nFloyce2h4aj_pad-13"/>
      <use x="134620" y="-123952" width="100%" height="100%" xlink:href="#POGXLcr4nFloyce2h4aj_pad-14"/>
      <use x="132080" y="-123952" width="100%" height="100%" xlink:href="#POGXLcr4nFloyce2h4aj_pad-14"/>
      <use x="162560" y="-77978" width="100%" height="100%" xlink:href="#POGXLcr4nFloyce2h4aj_pad-15"/>
      <use x="162560" y="-79248" width="100%" height="100%" xlink:href="#POGXLcr4nFloyce2h4aj_pad-16"/>
      <use x="142240" y="-77978" width="100%" height="100%" xlink:href="#POGXLcr4nFloyce2h4aj_pad-15"/>
      <use x="142240" y="-79248" width="100%" height="100%" xlink:href="#POGXLcr4nFloyce2h4aj_pad-16"/>
      <use x="135636" y="-80264" width="100%" height="100%" xlink:href="#POGXLcr4nFloyce2h4aj_pad-17"/>
      <use x="162520" y="-82170" width="100%" height="100%" xlink:href="#POGXLcr4nFloyce2h4aj_pad-10"/>
      <use x="157520" y="-82170" width="100%" height="100%" xlink:href="#POGXLcr4nFloyce2h4aj_pad-10"/>
      <use x="160020" y="-82170" width="100%" height="100%" xlink:href="#POGXLcr4nFloyce2h4aj_pad-10"/>
      <use x="157520" y="-85470" width="100%" height="100%" xlink:href="#POGXLcr4nFloyce2h4aj_pad-10"/>
      <use x="160020" y="-85470" width="100%" height="100%" xlink:href="#POGXLcr4nFloyce2h4aj_pad-10"/>
      <use x="162520" y="-85470" width="100%" height="100%" xlink:href="#POGXLcr4nFloyce2h4aj_pad-10"/>
      <use x="167132" y="-78844" width="100%" height="100%" xlink:href="#POGXLcr4nFloyce2h4aj_pad-18"/>
      <use x="171632" y="-78844" width="100%" height="100%" xlink:href="#POGXLcr4nFloyce2h4aj_pad-18"/>
      <use x="167132" y="-85344" width="100%" height="100%" xlink:href="#POGXLcr4nFloyce2h4aj_pad-18"/>
      <use x="171632" y="-85344" width="100%" height="100%" xlink:href="#POGXLcr4nFloyce2h4aj_pad-18"/>
      <use x="144248" y="-100584" width="100%" height="100%" xlink:href="#POGXLcr4nFloyce2h4aj_pad-19"/>
      <use x="141248" y="-101534" width="100%" height="100%" xlink:href="#POGXLcr4nFloyce2h4aj_pad-19"/>
      <use x="141248" y="-99634" width="100%" height="100%" xlink:href="#POGXLcr4nFloyce2h4aj_pad-19"/>
      <use x="163552" y="-101534" width="100%" height="100%" xlink:href="#POGXLcr4nFloyce2h4aj_pad-19"/>
      <use x="163552" y="-99634" width="100%" height="100%" xlink:href="#POGXLcr4nFloyce2h4aj_pad-19"/>
      <use x="160552" y="-100584" width="100%" height="100%" xlink:href="#POGXLcr4nFloyce2h4aj_pad-19"/>
      <use x="141248" y="-113858" width="100%" height="100%" xlink:href="#POGXLcr4nFloyce2h4aj_pad-19"/>
      <use x="141248" y="-115758" width="100%" height="100%" xlink:href="#POGXLcr4nFloyce2h4aj_pad-19"/>
      <use x="144248" y="-114808" width="100%" height="100%" xlink:href="#POGXLcr4nFloyce2h4aj_pad-19"/>
      <use x="160576" y="-114874" width="100%" height="100%" xlink:href="#POGXLcr4nFloyce2h4aj_pad-19"/>
      <use x="163576" y="-113924" width="100%" height="100%" xlink:href="#POGXLcr4nFloyce2h4aj_pad-19"/>
      <use x="163576" y="-115824" width="100%" height="100%" xlink:href="#POGXLcr4nFloyce2h4aj_pad-19"/>
      <use x="134620" y="-108736" width="100%" height="100%" xlink:href="#POGXLcr4nFloyce2h4aj_pad-20"/>
      <use x="135570" y="-111736" width="100%" height="100%" xlink:href="#POGXLcr4nFloyce2h4aj_pad-20"/>
      <use x="133670" y="-111736" width="100%" height="100%" xlink:href="#POGXLcr4nFloyce2h4aj_pad-20"/>
      <use x="169230" y="-109704" width="100%" height="100%" xlink:href="#POGXLcr4nFloyce2h4aj_pad-20"/>
      <use x="171130" y="-109704" width="100%" height="100%" xlink:href="#POGXLcr4nFloyce2h4aj_pad-20"/>
      <use x="170180" y="-106704" width="100%" height="100%" xlink:href="#POGXLcr4nFloyce2h4aj_pad-20"/>
      <use x="170180" y="-112776" width="100%" height="100%" xlink:href="#POGXLcr4nFloyce2h4aj_pad-21"/>
      <use x="132842" y="-101600" width="100%" height="100%" xlink:href="#POGXLcr4nFloyce2h4aj_pad-21"/>
      <use x="152400" y="-89916" width="100%" height="100%" xlink:href="#POGXLcr4nFloyce2h4aj_pad-21"/>
      <use x="137668" y="-104140" width="100%" height="100%" xlink:href="#POGXLcr4nFloyce2h4aj_pad-21"/>
      <use x="167386" y="-104902" width="100%" height="100%" xlink:href="#POGXLcr4nFloyce2h4aj_pad-21"/>
      <use x="168656" y="-101346" width="100%" height="100%" xlink:href="#POGXLcr4nFloyce2h4aj_pad-21"/>
      <use x="140208" y="-124968" width="100%" height="100%" xlink:href="#POGXLcr4nFloyce2h4aj_pad-21"/>
      <use x="150876" y="-124968" width="100%" height="100%" xlink:href="#POGXLcr4nFloyce2h4aj_pad-21"/>
      <use x="163576" y="-112268" width="100%" height="100%" xlink:href="#POGXLcr4nFloyce2h4aj_pad-21"/>
      <use x="138684" y="-118872" width="100%" height="100%" xlink:href="#POGXLcr4nFloyce2h4aj_pad-21"/>
      <use x="166624" y="-114808" width="100%" height="100%" xlink:href="#POGXLcr4nFloyce2h4aj_pad-21"/>
      <use x="166370" y="-119888" width="100%" height="100%" xlink:href="#POGXLcr4nFloyce2h4aj_pad-21"/>
      <use x="167640" y="-119888" width="100%" height="100%" xlink:href="#POGXLcr4nFloyce2h4aj_pad-21"/>
      <use x="160528" y="-99568" width="100%" height="100%" xlink:href="#POGXLcr4nFloyce2h4aj_pad-21"/>
      <use x="141224" y="-103124" width="100%" height="100%" xlink:href="#POGXLcr4nFloyce2h4aj_pad-21"/>
      <use x="165608" y="-100584" width="100%" height="100%" xlink:href="#POGXLcr4nFloyce2h4aj_pad-21"/>
      <use x="139192" y="-114808" width="100%" height="100%" xlink:href="#POGXLcr4nFloyce2h4aj_pad-21"/>
      <use x="170180" y="-108254" width="100%" height="100%" xlink:href="#POGXLcr4nFloyce2h4aj_pad-21"/>
      <use x="152400" y="-83058" width="100%" height="100%" xlink:href="#POGXLcr4nFloyce2h4aj_pad-21"/>
      <use x="148336" y="-88099.992" width="100%" height="100%" xlink:href="#POGXLcr4nFloyce2h4aj_pad-21"/>
      <use x="135636" y="-113792" width="100%" height="100%" xlink:href="#POGXLcr4nFloyce2h4aj_pad-21"/>
      <use x="154686" y="-77978" width="100%" height="100%" xlink:href="#POGXLcr4nFloyce2h4aj_pad-21"/>
      <path d="m163576-113924v1656m-22328-3490h-3006" fill="none" stroke-width="250"/>
      <path d="m142240-77978v-1270m20320 1270v-1270" fill="none" stroke-width="508"/>
      <path d="m142280-85470 1650 1650m1700 0 1650 1650m-3350-1650h1700m14964-15814-66 66m3024-66h-2958m-19346-3466v1566m-24-1590 24 24m19304 2449v67m24-91-24 24m24-14223v14199m5032 91h-5056m9628-4572v-1548m-4572 6120 4572-4572m-27732 5522h-1200m10710 0h-9510m10460-950-950 950m8594-950h-7644m-12860-13274h1200m-1757 557.01 557.01-557.01m-557.01 13667v-13110m557.01 13667-557.01-557.01m1757 557.01h-1200m4200-15174v14224m-8529-8152h-1099m2540-1441-1441 1441m1441-4040v2599m2032-4631-2032 2032m2032-2032h5056m18128-1016h1200m-10668 0h9468m-10484 1016 1016-1016m-8660 1016h7644m13417 12717-557.01 557.01h-1200m1757-13757v13200m-533.01-13733 533.01 533.01m-1733-533.01h1200m6354 6620-950 950m950-1450v500m-11110 21828h-3301.6m3302.6 1.01-1-1.01m1015.8 1.01h-1014.8m1015.8-1.01-1 1.01m1270.6-1.01h-1269.6m4825.6-3556-3556 3556m3556-9144v5588m5268-10856-5268 5268m-9144 9144-4318 4318m18730-26646v7916m-37460-4064v-5884m5268 11152-5268-5268m5268 15682v-10414m2795 13209-2795-2795m8673 2795h-5878m6603-725-725 725m1741 291-1016-1016m1016 3214.7v-2198.7m3359 4788h-769.75m5087.8-4318-4318 4318m6165-4318h-1847m-5087.8 4318-2589.2-2589.2m10668-584.75-1144-1144m10354-24290v1200m348-1548-348 348m2287-348h-1939m2277 338-338-338m-4893 14986 5231-5231m-5231 10819v-5588m5231-5231v-9417m-9314 24319 4083-4083m-5479 4083h1396m-2521 1125 1125-1125m-25575-27131 66-66m-66 2056v-1990m-1779-66h1845m-2691 8231v-7385l846-846m4385 13462-5231-5231m11862 27583-6631-6631v-15721m16510 22352h-9879" fill="none" stroke-width="250"/>
      <path d="m134971-76877-647.99-194.82-597.52-317.49-14.16-9.462-312.18-448.7 2236.9-2236.9 2236.9 2236.9-312.19 448.7-595.95 320.44-647.01 198.01-323.57 32.675h6121.6l-178.45-30.723-208.7-80.19-52.01-27.799-35.11-213.42 598.56-598.56 598.56 598.56-35.11 213.42-204.28 90.87-211.74 47.842h20048l-178.45-30.723-208.7-80.19-52.01-27.799-35.11-213.42 598.56-598.56 598.56 598.56-35.11 213.42-204.28 90.87-211.74 47.842h13537l201.28-19.736 163.15-49.257 150.47-80.007 132.06-107.71 108.63-131.31 81.06-149.91 50.39-162.79 20.94-199.24v-47697l-19.74-201.3-49.25-163.14-80.01-150.47-107.71-132.06-131.3-108.63-149.91-81.06-162.8-50.39-199.24-20.94h-3952.8l57.54 189.7 17.87 181.44v821.32l-17.87 181.44-70.62 232.8-114.68 214.55-154.33 188.05-188.05 154.33-214.55 114.68-232.8 70.62-242.1 23.85-242.1-23.85-9.93-3.01 118.98 79.5 189.43 189.43 148.84 222.75 102.52 247.5 52.26 262.75v267.9l-52.26 262.75-102.52 247.5-148.84 222.75-189.43 189.43-222.75 148.84-247.5 102.52-262.75 52.26h-267.9l-262.75-52.26-247.5-102.52-222.75-148.84-189.43-189.43-148.84-222.75-102.52-247.5-52.26-262.75v-267.9l52.26-262.75 102.52-247.5 148.84-222.75 189.43-189.43 222.75-148.84 247.5-102.52 262.75-52.26h267.9l165.82 32.98-177.27-145.48-154.33-188.05-114.68-214.55-70.62-232.8-17.87-181.44v-821.32l17.87-181.44 57.54-189.7h-4680.8l57.54 189.7 17.87 181.44v821.32l-17.87 181.44-70.62 232.8-114.68 214.55-154.33 188.05-177.27 145.48 165.82-32.98h267.9l262.75 52.26 247.5 102.52 222.75 148.84 189.43 189.43 148.84 222.75 102.52 247.5 52.26 262.75v267.9l-52.26 262.75-102.52 247.5-148.84 222.75-189.43 189.43-222.75 148.84-49.2 20.38v2264.9h7682.6l29.64-300.91 87.77-289.35 142.54-266.67 191.82-233.73 233.73-191.82 266.67-142.54 289.35-87.77 225.5-22.21h750.82l225.5 22.21 289.35 87.77 266.67 142.54 233.73 191.82 191.82 233.73 142.54 266.67 87.77 289.35 29.64 300.91-29.64 300.91-87.77 289.35-142.54 266.67-191.82 233.73-233.73 191.82-266.67 142.54-289.35 87.77-225.5 22.21h-750.82l-225.5-22.21-289.35-87.77-266.67-142.54-233.73-191.82-191.82-233.73-142.54-266.67-87.77-289.35-29.64-300.91h-7682.6v3440.2l85.01 85.01 29 23.8 27.49 33.49 67.48 82.23 70.58 132.03 22.52 74.27 20.93 68.99 11 111.66 3.68 37.32-3.68 37.32v13125l0.76 7.75 3224.4-3224.4-44.74-54.51-58.96-110.31-36.31-119.7-12.26-124.48v-1900l12.26-124.48 36.31-119.7 9.36-17.51-15.09-36.41-32.58-163.83h-322.19l-124.48-12.26-119.7-36.31-110.31-58.96-96.69-79.36-79.36-96.69-58.96-110.31-36.31-119.7-12.26-124.48v-1900l12.26-124.48 36.31-119.7 58.96-110.31 79.36-96.7 96.69-79.35 59.76-31.94 59.76-111.8 8.2-10 86.77-105.72 29-23.8 295.2-295.2 23.8-29 115.72-94.97 132.03-70.58 143.26-43.45 111.66-11 37.32-3.68 37.32 3.68h1864.4l37.32-3.68 37.32 3.68 111.66 11 143.26 43.45 132.03 70.58 115.72 94.97 23.81 29 285.19 285.2 29 23.8 94.98 115.72 70.57 132.03 43.45 143.26 11 111.66 3.68 37.33-3.68 37.32v9276.7h802.57l29.64-300.91 87.77-289.35 142.54-266.67 191.82-233.73 233.73-191.82 266.67-142.54 289.35-87.77 225.5-22.21h750.82l225.5 22.21 289.35 87.77 266.67 142.54 233.73 191.82 191.82 233.73 142.54 266.67 87.77 289.35 29.64 300.91-29.64 300.91-87.77 289.35-142.54 266.67-191.82 233.73-233.73 191.82-266.67 142.54-289.35 87.77-225.5 22.21h-750.82l-225.5-22.21-289.35-87.77-266.67-142.54-233.73-191.82-191.82-233.73-142.54-266.67-87.77-289.35-29.64-300.91h-802.55v65.67l3.68 37.33-14.68 148.98-43.45 143.27-70.57 132.02-94.98 115.73-28.99 23.8-2949.8 2949.8 162.92-49.42 225.5-22.21h750.82l225.5 22.21 289.35 87.773 266.67 142.54 233.73 191.82 191.82 233.73 142.54 266.67 87.77 289.35 29.64 300.91-29.64 300.91-87.77 289.35-142.54 266.67-191.82 233.73-233.73 191.82-266.67 142.54-289.35 87.773-225.5 22.21h-750.82l-225.5-22.21-289.35-87.773-266.67-142.54-233.73-191.82-191.82-233.73-142.54-266.67-87.77-289.35-29.64-300.91 29.64-300.91 49.42-162.92-1032.6 1032.6v5235.9l3.68 37.333-14.68 148.99-43.45 143.26-70.58 132.03-58.04 70.727-36.93 44.998-29 23.797-3614.9 3614.9 19.88 19.884h2636.2l95.77-264.4 289.61-140.89 311.54-81.68 321.49-19.334 319.07 43.757 304.42 105.17 173.95 92.981 95.77 264.4-955.81 955.81-955.81-955.81h-2636.2l94.66 94.654 157.04 235.03 108.17 261.15 55.15 277.24v204.74h1535.3l43.76-319.08 105.16-304.41 92.99-173.96 264.4-95.764 955.8 955.81h359.22l955.8-955.81 264.4 95.764 140.89 289.62 81.68 311.54 19.34 321.49-13.5 98.438h1236.8v-322.07l62.83-315.88 123.25-297.55 178.93-267.79 227.74-227.74 267.79-178.93 297.55-123.25 315.88-62.832h322.06l315.88 62.832 297.55 123.25 267.79 178.93 227.74 227.74 178.93 267.79 123.25 297.55 62.83 315.88v322.07l-62.83 315.88-123.25 297.55-178.93 267.79-227.74 227.74-267.79 178.93-181.26 75.082h1192.4l29.64-300.91 87.77-289.35 142.54-266.67 191.82-233.73 233.73-191.82 266.67-142.54 289.35-87.773 225.5-22.21h750.82l225.5 22.21 289.35 87.773 266.67 142.54 233.73 191.82 191.82 233.73 142.54 266.67 87.77 289.35 29.64 300.91-29.64 300.91-87.77 289.35-142.54 266.67-191.82 233.73-233.73 191.82-266.67 142.54-289.35 87.773-225.5 22.21h-750.82l-225.5-22.21-289.35-87.773-266.67-142.54-233.73-191.82-191.82-233.73-142.54-266.67-87.77-289.35-29.64-300.91h-1192.4l-116.29 48.168-315.88 62.832h-322.06l-315.88-62.832-297.55-123.25-267.79-178.93-227.74-227.74-178.93-267.79-123.25-297.55-62.83-315.88h-1236.8l-30.26 220.64-105.16 304.41-92.99 173.96-264.4 95.764-955.8-955.81h-359.22l-955.8 955.81-264.4-95.764-140.89-289.62-81.68-311.54-19.34-321.49h-1535.3v77.93l-55.15 277.24-108.17 261.15-157.04 235.03-199.88 199.88-219.67 146.78h2961.1l955.81-955.81 955.81 955.81-95.77 264.4-289.61 140.89-311.54 81.68-321.48 19.334-319.08-43.757-304.42-105.17-173.95-92.981-95.77-264.4h-2961.1l-15.36 10.267-261.16 108.17-277.24 55.147h-282.66l-277.24-55.147-261.16-108.17-235.03-157.04-199.88-199.88-135.36-202.59-135.36 202.59-199.88 199.88-235.03 157.04-261.16 108.17-277.24 55.147h-282.66l-277.24-55.147-261.16-108.17-235.03-157.04-199.88-199.88-134.05-200.63-14.64 27.383-243.97 71.583-813.09-813.1 14.14-14.143-179.61-179.6-14.14 14.143-14.14-14.143-179.61 179.6 14.14 14.143-813.09 813.1-243.97-71.583-20.89-44.149-295.34 295.34h739.8l813.1-813.1 813.1 813.1-71.59 243.97-255.51 120.9-274.18 68.729-282.33 13.917-279.62-41.43-266.16-95.184-125.22-66.932-71.59-243.97h-739.8l-2448.6 2448.6h2566.5v-282.67l55.15-277.24 108.17-261.15 157.04-235.03 199.88-199.88 235.03-157.04 261.16-108.17 277.24-55.147h282.66l277.24 55.147 261.16 108.17 235.03 157.04 199.88 199.88 135.36 202.59 135.36-202.59 199.88-199.88 235.03-157.04 261.16-108.17 277.24-55.147h282.66l277.24 55.147 261.16 108.17 235.03 157.04 199.88 199.88 135.36 202.59 135.36-202.59 199.88-199.88 235.03-157.04 261.16-108.17 277.24-55.147h282.66l277.24 55.147 261.16 108.17 235.03 157.04 199.88 199.88 157.04 235.03 108.17 261.15 55.15 277.24v282.67l-55.15 277.24-108.17 261.15-157.04 235.03-199.88 199.88-235.03 157.04-261.16 108.17-277.24 55.147h-282.66l-277.24-55.147-261.16-108.17-235.03-157.04-199.88-199.88-135.36-202.59-135.36 202.59-199.88 199.88-235.03 157.04-261.16 108.17-277.24 55.147h-282.66l-277.24-55.147-261.16-108.17-235.03-157.04-199.88-199.88-135.36-202.59-135.36 202.59-199.88 199.88-235.03 157.04-261.16 108.17-277.24 55.147h-282.66l-277.24-55.147-261.16-108.17-235.03-157.04-199.88-199.88-157.04-235.03-108.17-261.15-55.15-277.24h-2566.5l-243.66 243.66-23.81 29.004-115.72 94.973-132.03 70.572-143.26 43.457-148.98 14.673-37.32-3.676h-695.11l-37.32 3.676-37.33-3.676-111.66-10.997-143.26-43.457-132.03-70.572-83.64-68.642-32.08-26.331-23.8-28.998-2536.4-2536.4-29-23.803-53.36-65.013-41.61-50.712-59.17-110.69-11.41-21.337-43.45-143.26-11-111.65v-0.01l-2.26-22.943-6.14 17.162-66.93 125.22-243.97 71.583-813.09-813.1 813.09-813.1 243.97 71.583 75.33 159.2v-716.87l-256-256-161.2 161.2-23.8 29.003-115.72 94.973-38.08 20.351 24.31 12.994 71.59 243.97-813.1 813.1-813.1-813.1 44.69-152.29h-862.26l45.43 30.353 199.88 199.88 134.05 200.63 14.64-27.383 243.97-71.583 813.09 813.1-813.09 813.1-243.97-71.583-13.65-28.855-135.04 202.1-16.36 16.358 43.97 13.337 90.26 48.248h454.39l813.1-813.1 813.1 813.1-71.59 243.97-255.51 120.9-274.18 68.729-282.33 13.917-279.62-41.43-266.16-95.184-125.22-66.932-71.59-243.97h-454.39l41.77 22.324 115.72 94.973 23.8 29.003 762.31 762.31 182.56-36.312h282.66l277.24 55.147 261.16 108.17 235.03 157.04 199.88 199.88 157.04 235.03 108.17 261.15 55.15 277.24v282.67l-55.15 277.24-108.17 261.15-157.04 235.03-199.88 199.88-235.03 157.04-261.16 108.17-277.24 55.147h-282.66l-277.24-55.147-261.16-108.17-235.03-157.04-199.88-199.88-135.36-202.59-135.36 202.59-199.88 199.88-235.03 157.04-261.16 108.17-277.24 55.147h-282.66l-277.24-55.147-261.16-108.17-235.03-157.04-199.88-199.88-134.05-200.63-14.64 27.383-243.97 71.583-813.09-813.1 813.09-813.1 243.97 71.583 13.65 28.855 135.04-202.1 16.36-16.358-43.97-13.337-132.03-70.572-86.72-71.174-28.99-23.794-23.8-28.993-762.31-762.32-182.56 36.312h-282.66l-277.24-55.147-261.16-108.17-235.03-157.04-199.88-199.88-157.04-235.03-108.17-261.15-55.15-277.24v-282.67l55.15-277.24 108.17-261.15 157.04-235.03 199.88-199.88 110.87-74.083-35.35-10.724-132.03-70.572-83.64-68.642-32.08-26.331-23.8-28.998-2233.2-2233.2v4173.4l1761.1 1761.1h769.8l71.59-243.97 255.51-120.9 274.18-68.729 282.33-13.917 279.62 41.43 266.16 95.184 125.22 66.932 71.59 243.97-813.1 813.1-813.1-813.1h-769.8l313.12 313.13 33.11-61.938 243.97-71.583 813.09 813.1-14.14 14.142 179.61 179.6 14.14-14.142 813.1 813.1-71.59 243.97-64.51 30.527 1352.9 1352.9h17156l16.67-54.99 90.33-203.34 128.26-181.81 161.26-153.3 188.07-118.89 207.65-79.916 174.88 125v842.13h254v-842.13l174.88-125 207.65 79.916 188.07 118.89 161.26 153.3 7.49 10.607h2749.8l95.77-264.4 289.61-140.89 311.54-81.68 321.49-19.334 319.07 43.757 304.42 105.17 173.95 92.981 95.77 264.4-955.81 955.81-955.81-955.81h-2749.8l120.77 171.21 90.33 203.34 16.67 54.99-126.17 174.87h-1935.9l-126.17-174.87h-17156l811.87 811.87h8860.5l43.94-43.937 169.51-113.27 188.36-78.021 199.96-39.774h203.88l199.96 39.774 188.36 78.021 169.51 113.27 144.17 144.16 113.26 169.52 78.03 188.36 39.77 199.96v19.533h5701.5l37.93-220.33 80.19-208.7 27.8-52.01 96.5-15.876-92.03-130.47-90.33-203.34-16.67-54.99 126.17-174.87h840.95v10.904l209.41-5.415 44.59 7.678v-13.167h840.95l126.17 174.87-11.99 39.531h1848.2l43.76-319.08 105.16-304.41 92.99-173.96 264.4-95.764 955.8 955.81h359.22l955.8-955.81 264.4 95.764 140.89 289.62 81.68 311.54 19.34 321.49-13.5 98.438h1236.8v-322.07l62.83-315.88 123.25-297.55 178.93-267.79 227.74-227.74 267.79-178.93 297.55-123.25 315.88-62.832h322.06l315.88 62.832 297.55 123.25 267.79 178.93 227.74 227.74 178.93 267.79 123.25 297.55 62.83 315.88v322.07l-62.83 315.88-123.25 297.55-178.93 267.79-227.74 227.74-267.79 178.93-297.55 123.25-315.88 62.832h-322.06l-315.88-62.832-297.55-123.25-267.79-178.93-227.74-227.74-178.93-267.79-123.25-297.55-62.83-315.88h-1236.8l-30.26 220.64-105.16 304.41-92.99 173.96-264.4 95.764-955.8-955.81h-359.22l-955.8 955.81-264.4-95.764-140.89-289.62-81.68-311.54-19.34-321.49h-1848.2l-4.68 15.459-90.33 203.34-92.03 130.47 96.5 15.876 90.87 204.28 49.27 218.08 5.78 223.5-32.19 187.01h2510.9l955.81-955.81 955.81 955.81-95.77 264.4-289.61 140.89-311.54 81.68-321.48 19.334-319.08-43.757-304.42-105.17-173.95-92.981-95.77-264.4h-2510.9l-5.74 33.327-80.19 208.7-27.8 52.01-213.42 35.111-598.56-598.56 14.14-14.143-179.61-179.6-14.14 14.143-14.14-14.143-179.61 179.6 14.14 14.143-598.56 598.56-213.42-35.111-90.87-204.28-49.27-218.08-5.78-223.5h-5701.5v184.34l-39.77 199.96-78.03 188.36-113.26 169.52-144.17 144.16-169.51 113.27-188.36 78.021-199.96 39.774h-203.88l-199.96-39.774-188.36-78.021-169.51-113.27-43.94-43.937h-9138l-37.32 3.676-37.33-3.676-111.66-10.997-143.26-43.457-132.03-70.572-115.72-94.973-23.8-28.998-961.26-961.26 40.52 91.08 49.27 218.08 5.78 223.5-37.93 220.33-80.19 208.7-27.8 52.01-213.42 35.111-598.56-598.56 14.14-14.143-179.61-179.6-14.14 14.143-14.14-14.143-179.61 179.6 14.14 14.143-598.56 598.56-213.42-35.111-90.87-204.28-49.27-218.08-5.78-223.5 37.93-220.33 80.19-208.7 27.8-52.01 96.5-15.876-92.03-130.47-90.33-203.34-16.67-54.99 126.17-174.87h840.95v10.904l209.41-5.415 44.59 7.678v-13.167h20v-202.2l-71.8-71.804h-202.2v20h-840.95l-126.17-174.87 16.67-54.99 90.33-203.34 128.26-181.81 161.26-153.3 15-9.481-3892.4-3892.4-29-23.803-35.49-43.249-59.48-72.476-7.27-13.598-63.31-118.43-43.45-143.26-11-111.65v-0.01l-3.68-37.322 3.68-37.322v-15369l-4982-4982-29-23.8-55.13-67.18-39.85-48.55-5.19-9.72-65.38-122.31-43.45-143.26-11-111.65-3.68-37.32 3.68-37.32v-7310.4l-3.68-37.33 14.68-148.99 43.45-143.26 70.57-132.03 52.1-63.47 42.88-52.25 29-23.8 793.2-793.2 23.8-29 115.72-94.97 132.03-70.58 143.26-43.45 111.66-11 37.33-3.68 37.32 3.68h1104l43.94-43.94 169.51-113.27 188.36-78.02 199.96-39.77h203.88l199.96 39.77 188.36 78.02 169.51 113.27 144.17 144.17 113.26 169.51 78.03 188.36 39.77 199.96v203.88l-39.77 199.96-78.03 188.36-113.26 169.51-8.07 8.07 31.78 38.71 61.38-114.83 31.16-37.97 63.81-77.75 29-23.8 1508-1508v-62.14l39.77-199.96 78.03-188.36 113.26-169.51 144.17-144.17 169.51-113.27 188.36-78.02 174.9-34.79v-8114l2.44-24.78 7.23-23.82 11.73-21.96 15.8-19.24 19.24-15.8 21.96-11.73 23.82-7.23 24.78-2.44h24464l-205.18-109.67-188.05-154.33-154.33-188.05-114.68-214.55-70.62-232.8-17.87-181.44v-821.32l17.87-181.44 57.55-189.7h-34425l-201.29 19.74-163.14 49.25-150.47 80.01-132.06 107.71-108.63 131.3-81.05 149.91-50.4 162.8-20.94 199.24v1646.6h2947.3v-292.52l57.07-286.9 111.94-270.25 162.51-243.22 206.85-206.85 243.22-162.51 270.25-111.94 286.9-57.07h292.52l286.9 57.07 270.25 111.94 243.22 162.51 206.85 206.85 121.72 182.16 69.62-116.89 194.91-216.23 233.35-174.05 262.82-125.19 147.21-44.65 229.89 121.32v1193.2h-20v254h20v1193.2h254v-1193.2h20v-254h-20v-1193.2l229.89-121.32 147.21 44.65 262.82 125.19 233.35 174.05 194.91 216.23 69.62 116.89 121.72-182.16 206.85-206.85 243.22-162.51 270.25-111.94 286.9-57.07h292.52l286.9 57.07 270.25 111.94 243.22 162.51 206.85 206.85 162.51 243.22 111.94 270.25 57.07 286.9v292.52l-57.07 286.9-111.94 270.25-162.51 243.22-206.85 206.85-243.22 162.51-270.25 111.94-286.9 57.07h-292.52l-286.9-57.07-270.25-111.94-243.22-162.51-206.85-206.85-121.72-182.16-69.62 116.88-194.91 216.24-233.35 174.05-262.82 125.18-147.21 44.66-229.89-121.33h-254l-229.89 121.33-147.21-44.66-262.82-125.18-233.35-174.05-194.91-216.24-69.62-116.88-121.72 182.16-206.85 206.85-243.22 162.51-270.25 111.94-286.9 57.07h-292.52l-286.9-57.07-270.25-111.94-243.22-162.51-206.85-206.85-162.51-243.22-111.94-270.25-57.07-286.9h-2947.3v4425.7h49.87l29.64-300.91 87.77-289.35 142.54-266.67 191.82-233.73 233.73-191.82 266.67-142.54 289.35-87.77 225.5-22.21h750.82l225.5 22.21 289.35 87.77 266.67 142.54 233.73 191.82 191.82 233.73 142.54 266.67 87.77 289.35 29.64 300.91-29.64 300.91-87.77 289.35-142.54 266.67-191.82 233.73-233.73 191.82-266.67 142.54-289.35 87.77-225.5 22.21h-750.82l-225.5-22.21-289.35-87.77-266.67-142.54-233.73-191.82-191.82-233.73-142.54-266.67-87.77-289.35-29.64-300.91h-49.87v17780h49.87l29.64-300.91 87.77-289.35 142.54-266.67 191.82-233.73 233.73-191.82 266.67-142.54 289.35-87.77 225.5-22.21h750.82l225.5 22.21 289.35 87.77 266.67 142.54 233.73 191.82 191.82 233.73 142.54 266.67 87.77 289.35 29.64 300.91-29.64 300.91-87.77 289.35-142.54 266.67-191.82 233.73-233.73 191.82-266.67 142.54-289.35 87.77-225.5 22.21h-750.82l-225.5-22.21-289.35-87.77-266.67-142.54-233.73-191.82-191.82-233.73-142.54-266.67-87.77-289.35-29.64-300.91h-49.87v5080h5129.9l29.64-300.91 87.77-289.35 142.54-266.67 191.82-233.73 233.73-191.82 266.67-142.54 289.35-87.773 225.5-22.21h750.82l225.5 22.21 289.35 87.773 266.67 142.54 233.73 191.82 191.82 233.73 142.54 266.67 87.77 289.35 29.64 300.91-29.64 300.91-87.77 289.35-142.54 266.67-191.82 233.73-233.73 191.82-266.67 142.54-289.35 87.773-225.5 22.21h-750.82l-225.5-22.21-289.35-87.773-266.67-142.54-233.73-191.82-191.82-233.73-142.54-266.67-87.77-289.35-29.64-300.91h-5129.9v12700h49.87l29.64-300.91 87.77-289.35 142.54-266.67 191.82-233.73 233.73-191.82 266.67-142.54 289.35-87.773 225.5-22.21h750.82l225.5 22.21 289.35 87.773 266.67 142.54 233.73 191.82 191.82 233.73 142.54 266.67 87.77 289.35 29.64 300.91-29.64 300.91-87.77 289.35-142.54 266.67-191.82 233.73-59.53 48.859h2528l312.18-448.7 595.95-320.44 647.01-198.01 673.21-67.983 673.54 64.661 647.99 194.82 597.52 317.49 14.16 9.462 312.19 448.7-2236.9 2236.9-2236.9-2236.9h-2528l-174.2 142.96-266.67 142.54-289.35 87.773-225.5 22.21h-750.82l-225.5-22.21-289.35-87.773-266.67-142.54-233.73-191.82-191.82-233.73-142.54-266.67-87.77-289.35-29.64-300.91h-49.87v3564.5h4536.7l64.66-673.54 194.82-647.98 317.49-597.52 9.46-14.162 448.7-312.18 2236.9 2236.9h359.22l2236.9-2236.9 448.7 312.18 320.43 595.95 198.02 647.01 67.98 673.21-64.66 673.54-194.82 647.98-317.49 597.52-9.46 14.162-448.7 312.18-2236.9-2236.9h-359.22l-2236.9 2236.9-448.7-312.18-320.43-595.95-198.01-647.01-67.99-673.21h-4536.7v2499.8l19.74 201.28 49.25 163.15 80.01 150.47 107.71 132.06 131.31 108.63 149.91 81.055 162.79 50.393 199.24 20.941h6729.1l-305.75-29.353"/>
      <path d="m134971-76877-647.99-194.82-597.52-317.49-14.16-9.462-312.18-448.7 2236.9-2236.9 2236.9 2236.9-312.19 448.7-595.95 320.44-647.01 198.01-323.57 32.675h6121.6l-178.45-30.723-208.7-80.19-52.01-27.799-35.11-213.42 598.56-598.56 598.56 598.56-35.11 213.42-204.28 90.87-211.74 47.842h20048l-178.45-30.723-208.7-80.19-52.01-27.799-35.11-213.42 598.56-598.56 598.56 598.56-35.11 213.42-204.28 90.87-211.74 47.842h13537l201.28-19.736 163.15-49.257 150.47-80.007 132.06-107.71 108.63-131.31 81.06-149.91 50.39-162.79 20.94-199.24v-47697l-19.74-201.3-49.25-163.14-80.01-150.47-107.71-132.06-131.3-108.63-149.91-81.06-162.8-50.39-199.24-20.94h-3952.8l57.54 189.7 17.87 181.44v821.32l-17.87 181.44-70.62 232.8-114.68 214.55-154.33 188.05-188.05 154.33-214.55 114.68-232.8 70.62-242.1 23.85-242.1-23.85-9.93-3.01 118.98 79.5 189.43 189.43 148.84 222.75 102.52 247.5 52.26 262.75v267.9l-52.26 262.75-102.52 247.5-148.84 222.75-189.43 189.43-222.75 148.84-247.5 102.52-262.75 52.26h-267.9l-262.75-52.26-247.5-102.52-222.75-148.84-189.43-189.43-148.84-222.75-102.52-247.5-52.26-262.75v-267.9l52.26-262.75 102.52-247.5 148.84-222.75 189.43-189.43 222.75-148.84 247.5-102.52 262.75-52.26h267.9l165.82 32.98-177.27-145.48-154.33-188.05-114.68-214.55-70.62-232.8-17.87-181.44v-821.32l17.87-181.44 57.54-189.7h-4680.8l57.54 189.7 17.87 181.44v821.32l-17.87 181.44-70.62 232.8-114.68 214.55-154.33 188.05-177.27 145.48 165.82-32.98h267.9l262.75 52.26 247.5 102.52 222.75 148.84 189.43 189.43 148.84 222.75 102.52 247.5 52.26 262.75v267.9l-52.26 262.75-102.52 247.5-148.84 222.75-189.43 189.43-222.75 148.84-49.2 20.38v2264.9h7682.6l29.64-300.91 87.77-289.35 142.54-266.67 191.82-233.73 233.73-191.82 266.67-142.54 289.35-87.77 225.5-22.21h750.82l225.5 22.21 289.35 87.77 266.67 142.54 233.73 191.82 191.82 233.73 142.54 266.67 87.77 289.35 29.64 300.91-29.64 300.91-87.77 289.35-142.54 266.67-191.82 233.73-233.73 191.82-266.67 142.54-289.35 87.77-225.5 22.21h-750.82l-225.5-22.21-289.35-87.77-266.67-142.54-233.73-191.82-191.82-233.73-142.54-266.67-87.77-289.35-29.64-300.91h-7682.6v3440.2l85.01 85.01 29 23.8 27.49 33.49 67.48 82.23 70.58 132.03 22.52 74.27 20.93 68.99 11 111.66 3.68 37.32-3.68 37.32v13125l0.76 7.75 3224.4-3224.4-44.74-54.51-58.96-110.31-36.31-119.7-12.26-124.48v-1900l12.26-124.48 36.31-119.7 9.36-17.51-15.09-36.41-32.58-163.83h-322.19l-124.48-12.26-119.7-36.31-110.31-58.96-96.69-79.36-79.36-96.69-58.96-110.31-36.31-119.7-12.26-124.48v-1900l12.26-124.48 36.31-119.7 58.96-110.31 79.36-96.7 96.69-79.35 59.76-31.94 59.76-111.8 8.2-10 86.77-105.72 29-23.8 295.2-295.2 23.8-29 115.72-94.97 132.03-70.58 143.26-43.45 111.66-11 37.32-3.68 37.32 3.68h1864.4l37.32-3.68 37.32 3.68 111.66 11 143.26 43.45 132.03 70.58 115.72 94.97 23.81 29 285.19 285.2 29 23.8 94.98 115.72 70.57 132.03 43.45 143.26 11 111.66 3.68 37.33-3.68 37.32v9276.7h802.57l29.64-300.91 87.77-289.35 142.54-266.67 191.82-233.73 233.73-191.82 266.67-142.54 289.35-87.77 225.5-22.21h750.82l225.5 22.21 289.35 87.77 266.67 142.54 233.73 191.82 191.82 233.73 142.54 266.67 87.77 289.35 29.64 300.91-29.64 300.91-87.77 289.35-142.54 266.67-191.82 233.73-233.73 191.82-266.67 142.54-289.35 87.77-225.5 22.21h-750.82l-225.5-22.21-289.35-87.77-266.67-142.54-233.73-191.82-191.82-233.73-142.54-266.67-87.77-289.35-29.64-300.91h-802.55v65.67l3.68 37.33-14.68 148.98-43.45 143.27-70.57 132.02-94.98 115.73-28.99 23.8-2949.8 2949.8 162.92-49.42 225.5-22.21h750.82l225.5 22.21 289.35 87.773 266.67 142.54 233.73 191.82 191.82 233.73 142.54 266.67 87.77 289.35 29.64 300.91-29.64 300.91-87.77 289.35-142.54 266.67-191.82 233.73-233.73 191.82-266.67 142.54-289.35 87.773-225.5 22.21h-750.82l-225.5-22.21-289.35-87.773-266.67-142.54-233.73-191.82-191.82-233.73-142.54-266.67-87.77-289.35-29.64-300.91 29.64-300.91 49.42-162.92-1032.6 1032.6v5235.9l3.68 37.333-14.68 148.99-43.45 143.26-70.58 132.03-58.04 70.727-36.93 44.998-29 23.797-3614.9 3614.9 19.88 19.884h2636.2l95.77-264.4 289.61-140.89 311.54-81.68 321.49-19.334 319.07 43.757 304.42 105.17 173.95 92.981 95.77 264.4-955.81 955.81-955.81-955.81h-2636.2l94.66 94.654 157.04 235.03 108.17 261.15 55.15 277.24v204.74h1535.3l43.76-319.08 105.16-304.41 92.99-173.96 264.4-95.764 955.8 955.81h359.22l955.8-955.81 264.4 95.764 140.89 289.62 81.68 311.54 19.34 321.49-13.5 98.438h1236.8v-322.07l62.83-315.88 123.25-297.55 178.93-267.79 227.74-227.74 267.79-178.93 297.55-123.25 315.88-62.832h322.06l315.88 62.832 297.55 123.25 267.79 178.93 227.74 227.74 178.93 267.79 123.25 297.55 62.83 315.88v322.07l-62.83 315.88-123.25 297.55-178.93 267.79-227.74 227.74-267.79 178.93-181.26 75.082h1192.4l29.64-300.91 87.77-289.35 142.54-266.67 191.82-233.73 233.73-191.82 266.67-142.54 289.35-87.773 225.5-22.21h750.82l225.5 22.21 289.35 87.773 266.67 142.54 233.73 191.82 191.82 233.73 142.54 266.67 87.77 289.35 29.64 300.91-29.64 300.91-87.77 289.35-142.54 266.67-191.82 233.73-233.73 191.82-266.67 142.54-289.35 87.773-225.5 22.21h-750.82l-225.5-22.21-289.35-87.773-266.67-142.54-233.73-191.82-191.82-233.73-142.54-266.67-87.77-289.35-29.64-300.91h-1192.4l-116.29 48.168-315.88 62.832h-322.06l-315.88-62.832-297.55-123.25-267.79-178.93-227.74-227.74-178.93-267.79-123.25-297.55-62.83-315.88h-1236.8l-30.26 220.64-105.16 304.41-92.99 173.96-264.4 95.764-955.8-955.81h-359.22l-955.8 955.81-264.4-95.764-140.89-289.62-81.68-311.54-19.34-321.49h-1535.3v77.93l-55.15 277.24-108.17 261.15-157.04 235.03-199.88 199.88-219.67 146.78h2961.1l955.81-955.81 955.81 955.81-95.77 264.4-289.61 140.89-311.54 81.68-321.48 19.334-319.08-43.757-304.42-105.17-173.95-92.981-95.77-264.4h-2961.1l-15.36 10.267-261.16 108.17-277.24 55.147h-282.66l-277.24-55.147-261.16-108.17-235.03-157.04-199.88-199.88-135.36-202.59-135.36 202.59-199.88 199.88-235.03 157.04-261.16 108.17-277.24 55.147h-282.66l-277.24-55.147-261.16-108.17-235.03-157.04-199.88-199.88-134.05-200.63-14.64 27.383-243.97 71.583-813.09-813.1 14.14-14.143-179.61-179.6-14.14 14.143-14.14-14.143-179.61 179.6 14.14 14.143-813.09 813.1-243.97-71.583-20.89-44.149-295.34 295.34h739.8l813.1-813.1 813.1 813.1-71.59 243.97-255.51 120.9-274.18 68.729-282.33 13.917-279.62-41.43-266.16-95.184-125.22-66.932-71.59-243.97h-739.8l-2448.6 2448.6h2566.5v-282.67l55.15-277.24 108.17-261.15 157.04-235.03 199.88-199.88 235.03-157.04 261.16-108.17 277.24-55.147h282.66l277.24 55.147 261.16 108.17 235.03 157.04 199.88 199.88 135.36 202.59 135.36-202.59 199.88-199.88 235.03-157.04 261.16-108.17 277.24-55.147h282.66l277.24 55.147 261.16 108.17 235.03 157.04 199.88 199.88 135.36 202.59 135.36-202.59 199.88-199.88 235.03-157.04 261.16-108.17 277.24-55.147h282.66l277.24 55.147 261.16 108.17 235.03 157.04 199.88 199.88 157.04 235.03 108.17 261.15 55.15 277.24v282.67l-55.15 277.24-108.17 261.15-157.04 235.03-199.88 199.88-235.03 157.04-261.16 108.17-277.24 55.147h-282.66l-277.24-55.147-261.16-108.17-235.03-157.04-199.88-199.88-135.36-202.59-135.36 202.59-199.88 199.88-235.03 157.04-261.16 108.17-277.24 55.147h-282.66l-277.24-55.147-261.16-108.17-235.03-157.04-199.88-199.88-135.36-202.59-135.36 202.59-199.88 199.88-235.03 157.04-261.16 108.17-277.24 55.147h-282.66l-277.24-55.147-261.16-108.17-235.03-157.04-199.88-199.88-157.04-235.03-108.17-261.15-55.15-277.24h-2566.5l-243.66 243.66-23.81 29.004-115.72 94.973-132.03 70.572-143.26 43.457-148.98 14.673-37.32-3.676h-695.11l-37.32 3.676-37.33-3.676-111.66-10.997-143.26-43.457-132.03-70.572-83.64-68.642-32.08-26.331-23.8-28.998-2536.4-2536.4-29-23.803-53.36-65.013-41.61-50.712-59.17-110.69-11.41-21.337-43.45-143.26-11-111.65v-0.01l-2.26-22.943-6.14 17.162-66.93 125.22-243.97 71.583-813.09-813.1 813.09-813.1 243.97 71.583 75.33 159.2v-716.87l-256-256-161.2 161.2-23.8 29.003-115.72 94.973-38.08 20.351 24.31 12.994 71.59 243.97-813.1 813.1-813.1-813.1 44.69-152.29h-862.26l45.43 30.353 199.88 199.88 134.05 200.63 14.64-27.383 243.97-71.583 813.09 813.1-813.09 813.1-243.97-71.583-13.65-28.855-135.04 202.1-16.36 16.358 43.97 13.337 90.26 48.248h454.39l813.1-813.1 813.1 813.1-71.59 243.97-255.51 120.9-274.18 68.729-282.33 13.917-279.62-41.43-266.16-95.184-125.22-66.932-71.59-243.97h-454.39l41.77 22.324 115.72 94.973 23.8 29.003 762.31 762.31 182.56-36.312h282.66l277.24 55.147 261.16 108.17 235.03 157.04 199.88 199.88 157.04 235.03 108.17 261.15 55.15 277.24v282.67l-55.15 277.24-108.17 261.15-157.04 235.03-199.88 199.88-235.03 157.04-261.16 108.17-277.24 55.147h-282.66l-277.24-55.147-261.16-108.17-235.03-157.04-199.88-199.88-135.36-202.59-135.36 202.59-199.88 199.88-235.03 157.04-261.16 108.17-277.24 55.147h-282.66l-277.24-55.147-261.16-108.17-235.03-157.04-199.88-199.88-134.05-200.63-14.64 27.383-243.97 71.583-813.09-813.1 813.09-813.1 243.97 71.583 13.65 28.855 135.04-202.1 16.36-16.358-43.97-13.337-132.03-70.572-86.72-71.174-28.99-23.794-23.8-28.993-762.31-762.32-182.56 36.312h-282.66l-277.24-55.147-261.16-108.17-235.03-157.04-199.88-199.88-157.04-235.03-108.17-261.15-55.15-277.24v-282.67l55.15-277.24 108.17-261.15 157.04-235.03 199.88-199.88 110.87-74.083-35.35-10.724-132.03-70.572-83.64-68.642-32.08-26.331-23.8-28.998-2233.2-2233.2v4173.4l1761.1 1761.1h769.8l71.59-243.97 255.51-120.9 274.18-68.729 282.33-13.917 279.62 41.43 266.16 95.184 125.22 66.932 71.59 243.97-813.1 813.1-813.1-813.1h-769.8l313.12 313.13 33.11-61.938 243.97-71.583 813.09 813.1-14.14 14.142 179.61 179.6 14.14-14.142 813.1 813.1-71.59 243.97-64.51 30.527 1352.9 1352.9h17156l16.67-54.99 90.33-203.34 128.26-181.81 161.26-153.3 188.07-118.89 207.65-79.916 174.88 125v842.13h254v-842.13l174.88-125 207.65 79.916 188.07 118.89 161.26 153.3 7.49 10.607h2749.8l95.77-264.4 289.61-140.89 311.54-81.68 321.49-19.334 319.07 43.757 304.42 105.17 173.95 92.981 95.77 264.4-955.81 955.81-955.81-955.81h-2749.8l120.77 171.21 90.33 203.34 16.67 54.99-126.17 174.87h-1935.9l-126.17-174.87h-17156l811.87 811.87h8860.5l43.94-43.937 169.51-113.27 188.36-78.021 199.96-39.774h203.88l199.96 39.774 188.36 78.021 169.51 113.27 144.17 144.16 113.26 169.52 78.03 188.36 39.77 199.96v19.533h5701.5l37.93-220.33 80.19-208.7 27.8-52.01 96.5-15.876-92.03-130.47-90.33-203.34-16.67-54.99 126.17-174.87h840.95v10.904l209.41-5.415 44.59 7.678v-13.167h840.95l126.17 174.87-11.99 39.531h1848.2l43.76-319.08 105.16-304.41 92.99-173.96 264.4-95.764 955.8 955.81h359.22l955.8-955.81 264.4 95.764 140.89 289.62 81.68 311.54 19.34 321.49-13.5 98.438h1236.8v-322.07l62.83-315.88 123.25-297.55 178.93-267.79 227.74-227.74 267.79-178.93 297.55-123.25 315.88-62.832h322.06l315.88 62.832 297.55 123.25 267.79 178.93 227.74 227.74 178.93 267.79 123.25 297.55 62.83 315.88v322.07l-62.83 315.88-123.25 297.55-178.93 267.79-227.74 227.74-267.79 178.93-297.55 123.25-315.88 62.832h-322.06l-315.88-62.832-297.55-123.25-267.79-178.93-227.74-227.74-178.93-267.79-123.25-297.55-62.83-315.88h-1236.8l-30.26 220.64-105.16 304.41-92.99 173.96-264.4 95.764-955.8-955.81h-359.22l-955.8 955.81-264.4-95.764-140.89-289.62-81.68-311.54-19.34-321.49h-1848.2l-4.68 15.459-90.33 203.34-92.03 130.47 96.5 15.876 90.87 204.28 49.27 218.08 5.78 223.5-32.19 187.01h2510.9l955.81-955.81 955.81 955.81-95.77 264.4-289.61 140.89-311.54 81.68-321.48 19.334-319.08-43.757-304.42-105.17-173.95-92.981-95.77-264.4h-2510.9l-5.74 33.327-80.19 208.7-27.8 52.01-213.42 35.111-598.56-598.56 14.14-14.143-179.61-179.6-14.14 14.143-14.14-14.143-179.61 179.6 14.14 14.143-598.56 598.56-213.42-35.111-90.87-204.28-49.27-218.08-5.78-223.5h-5701.5v184.34l-39.77 199.96-78.03 188.36-113.26 169.52-144.17 144.16-169.51 113.27-188.36 78.021-199.96 39.774h-203.88l-199.96-39.774-188.36-78.021-169.51-113.27-43.94-43.937h-9138l-37.32 3.676-37.33-3.676-111.66-10.997-143.26-43.457-132.03-70.572-115.72-94.973-23.8-28.998-961.26-961.26 40.52 91.08 49.27 218.08 5.78 223.5-37.93 220.33-80.19 208.7-27.8 52.01-213.42 35.111-598.56-598.56 14.14-14.143-179.61-179.6-14.14 14.143-14.14-14.143-179.61 179.6 14.14 14.143-598.56 598.56-213.42-35.111-90.87-204.28-49.27-218.08-5.78-223.5 37.93-220.33 80.19-208.7 27.8-52.01 96.5-15.876-92.03-130.47-90.33-203.34-16.67-54.99 126.17-174.87h840.95v10.904l209.41-5.415 44.59 7.678v-13.167h20v-202.2l-71.8-71.804h-202.2v20h-840.95l-126.17-174.87 16.67-54.99 90.33-203.34 128.26-181.81 161.26-153.3 15-9.481-3892.4-3892.4-29-23.803-35.49-43.249-59.48-72.476-7.27-13.598-63.31-118.43-43.45-143.26-11-111.65v-0.01l-3.68-37.322 3.68-37.322v-15369l-4982-4982-29-23.8-55.13-67.18-39.85-48.55-5.19-9.72-65.38-122.31-43.45-143.26-11-111.65-3.68-37.32 3.68-37.32v-7310.4l-3.68-37.33 14.68-148.99 43.45-143.26 70.57-132.03 52.1-63.47 42.88-52.25 29-23.8 793.2-793.2 23.8-29 115.72-94.97 132.03-70.58 143.26-43.45 111.66-11 37.33-3.68 37.32 3.68h1104l43.94-43.94 169.51-113.27 188.36-78.02 199.96-39.77h203.88l199.96 39.77 188.36 78.02 169.51 113.27 144.17 144.17 113.26 169.51 78.03 188.36 39.77 199.96v203.88l-39.77 199.96-78.03 188.36-113.26 169.51-8.07 8.07 31.78 38.71 61.38-114.83 31.16-37.97 63.81-77.75 29-23.8 1508-1508v-62.14l39.77-199.96 78.03-188.36 113.26-169.51 144.17-144.17 169.51-113.27 188.36-78.02 174.9-34.79v-8114l2.44-24.78 7.23-23.82 11.73-21.96 15.8-19.24 19.24-15.8 21.96-11.73 23.82-7.23 24.78-2.44h24464l-205.18-109.67-188.05-154.33-154.33-188.05-114.68-214.55-70.62-232.8-17.87-181.44v-821.32l17.87-181.44 57.55-189.7h-34425l-201.29 19.74-163.14 49.25-150.47 80.01-132.06 107.71-108.63 131.3-81.05 149.91-50.4 162.8-20.94 199.24v1646.6h2947.3v-292.52l57.07-286.9 111.94-270.25 162.51-243.22 206.85-206.85 243.22-162.51 270.25-111.94 286.9-57.07h292.52l286.9 57.07 270.25 111.94 243.22 162.51 206.85 206.85 121.72 182.16 69.62-116.89 194.91-216.23 233.35-174.05 262.82-125.19 147.21-44.65 229.89 121.32v1193.2h-20v254h20v1193.2h254v-1193.2h20v-254h-20v-1193.2l229.89-121.32 147.21 44.65 262.82 125.19 233.35 174.05 194.91 216.23 69.62 116.89 121.72-182.16 206.85-206.85 243.22-162.51 270.25-111.94 286.9-57.07h292.52l286.9 57.07 270.25 111.94 243.22 162.51 206.85 206.85 162.51 243.22 111.94 270.25 57.07 286.9v292.52l-57.07 286.9-111.94 270.25-162.51 243.22-206.85 206.85-243.22 162.51-270.25 111.94-286.9 57.07h-292.52l-286.9-57.07-270.25-111.94-243.22-162.51-206.85-206.85-121.72-182.16-69.62 116.88-194.91 216.24-233.35 174.05-262.82 125.18-147.21 44.66-229.89-121.33h-254l-229.89 121.33-147.21-44.66-262.82-125.18-233.35-174.05-194.91-216.24-69.62-116.88-121.72 182.16-206.85 206.85-243.22 162.51-270.25 111.94-286.9 57.07h-292.52l-286.9-57.07-270.25-111.94-243.22-162.51-206.85-206.85-162.51-243.22-111.94-270.25-57.07-286.9h-2947.3v4425.7h49.87l29.64-300.91 87.77-289.35 142.54-266.67 191.82-233.73 233.73-191.82 266.67-142.54 289.35-87.77 225.5-22.21h750.82l225.5 22.21 289.35 87.77 266.67 142.54 233.73 191.82 191.82 233.73 142.54 266.67 87.77 289.35 29.64 300.91-29.64 300.91-87.77 289.35-142.54 266.67-191.82 233.73-233.73 191.82-266.67 142.54-289.35 87.77-225.5 22.21h-750.82l-225.5-22.21-289.35-87.77-266.67-142.54-233.73-191.82-191.82-233.73-142.54-266.67-87.77-289.35-29.64-300.91h-49.87v17780h49.87l29.64-300.91 87.77-289.35 142.54-266.67 191.82-233.73 233.73-191.82 266.67-142.54 289.35-87.77 225.5-22.21h750.82l225.5 22.21 289.35 87.77 266.67 142.54 233.73 191.82 191.82 233.73 142.54 266.67 87.77 289.35 29.64 300.91-29.64 300.91-87.77 289.35-142.54 266.67-191.82 233.73-233.73 191.82-266.67 142.54-289.35 87.77-225.5 22.21h-750.82l-225.5-22.21-289.35-87.77-266.67-142.54-233.73-191.82-191.82-233.73-142.54-266.67-87.77-289.35-29.64-300.91h-49.87v5080h5129.9l29.64-300.91 87.77-289.35 142.54-266.67 191.82-233.73 233.73-191.82 266.67-142.54 289.35-87.773 225.5-22.21h750.82l225.5 22.21 289.35 87.773 266.67 142.54 233.73 191.82 191.82 233.73 142.54 266.67 87.77 289.35 29.64 300.91-29.64 300.91-87.77 289.35-142.54 266.67-191.82 233.73-233.73 191.82-266.67 142.54-289.35 87.773-225.5 22.21h-750.82l-225.5-22.21-289.35-87.773-266.67-142.54-233.73-191.82-191.82-233.73-142.54-266.67-87.77-289.35-29.64-300.91h-5129.9v12700h49.87l29.64-300.91 87.77-289.35 142.54-266.67 191.82-233.73 233.73-191.82 266.67-142.54 289.35-87.773 225.5-22.21h750.82l225.5 22.21 289.35 87.773 266.67 142.54 233.73 191.82 191.82 233.73 142.54 266.67 87.77 289.35 29.64 300.91-29.64 300.91-87.77 289.35-142.54 266.67-191.82 233.73-59.53 48.859h2528l312.18-448.7 595.95-320.44 647.01-198.01 673.21-67.983 673.54 64.661 647.99 194.82 597.52 317.49 14.16 9.462 312.19 448.7-2236.9 2236.9-2236.9-2236.9h-2528l-174.2 142.96-266.67 142.54-289.35 87.773-225.5 22.21h-750.82l-225.5-22.21-289.35-87.773-266.67-142.54-233.73-191.82-191.82-233.73-142.54-266.67-87.77-289.35-29.64-300.91h-49.87v3564.5h4536.7l64.66-673.54 194.82-647.98 317.49-597.52 9.46-14.162 448.7-312.18 2236.9 2236.9h359.22l2236.9-2236.9 448.7 312.18 320.43 595.95 198.02 647.01 67.98 673.21-64.66 673.54-194.82 647.98-317.49 597.52-9.46 14.162-448.7 312.18-2236.9-2236.9h-359.22l-2236.9 2236.9-448.7-312.18-320.43-595.95-198.01-647.01-67.99-673.21h-4536.7v2499.8l19.74 201.28 49.25 163.15 80.01 150.47 107.71 132.06 131.31 108.63 149.91 81.055 162.79 50.393 199.24 20.941h6729.1l-305.75-29.353" fill="none" stroke-width="254"/>
      <path d="m138731-113264-0.76-7.76-810.23 810.22v2246.9l3.68 37.33-3.68 37.32-11 111.66-43.45 143.26-70.58 132.03-94.97 115.72-29 23.8-1388.2 1388.2-23.8 29-115.72 94.97-132.03 70.58-143.26 43.45-111.66 11-37.32 3.68-37.32-3.68h-23.61v190l-12.26 124.48-36.31 119.7-58.96 110.31-79.35 96.69-96.7 79.36-110.31 58.96-119.7 36.31-124.48 12.26h-590v981.13l4301 4301v-11398"/>
      <path d="m138731-113264-0.76-7.76-810.23 810.22v2246.9l3.68 37.33-3.68 37.32-11 111.66-43.45 143.26-70.58 132.03-94.97 115.72-29 23.8-1388.2 1388.2-23.8 29-115.72 94.97-132.03 70.58-143.26 43.45-111.66 11-37.32 3.68-37.32-3.68h-23.61v190l-12.26 124.48-36.31 119.7-58.96 110.31-79.35 96.69-96.7 79.36-110.31 58.96-119.7 36.31-124.48 12.26h-590v981.13l4301 4301v-11398" fill="none" stroke-width="254"/>
      <path d="m170370-102103v-2168.4l-3727 3727v62.14l-39.77 199.96-78.03 188.36-113.26 169.51-144.17 144.16-169.51 113.27-188.36 78.021-174.9 34.789v2086.2l4635-4635"/>
      <path d="m170370-102103v-2168.4l-3727 3727v62.14l-39.77 199.96-78.03 188.36-113.26 169.51-144.17 144.16-169.51 113.27-188.36 78.021-174.9 34.789v2086.2l4635-4635" fill="none" stroke-width="254"/>
      <path d="m151596-83718 144.17-144.16 169.51-113.27 188.36-78.021 199.96-39.774h62.14l3794-3794 23.8-28.999 115.72-94.973 132.03-70.572 143.26-43.457 148.98-14.673 37.32 3.676h2309.4l-49.47-163.09-22.21-225.5v-750.82l22.21-225.5 87.77-289.35 142.54-266.67 191.82-233.73 233.73-191.82 266.67-142.54 289.35-87.773 300.91-29.637 300.91 29.637 289.35 87.773 266.67 142.54 233.73 191.82 191.82 233.73 142.54 266.67 87.77 289.35 22.21 225.5v750.82l-22.21 225.5-49.42 162.92 2668.8-2668.8h-24962v320.2l2349.8 2349.8h761.18l-49.78-164.1-22.21-225.5v-750.82l22.21-225.5 87.77-289.35 142.54-266.67 191.82-233.73 233.73-191.82 266.67-142.54 289.35-87.773 300.91-29.637 300.91 29.637 289.35 87.773 266.67 142.54 233.73 191.82 191.82 233.73 142.54 266.67 87.77 289.35 22.21 225.5v750.82l-22.21 225.5-49.78 164.1h1561.2l4.8-4.801v-62.138l39.77-199.96 78.03-188.36 113.26-169.52 144.17-144.16 169.51-113.27 188.36-78.021 199.96-39.774h203.88l199.96 39.774 188.36 78.021 169.51 113.27 144.17 144.16 113.26 169.52 78.03 188.36 39.77 199.96v62.138l492 492 29 23.798 28.73 35.004 66.24 80.72 70.58 132.03 6.44 21.236 37.01 122.02 11 111.65v0.01l3.68 37.323-3.68 37.322v1846.6l1483.4 1483.3 0.71-1.071"/>
      <path d="m151596-83718 144.17-144.16 169.51-113.27 188.36-78.021 199.96-39.774h62.14l3794-3794 23.8-28.999 115.72-94.973 132.03-70.572 143.26-43.457 148.98-14.673 37.32 3.676h2309.4l-49.47-163.09-22.21-225.5v-750.82l22.21-225.5 87.77-289.35 142.54-266.67 191.82-233.73 233.73-191.82 266.67-142.54 289.35-87.773 300.91-29.637 300.91 29.637 289.35 87.773 266.67 142.54 233.73 191.82 191.82 233.73 142.54 266.67 87.77 289.35 22.21 225.5v750.82l-22.21 225.5-49.42 162.92 2668.8-2668.8h-24962v320.2l2349.8 2349.8h761.18l-49.78-164.1-22.21-225.5v-750.82l22.21-225.5 87.77-289.35 142.54-266.67 191.82-233.73 233.73-191.82 266.67-142.54 289.35-87.773 300.91-29.637 300.91 29.637 289.35 87.773 266.67 142.54 233.73 191.82 191.82 233.73 142.54 266.67 87.77 289.35 22.21 225.5v750.82l-22.21 225.5-49.78 164.1h1561.2l4.8-4.801v-62.138l39.77-199.96 78.03-188.36 113.26-169.52 144.17-144.16 169.51-113.27 188.36-78.021 199.96-39.774h203.88l199.96 39.774 188.36 78.021 169.51 113.27 144.17 144.16 113.26 169.52 78.03 188.36 39.77 199.96v62.138l492 492 29 23.798 28.73 35.004 66.24 80.72 70.58 132.03 6.44 21.236 37.01 122.02 11 111.65v0.01l3.68 37.323-3.68 37.322v1846.6l1483.4 1483.3 0.71-1.071" fill="none" stroke-width="254"/>
    </g>
    <g id="VJ_iOD-XTz_-a8sbSLiE_top_silkscreen">
      <path d="m170434-88900a254 254 0 0 1-508 0 254 254 0 0 1 508 0m-35560 0a254 254 0 0 1-508 0 254 254 0 0 1 508 0m-5080-19812a254 254 0 0 1-508 0 254 254 0 0 1 508 0m45720 2032a254 254 0 0 1-508 0 254 254 0 0 1 508 0m-30988-2032a254 254 0 0 1-508 0 254 254 0 0 1 508 0m16256 2032a254 254 0 0 1-508 0 254 254 0 0 1 508 0m-6096-2032a254 254 0 0 1-508 0 254 254 0 0 1 508 0m-4064 2032a254 254 0 0 1-508 0 254 254 0 0 1 508 0" fill="none" stroke-width="508"/>
      <path d="m131072-87082 238.1-1e3 190.47 714.28 190.48-714.28 238.09 1e3m523.81-1e3 -95.23 47.619-47.62 47.619-47.62 95.238v285.71l47.62 95.238 47.62 47.619 95.23 47.619h142.86l95.24-47.619 47.62-47.619 47.62-95.238v-285.71l-47.62-95.238-47.62-47.619-95.24-47.619h-142.86m761.91 0v666.67m0-190.48 47.62 95.238 47.62 47.619 95.23 47.619h95.24m761.91-666.67v1e3m0-952.38-95.24-47.619h-190.48l-95.24 47.619-47.61 47.619-47.62 95.238v285.71l47.62 95.238 47.61 47.619 95.24 47.619h190.48l95.24-47.619m1714.3-619.05h-476.19v1e3m809.53-1e3v666.67m0 333.33-47.62-47.62 47.62-47.619 47.62 47.619-47.62 47.62v-95.239m476.19-238.1v-666.67m0 571.43 47.62 47.619 95.23 47.619h142.86l95.24-47.619 47.62-95.238v-523.81m857.14 47.619-95.24-47.619h-190.47l-95.24 47.619-47.62 95.238v380.95l47.62 95.238 95.24 47.619h190.47l95.24-47.619 47.62-95.238v-95.238l-476.19-95.238m35431-8673.5v1e3m843.57-428.57 47.62 142.86 47.62 47.619 95.24 47.619h142.85l95.24-47.619 47.62-47.619 47.62-95.238v-380.95h-1e3v333.33l47.62 95.238 47.62 47.619 95.24 47.619h95.24l95.23-47.619 47.62-47.619 47.62-95.238v-333.33m-843.57 761.9v476.19m1367.4-238.1h-666.67m-333.33 0 47.62-47.619 47.62 47.619-47.62 47.619-47.62-47.619h95.24m-462.62 238.1v571.43m700.71-476.19v380.95m-333.33-238.1h857.14l95.24 47.619 47.62 95.238v95.238m-1367.4 95.239v1571.4m1367.4-95.238v-476.19h-1e3m-367.38 571.43v476.19m1367.4-238.1h-666.67m-333.33 0 47.62-47.619 47.62 47.619-47.62 47.619-47.62-47.619h95.24m-462.62 238.1v904.76m700.71-666.67h666.67m-571.43 0-47.62 47.619-47.62 95.238v142.86l47.62 95.238 95.24 47.619h523.81m-1367.4 238.1v857.14m1319.8-238.1 47.62-95.238v-190.48l-47.62-95.238-95.24-47.619h-380.95l-95.24 47.619-47.62 95.238v190.48l47.62 95.238 95.24 47.619h95.24l95.24-476.19m-43370-4619 47.62 142.86 47.62 47.619 95.24 47.619h142.85l95.24-47.619 47.62-47.619 47.62-95.238v-380.95h-1e3v333.33l47.62 95.238 47.62 47.619 95.24 47.619h95.24l95.23-47.619 47.62-47.619 47.62-95.238v-333.33m523.81 1e3h-666.67m-333.33 0 47.62-47.619 47.62 47.619-47.62 47.619-47.62-47.619h95.24m238.09 333.33v380.95m-333.33-238.1h857.14l95.24 47.619 47.62 95.238v95.238m0 1571.4v-476.19h-1e3m1e3 809.52h-666.67m-333.33 0 47.62-47.619 47.62 47.619-47.62 47.619-47.62-47.619h95.24m238.09 476.19h666.67m-571.43 0-47.62 47.619-47.62 95.238v142.86l47.62 95.238 95.24 47.619h523.81m-47.62 857.14 47.62-95.238v-190.48l-47.62-95.238-95.24-47.619h-380.95l-95.24 47.619-47.62 95.238v190.48l47.62 95.238 95.24 47.619h95.24l95.24-476.19m9678-1264.1-47.62-47.619-142.85-47.619h-95.24l-142.86 47.619-95.24 95.238-47.61 95.238-47.62 190.48v142.86l47.62 190.48 47.61 95.238 95.24 95.238 142.86 47.62h95.24l142.85-47.62 47.62-47.619m571.43-904.76-95.24 47.619-47.61 47.619-47.62 95.238v285.71l47.62 95.238 47.61 47.619 95.24 47.619h142.86l95.24-47.619 47.62-47.619 47.62-95.238v-285.71l-47.62-95.238-47.62-47.619-95.24-47.619h-142.86m1190.5 666.67v-666.67m-428.57 666.67v-523.81l47.62-95.238 95.23-47.619h142.86l95.24 47.619 47.62 47.619m476.19 571.43v-1e3m0 952.38 95.24 47.619h190.47l95.24-47.619 47.62-47.619 47.62-95.238v-285.71l-47.62-95.238-47.62-47.619-95.24-47.619h-190.47l-95.24 47.619m1047.6-47.619-95.24 47.619-47.62 95.238v857.14m904.76-952.38-95.24-47.619h-190.47l-95.24 47.619-47.62 95.238v380.95l47.62 95.238 95.24 47.619h190.47l95.24-47.619 47.62-95.238v-95.238l-476.19-95.238m1333.3-333.33v1e3m0-952.38-95.23-47.619h-190.48l-95.24 47.619-47.62 47.619-47.62 95.238v285.71l47.62 95.238 47.62 47.619 95.24 47.619h190.48l95.23-47.619m-5523.8-2269v1e3m476.19-333.33v-666.67m0 571.43 47.61 47.619 95.24 47.619h142.86l95.24-47.619 47.62-95.238v-523.81m380.95 666.67 238.09-666.67 238.1 666.67m761.9-619.05-95.23-47.619h-190.48l-95.24 47.619-47.62 95.238v380.95l47.62 95.238 95.24 47.619h190.48l95.23-47.619 47.62-95.238v-95.238l-476.19-95.238m904.77-333.33v666.67m0-190.48 47.61 95.238 47.62 47.619 95.24 47.619h95.24m190.48 0h380.95m-238.1 333.33v-857.14l47.62-95.238 95.24-47.619h95.24m714.28 47.619-95.23-47.619h-190.48l-95.24 47.619-47.62 95.238v380.95l47.62 95.238 95.24 47.619h190.48l95.23-47.619 47.62-95.238v-95.238l-476.19-95.238m904.76-333.33v666.67m0-190.48 47.62 95.238 47.62 47.619 95.24 47.619h95.24m285.71-619.05 95.24-47.619h190.48l95.24 47.619 47.61 95.238v47.619l-47.61 95.238-95.24 47.619h-142.86l-95.24 47.619-47.62 95.238v47.619l47.62 95.238 95.24 47.619h142.86l95.24-47.619m17572 5794h-571.42m285.71 0v1e3l-95.24-142.86-95.24-95.238-95.23-47.619m-6365.9 285.72h95.24l95.24-47.62 47.62-47.619 47.62-95.238 47.61-190.48v-238.1l-47.61-190.48-47.62-95.238-47.62-47.619-95.24-47.619h-95.24l-95.24 47.619-47.62 47.619-47.62 95.238-47.61 190.48v238.1l47.61 190.48 47.62 95.238 47.62 47.619 95.24 47.62m-15240 0h95.24l95.24-47.62 47.62-47.619 47.62-95.238 47.61-190.48v-238.1l-47.61-190.48-47.62-95.238-47.62-47.619-95.24-47.619h-95.24l-95.24 47.619-47.62 47.619-47.62 95.238-47.61 190.48v238.1l47.61 190.48 47.62 95.238 47.62 47.619 95.24 47.62m6937.3-1e3h-571.42m285.71 0v1e3l-95.24-142.86-95.24-95.238-95.23-47.619m-8405.9 1651.2h-1e3m333.33 476.19h666.67m-571.43 0-47.62 47.619-47.62 95.238v142.86l47.62 95.238 95.24 47.619h523.81m-666.67 476.19h1e3m-952.38 0-47.62 95.238v190.48l47.62 95.238 47.62 47.619 95.24 47.619h285.71l95.24-47.619 47.62-47.619 47.62-95.238v-190.48l-47.62-95.238m-619.05 1333.3h666.67m-666.67-428.57h523.81l95.24 47.619 47.62 95.238v142.86l-47.62 95.238-47.62 47.619m-571.43 333.33v380.95m-333.33-238.1h857.14l95.24 47.619 47.62 95.238v95.238m14716-4047.6v333.33m523.81 142.86v-476.19h-1e3v476.19m333.33 428.57h666.67m-571.43 0-47.62 47.619-47.62 95.238v142.86l47.62 95.238 95.24 47.619h523.81m0 904.76h-523.81l-95.24-47.619-47.62-95.238v-190.48l47.62-95.238m571.43 428.57 47.62-95.238v-238.1l-47.62-95.238-95.24-47.62h-95.23l-95.24 47.62-47.62 95.238v238.1l-47.62 95.238m428.57 476.19h-1e3m380.95 0-47.62 95.239v190.48l47.62 95.238 47.62 47.619 95.24 47.619h285.71l95.24-47.619 47.62-47.619 47.62-95.238v-190.48l-47.62-95.239m47.62 1047.6-47.62-95.238-95.24-47.619h-857.14m952.38 904.76 47.62-95.238v-190.48l-47.62-95.238-95.24-47.619h-380.95l-95.24 47.619-47.62 95.238v190.48l47.62 95.238 95.24 47.619h95.24l95.24-476.19m-23606-32195v1e3m1190.5 47.62-857.14-1285.7m1381 1238.1h190.48l95.24-47.62 95.24-95.24 47.62-190.47v-333.34l-47.62-190.47-95.24-95.24-95.24-47.62h-190.48l-95.23 47.62-95.24 95.24-47.62 190.47v333.34l47.62 190.47 95.24 95.24 95.23 47.62m1619-476.19h333.34m142.85-523.81h-476.19v1e3h476.19m428.57-333.33v-666.67m0 571.43 47.62 47.62 95.24 47.62h142.86l95.24-47.62 47.62-95.24v-523.81m904.76 0v523.81l-47.62 95.24-95.24 47.62h-190.48l-95.23-47.62m428.57-571.43-95.24-47.62h-238.1l-95.23 47.62-47.62 95.24v95.23l47.62 95.24 95.23 47.62h238.1l95.24 47.62m476.19-428.57v1e3m0-380.95 95.24 47.62h190.47l95.24-47.62 47.62-47.62 47.62-95.24v-285.71l-47.62-95.24-47.62-47.62-95.24-47.62h-190.47l-95.24 47.62m1047.6-47.62-95.24 47.62-47.62 95.24v857.14m904.76-952.38-95.24-47.62h-190.47l-95.24 47.62-47.62 95.24v380.95l47.62 95.24 95.24 47.62h190.47l95.24-47.62 47.62-95.24v-95.24l-476.19-95.24m-7095.2-983.33h571.43m-285.71-1e3v1e3m619.04-1e3v666.67m0-190.48 47.62 95.24 47.62 47.62 95.24 47.62h95.24m761.9-666.67v523.81l-47.62 95.24-95.23 47.62h-190.48l-95.24-47.62m428.57-571.43-95.24-47.62h-238.09l-95.24 47.62-47.62 95.24v95.23l47.62 95.24 95.24 47.62h238.09l95.24 47.62m476.19 238.1v-666.67m0 571.43 47.62 47.62 95.24 47.62h142.86l95.24-47.62 47.61-95.24v-523.81m428.58 47.62 95.23-47.62h190.48l95.24 47.62 47.62 95.24v47.62l-47.62 95.23-95.24 47.62h-142.86l-95.23 47.62-47.62 95.24v47.62l47.62 95.24 95.23 47.62h142.86l95.24-47.62m476.19-619.05v666.67m0 333.33-47.62-47.62 47.62-47.62 47.62 47.62-47.62 47.62v-95.24m428.57-857.14 95.24-47.62h190.47l95.24 47.62 47.62 95.24v47.62l-47.62 95.23-95.24 47.62h-142.85l-95.24 47.62-47.62 95.24v47.62l47.62 95.24 95.24 47.62h142.85l95.24-47.62m333.34 47.62h380.95m-238.1 333.33v-857.14l47.62-95.24 95.24-47.62h95.24m476.19 0-95.24 47.62-47.62 47.62-47.62 95.24v285.71l47.62 95.24 47.62 47.62 95.24 47.62h142.86l95.23-47.62 47.62-47.62 47.62-95.24v-285.71l-47.62-95.24-47.62-47.62-95.23-47.62h-142.86m761.9 0v666.67m0-190.48 47.62 95.24 47.62 47.62 95.24 47.62h95.24m28036 3015.3v1e3m1190.5 47.62-857.14-1285.7m1381 1238.1h190.48l95.24-47.62 95.24-95.24 47.62-190.47v-333.34l-47.62-190.47-95.24-95.24-95.24-47.62h-190.48l-95.23 47.62-95.24 95.24-47.62 190.47v333.34l47.62 190.47 95.24 95.24 95.23 47.62m1619-476.19h333.34m142.85-523.81h-476.19v1e3h476.19m428.57-333.33v-666.67m0 571.43 47.62 47.62 95.24 47.62h142.86l95.24-47.62 47.62-95.24v-523.81m904.76 0v523.81l-47.62 95.24-95.24 47.62h-190.48l-95.23-47.62m428.57-571.43-95.24-47.62h-238.1l-95.23 47.62-47.62 95.24v95.23l47.62 95.24 95.23 47.62h238.1l95.24 47.62m476.19-428.57v1e3m0-380.95 95.24 47.62h190.47l95.24-47.62 47.62-47.62 47.62-95.24v-285.71l-47.62-95.24-47.62-47.62-95.24-47.62h-190.47l-95.24 47.62m1047.6-47.62-95.24 47.62-47.62 95.24v857.14m904.76-952.38-95.24-47.62h-190.47l-95.24 47.62-47.62 95.24v380.95l47.62 95.24 95.24 47.62h190.47l95.24-47.62 47.62-95.24v-95.24l-476.19-95.24m-7095.2-983.33h571.43m-285.71-1e3v1e3m619.04-1e3v666.67m0-190.48 47.62 95.24 47.62 47.62 95.24 47.62h95.24m761.9-666.67v523.81l-47.62 95.24-95.23 47.62h-190.48l-95.24-47.62m428.57-571.43-95.24-47.62h-238.09l-95.24 47.62-47.62 95.24v95.23l47.62 95.24 95.24 47.62h238.09l95.24 47.62m476.19 238.1v-666.67m0 571.43 47.62 47.62 95.24 47.62h142.86l95.24-47.62 47.61-95.24v-523.81m428.58 47.62 95.23-47.62h190.48l95.24 47.62 47.62 95.24v47.62l-47.62 95.23-95.24 47.62h-142.86l-95.23 47.62-47.62 95.24v47.62l47.62 95.24 95.23 47.62h142.86l95.24-47.62m476.19-619.05v666.67m0 333.33-47.62-47.62 47.62-47.62 47.62 47.62-47.62 47.62v-95.24m428.57-857.14 95.24-47.62h190.47l95.24 47.62 47.62 95.24v47.62l-47.62 95.23-95.24 47.62h-142.85l-95.24 47.62-47.62 95.24v47.62l47.62 95.24 95.24 47.62h142.85l95.24-47.62m333.34 47.62h380.95m-238.1 333.33v-857.14l47.62-95.24 95.24-47.62h95.24m476.19 0-95.24 47.62-47.62 47.62-47.62 95.24v285.71l47.62 95.24 47.62 47.62 95.24 47.62h142.86l95.23-47.62 47.62-47.62 47.62-95.24v-285.71l-47.62-95.24-47.62-47.62-95.23-47.62h-142.86m761.9 0v666.67m0-190.48 47.62 95.24 47.62 47.62 95.24 47.62h95.24m-5793.7 26558 238.1-1e3 190.48 714.28 190.47-714.28 238.1 1e3m380.95-1e3v666.67m0-190.48 47.62 95.238 47.62 47.619 95.24 47.619h95.23m333.34-666.67v666.67m0 333.33-47.62-47.62 47.62-47.619 47.62 47.619-47.62 47.62v-95.239m333.33-238.1h380.95m-238.09 333.33v-857.14l47.62-95.238 95.23-47.619h95.24m714.29 47.619-95.24-47.619h-190.48l-95.23 47.619-47.62 95.238v380.95l47.62 95.238 95.23 47.619h190.48l95.24-47.619 47.62-95.238v-95.238l-476.19-95.238" fill="none" stroke-width="150"/>
      <path d="m143788-79768 290.29-120.95h483.81l193.52 120.95 96.76 120.95 96.76 241.9v241.9l-96.76 241.9-96.76 120.95-193.52 120.95-387.05 120.95-193.53 120.95-96.76 120.95-96.76 241.9v241.9l96.76 241.9 96.76 120.95 193.53 120.95h483.81l290.28-120.95m870.86-1451.4h1548.2m2128.8-967.62-677.33 1209.5m-483.81-1209.5v2540h774.1l193.52-120.95 96.76-120.95 96.76-241.9v-362.86l-96.76-241.9-96.76-120.95-193.52-120.95h-774.1m1935.2-483.81h967.62m-1161.2-725.71 677.34 2540 677.33-2540m677.33 0v2540l677.34-1814.3 677.33 1814.3v-2540m3677 241.9-96.76-120.95-290.28-120.95h-193.53l-290.28 120.95-193.53 241.9-96.76 241.9-96.76 483.81v362.86l96.76 483.81 96.76 241.9 193.53 241.9 290.28 120.95h193.53l290.28-120.95 96.76-120.95m1645-2177.1-193.53-120.95h-387.05l-193.52 120.95-96.76 241.9v967.62l96.76 241.9 193.52 120.95h387.05l193.53-120.95 96.76-241.9v-241.9l-967.62-241.9m2128.8-846.67-193.52 120.95-96.77 241.9v2177.1m1354.7-2540-193.52 120.95-96.76 241.9v2177.1" fill="none" stroke-width="406.4"/>
      <path d="m127000-88900h50800m-2540-38100v50800m-45720-50800v50800m43688-27940h-6096m5080 1016h-4064m7112-3556h-3048l508 1016m-4572-1016h-7620m11176 1016 508-1016m-2032 3556v14224m2032-17780v2540m-4064-2540v2540m-36068-3556 508-1016h-3048m5080 3556v16256m-2032-19812v2540m5080 0h-6096m5080-2540v2540m-4064-2540 508 1016m11176-1016h-7620m0 3556h-4064m21336-16764h-3048m2540-508h-2032m508-508h1016m-508 3048v-2032m0 29972 1016-2032m-1016 2032-1016-2032m1016-1524v3556m-8128-3556h16256m0-24384h-16256m0 11176h10160m6096 2032h-10160m6604-6096v-4064m3556 0-1016 508m1016 3556h-2540m0 1016v-6096m-1016 3048h-2540m6096-2032v-3048m-1016 2540 1016 508h-2540m-3556 2032v14224m-4064 0v-14224m7620 16256 1016-508m-14732-3556h2540m1016-14224v4064m0-2032h2540m-5080-2540-1016 508h2540m-1524 508-1016-508m0 4064h2540m0-5080v6096m-2540-5080v-3048m3556 17272v4064m-2032 508 1016-508m1016-2032h2540m-6096 2032v3048m2540-3048-1016-508m-1524 508h2540m0-5080v6096m-2540-5080v-10160m12700 12192h-2540m2540 2032v-4064m1016 4064 1016 508m-1016 508v-6096m2540 5080h-2540m2540 0v3048m0-7112v-10160m0 10160h-2540" fill="none" stroke-width="254"/>
      <path d="m141030-85620h-750m750 3600h-750m9e3 0v-3600h-750m750 3600h-750m-8250 0v-3600m15990 0h-750m750 3600h-750m9e3 0v-3600h-750m750 3600h-750m-8250 0v-3600m14612 7026h-1500m-2500-1250v-4500m2500-1250h1500m2500 1250v4500m-29124-22320h-1460m1460 3160h-3160m3160 0v-930m0-2230v930m17784 2230v-930m0-2230v930m0-930h3160m-3160 3160h1460m-19244-17384v930m0 2230v-930m0 930h-3160m3160-3160h-1460m19268 3094h1460m-1460-3160h3160m-3160 0v930m0 2230v-930m-25116 4748v-1460m-3160 1460v-3160m0 3160h930m2230 0h-930m36490 2032h-930m-2230 0h930m-930 0v-3160m3160 3160v-1460" fill="none" stroke-width="120"/>
    </g>
    <g id="VJ_iOD-XTz_-a8sbSLiE_top_drill1" transform="scale(25.4)">
      <path d="m5680-3488.2v-23.6m-140-756.4v-23.6m368.2 271.8h23.6m-843.6 720h23.6m-23.6-700h23.6m1776.4-700h23.6m-731.8 511.8v-23.6m508.2 411.8h23.6m176.4 500h23.6m-1003.6-1160h23.6m528.2 271.8v-23.6m428.2 211.8h23.6m-1091.8-268.2v-23.6m-531.8 491.8h23.6m-223.6-900h23.6m1208.2 1211.8v-23.6m-251.8-508.2h23.6m-23.6-440h23.6" fill="none" stroke-width="70.9"/>
    </g>
    <g id="VJ_iOD-XTz_-a8sbSLiE_top_drill2" transform="scale(25.4)">
      <use x="5230" y="-4000" width="100%" height="100%" xlink:href="#ePcopufPLei-O0ZSrdcM_pad-1"/>
      <use x="5340" y="-4480" width="100%" height="100%" xlink:href="#ePcopufPLei-O0ZSrdcM_pad-1"/>
      <use x="5420" y="-4100" width="100%" height="100%" xlink:href="#ePcopufPLei-O0ZSrdcM_pad-1"/>
      <use x="5460" y="-4680" width="100%" height="100%" xlink:href="#ePcopufPLei-O0ZSrdcM_pad-1"/>
      <use x="5480" y="-4520" width="100%" height="100%" xlink:href="#ePcopufPLei-O0ZSrdcM_pad-1"/>
      <use x="5520" y="-4920" width="100%" height="100%" xlink:href="#ePcopufPLei-O0ZSrdcM_pad-1"/>
      <use x="5560" y="-4060" width="100%" height="100%" xlink:href="#ePcopufPLei-O0ZSrdcM_pad-1"/>
      <use x="5840" y="-3468.5" width="100%" height="100%" xlink:href="#ePcopufPLei-O0ZSrdcM_pad-1"/>
      <use x="5940" y="-4920" width="100%" height="100%" xlink:href="#ePcopufPLei-O0ZSrdcM_pad-1"/>
      <use x="6000" y="-3270" width="100%" height="100%" xlink:href="#ePcopufPLei-O0ZSrdcM_pad-1"/>
      <use x="6000" y="-3540" width="100%" height="100%" xlink:href="#ePcopufPLei-O0ZSrdcM_pad-1"/>
      <use x="6090" y="-3070" width="100%" height="100%" xlink:href="#ePcopufPLei-O0ZSrdcM_pad-1"/>
      <use x="6320" y="-3920" width="100%" height="100%" xlink:href="#ePcopufPLei-O0ZSrdcM_pad-1"/>
      <use x="6440" y="-4420" width="100%" height="100%" xlink:href="#ePcopufPLei-O0ZSrdcM_pad-1"/>
      <use x="6520" y="-3960" width="100%" height="100%" xlink:href="#ePcopufPLei-O0ZSrdcM_pad-1"/>
      <use x="6550" y="-4720" width="100%" height="100%" xlink:href="#ePcopufPLei-O0ZSrdcM_pad-1"/>
      <use x="6560" y="-4520" width="100%" height="100%" xlink:href="#ePcopufPLei-O0ZSrdcM_pad-1"/>
      <use x="6590" y="-4130" width="100%" height="100%" xlink:href="#ePcopufPLei-O0ZSrdcM_pad-1"/>
      <use x="6600" y="-4720" width="100%" height="100%" xlink:href="#ePcopufPLei-O0ZSrdcM_pad-1"/>
      <use x="6640" y="-3990" width="100%" height="100%" xlink:href="#ePcopufPLei-O0ZSrdcM_pad-1"/>
      <use x="6700" y="-4262" width="100%" height="100%" xlink:href="#ePcopufPLei-O0ZSrdcM_pad-1"/>
      <use x="6700" y="-4440" width="100%" height="100%" xlink:href="#ePcopufPLei-O0ZSrdcM_pad-1"/>
      <use x="5600" y="-3070" width="100%" height="100%" xlink:href="#ePcopufPLei-O0ZSrdcM_pad-3"/>
      <use x="5600" y="-3120" width="100%" height="100%" xlink:href="#ePcopufPLei-O0ZSrdcM_pad-3"/>
      <use x="6400" y="-3070" width="100%" height="100%" xlink:href="#ePcopufPLei-O0ZSrdcM_pad-3"/>
      <use x="6400" y="-3120" width="100%" height="100%" xlink:href="#ePcopufPLei-O0ZSrdcM_pad-3"/>
      <use x="6501.6001" y="-4837.3999" width="100%" height="100%" xlink:href="#ePcopufPLei-O0ZSrdcM_pad-4"/>
      <use x="6698.3999" y="-4837.3999" width="100%" height="100%" xlink:href="#ePcopufPLei-O0ZSrdcM_pad-4"/>
      <use x="5601.6001" y="-3235" width="100%" height="100%" xlink:href="#ePcopufPLei-O0ZSrdcM_pad-5"/>
      <use x="5601.6001" y="-3365" width="100%" height="100%" xlink:href="#ePcopufPLei-O0ZSrdcM_pad-5"/>
      <use x="5700" y="-3235" width="100%" height="100%" xlink:href="#ePcopufPLei-O0ZSrdcM_pad-5"/>
      <use x="5700" y="-3365" width="100%" height="100%" xlink:href="#ePcopufPLei-O0ZSrdcM_pad-5"/>
      <use x="5798.3999" y="-3235" width="100%" height="100%" xlink:href="#ePcopufPLei-O0ZSrdcM_pad-5"/>
      <use x="5798.3999" y="-3365" width="100%" height="100%" xlink:href="#ePcopufPLei-O0ZSrdcM_pad-5"/>
      <use x="6201.6001" y="-3235" width="100%" height="100%" xlink:href="#ePcopufPLei-O0ZSrdcM_pad-5"/>
      <use x="6201.6001" y="-3365" width="100%" height="100%" xlink:href="#ePcopufPLei-O0ZSrdcM_pad-5"/>
      <use x="6300" y="-3235" width="100%" height="100%" xlink:href="#ePcopufPLei-O0ZSrdcM_pad-5"/>
      <use x="6300" y="-3365" width="100%" height="100%" xlink:href="#ePcopufPLei-O0ZSrdcM_pad-5"/>
      <use x="6398.3999" y="-3235" width="100%" height="100%" xlink:href="#ePcopufPLei-O0ZSrdcM_pad-5"/>
      <use x="6398.3999" y="-3365" width="100%" height="100%" xlink:href="#ePcopufPLei-O0ZSrdcM_pad-5"/>
      <use x="5200" y="-4880" width="100%" height="100%" xlink:href="#ePcopufPLei-O0ZSrdcM_pad-6"/>
      <use x="5300" y="-4880" width="100%" height="100%" xlink:href="#ePcopufPLei-O0ZSrdcM_pad-6"/>
      <use x="5400" y="-4880" width="100%" height="100%" xlink:href="#ePcopufPLei-O0ZSrdcM_pad-6"/>
      <use x="6580" y="-3104.1001" width="100%" height="100%" xlink:href="#ePcopufPLei-O0ZSrdcM_pad-7"/>
      <use x="6580" y="-3360" width="100%" height="100%" xlink:href="#ePcopufPLei-O0ZSrdcM_pad-7"/>
      <use x="6757.2002" y="-3104.1001" width="100%" height="100%" xlink:href="#ePcopufPLei-O0ZSrdcM_pad-7"/>
      <use x="6757.2002" y="-3360" width="100%" height="100%" xlink:href="#ePcopufPLei-O0ZSrdcM_pad-7"/>
      <use x="5340" y="-3160" width="100%" height="100%" xlink:href="#ePcopufPLei-O0ZSrdcM_pad-8"/>
      <path d="m6462.2-4957.5v27.6m275.6 0v-27.6" fill="none" stroke-width="23.6"/>
    </g>
    <clipPath id="VJ_iOD-XTz_-a8sbSLiE_top_outline">
      <path d="m128524-127000a1524 1524 0 0 0-1524 1524v47752a1524 1524 0 0 0 1524 1524h47752a1524 1524 0 0 0 1524-1524v-47752a1524 1524 0 0 0-1524-1524h-47752" fill="none" stroke-width="25.4"/>
    </clipPath>
    <mask id="VJ_iOD-XTz_-a8sbSLiE_top_mech-mask">
      <g fill="#000000" stroke="#000000">
        <rect x="127000" y="-127000" width="50800" height="50800" fill="#ffffff"/>
        <use width="100%" height="100%" xlink:href="#VJ_iOD-XTz_-a8sbSLiE_top_drill1"/>
        <use width="100%" height="100%" xlink:href="#VJ_iOD-XTz_-a8sbSLiE_top_drill2"/>
      </g>
    </mask>
    <mask id="VJ_iOD-XTz_-a8sbSLiE_top_cf-mask">
      <g fill="#ffffff" stroke="#ffffff">
        <use width="100%" height="100%" xlink:href="#VJ_iOD-XTz_-a8sbSLiE_top_soldermask"/>
      </g>
    </mask>
    <mask id="VJ_iOD-XTz_-a8sbSLiE_top_sm-mask">
      <g fill="#000000" stroke="#000000">
        <rect x="127000" y="-127000" width="50800" height="50800" fill="#ffffff"/>
        <use width="100%" height="100%" xlink:href="#VJ_iOD-XTz_-a8sbSLiE_top_soldermask"/>
      </g>
    </mask>
  </defs>
  <g transform="translate(2645.8 2645.8)">
    <rect x="124354" y="-129646" width="56092" height="56092" fill="#7f7f7f" stop-color="#000000"/>
  </g>
  <g transform="translate(2645.8 2645.8)">
    <g transform="matrix(1 0 0 -1 0 -203200)">
      <g clip-path="url(#VJ_iOD-XTz_-a8sbSLiE_top_outline)" fill="currentColor" mask="url(#VJ_iOD-XTz_-a8sbSLiE_top_mech-mask)">
        <rect class="VJ_iOD-XTz_-a8sbSLiE_fr4" x="127000" y="-127000" width="50800" height="50800"/>
        <use class="VJ_iOD-XTz_-a8sbSLiE_cu" width="100%" height="100%" stroke="currentColor" xlink:href="#VJ_iOD-XTz_-a8sbSLiE_top_copper"/>
        <use class="VJ_iOD-XTz_-a8sbSLiE_cf" width="100%" height="100%" mask="url(#VJ_iOD-XTz_-a8sbSLiE_top_cf-mask)" stroke="currentColor" xlink:href="#VJ_iOD-XTz_-a8sbSLiE_top_copper"/>
        <g mask="url(#VJ_iOD-XTz_-a8sbSLiE_top_sm-mask)">
          <rect class="VJ_iOD-XTz_-a8sbSLiE_sm" x="127000" y="-127000" width="50800" height="50800"/>
          <use class="VJ_iOD-XTz_-a8sbSLiE_ss" width="100%" height="100%" stroke="currentColor" xlink:href="#VJ_iOD-XTz_-a8sbSLiE_top_silkscreen"/>
        </g>
      </g>
    </g>
  </g>
</svg>
