<?xml version="1.0" encoding="utf-8" standalone="no"?>
<!DOCTYPE svg PUBLIC "-//W3C//DTD SVG 1.1//EN"
  "http://www.w3.org/Graphics/SVG/1.1/DTD/svg11.dtd">
<!-- Created with matplotlib (https://matplotlib.org/) -->
<svg height="345.6pt" version="1.1" viewBox="0 0 460.8 345.6" width="460.8pt" xmlns="http://www.w3.org/2000/svg" xmlns:xlink="http://www.w3.org/1999/xlink">
 <defs>
  <style type="text/css">
*{stroke-linecap:butt;stroke-linejoin:round;}
  </style>
 </defs>
 <g id="figure_1">
  <g id="patch_1">
   <path d="M 0 345.6 
L 460.8 345.6 
L 460.8 0 
L 0 0 
z
" style="fill:#ffffff;"/>
  </g>
  <g id="axes_1">
   <g id="patch_2">
    <path d="M 57.6 307.584 
L 414.72 307.584 
L 414.72 41.472 
L 57.6 41.472 
z
" style="fill:#ffffff;"/>
   </g>
   <g id="matplotlib.axis_1">
    <g id="xtick_1">
     <g id="line2d_1">
      <defs>
       <path d="M 0 0 
L 0 3.5 
" id="me5b831d05e" style="stroke:#000000;stroke-width:0.8;"/>
      </defs>
      <g>
       <use style="stroke:#000000;stroke-width:0.8;" x="57.6" xlink:href="#me5b831d05e" y="307.584"/>
      </g>
     </g>
     <g id="text_1">
      <!-- 1000 -->
      <defs>
       <path d="M 34.90625 0 
L 27 0 
L 27 50.875 
Q 27 57.234375 27.390625 62.890625 
Q 26.375 61.859375 25.09375 60.734375 
Q 23.828125 59.625 13.484375 51.21875 
L 9.1875 56.78125 
L 28.078125 71.390625 
L 34.90625 71.390625 
z
" id="OpenSans-Regular-49"/>
       <path d="M 52.203125 35.796875 
Q 52.203125 17.28125 46.359375 8.140625 
Q 40.53125 -0.984375 28.515625 -0.984375 
Q 17 -0.984375 10.984375 8.359375 
Q 4.984375 17.71875 4.984375 35.796875 
Q 4.984375 54.4375 10.796875 63.46875 
Q 16.609375 72.515625 28.515625 72.515625 
Q 40.140625 72.515625 46.171875 63.078125 
Q 52.203125 53.65625 52.203125 35.796875 
z
M 13.1875 35.796875 
Q 13.1875 20.21875 16.84375 13.109375 
Q 20.515625 6 28.515625 6 
Q 36.625 6 40.25 13.203125 
Q 43.890625 20.40625 43.890625 35.796875 
Q 43.890625 51.171875 40.25 58.328125 
Q 36.625 65.484375 28.515625 65.484375 
Q 20.515625 65.484375 16.84375 58.421875 
Q 13.1875 51.375 13.1875 35.796875 
z
" id="OpenSans-Regular-48"/>
      </defs>
      <g transform="translate(46.165625 322.182437)scale(0.1 -0.1)">
       <use xlink:href="#OpenSans-Regular-49"/>
       <use x="57.177734" xlink:href="#OpenSans-Regular-48"/>
       <use x="114.355469" xlink:href="#OpenSans-Regular-48"/>
       <use x="171.533203" xlink:href="#OpenSans-Regular-48"/>
      </g>
     </g>
    </g>
    <g id="xtick_2">
     <g id="line2d_2">
      <g>
       <use style="stroke:#000000;stroke-width:0.8;" x="97.28" xlink:href="#me5b831d05e" y="307.584"/>
      </g>
     </g>
     <g id="text_2">
      <!-- 2000 -->
      <defs>
       <path d="M 51.8125 0 
L 4.890625 0 
L 4.890625 6.984375 
L 23.6875 25.875 
Q 32.28125 34.578125 35.015625 38.28125 
Q 37.75 42 39.109375 45.515625 
Q 40.484375 49.03125 40.484375 53.078125 
Q 40.484375 58.796875 37.015625 62.140625 
Q 33.546875 65.484375 27.390625 65.484375 
Q 22.953125 65.484375 18.96875 64.015625 
Q 14.984375 62.546875 10.109375 58.6875 
L 5.8125 64.203125 
Q 15.671875 72.40625 27.296875 72.40625 
Q 37.359375 72.40625 43.0625 67.25 
Q 48.78125 62.109375 48.78125 53.421875 
Q 48.78125 46.625 44.96875 39.984375 
Q 41.15625 33.34375 30.71875 23.1875 
L 15.09375 7.90625 
L 15.09375 7.515625 
L 51.8125 7.515625 
z
" id="OpenSans-Regular-50"/>
      </defs>
      <g transform="translate(85.845625 322.182437)scale(0.1 -0.1)">
       <use xlink:href="#OpenSans-Regular-50"/>
       <use x="57.177734" xlink:href="#OpenSans-Regular-48"/>
       <use x="114.355469" xlink:href="#OpenSans-Regular-48"/>
       <use x="171.533203" xlink:href="#OpenSans-Regular-48"/>
      </g>
     </g>
    </g>
    <g id="xtick_3">
     <g id="line2d_3">
      <g>
       <use style="stroke:#000000;stroke-width:0.8;" x="136.96" xlink:href="#me5b831d05e" y="307.584"/>
      </g>
     </g>
     <g id="text_3">
      <!-- 3000 -->
      <defs>
       <path d="M 49.125 54.59375 
Q 49.125 47.75 45.28125 43.40625 
Q 41.453125 39.0625 34.421875 37.59375 
L 34.421875 37.203125 
Q 43.015625 36.140625 47.15625 31.734375 
Q 51.3125 27.34375 51.3125 20.21875 
Q 51.3125 10.015625 44.234375 4.515625 
Q 37.15625 -0.984375 24.125 -0.984375 
Q 18.453125 -0.984375 13.734375 -0.125 
Q 9.03125 0.734375 4.59375 2.875 
L 4.59375 10.59375 
Q 9.234375 8.296875 14.484375 7.09375 
Q 19.734375 5.90625 24.421875 5.90625 
Q 42.921875 5.90625 42.921875 20.40625 
Q 42.921875 33.40625 22.515625 33.40625 
L 15.484375 33.40625 
L 15.484375 40.375 
L 22.609375 40.375 
Q 30.953125 40.375 35.828125 44.0625 
Q 40.71875 47.75 40.71875 54.296875 
Q 40.71875 59.515625 37.125 62.5 
Q 33.546875 65.484375 27.390625 65.484375 
Q 22.703125 65.484375 18.546875 64.203125 
Q 14.40625 62.9375 9.078125 59.515625 
L 4.984375 64.984375 
Q 9.375 68.453125 15.109375 70.421875 
Q 20.84375 72.40625 27.203125 72.40625 
Q 37.59375 72.40625 43.359375 67.640625 
Q 49.125 62.890625 49.125 54.59375 
z
" id="OpenSans-Regular-51"/>
      </defs>
      <g transform="translate(125.525625 322.182437)scale(0.1 -0.1)">
       <use xlink:href="#OpenSans-Regular-51"/>
       <use x="57.177734" xlink:href="#OpenSans-Regular-48"/>
       <use x="114.355469" xlink:href="#OpenSans-Regular-48"/>
       <use x="171.533203" xlink:href="#OpenSans-Regular-48"/>
      </g>
     </g>
    </g>
    <g id="xtick_4">
     <g id="line2d_4">
      <g>
       <use style="stroke:#000000;stroke-width:0.8;" x="176.64" xlink:href="#me5b831d05e" y="307.584"/>
      </g>
     </g>
     <g id="text_4">
      <!-- 4000 -->
      <defs>
       <path d="M 55.171875 16.40625 
L 44.578125 16.40625 
L 44.578125 0 
L 36.8125 0 
L 36.8125 16.40625 
L 2.09375 16.40625 
L 2.09375 23.484375 
L 35.984375 71.78125 
L 44.578125 71.78125 
L 44.578125 23.78125 
L 55.171875 23.78125 
z
M 36.8125 23.78125 
L 36.8125 47.515625 
Q 36.8125 54.5 37.3125 63.28125 
L 36.921875 63.28125 
Q 34.578125 58.59375 32.515625 55.515625 
L 10.203125 23.78125 
z
" id="OpenSans-Regular-52"/>
      </defs>
      <g transform="translate(165.205625 322.182437)scale(0.1 -0.1)">
       <use xlink:href="#OpenSans-Regular-52"/>
       <use x="57.177734" xlink:href="#OpenSans-Regular-48"/>
       <use x="114.355469" xlink:href="#OpenSans-Regular-48"/>
       <use x="171.533203" xlink:href="#OpenSans-Regular-48"/>
      </g>
     </g>
    </g>
    <g id="xtick_5">
     <g id="line2d_5">
      <g>
       <use style="stroke:#000000;stroke-width:0.8;" x="216.32" xlink:href="#me5b831d05e" y="307.584"/>
      </g>
     </g>
     <g id="text_5">
      <!-- 5000 -->
      <defs>
       <path d="M 27.203125 43.609375 
Q 38.484375 43.609375 44.953125 38.015625 
Q 51.421875 32.421875 51.421875 22.703125 
Q 51.421875 11.625 44.359375 5.3125 
Q 37.3125 -0.984375 24.90625 -0.984375 
Q 12.84375 -0.984375 6.5 2.875 
L 6.5 10.6875 
Q 9.90625 8.5 14.984375 7.25 
Q 20.0625 6 25 6 
Q 33.59375 6 38.34375 10.046875 
Q 43.109375 14.109375 43.109375 21.78125 
Q 43.109375 36.71875 24.8125 36.71875 
Q 20.171875 36.71875 12.40625 35.296875 
L 8.203125 37.984375 
L 10.890625 71.390625 
L 46.390625 71.390625 
L 46.390625 63.921875 
L 17.828125 63.921875 
L 16.015625 42.484375 
Q 21.625 43.609375 27.203125 43.609375 
z
" id="OpenSans-Regular-53"/>
      </defs>
      <g transform="translate(204.885625 322.182437)scale(0.1 -0.1)">
       <use xlink:href="#OpenSans-Regular-53"/>
       <use x="57.177734" xlink:href="#OpenSans-Regular-48"/>
       <use x="114.355469" xlink:href="#OpenSans-Regular-48"/>
       <use x="171.533203" xlink:href="#OpenSans-Regular-48"/>
      </g>
     </g>
    </g>
    <g id="xtick_6">
     <g id="line2d_6">
      <g>
       <use style="stroke:#000000;stroke-width:0.8;" x="256" xlink:href="#me5b831d05e" y="307.584"/>
      </g>
     </g>
     <g id="text_6">
      <!-- 6000 -->
      <defs>
       <path d="M 5.71875 30.515625 
Q 5.71875 51.5625 13.890625 61.984375 
Q 22.078125 72.40625 38.09375 72.40625 
Q 43.609375 72.40625 46.78125 71.484375 
L 46.78125 64.5 
Q 43.015625 65.71875 38.1875 65.71875 
Q 26.703125 65.71875 20.640625 58.5625 
Q 14.59375 51.421875 14.015625 36.078125 
L 14.59375 36.078125 
Q 19.96875 44.484375 31.59375 44.484375 
Q 41.21875 44.484375 46.75 38.671875 
Q 52.296875 32.859375 52.296875 22.90625 
Q 52.296875 11.765625 46.21875 5.390625 
Q 40.140625 -0.984375 29.78125 -0.984375 
Q 18.703125 -0.984375 12.203125 7.34375 
Q 5.71875 15.671875 5.71875 30.515625 
z
M 29.6875 5.90625 
Q 36.625 5.90625 40.453125 10.28125 
Q 44.28125 14.65625 44.28125 22.90625 
Q 44.28125 29.984375 40.71875 34.03125 
Q 37.15625 38.09375 30.078125 38.09375 
Q 25.6875 38.09375 22.015625 36.28125 
Q 18.359375 34.46875 16.1875 31.296875 
Q 14.015625 28.125 14.015625 24.703125 
Q 14.015625 19.671875 15.96875 15.328125 
Q 17.921875 10.984375 21.5 8.4375 
Q 25.09375 5.90625 29.6875 5.90625 
z
" id="OpenSans-Regular-54"/>
      </defs>
      <g transform="translate(244.565625 322.182437)scale(0.1 -0.1)">
       <use xlink:href="#OpenSans-Regular-54"/>
       <use x="57.177734" xlink:href="#OpenSans-Regular-48"/>
       <use x="114.355469" xlink:href="#OpenSans-Regular-48"/>
       <use x="171.533203" xlink:href="#OpenSans-Regular-48"/>
      </g>
     </g>
    </g>
    <g id="xtick_7">
     <g id="line2d_7">
      <g>
       <use style="stroke:#000000;stroke-width:0.8;" x="295.68" xlink:href="#me5b831d05e" y="307.584"/>
      </g>
     </g>
     <g id="text_7">
      <!-- 7000 -->
      <defs>
       <path d="M 13.921875 0 
L 43.5 63.921875 
L 4.59375 63.921875 
L 4.59375 71.390625 
L 52.09375 71.390625 
L 52.09375 64.890625 
L 22.90625 0 
z
" id="OpenSans-Regular-55"/>
      </defs>
      <g transform="translate(284.245625 322.182437)scale(0.1 -0.1)">
       <use xlink:href="#OpenSans-Regular-55"/>
       <use x="57.177734" xlink:href="#OpenSans-Regular-48"/>
       <use x="114.355469" xlink:href="#OpenSans-Regular-48"/>
       <use x="171.533203" xlink:href="#OpenSans-Regular-48"/>
      </g>
     </g>
    </g>
    <g id="xtick_8">
     <g id="line2d_8">
      <g>
       <use style="stroke:#000000;stroke-width:0.8;" x="335.36" xlink:href="#me5b831d05e" y="307.584"/>
      </g>
     </g>
     <g id="text_8">
      <!-- 8000 -->
      <defs>
       <path d="M 28.515625 72.40625 
Q 38.28125 72.40625 43.984375 67.859375 
Q 49.703125 63.328125 49.703125 55.328125 
Q 49.703125 50.046875 46.4375 45.703125 
Q 43.171875 41.359375 35.984375 37.796875 
Q 44.671875 33.640625 48.328125 29.078125 
Q 52 24.515625 52 18.5 
Q 52 9.625 45.796875 4.3125 
Q 39.59375 -0.984375 28.8125 -0.984375 
Q 17.390625 -0.984375 11.234375 4.015625 
Q 5.078125 9.03125 5.078125 18.21875 
Q 5.078125 30.46875 20.015625 37.3125 
Q 13.28125 41.109375 10.34375 45.53125 
Q 7.421875 49.953125 7.421875 55.421875 
Q 7.421875 63.1875 13.15625 67.796875 
Q 18.890625 72.40625 28.515625 72.40625 
z
M 13.09375 18.015625 
Q 13.09375 12.15625 17.15625 8.875 
Q 21.234375 5.609375 28.609375 5.609375 
Q 35.890625 5.609375 39.9375 9.03125 
Q 44 12.453125 44 18.40625 
Q 44 23.140625 40.1875 26.828125 
Q 36.375 30.515625 26.90625 33.984375 
Q 19.625 30.859375 16.359375 27.078125 
Q 13.09375 23.296875 13.09375 18.015625 
z
M 28.421875 65.828125 
Q 22.3125 65.828125 18.84375 62.890625 
Q 15.375 59.96875 15.375 55.078125 
Q 15.375 50.59375 18.25 47.359375 
Q 21.140625 44.140625 28.90625 40.921875 
Q 35.890625 43.84375 38.796875 47.21875 
Q 41.703125 50.59375 41.703125 55.078125 
Q 41.703125 60.015625 38.15625 62.921875 
Q 34.625 65.828125 28.421875 65.828125 
z
" id="OpenSans-Regular-56"/>
      </defs>
      <g transform="translate(323.925625 322.182437)scale(0.1 -0.1)">
       <use xlink:href="#OpenSans-Regular-56"/>
       <use x="57.177734" xlink:href="#OpenSans-Regular-48"/>
       <use x="114.355469" xlink:href="#OpenSans-Regular-48"/>
       <use x="171.533203" xlink:href="#OpenSans-Regular-48"/>
      </g>
     </g>
    </g>
    <g id="xtick_9">
     <g id="line2d_9">
      <g>
       <use style="stroke:#000000;stroke-width:0.8;" x="375.04" xlink:href="#me5b831d05e" y="307.584"/>
      </g>
     </g>
     <g id="text_9">
      <!-- 9000 -->
      <defs>
       <path d="M 51.8125 40.921875 
Q 51.8125 -0.984375 19.390625 -0.984375 
Q 13.71875 -0.984375 10.40625 0 
L 10.40625 6.984375 
Q 14.3125 5.71875 19.28125 5.71875 
Q 31 5.71875 36.984375 12.96875 
Q 42.96875 20.21875 43.5 35.203125 
L 42.921875 35.203125 
Q 40.234375 31.15625 35.78125 29.03125 
Q 31.34375 26.90625 25.78125 26.90625 
Q 16.3125 26.90625 10.734375 32.5625 
Q 5.171875 38.234375 5.171875 48.390625 
Q 5.171875 59.515625 11.390625 65.953125 
Q 17.625 72.40625 27.78125 72.40625 
Q 35.0625 72.40625 40.5 68.671875 
Q 45.953125 64.9375 48.875 57.78125 
Q 51.8125 50.640625 51.8125 40.921875 
z
M 27.78125 65.484375 
Q 20.796875 65.484375 16.984375 60.984375 
Q 13.1875 56.5 13.1875 48.484375 
Q 13.1875 41.453125 16.703125 37.421875 
Q 20.21875 33.40625 27.390625 33.40625 
Q 31.84375 33.40625 35.578125 35.203125 
Q 39.3125 37.015625 41.453125 40.140625 
Q 43.609375 43.265625 43.609375 46.6875 
Q 43.609375 51.8125 41.59375 56.15625 
Q 39.59375 60.5 36 62.984375 
Q 32.421875 65.484375 27.78125 65.484375 
z
" id="OpenSans-Regular-57"/>
      </defs>
      <g transform="translate(363.605625 322.182437)scale(0.1 -0.1)">
       <use xlink:href="#OpenSans-Regular-57"/>
       <use x="57.177734" xlink:href="#OpenSans-Regular-48"/>
       <use x="114.355469" xlink:href="#OpenSans-Regular-48"/>
       <use x="171.533203" xlink:href="#OpenSans-Regular-48"/>
      </g>
     </g>
    </g>
    <g id="xtick_10">
     <g id="line2d_10">
      <g>
       <use style="stroke:#000000;stroke-width:0.8;" x="414.72" xlink:href="#me5b831d05e" y="307.584"/>
      </g>
     </g>
     <g id="text_10">
      <!-- 10000 -->
      <g transform="translate(400.427031 322.182437)scale(0.1 -0.1)">
       <use xlink:href="#OpenSans-Regular-49"/>
       <use x="57.177734" xlink:href="#OpenSans-Regular-48"/>
       <use x="114.355469" xlink:href="#OpenSans-Regular-48"/>
       <use x="171.533203" xlink:href="#OpenSans-Regular-48"/>
       <use x="228.710938" xlink:href="#OpenSans-Regular-48"/>
      </g>
     </g>
    </g>
    <g id="text_11">
     <!-- Temperature / K -->
     <defs>
      <path d="M 31.78125 0 
L 23.484375 0 
L 23.484375 64.015625 
L 0.875 64.015625 
L 0.875 71.390625 
L 54.390625 71.390625 
L 54.390625 64.015625 
L 31.78125 64.015625 
z
" id="OpenSans-Regular-84"/>
      <path d="M 31.203125 -0.984375 
Q 19.34375 -0.984375 12.46875 6.25 
Q 5.609375 13.484375 5.609375 26.3125 
Q 5.609375 39.265625 11.984375 46.875 
Q 18.359375 54.5 29.109375 54.5 
Q 39.15625 54.5 45.015625 47.875 
Q 50.875 41.265625 50.875 30.421875 
L 50.875 25.296875 
L 14.015625 25.296875 
Q 14.265625 15.875 18.78125 10.984375 
Q 23.296875 6.109375 31.5 6.109375 
Q 40.140625 6.109375 48.578125 9.71875 
L 48.578125 2.484375 
Q 44.28125 0.640625 40.453125 -0.171875 
Q 36.625 -0.984375 31.203125 -0.984375 
z
M 29 47.703125 
Q 22.5625 47.703125 18.71875 43.5 
Q 14.890625 39.3125 14.203125 31.890625 
L 42.1875 31.890625 
Q 42.1875 39.546875 38.765625 43.625 
Q 35.359375 47.703125 29 47.703125 
z
" id="OpenSans-Regular-101"/>
      <path d="M 76.8125 0 
L 76.8125 34.8125 
Q 76.8125 41.21875 74.078125 44.40625 
Q 71.34375 47.609375 65.578125 47.609375 
Q 58.015625 47.609375 54.390625 43.265625 
Q 50.78125 38.921875 50.78125 29.890625 
L 50.78125 0 
L 42.671875 0 
L 42.671875 34.8125 
Q 42.671875 41.21875 39.9375 44.40625 
Q 37.203125 47.609375 31.390625 47.609375 
Q 23.78125 47.609375 20.234375 43.046875 
Q 16.703125 38.484375 16.703125 28.078125 
L 16.703125 0 
L 8.59375 0 
L 8.59375 53.515625 
L 15.1875 53.515625 
L 16.5 46.1875 
L 16.890625 46.1875 
Q 19.1875 50.09375 23.359375 52.296875 
Q 27.546875 54.5 32.71875 54.5 
Q 45.265625 54.5 49.125 45.40625 
L 49.515625 45.40625 
Q 51.90625 49.609375 56.4375 52.046875 
Q 60.984375 54.5 66.796875 54.5 
Q 75.875 54.5 80.390625 49.828125 
Q 84.90625 45.171875 84.90625 34.90625 
L 84.90625 0 
z
" id="OpenSans-Regular-109"/>
      <path d="M 33.5 -0.984375 
Q 28.265625 -0.984375 23.9375 0.9375 
Q 19.625 2.875 16.703125 6.890625 
L 16.109375 6.890625 
Q 16.703125 2.203125 16.703125 -2 
L 16.703125 -24.03125 
L 8.59375 -24.03125 
L 8.59375 53.515625 
L 15.1875 53.515625 
L 16.3125 46.1875 
L 16.703125 46.1875 
Q 19.828125 50.59375 23.96875 52.546875 
Q 28.125 54.5 33.5 54.5 
Q 44.140625 54.5 49.921875 47.21875 
Q 55.71875 39.9375 55.71875 26.8125 
Q 55.71875 13.625 49.828125 6.3125 
Q 43.953125 -0.984375 33.5 -0.984375 
z
M 32.328125 47.609375 
Q 24.125 47.609375 20.453125 43.0625 
Q 16.796875 38.53125 16.703125 28.609375 
L 16.703125 26.8125 
Q 16.703125 15.53125 20.453125 10.671875 
Q 24.21875 5.8125 32.515625 5.8125 
Q 39.453125 5.8125 43.375 11.421875 
Q 47.3125 17.046875 47.3125 26.90625 
Q 47.3125 36.921875 43.375 42.265625 
Q 39.453125 47.609375 32.328125 47.609375 
z
" id="OpenSans-Regular-112"/>
      <path d="M 33.015625 54.5 
Q 36.578125 54.5 39.40625 53.90625 
L 38.28125 46.390625 
Q 34.96875 47.125 32.421875 47.125 
Q 25.921875 47.125 21.3125 41.84375 
Q 16.703125 36.578125 16.703125 28.71875 
L 16.703125 0 
L 8.59375 0 
L 8.59375 53.515625 
L 15.28125 53.515625 
L 16.21875 43.609375 
L 16.609375 43.609375 
Q 19.578125 48.828125 23.78125 51.65625 
Q 27.984375 54.5 33.015625 54.5 
z
" id="OpenSans-Regular-114"/>
      <path d="M 41.5 0 
L 39.890625 7.625 
L 39.5 7.625 
Q 35.5 2.59375 31.515625 0.796875 
Q 27.546875 -0.984375 21.578125 -0.984375 
Q 13.625 -0.984375 9.109375 3.125 
Q 4.59375 7.234375 4.59375 14.796875 
Q 4.59375 31 30.515625 31.78125 
L 39.59375 32.078125 
L 39.59375 35.40625 
Q 39.59375 41.703125 36.890625 44.703125 
Q 34.1875 47.703125 28.21875 47.703125 
Q 21.53125 47.703125 13.09375 43.609375 
L 10.59375 49.8125 
Q 14.546875 51.953125 19.25 53.171875 
Q 23.96875 54.390625 28.71875 54.390625 
Q 38.28125 54.390625 42.890625 50.140625 
Q 47.515625 45.90625 47.515625 36.53125 
L 47.515625 0 
z
M 23.1875 5.71875 
Q 30.765625 5.71875 35.078125 9.859375 
Q 39.40625 14.015625 39.40625 21.484375 
L 39.40625 26.3125 
L 31.296875 25.984375 
Q 21.625 25.640625 17.359375 22.96875 
Q 13.09375 20.3125 13.09375 14.703125 
Q 13.09375 10.296875 15.75 8 
Q 18.40625 5.71875 23.1875 5.71875 
z
" id="OpenSans-Regular-97"/>
      <path d="M 25.875 5.71875 
Q 28.03125 5.71875 30.03125 6.03125 
Q 32.03125 6.34375 33.203125 6.6875 
L 33.203125 0.484375 
Q 31.890625 -0.140625 29.328125 -0.5625 
Q 26.765625 -0.984375 24.703125 -0.984375 
Q 9.1875 -0.984375 9.1875 15.375 
L 9.1875 47.21875 
L 1.515625 47.21875 
L 1.515625 51.125 
L 9.1875 54.5 
L 12.59375 65.921875 
L 17.28125 65.921875 
L 17.28125 53.515625 
L 32.8125 53.515625 
L 32.8125 47.21875 
L 17.28125 47.21875 
L 17.28125 15.71875 
Q 17.28125 10.890625 19.578125 8.296875 
Q 21.875 5.71875 25.875 5.71875 
z
" id="OpenSans-Regular-116"/>
      <path d="M 16.21875 53.515625 
L 16.21875 18.796875 
Q 16.21875 12.25 19.1875 9.03125 
Q 22.171875 5.8125 28.515625 5.8125 
Q 36.921875 5.8125 40.796875 10.390625 
Q 44.671875 14.984375 44.671875 25.390625 
L 44.671875 53.515625 
L 52.78125 53.515625 
L 52.78125 0 
L 46.09375 0 
L 44.921875 7.171875 
L 44.484375 7.171875 
Q 42 3.21875 37.578125 1.109375 
Q 33.15625 -0.984375 27.484375 -0.984375 
Q 17.71875 -0.984375 12.859375 3.65625 
Q 8.015625 8.296875 8.015625 18.5 
L 8.015625 53.515625 
z
" id="OpenSans-Regular-117"/>
      <path id="OpenSans-Regular-32"/>
      <path d="M 35.6875 71.390625 
L 9.078125 0 
L 0.984375 0 
L 27.59375 71.390625 
z
" id="OpenSans-Regular-47"/>
      <path d="M 61.375 0 
L 51.609375 0 
L 25.59375 34.625 
L 18.109375 27.984375 
L 18.109375 0 
L 9.8125 0 
L 9.8125 71.390625 
L 18.109375 71.390625 
L 18.109375 35.984375 
L 50.484375 71.390625 
L 60.296875 71.390625 
L 31.59375 40.375 
z
" id="OpenSans-Regular-75"/>
     </defs>
     <g transform="translate(198.062344 336.184)scale(0.1 -0.1)">
      <use xlink:href="#OpenSans-Regular-84"/>
      <use x="55.322266" xlink:href="#OpenSans-Regular-101"/>
      <use x="111.425781" xlink:href="#OpenSans-Regular-109"/>
      <use x="204.443359" xlink:href="#OpenSans-Regular-112"/>
      <use x="265.722656" xlink:href="#OpenSans-Regular-101"/>
      <use x="321.826172" xlink:href="#OpenSans-Regular-114"/>
      <use x="362.646484" xlink:href="#OpenSans-Regular-97"/>
      <use x="418.261719" xlink:href="#OpenSans-Regular-116"/>
      <use x="453.564453" xlink:href="#OpenSans-Regular-117"/>
      <use x="514.941406" xlink:href="#OpenSans-Regular-114"/>
      <use x="555.761719" xlink:href="#OpenSans-Regular-101"/>
      <use x="611.865234" xlink:href="#OpenSans-Regular-32"/>
      <use x="637.841797" xlink:href="#OpenSans-Regular-47"/>
      <use x="674.560547" xlink:href="#OpenSans-Regular-32"/>
      <use x="700.537109" xlink:href="#OpenSans-Regular-75"/>
     </g>
    </g>
   </g>
   <g id="matplotlib.axis_2">
    <g id="ytick_1">
     <g id="line2d_11">
      <defs>
       <path d="M 0 0 
L -3.5 0 
" id="m9b9622c651" style="stroke:#000000;stroke-width:0.8;"/>
      </defs>
      <g>
       <use style="stroke:#000000;stroke-width:0.8;" x="57.6" xlink:href="#m9b9622c651" y="295.488"/>
      </g>
     </g>
     <g id="text_12">
      <!-- 0.0 -->
      <defs>
       <path d="M 7.421875 5.171875 
Q 7.421875 8.453125 8.90625 10.125 
Q 10.40625 11.8125 13.1875 11.8125 
Q 16.015625 11.8125 17.59375 10.125 
Q 19.1875 8.453125 19.1875 5.171875 
Q 19.1875 2 17.578125 0.28125 
Q 15.96875 -1.421875 13.1875 -1.421875 
Q 10.6875 -1.421875 9.046875 0.109375 
Q 7.421875 1.65625 7.421875 5.171875 
z
" id="OpenSans-Regular-46"/>
      </defs>
      <g transform="translate(36.504688 299.287219)scale(0.1 -0.1)">
       <use xlink:href="#OpenSans-Regular-48"/>
       <use x="57.177734" xlink:href="#OpenSans-Regular-46"/>
       <use x="83.789062" xlink:href="#OpenSans-Regular-48"/>
      </g>
     </g>
    </g>
    <g id="ytick_2">
     <g id="line2d_12">
      <g>
       <use style="stroke:#000000;stroke-width:0.8;" x="57.6" xlink:href="#m9b9622c651" y="247.104"/>
      </g>
     </g>
     <g id="text_13">
      <!-- 0.2 -->
      <g transform="translate(36.504688 250.903219)scale(0.1 -0.1)">
       <use xlink:href="#OpenSans-Regular-48"/>
       <use x="57.177734" xlink:href="#OpenSans-Regular-46"/>
       <use x="83.789062" xlink:href="#OpenSans-Regular-50"/>
      </g>
     </g>
    </g>
    <g id="ytick_3">
     <g id="line2d_13">
      <g>
       <use style="stroke:#000000;stroke-width:0.8;" x="57.6" xlink:href="#m9b9622c651" y="198.72"/>
      </g>
     </g>
     <g id="text_14">
      <!-- 0.4 -->
      <g transform="translate(36.504688 202.519219)scale(0.1 -0.1)">
       <use xlink:href="#OpenSans-Regular-48"/>
       <use x="57.177734" xlink:href="#OpenSans-Regular-46"/>
       <use x="83.789062" xlink:href="#OpenSans-Regular-52"/>
      </g>
     </g>
    </g>
    <g id="ytick_4">
     <g id="line2d_14">
      <g>
       <use style="stroke:#000000;stroke-width:0.8;" x="57.6" xlink:href="#m9b9622c651" y="150.336"/>
      </g>
     </g>
     <g id="text_15">
      <!-- 0.6 -->
      <g transform="translate(36.504688 154.135219)scale(0.1 -0.1)">
       <use xlink:href="#OpenSans-Regular-48"/>
       <use x="57.177734" xlink:href="#OpenSans-Regular-46"/>
       <use x="83.789062" xlink:href="#OpenSans-Regular-54"/>
      </g>
     </g>
    </g>
    <g id="ytick_5">
     <g id="line2d_15">
      <g>
       <use style="stroke:#000000;stroke-width:0.8;" x="57.6" xlink:href="#m9b9622c651" y="101.952"/>
      </g>
     </g>
     <g id="text_16">
      <!-- 0.8 -->
      <g transform="translate(36.504688 105.751219)scale(0.1 -0.1)">
       <use xlink:href="#OpenSans-Regular-48"/>
       <use x="57.177734" xlink:href="#OpenSans-Regular-46"/>
       <use x="83.789062" xlink:href="#OpenSans-Regular-56"/>
      </g>
     </g>
    </g>
    <g id="ytick_6">
     <g id="line2d_16">
      <g>
       <use style="stroke:#000000;stroke-width:0.8;" x="57.6" xlink:href="#m9b9622c651" y="53.568"/>
      </g>
     </g>
     <g id="text_17">
      <!-- 1.0 -->
      <g transform="translate(36.504688 57.367219)scale(0.1 -0.1)">
       <use xlink:href="#OpenSans-Regular-49"/>
       <use x="57.177734" xlink:href="#OpenSans-Regular-46"/>
       <use x="83.789062" xlink:href="#OpenSans-Regular-48"/>
      </g>
     </g>
    </g>
    <g id="text_18">
     <!-- Color Channel Value -->
     <defs>
      <path d="M 40.375 64.984375 
Q 28.609375 64.984375 21.796875 57.140625 
Q 14.984375 49.3125 14.984375 35.6875 
Q 14.984375 21.6875 21.546875 14.03125 
Q 28.125 6.390625 40.28125 6.390625 
Q 47.75 6.390625 57.328125 9.078125 
L 57.328125 1.8125 
Q 49.90625 -0.984375 39.015625 -0.984375 
Q 23.25 -0.984375 14.671875 8.59375 
Q 6.109375 18.171875 6.109375 35.796875 
Q 6.109375 46.828125 10.234375 55.125 
Q 14.359375 63.421875 22.140625 67.90625 
Q 29.9375 72.40625 40.484375 72.40625 
Q 51.703125 72.40625 60.109375 68.3125 
L 56.59375 61.1875 
Q 48.484375 64.984375 40.375 64.984375 
z
" id="OpenSans-Regular-67"/>
      <path d="M 54.78125 26.8125 
Q 54.78125 13.71875 48.1875 6.359375 
Q 41.609375 -0.984375 29.984375 -0.984375 
Q 22.796875 -0.984375 17.234375 2.390625 
Q 11.671875 5.765625 8.640625 12.0625 
Q 5.609375 18.359375 5.609375 26.8125 
Q 5.609375 39.890625 12.15625 47.1875 
Q 18.703125 54.5 30.328125 54.5 
Q 41.546875 54.5 48.15625 47.015625 
Q 54.78125 39.546875 54.78125 26.8125 
z
M 14.015625 26.8125 
Q 14.015625 16.546875 18.109375 11.171875 
Q 22.21875 5.8125 30.171875 5.8125 
Q 38.140625 5.8125 42.265625 11.15625 
Q 46.390625 16.5 46.390625 26.8125 
Q 46.390625 37.015625 42.265625 42.3125 
Q 38.140625 47.609375 30.078125 47.609375 
Q 22.125 47.609375 18.0625 42.375 
Q 14.015625 37.15625 14.015625 26.8125 
z
" id="OpenSans-Regular-111"/>
      <path d="M 16.703125 0 
L 8.59375 0 
L 8.59375 75.984375 
L 16.703125 75.984375 
z
" id="OpenSans-Regular-108"/>
      <path d="M 45.21875 0 
L 45.21875 34.625 
Q 45.21875 41.15625 42.234375 44.375 
Q 39.265625 47.609375 32.90625 47.609375 
Q 24.46875 47.609375 20.578125 43.015625 
Q 16.703125 38.421875 16.703125 27.984375 
L 16.703125 0 
L 8.59375 0 
L 8.59375 75.984375 
L 16.703125 75.984375 
L 16.703125 52.984375 
Q 16.703125 48.828125 16.3125 46.09375 
L 16.796875 46.09375 
Q 19.1875 49.953125 23.609375 52.171875 
Q 28.03125 54.390625 33.6875 54.390625 
Q 43.5 54.390625 48.40625 49.71875 
Q 53.328125 45.0625 53.328125 34.90625 
L 53.328125 0 
z
" id="OpenSans-Regular-104"/>
      <path d="M 45.21875 0 
L 45.21875 34.625 
Q 45.21875 41.15625 42.234375 44.375 
Q 39.265625 47.609375 32.90625 47.609375 
Q 24.515625 47.609375 20.609375 43.0625 
Q 16.703125 38.53125 16.703125 28.078125 
L 16.703125 0 
L 8.59375 0 
L 8.59375 53.515625 
L 15.1875 53.515625 
L 16.5 46.1875 
L 16.890625 46.1875 
Q 19.390625 50.140625 23.875 52.3125 
Q 28.375 54.5 33.890625 54.5 
Q 43.5625 54.5 48.4375 49.828125 
Q 53.328125 45.171875 53.328125 34.90625 
L 53.328125 0 
z
" id="OpenSans-Regular-110"/>
      <path d="M 50.59375 71.390625 
L 59.515625 71.390625 
L 33.796875 0 
L 25.59375 0 
L 0 71.390625 
L 8.796875 71.390625 
L 25.203125 25.203125 
Q 28.03125 17.234375 29.6875 9.71875 
Q 31.453125 17.625 34.28125 25.484375 
z
" id="OpenSans-Regular-86"/>
     </defs>
     <g transform="translate(30.101562 221.735031)rotate(-90)scale(0.1 -0.1)">
      <use xlink:href="#OpenSans-Regular-67"/>
      <use x="63.085938" xlink:href="#OpenSans-Regular-111"/>
      <use x="123.486328" xlink:href="#OpenSans-Regular-108"/>
      <use x="148.779297" xlink:href="#OpenSans-Regular-111"/>
      <use x="209.179688" xlink:href="#OpenSans-Regular-114"/>
      <use x="250" xlink:href="#OpenSans-Regular-32"/>
      <use x="275.976562" xlink:href="#OpenSans-Regular-67"/>
      <use x="339.0625" xlink:href="#OpenSans-Regular-104"/>
      <use x="400.439453" xlink:href="#OpenSans-Regular-97"/>
      <use x="456.054688" xlink:href="#OpenSans-Regular-110"/>
      <use x="517.431641" xlink:href="#OpenSans-Regular-110"/>
      <use x="578.808594" xlink:href="#OpenSans-Regular-101"/>
      <use x="634.912109" xlink:href="#OpenSans-Regular-108"/>
      <use x="660.205078" xlink:href="#OpenSans-Regular-32"/>
      <use x="686.181641" xlink:href="#OpenSans-Regular-86"/>
      <use x="745.703125" xlink:href="#OpenSans-Regular-97"/>
      <use x="801.318359" xlink:href="#OpenSans-Regular-108"/>
      <use x="826.611328" xlink:href="#OpenSans-Regular-117"/>
      <use x="887.988281" xlink:href="#OpenSans-Regular-101"/>
     </g>
    </g>
   </g>
   <g id="line2d_17">
    <path clip-path="url(#p87726d8c05)" d="M 57.6 53.568 
L 275.84 53.568 
L 279.808 55.575936 
L 283.776 60.922368 
L 287.744 65.954304 
L 291.712 70.74432 
L 295.68 75.292416 
L 299.648 79.622784 
L 303.616 83.735424 
L 307.584 87.654528 
L 315.52 94.960512 
L 323.456 101.613312 
L 327.424 104.73408 
L 335.36 110.564352 
L 343.296 115.910784 
L 351.232 120.845952 
L 359.168 125.41824 
L 367.104 129.627648 
L 375.04 133.570944 
L 382.976 137.199744 
L 390.912 140.610816 
L 398.848 143.779968 
L 406.784 146.755584 
L 414.72 149.537664 
L 422.656 152.1504 
L 430.592 154.617984 
L 438.528 156.940416 
L 450.432 160.182144 
L 461.8 163.027045 
L 461.8 163.027045 
" style="fill:none;stroke:#ff0000;stroke-dasharray:12,6;stroke-dashoffset:0;stroke-width:1.5;"/>
   </g>
   <g id="line2d_18">
    <path clip-path="url(#p87726d8c05)" d="M 57.6 285.787008 
L 69.504 269.23968 
L 77.44 258.83712 
L 81.408 253.926144 
L 85.376 249.232896 
L 89.344 244.757376 
L 93.312 240.523776 
L 97.28 235.395072 
L 105.216 224.60544 
L 113.152 214.106112 
L 121.088 203.897088 
L 129.024 194.00256 
L 136.96 184.470912 
L 144.896 175.25376 
L 152.832 166.399488 
L 160.768 157.859712 
L 168.704 149.658624 
L 176.64 141.772032 
L 184.576 134.224128 
L 192.512 126.966528 
L 200.448 120.023424 
L 208.384 113.370624 
L 216.32 106.983936 
L 224.256 100.887552 
L 232.192 95.033088 
L 240.128 89.420544 
L 248.064 84.04992 
L 256 78.921216 
L 263.936 73.986048 
L 275.84 66.99456 
L 279.808 66.680064 
L 287.744 72.461952 
L 295.68 77.76 
L 303.616 82.622592 
L 311.552 87.098112 
L 319.488 91.234944 
L 327.424 95.05728 
L 335.36 98.589312 
L 343.296 101.903616 
L 351.232 104.976 
L 359.168 107.830656 
L 367.104 110.54016 
L 379.008 114.241536 
L 390.912 117.628416 
L 402.816 120.724992 
L 410.752 122.660352 
L 422.656 125.345664 
L 434.56 127.83744 
L 450.432 130.837248 
L 461.8 132.82626 
L 461.8 132.82626 
" style="fill:none;stroke:#008000;stroke-dasharray:9,3,3,3;stroke-dashoffset:0;stroke-width:1.5;"/>
   </g>
   <g id="line2d_19">
    <path clip-path="url(#p87726d8c05)" d="M 57.6 295.488 
L 93.312 295.488 
L 97.28 294.012288 
L 101.248 291.786624 
L 105.216 289.270656 
L 109.184 286.464384 
L 113.152 283.367808 
L 117.12 280.00512 
L 121.088 276.37632 
L 125.056 272.5056 
L 129.024 268.417152 
L 132.992 264.110976 
L 136.96 259.611264 
L 140.928 254.918016 
L 148.864 244.999296 
L 156.8 234.52416 
L 164.736 223.540992 
L 172.672 212.170752 
L 184.576 194.558976 
L 196.48 176.487552 
L 220.288 139.860864 
L 240.128 109.548288 
L 256 85.840128 
L 267.904 68.470272 
L 275.84 57.124224 
L 279.808 53.568 
L 461.8 53.568 
L 461.8 53.568 
" style="fill:none;stroke:#0000ff;stroke-dasharray:3,1.5;stroke-dashoffset:0;stroke-width:1.5;"/>
   </g>
   <g id="patch_3">
    <path d="M 57.6 307.584 
L 57.6 41.472 
" style="fill:none;stroke:#000000;stroke-linecap:square;stroke-linejoin:miter;stroke-width:0.8;"/>
   </g>
   <g id="patch_4">
    <path d="M 414.72 307.584 
L 414.72 41.472 
" style="fill:none;stroke:#000000;stroke-linecap:square;stroke-linejoin:miter;stroke-width:0.8;"/>
   </g>
   <g id="patch_5">
    <path d="M 57.6 307.584 
L 414.72 307.584 
" style="fill:none;stroke:#000000;stroke-linecap:square;stroke-linejoin:miter;stroke-width:0.8;"/>
   </g>
   <g id="patch_6">
    <path d="M 57.6 41.472 
L 414.72 41.472 
" style="fill:none;stroke:#000000;stroke-linecap:square;stroke-linejoin:miter;stroke-width:0.8;"/>
   </g>
   <g id="text_19">
    <!-- Blackbody RGB Color -->
    <defs>
     <path d="M 6.296875 71.390625 
L 24.515625 71.390625 
Q 35.640625 71.390625 40.71875 67.0625 
Q 45.796875 62.75 45.796875 53.328125 
Q 45.796875 47.125 43.109375 42.9375 
Q 40.4375 38.765625 35.796875 37.890625 
L 35.796875 37.40625 
Q 41.84375 35.890625 44.53125 31.734375 
Q 47.21875 27.59375 47.21875 20.703125 
Q 47.21875 10.984375 42.015625 5.484375 
Q 36.8125 0 27.78125 0 
L 6.296875 0 
z
M 18.796875 42.671875 
L 24.90625 42.671875 
Q 29.109375 42.671875 30.8125 44.921875 
Q 32.515625 47.171875 32.515625 51.609375 
Q 32.515625 56.0625 30.5625 57.984375 
Q 28.609375 59.90625 24.421875 59.90625 
L 18.796875 59.90625 
z
M 18.796875 31.59375 
L 18.796875 11.625 
L 25.484375 11.625 
Q 29.640625 11.625 31.65625 14.15625 
Q 33.6875 16.703125 33.6875 22.015625 
Q 33.6875 31.59375 25.296875 31.59375 
z
" id="OpenSansCondensed-Bold-66"/>
     <path d="M 18.5 0 
L 5.515625 0 
L 5.515625 75.984375 
L 18.5 75.984375 
z
" id="OpenSansCondensed-Bold-108"/>
     <path d="M 32.171875 0 
L 29.59375 7.421875 
L 29.296875 7.421875 
Q 26.421875 2.640625 23.34375 0.828125 
Q 20.265625 -0.984375 15.578125 -0.984375 
Q 9.578125 -0.984375 6.125 3.515625 
Q 2.6875 8.015625 2.6875 16.015625 
Q 2.6875 24.609375 7.390625 28.78125 
Q 12.109375 32.953125 21.484375 33.40625 
L 28.71875 33.6875 
L 28.71875 37.59375 
Q 28.71875 45.21875 22.125 45.21875 
Q 17.234375 45.21875 10.890625 41.40625 
L 6.390625 50.390625 
Q 14.5 55.515625 24.03125 55.515625 
Q 32.671875 55.515625 37.1875 50.5625 
Q 41.703125 45.609375 41.703125 36.53125 
L 41.703125 0 
z
M 20.90625 9.1875 
Q 24.46875 9.1875 26.59375 12.375 
Q 28.71875 15.578125 28.71875 20.90625 
L 28.71875 25.484375 
L 24.703125 25.296875 
Q 20.265625 25.046875 18.1875 22.75 
Q 16.109375 20.453125 16.109375 15.921875 
Q 16.109375 9.1875 20.90625 9.1875 
z
" id="OpenSansCondensed-Bold-97"/>
     <path d="M 23.484375 -0.984375 
Q 13.765625 -0.984375 8.6875 6.09375 
Q 3.609375 13.1875 3.609375 26.90625 
Q 3.609375 41.265625 8.421875 48.34375 
Q 13.234375 55.421875 23.296875 55.421875 
Q 26.3125 55.421875 29.625 54.53125 
Q 32.953125 53.65625 35.59375 52 
L 31.890625 41.890625 
Q 27.828125 44.28125 24.703125 44.28125 
Q 20.5625 44.28125 18.71875 39.953125 
Q 16.890625 35.640625 16.890625 27 
Q 16.890625 18.5625 18.703125 14.375 
Q 20.515625 10.203125 24.609375 10.203125 
Q 29.5 10.203125 34.8125 13.625 
L 34.8125 2.203125 
Q 29.6875 -0.984375 23.484375 -0.984375 
z
" id="OpenSansCondensed-Bold-99"/>
     <path d="M 18.3125 29.296875 
L 21.578125 35.796875 
L 32.328125 54.390625 
L 46.09375 54.390625 
L 32.328125 32.078125 
L 47.015625 0 
L 33.40625 0 
L 23.578125 23 
L 18.5 18.40625 
L 18.5 0 
L 5.515625 0 
L 5.515625 75.984375 
L 18.5 75.984375 
L 18.5 40.1875 
L 17.921875 29.296875 
z
" id="OpenSansCondensed-Bold-107"/>
     <path d="M 30.078125 55.421875 
Q 37.5 55.421875 41.75 48.046875 
Q 46 40.671875 46 27.296875 
Q 46 13.765625 41.71875 6.390625 
Q 37.453125 -0.984375 29.890625 -0.984375 
Q 26.21875 -0.984375 23.40625 0.609375 
Q 20.609375 2.203125 18.109375 6.203125 
L 17.28125 6.203125 
L 15.09375 0 
L 5.515625 0 
L 5.515625 75.984375 
L 18.5 75.984375 
L 18.5 58.203125 
Q 18.5 57.078125 18.453125 55.859375 
Q 18.40625 54.640625 17.828125 47.3125 
L 18.5 47.3125 
Q 20.90625 51.8125 23.6875 53.609375 
Q 26.46875 55.421875 30.078125 55.421875 
z
M 25.59375 44.390625 
Q 21.875 44.390625 20.234375 40.921875 
Q 18.609375 37.453125 18.5 28.71875 
L 18.5 27.390625 
Q 18.5 17.921875 20.1875 14.0625 
Q 21.875 10.203125 25.6875 10.203125 
Q 32.71875 10.203125 32.71875 27.484375 
Q 32.71875 44.390625 25.59375 44.390625 
z
" id="OpenSansCondensed-Bold-98"/>
     <path d="M 45.796875 27.296875 
Q 45.796875 13.921875 40.125 6.46875 
Q 34.46875 -0.984375 24.609375 -0.984375 
Q 18.359375 -0.984375 13.578125 2.4375 
Q 8.796875 5.859375 6.203125 12.28125 
Q 3.609375 18.703125 3.609375 27.296875 
Q 3.609375 40.53125 9.21875 47.96875 
Q 14.84375 55.421875 24.8125 55.421875 
Q 34.421875 55.421875 40.109375 47.828125 
Q 45.796875 40.234375 45.796875 27.296875 
z
M 16.890625 27.296875 
Q 16.890625 18.796875 18.75 14.453125 
Q 20.609375 10.109375 24.703125 10.109375 
Q 32.515625 10.109375 32.515625 27.296875 
Q 32.515625 35.84375 30.640625 40.0625 
Q 28.765625 44.28125 24.703125 44.28125 
Q 20.609375 44.28125 18.75 40.0625 
Q 16.890625 35.84375 16.890625 27.296875 
z
" id="OpenSansCondensed-Bold-111"/>
     <path d="M 19.828125 -0.984375 
Q 12.3125 -0.984375 7.953125 6.4375 
Q 3.609375 13.875 3.609375 27.09375 
Q 3.609375 40.375 7.859375 47.890625 
Q 12.109375 55.421875 19.578125 55.421875 
Q 23.296875 55.421875 26 53.59375 
Q 28.71875 51.765625 31 47.40625 
L 31.78125 47.40625 
Q 31.203125 54.828125 31.203125 57.8125 
L 31.203125 75.984375 
L 44.1875 75.984375 
L 44.1875 0 
L 34.515625 0 
L 32.328125 7.078125 
L 31.890625 7.078125 
Q 27.734375 -0.984375 19.828125 -0.984375 
z
M 24.03125 10.015625 
Q 27.640625 10.015625 29.296875 13.3125 
Q 30.953125 16.609375 31.109375 25.296875 
L 31.109375 27 
Q 31.109375 36.46875 29.421875 40.328125 
Q 27.734375 44.1875 23.875 44.1875 
Q 20.265625 44.1875 18.625 39.765625 
Q 17 35.359375 17 26.90625 
Q 17 18.453125 18.65625 14.234375 
Q 20.3125 10.015625 24.03125 10.015625 
z
" id="OpenSansCondensed-Bold-100"/>
     <path d="M 0 54.390625 
L 13.484375 54.390625 
L 21 23.6875 
Q 22.125 19.578125 22.796875 12.203125 
L 23.09375 12.203125 
Q 23.140625 13.375 23.53125 16.375 
Q 23.921875 19.390625 24.171875 21.09375 
Q 24.421875 22.796875 30.90625 54.390625 
L 44.578125 54.390625 
L 29 -3.90625 
Q 26.171875 -14.65625 21.484375 -19.34375 
Q 16.796875 -24.03125 8.984375 -24.03125 
Q 5.125 -24.03125 2.09375 -23.1875 
L 2.09375 -12.3125 
Q 4.109375 -12.890625 6.59375 -12.890625 
Q 13.140625 -12.890625 15.1875 -4.296875 
L 16.109375 -0.875 
z
" id="OpenSansCondensed-Bold-121"/>
     <path id="OpenSansCondensed-Bold-32"/>
     <path d="M 19.578125 27.78125 
L 19.578125 0 
L 6.296875 0 
L 6.296875 71.390625 
L 23.6875 71.390625 
Q 34.71875 71.390625 39.96875 66.15625 
Q 45.21875 60.9375 45.21875 50.203125 
Q 45.21875 36.671875 36.078125 31.296875 
L 49.8125 0 
L 35.59375 0 
L 24.3125 27.78125 
z
M 19.578125 39.203125 
L 23 39.203125 
Q 27.6875 39.203125 29.734375 41.859375 
Q 31.78125 44.53125 31.78125 49.8125 
Q 31.78125 55.28125 29.609375 57.59375 
Q 27.4375 59.90625 22.90625 59.90625 
L 19.578125 59.90625 
z
" id="OpenSansCondensed-Bold-82"/>
     <path d="M 27.875 39.59375 
L 49.703125 39.59375 
L 49.703125 2.984375 
Q 40.4375 -0.984375 29.984375 -0.984375 
Q 17.53125 -0.984375 10.8125 8.484375 
Q 4.109375 17.96875 4.109375 35.796875 
Q 4.109375 52.984375 11.796875 62.6875 
Q 19.484375 72.40625 33.296875 72.40625 
Q 41.84375 72.40625 49.609375 68.015625 
L 45.40625 57.171875 
Q 39.359375 60.6875 34.078125 60.6875 
Q 26.515625 60.6875 22.09375 53.921875 
Q 17.671875 47.171875 17.671875 35.5 
Q 17.671875 23.484375 20.875 17.078125 
Q 24.078125 10.6875 30.171875 10.6875 
Q 33.40625 10.6875 36.71875 11.53125 
L 36.71875 27.875 
L 27.875 27.875 
z
" id="OpenSansCondensed-Bold-71"/>
     <path d="M 29.984375 60.796875 
Q 24.265625 60.796875 20.96875 54.09375 
Q 17.671875 47.40625 17.671875 35.5 
Q 17.671875 10.6875 30.609375 10.6875 
Q 36.28125 10.6875 42.484375 14.3125 
L 42.484375 2.484375 
Q 37.25 -0.984375 29.109375 -0.984375 
Q 17.046875 -0.984375 10.578125 8.609375 
Q 4.109375 18.21875 4.109375 35.59375 
Q 4.109375 52.984375 10.765625 62.6875 
Q 17.4375 72.40625 29.296875 72.40625 
Q 33.203125 72.40625 36.78125 71.328125 
Q 40.375 70.265625 44.484375 67.578125 
L 40.09375 56.78125 
Q 37.890625 58.296875 35.390625 59.546875 
Q 32.90625 60.796875 29.984375 60.796875 
z
" id="OpenSansCondensed-Bold-67"/>
     <path d="M 28.71875 55.421875 
Q 31.109375 55.421875 33.40625 54.6875 
L 31.890625 42.09375 
Q 30.515625 42.578125 28.328125 42.578125 
Q 23.578125 42.578125 21.03125 38.84375 
Q 18.5 35.109375 18.5 27.984375 
L 18.5 0 
L 5.515625 0 
L 5.515625 54.390625 
L 16.21875 54.390625 
L 17.671875 45.90625 
L 18.109375 45.90625 
Q 20.265625 51.03125 22.796875 53.21875 
Q 25.34375 55.421875 28.71875 55.421875 
z
" id="OpenSansCondensed-Bold-114"/>
    </defs>
    <g transform="translate(171.69625 35.472)scale(0.16 -0.16)">
     <use xlink:href="#OpenSansCondensed-Bold-66"/>
     <use x="50.683594" xlink:href="#OpenSansCondensed-Bold-108"/>
     <use x="74.560547" xlink:href="#OpenSansCondensed-Bold-97"/>
     <use x="121.240234" xlink:href="#OpenSansCondensed-Bold-99"/>
     <use x="158.349609" xlink:href="#OpenSansCondensed-Bold-107"/>
     <use x="205.46875" xlink:href="#OpenSansCondensed-Bold-98"/>
     <use x="255.078125" xlink:href="#OpenSansCondensed-Bold-111"/>
     <use x="304.492188" xlink:href="#OpenSansCondensed-Bold-100"/>
     <use x="354.101562" xlink:href="#OpenSansCondensed-Bold-121"/>
     <use x="398.681641" xlink:href="#OpenSansCondensed-Bold-32"/>
     <use x="423.388672" xlink:href="#OpenSansCondensed-Bold-82"/>
     <use x="473.388672" xlink:href="#OpenSansCondensed-Bold-71"/>
     <use x="527.685547" xlink:href="#OpenSansCondensed-Bold-66"/>
     <use x="578.369141" xlink:href="#OpenSansCondensed-Bold-32"/>
     <use x="603.076172" xlink:href="#OpenSansCondensed-Bold-67"/>
     <use x="649.365234" xlink:href="#OpenSansCondensed-Bold-111"/>
     <use x="698.779297" xlink:href="#OpenSansCondensed-Bold-108"/>
     <use x="722.65625" xlink:href="#OpenSansCondensed-Bold-111"/>
     <use x="772.070312" xlink:href="#OpenSansCondensed-Bold-114"/>
    </g>
   </g>
   <g id="legend_1">
    <g id="patch_7">
     <path d="M 346.998125 302.584 
L 407.72 302.584 
Q 409.72 302.584 409.72 300.584 
L 409.72 256.579312 
Q 409.72 254.579312 407.72 254.579312 
L 346.998125 254.579312 
Q 344.998125 254.579312 344.998125 256.579312 
L 344.998125 300.584 
Q 344.998125 302.584 346.998125 302.584 
z
" style="fill:#ffffff;opacity:0.8;stroke:#cccccc;stroke-linejoin:miter;"/>
    </g>
    <g id="line2d_20">
     <path d="M 348.998125 262.67775 
L 368.998125 262.67775 
" style="fill:none;stroke:#ff0000;stroke-dasharray:12,6;stroke-dashoffset:0;stroke-width:1.5;"/>
    </g>
    <g id="line2d_21"/>
    <g id="text_20">
     <!-- Red -->
     <defs>
      <path d="M 18.109375 29.6875 
L 18.109375 0 
L 9.8125 0 
L 9.8125 71.390625 
L 29.390625 71.390625 
Q 42.53125 71.390625 48.796875 66.359375 
Q 55.078125 61.328125 55.078125 51.21875 
Q 55.078125 37.0625 40.71875 32.078125 
L 60.109375 0 
L 50.296875 0 
L 33.015625 29.6875 
z
M 18.109375 36.8125 
L 29.5 36.8125 
Q 38.28125 36.8125 42.375 40.296875 
Q 46.484375 43.796875 46.484375 50.78125 
Q 46.484375 57.859375 42.3125 60.984375 
Q 38.140625 64.109375 28.90625 64.109375 
L 18.109375 64.109375 
z
" id="OpenSans-Regular-82"/>
      <path d="M 45.015625 7.171875 
L 44.578125 7.171875 
Q 38.96875 -0.984375 27.78125 -0.984375 
Q 17.28125 -0.984375 11.4375 6.1875 
Q 5.609375 13.375 5.609375 26.609375 
Q 5.609375 39.84375 11.46875 47.171875 
Q 17.328125 54.5 27.78125 54.5 
Q 38.671875 54.5 44.484375 46.578125 
L 45.125 46.578125 
L 44.78125 50.4375 
L 44.578125 54.203125 
L 44.578125 75.984375 
L 52.6875 75.984375 
L 52.6875 0 
L 46.09375 0 
z
M 28.8125 5.8125 
Q 37.109375 5.8125 40.84375 10.328125 
Q 44.578125 14.84375 44.578125 24.90625 
L 44.578125 26.609375 
Q 44.578125 37.984375 40.796875 42.84375 
Q 37.015625 47.703125 28.71875 47.703125 
Q 21.578125 47.703125 17.796875 42.15625 
Q 14.015625 36.625 14.015625 26.515625 
Q 14.015625 16.265625 17.765625 11.03125 
Q 21.53125 5.8125 28.8125 5.8125 
z
" id="OpenSans-Regular-100"/>
     </defs>
     <g transform="translate(376.998125 266.17775)scale(0.1 -0.1)">
      <use xlink:href="#OpenSans-Regular-82"/>
      <use x="61.816406" xlink:href="#OpenSans-Regular-101"/>
      <use x="117.919922" xlink:href="#OpenSans-Regular-100"/>
     </g>
    </g>
    <g id="line2d_22">
     <path d="M 348.998125 277.679312 
L 368.998125 277.679312 
" style="fill:none;stroke:#008000;stroke-dasharray:9,3,3,3;stroke-dashoffset:0;stroke-width:1.5;"/>
    </g>
    <g id="line2d_23"/>
    <g id="text_21">
     <!-- Green -->
     <defs>
      <path d="M 41.21875 37.40625 
L 65.484375 37.40625 
L 65.484375 2.6875 
Q 59.8125 0.875 53.953125 -0.046875 
Q 48.09375 -0.984375 40.375 -0.984375 
Q 24.171875 -0.984375 15.140625 8.65625 
Q 6.109375 18.3125 6.109375 35.6875 
Q 6.109375 46.828125 10.578125 55.203125 
Q 15.046875 63.578125 23.4375 67.984375 
Q 31.84375 72.40625 43.109375 72.40625 
Q 54.546875 72.40625 64.40625 68.21875 
L 61.1875 60.890625 
Q 51.515625 64.984375 42.578125 64.984375 
Q 29.546875 64.984375 22.21875 57.21875 
Q 14.890625 49.46875 14.890625 35.6875 
Q 14.890625 21.234375 21.9375 13.765625 
Q 29 6.296875 42.671875 6.296875 
Q 50.09375 6.296875 57.171875 8.015625 
L 57.171875 29.984375 
L 41.21875 29.984375 
z
" id="OpenSans-Regular-71"/>
     </defs>
     <g transform="translate(376.998125 281.179312)scale(0.1 -0.1)">
      <use xlink:href="#OpenSans-Regular-71"/>
      <use x="72.802734" xlink:href="#OpenSans-Regular-114"/>
      <use x="113.623047" xlink:href="#OpenSans-Regular-101"/>
      <use x="169.726562" xlink:href="#OpenSans-Regular-101"/>
      <use x="225.830078" xlink:href="#OpenSans-Regular-110"/>
     </g>
    </g>
    <g id="line2d_24">
     <path d="M 348.998125 292.680875 
L 368.998125 292.680875 
" style="fill:none;stroke:#0000ff;stroke-dasharray:3,1.5;stroke-dashoffset:0;stroke-width:1.5;"/>
    </g>
    <g id="line2d_25"/>
    <g id="text_22">
     <!-- Blue -->
     <defs>
      <path d="M 9.8125 71.390625 
L 29.984375 71.390625 
Q 44.1875 71.390625 50.53125 67.140625 
Q 56.890625 62.890625 56.890625 53.71875 
Q 56.890625 47.359375 53.34375 43.234375 
Q 49.8125 39.109375 43.015625 37.890625 
L 43.015625 37.40625 
Q 59.28125 34.625 59.28125 20.3125 
Q 59.28125 10.75 52.8125 5.375 
Q 46.34375 0 34.71875 0 
L 9.8125 0 
z
M 18.109375 40.828125 
L 31.78125 40.828125 
Q 40.578125 40.828125 44.4375 43.578125 
Q 48.296875 46.34375 48.296875 52.875 
Q 48.296875 58.890625 44 61.546875 
Q 39.703125 64.203125 30.328125 64.203125 
L 18.109375 64.203125 
z
M 18.109375 33.796875 
L 18.109375 7.078125 
L 33.015625 7.078125 
Q 41.65625 7.078125 46.015625 10.421875 
Q 50.390625 13.765625 50.390625 20.90625 
Q 50.390625 27.546875 45.921875 30.671875 
Q 41.453125 33.796875 32.328125 33.796875 
z
" id="OpenSans-Regular-66"/>
     </defs>
     <g transform="translate(376.998125 296.180875)scale(0.1 -0.1)">
      <use xlink:href="#OpenSans-Regular-66"/>
      <use x="64.794922" xlink:href="#OpenSans-Regular-108"/>
      <use x="90.087891" xlink:href="#OpenSans-Regular-117"/>
      <use x="151.464844" xlink:href="#OpenSans-Regular-101"/>
     </g>
    </g>
   </g>
  </g>
 </g>
 <defs>
  <clipPath id="p87726d8c05">
   <rect height="266.112" width="357.12" x="57.6" y="41.472"/>
  </clipPath>
 </defs>
</svg>
