<?xml version="1.0" encoding="utf-8" standalone="no"?>
<!DOCTYPE svg PUBLIC "-//W3C//DTD SVG 1.1//EN"
  "http://www.w3.org/Graphics/SVG/1.1/DTD/svg11.dtd">
<!-- Created with matplotlib (https://matplotlib.org/) -->
<svg height="345.6pt" version="1.1" viewBox="0 0 460.8 345.6" width="460.8pt" xmlns="http://www.w3.org/2000/svg" xmlns:xlink="http://www.w3.org/1999/xlink">
 <defs>
  <style type="text/css">
*{stroke-linecap:butt;stroke-linejoin:round;}
  </style>
 </defs>
 <g id="figure_1">
  <g id="patch_1">
   <path d="M 0 345.6 
L 460.8 345.6 
L 460.8 0 
L 0 0 
z
" style="fill:#ffffff;"/>
  </g>
  <g id="axes_1">
   <g id="patch_2">
    <path d="M 57.6 307.584 
L 414.72 307.584 
L 414.72 41.472 
L 57.6 41.472 
z
" style="fill:#ffffff;"/>
   </g>
   <g id="matplotlib.axis_1">
    <g id="xtick_1">
     <g id="line2d_1">
      <defs>
       <path d="M 0 0 
L 0 3.5 
" id="m68206bd58c" style="stroke:#000000;stroke-width:0.8;"/>
      </defs>
      <g>
       <use style="stroke:#000000;stroke-width:0.8;" x="57.6" xlink:href="#m68206bd58c" y="307.584"/>
      </g>
     </g>
     <g id="text_1">
      <!-- 0.0 -->
      <defs>
       <path d="M 52.203125 35.796875 
Q 52.203125 17.28125 46.359375 8.140625 
Q 40.53125 -0.984375 28.515625 -0.984375 
Q 17 -0.984375 10.984375 8.359375 
Q 4.984375 17.71875 4.984375 35.796875 
Q 4.984375 54.4375 10.796875 63.46875 
Q 16.609375 72.515625 28.515625 72.515625 
Q 40.140625 72.515625 46.171875 63.078125 
Q 52.203125 53.65625 52.203125 35.796875 
z
M 13.1875 35.796875 
Q 13.1875 20.21875 16.84375 13.109375 
Q 20.515625 6 28.515625 6 
Q 36.625 6 40.25 13.203125 
Q 43.890625 20.40625 43.890625 35.796875 
Q 43.890625 51.171875 40.25 58.328125 
Q 36.625 65.484375 28.515625 65.484375 
Q 20.515625 65.484375 16.84375 58.421875 
Q 13.1875 51.375 13.1875 35.796875 
z
" id="OpenSans-Regular-48"/>
       <path d="M 7.421875 5.171875 
Q 7.421875 8.453125 8.90625 10.125 
Q 10.40625 11.8125 13.1875 11.8125 
Q 16.015625 11.8125 17.59375 10.125 
Q 19.1875 8.453125 19.1875 5.171875 
Q 19.1875 2 17.578125 0.28125 
Q 15.96875 -1.421875 13.1875 -1.421875 
Q 10.6875 -1.421875 9.046875 0.109375 
Q 7.421875 1.65625 7.421875 5.171875 
z
" id="OpenSans-Regular-46"/>
      </defs>
      <g transform="translate(50.552344 322.182437)scale(0.1 -0.1)">
       <use xlink:href="#OpenSans-Regular-48"/>
       <use x="57.177734" xlink:href="#OpenSans-Regular-46"/>
       <use x="83.789062" xlink:href="#OpenSans-Regular-48"/>
      </g>
     </g>
    </g>
    <g id="xtick_2">
     <g id="line2d_2">
      <g>
       <use style="stroke:#000000;stroke-width:0.8;" x="129.024" xlink:href="#m68206bd58c" y="307.584"/>
      </g>
     </g>
     <g id="text_2">
      <!-- 0.2 -->
      <defs>
       <path d="M 51.8125 0 
L 4.890625 0 
L 4.890625 6.984375 
L 23.6875 25.875 
Q 32.28125 34.578125 35.015625 38.28125 
Q 37.75 42 39.109375 45.515625 
Q 40.484375 49.03125 40.484375 53.078125 
Q 40.484375 58.796875 37.015625 62.140625 
Q 33.546875 65.484375 27.390625 65.484375 
Q 22.953125 65.484375 18.96875 64.015625 
Q 14.984375 62.546875 10.109375 58.6875 
L 5.8125 64.203125 
Q 15.671875 72.40625 27.296875 72.40625 
Q 37.359375 72.40625 43.0625 67.25 
Q 48.78125 62.109375 48.78125 53.421875 
Q 48.78125 46.625 44.96875 39.984375 
Q 41.15625 33.34375 30.71875 23.1875 
L 15.09375 7.90625 
L 15.09375 7.515625 
L 51.8125 7.515625 
z
" id="OpenSans-Regular-50"/>
      </defs>
      <g transform="translate(121.976344 322.182437)scale(0.1 -0.1)">
       <use xlink:href="#OpenSans-Regular-48"/>
       <use x="57.177734" xlink:href="#OpenSans-Regular-46"/>
       <use x="83.789062" xlink:href="#OpenSans-Regular-50"/>
      </g>
     </g>
    </g>
    <g id="xtick_3">
     <g id="line2d_3">
      <g>
       <use style="stroke:#000000;stroke-width:0.8;" x="200.448" xlink:href="#m68206bd58c" y="307.584"/>
      </g>
     </g>
     <g id="text_3">
      <!-- 0.4 -->
      <defs>
       <path d="M 55.171875 16.40625 
L 44.578125 16.40625 
L 44.578125 0 
L 36.8125 0 
L 36.8125 16.40625 
L 2.09375 16.40625 
L 2.09375 23.484375 
L 35.984375 71.78125 
L 44.578125 71.78125 
L 44.578125 23.78125 
L 55.171875 23.78125 
z
M 36.8125 23.78125 
L 36.8125 47.515625 
Q 36.8125 54.5 37.3125 63.28125 
L 36.921875 63.28125 
Q 34.578125 58.59375 32.515625 55.515625 
L 10.203125 23.78125 
z
" id="OpenSans-Regular-52"/>
      </defs>
      <g transform="translate(193.400344 322.182437)scale(0.1 -0.1)">
       <use xlink:href="#OpenSans-Regular-48"/>
       <use x="57.177734" xlink:href="#OpenSans-Regular-46"/>
       <use x="83.789062" xlink:href="#OpenSans-Regular-52"/>
      </g>
     </g>
    </g>
    <g id="xtick_4">
     <g id="line2d_4">
      <g>
       <use style="stroke:#000000;stroke-width:0.8;" x="271.872" xlink:href="#m68206bd58c" y="307.584"/>
      </g>
     </g>
     <g id="text_4">
      <!-- 0.6 -->
      <defs>
       <path d="M 5.71875 30.515625 
Q 5.71875 51.5625 13.890625 61.984375 
Q 22.078125 72.40625 38.09375 72.40625 
Q 43.609375 72.40625 46.78125 71.484375 
L 46.78125 64.5 
Q 43.015625 65.71875 38.1875 65.71875 
Q 26.703125 65.71875 20.640625 58.5625 
Q 14.59375 51.421875 14.015625 36.078125 
L 14.59375 36.078125 
Q 19.96875 44.484375 31.59375 44.484375 
Q 41.21875 44.484375 46.75 38.671875 
Q 52.296875 32.859375 52.296875 22.90625 
Q 52.296875 11.765625 46.21875 5.390625 
Q 40.140625 -0.984375 29.78125 -0.984375 
Q 18.703125 -0.984375 12.203125 7.34375 
Q 5.71875 15.671875 5.71875 30.515625 
z
M 29.6875 5.90625 
Q 36.625 5.90625 40.453125 10.28125 
Q 44.28125 14.65625 44.28125 22.90625 
Q 44.28125 29.984375 40.71875 34.03125 
Q 37.15625 38.09375 30.078125 38.09375 
Q 25.6875 38.09375 22.015625 36.28125 
Q 18.359375 34.46875 16.1875 31.296875 
Q 14.015625 28.125 14.015625 24.703125 
Q 14.015625 19.671875 15.96875 15.328125 
Q 17.921875 10.984375 21.5 8.4375 
Q 25.09375 5.90625 29.6875 5.90625 
z
" id="OpenSans-Regular-54"/>
      </defs>
      <g transform="translate(264.824344 322.182437)scale(0.1 -0.1)">
       <use xlink:href="#OpenSans-Regular-48"/>
       <use x="57.177734" xlink:href="#OpenSans-Regular-46"/>
       <use x="83.789062" xlink:href="#OpenSans-Regular-54"/>
      </g>
     </g>
    </g>
    <g id="xtick_5">
     <g id="line2d_5">
      <g>
       <use style="stroke:#000000;stroke-width:0.8;" x="343.296" xlink:href="#m68206bd58c" y="307.584"/>
      </g>
     </g>
     <g id="text_5">
      <!-- 0.8 -->
      <defs>
       <path d="M 28.515625 72.40625 
Q 38.28125 72.40625 43.984375 67.859375 
Q 49.703125 63.328125 49.703125 55.328125 
Q 49.703125 50.046875 46.4375 45.703125 
Q 43.171875 41.359375 35.984375 37.796875 
Q 44.671875 33.640625 48.328125 29.078125 
Q 52 24.515625 52 18.5 
Q 52 9.625 45.796875 4.3125 
Q 39.59375 -0.984375 28.8125 -0.984375 
Q 17.390625 -0.984375 11.234375 4.015625 
Q 5.078125 9.03125 5.078125 18.21875 
Q 5.078125 30.46875 20.015625 37.3125 
Q 13.28125 41.109375 10.34375 45.53125 
Q 7.421875 49.953125 7.421875 55.421875 
Q 7.421875 63.1875 13.15625 67.796875 
Q 18.890625 72.40625 28.515625 72.40625 
z
M 13.09375 18.015625 
Q 13.09375 12.15625 17.15625 8.875 
Q 21.234375 5.609375 28.609375 5.609375 
Q 35.890625 5.609375 39.9375 9.03125 
Q 44 12.453125 44 18.40625 
Q 44 23.140625 40.1875 26.828125 
Q 36.375 30.515625 26.90625 33.984375 
Q 19.625 30.859375 16.359375 27.078125 
Q 13.09375 23.296875 13.09375 18.015625 
z
M 28.421875 65.828125 
Q 22.3125 65.828125 18.84375 62.890625 
Q 15.375 59.96875 15.375 55.078125 
Q 15.375 50.59375 18.25 47.359375 
Q 21.140625 44.140625 28.90625 40.921875 
Q 35.890625 43.84375 38.796875 47.21875 
Q 41.703125 50.59375 41.703125 55.078125 
Q 41.703125 60.015625 38.15625 62.921875 
Q 34.625 65.828125 28.421875 65.828125 
z
" id="OpenSans-Regular-56"/>
      </defs>
      <g transform="translate(336.248344 322.182437)scale(0.1 -0.1)">
       <use xlink:href="#OpenSans-Regular-48"/>
       <use x="57.177734" xlink:href="#OpenSans-Regular-46"/>
       <use x="83.789062" xlink:href="#OpenSans-Regular-56"/>
      </g>
     </g>
    </g>
    <g id="xtick_6">
     <g id="line2d_6">
      <g>
       <use style="stroke:#000000;stroke-width:0.8;" x="414.72" xlink:href="#m68206bd58c" y="307.584"/>
      </g>
     </g>
     <g id="text_6">
      <!-- 1.0 -->
      <defs>
       <path d="M 34.90625 0 
L 27 0 
L 27 50.875 
Q 27 57.234375 27.390625 62.890625 
Q 26.375 61.859375 25.09375 60.734375 
Q 23.828125 59.625 13.484375 51.21875 
L 9.1875 56.78125 
L 28.078125 71.390625 
L 34.90625 71.390625 
z
" id="OpenSans-Regular-49"/>
      </defs>
      <g transform="translate(407.672344 322.182437)scale(0.1 -0.1)">
       <use xlink:href="#OpenSans-Regular-49"/>
       <use x="57.177734" xlink:href="#OpenSans-Regular-46"/>
       <use x="83.789062" xlink:href="#OpenSans-Regular-48"/>
      </g>
     </g>
    </g>
    <g id="text_7">
     <!-- Time -->
     <defs>
      <path d="M 31.78125 0 
L 23.484375 0 
L 23.484375 64.015625 
L 0.875 64.015625 
L 0.875 71.390625 
L 54.390625 71.390625 
L 54.390625 64.015625 
L 31.78125 64.015625 
z
" id="OpenSans-Regular-84"/>
      <path d="M 16.703125 0 
L 8.59375 0 
L 8.59375 53.515625 
L 16.703125 53.515625 
z
M 7.90625 68.015625 
Q 7.90625 70.796875 9.265625 72.09375 
Q 10.640625 73.390625 12.703125 73.390625 
Q 14.65625 73.390625 16.0625 72.0625 
Q 17.484375 70.75 17.484375 68.015625 
Q 17.484375 65.28125 16.0625 63.9375 
Q 14.65625 62.59375 12.703125 62.59375 
Q 10.640625 62.59375 9.265625 63.9375 
Q 7.90625 65.28125 7.90625 68.015625 
z
" id="OpenSans-Regular-105"/>
      <path d="M 76.8125 0 
L 76.8125 34.8125 
Q 76.8125 41.21875 74.078125 44.40625 
Q 71.34375 47.609375 65.578125 47.609375 
Q 58.015625 47.609375 54.390625 43.265625 
Q 50.78125 38.921875 50.78125 29.890625 
L 50.78125 0 
L 42.671875 0 
L 42.671875 34.8125 
Q 42.671875 41.21875 39.9375 44.40625 
Q 37.203125 47.609375 31.390625 47.609375 
Q 23.78125 47.609375 20.234375 43.046875 
Q 16.703125 38.484375 16.703125 28.078125 
L 16.703125 0 
L 8.59375 0 
L 8.59375 53.515625 
L 15.1875 53.515625 
L 16.5 46.1875 
L 16.890625 46.1875 
Q 19.1875 50.09375 23.359375 52.296875 
Q 27.546875 54.5 32.71875 54.5 
Q 45.265625 54.5 49.125 45.40625 
L 49.515625 45.40625 
Q 51.90625 49.609375 56.4375 52.046875 
Q 60.984375 54.5 66.796875 54.5 
Q 75.875 54.5 80.390625 49.828125 
Q 84.90625 45.171875 84.90625 34.90625 
L 84.90625 0 
z
" id="OpenSans-Regular-109"/>
      <path d="M 31.203125 -0.984375 
Q 19.34375 -0.984375 12.46875 6.25 
Q 5.609375 13.484375 5.609375 26.3125 
Q 5.609375 39.265625 11.984375 46.875 
Q 18.359375 54.5 29.109375 54.5 
Q 39.15625 54.5 45.015625 47.875 
Q 50.875 41.265625 50.875 30.421875 
L 50.875 25.296875 
L 14.015625 25.296875 
Q 14.265625 15.875 18.78125 10.984375 
Q 23.296875 6.109375 31.5 6.109375 
Q 40.140625 6.109375 48.578125 9.71875 
L 48.578125 2.484375 
Q 44.28125 0.640625 40.453125 -0.171875 
Q 36.625 -0.984375 31.203125 -0.984375 
z
M 29 47.703125 
Q 22.5625 47.703125 18.71875 43.5 
Q 14.890625 39.3125 14.203125 31.890625 
L 42.1875 31.890625 
Q 42.1875 39.546875 38.765625 43.625 
Q 35.359375 47.703125 29 47.703125 
z
" id="OpenSans-Regular-101"/>
     </defs>
     <g transform="translate(224.6725 336.184)scale(0.1 -0.1)">
      <use xlink:href="#OpenSans-Regular-84"/>
      <use x="55.322266" xlink:href="#OpenSans-Regular-105"/>
      <use x="80.615234" xlink:href="#OpenSans-Regular-109"/>
      <use x="173.632812" xlink:href="#OpenSans-Regular-101"/>
     </g>
    </g>
   </g>
   <g id="matplotlib.axis_2">
    <g id="ytick_1">
     <g id="line2d_7">
      <defs>
       <path d="M 0 0 
L -3.5 0 
" id="m7f33cb238a" style="stroke:#000000;stroke-width:0.8;"/>
      </defs>
      <g>
       <use style="stroke:#000000;stroke-width:0.8;" x="57.6" xlink:href="#m7f33cb238a" y="307.584"/>
      </g>
     </g>
     <g id="text_8">
      <!-- 0.0 -->
      <g transform="translate(36.504688 311.383219)scale(0.1 -0.1)">
       <use xlink:href="#OpenSans-Regular-48"/>
       <use x="57.177734" xlink:href="#OpenSans-Regular-46"/>
       <use x="83.789062" xlink:href="#OpenSans-Regular-48"/>
      </g>
     </g>
    </g>
    <g id="ytick_2">
     <g id="line2d_8">
      <g>
       <use style="stroke:#000000;stroke-width:0.8;" x="57.6" xlink:href="#m7f33cb238a" y="254.3616"/>
      </g>
     </g>
     <g id="text_9">
      <!-- 0.2 -->
      <g transform="translate(36.504688 258.160819)scale(0.1 -0.1)">
       <use xlink:href="#OpenSans-Regular-48"/>
       <use x="57.177734" xlink:href="#OpenSans-Regular-46"/>
       <use x="83.789062" xlink:href="#OpenSans-Regular-50"/>
      </g>
     </g>
    </g>
    <g id="ytick_3">
     <g id="line2d_9">
      <g>
       <use style="stroke:#000000;stroke-width:0.8;" x="57.6" xlink:href="#m7f33cb238a" y="201.1392"/>
      </g>
     </g>
     <g id="text_10">
      <!-- 0.4 -->
      <g transform="translate(36.504688 204.938419)scale(0.1 -0.1)">
       <use xlink:href="#OpenSans-Regular-48"/>
       <use x="57.177734" xlink:href="#OpenSans-Regular-46"/>
       <use x="83.789062" xlink:href="#OpenSans-Regular-52"/>
      </g>
     </g>
    </g>
    <g id="ytick_4">
     <g id="line2d_10">
      <g>
       <use style="stroke:#000000;stroke-width:0.8;" x="57.6" xlink:href="#m7f33cb238a" y="147.9168"/>
      </g>
     </g>
     <g id="text_11">
      <!-- 0.6 -->
      <g transform="translate(36.504688 151.716019)scale(0.1 -0.1)">
       <use xlink:href="#OpenSans-Regular-48"/>
       <use x="57.177734" xlink:href="#OpenSans-Regular-46"/>
       <use x="83.789062" xlink:href="#OpenSans-Regular-54"/>
      </g>
     </g>
    </g>
    <g id="ytick_5">
     <g id="line2d_11">
      <g>
       <use style="stroke:#000000;stroke-width:0.8;" x="57.6" xlink:href="#m7f33cb238a" y="94.6944"/>
      </g>
     </g>
     <g id="text_12">
      <!-- 0.8 -->
      <g transform="translate(36.504688 98.493619)scale(0.1 -0.1)">
       <use xlink:href="#OpenSans-Regular-48"/>
       <use x="57.177734" xlink:href="#OpenSans-Regular-46"/>
       <use x="83.789062" xlink:href="#OpenSans-Regular-56"/>
      </g>
     </g>
    </g>
    <g id="ytick_6">
     <g id="line2d_12">
      <g>
       <use style="stroke:#000000;stroke-width:0.8;" x="57.6" xlink:href="#m7f33cb238a" y="41.472"/>
      </g>
     </g>
     <g id="text_13">
      <!-- 1.0 -->
      <g transform="translate(36.504688 45.271219)scale(0.1 -0.1)">
       <use xlink:href="#OpenSans-Regular-49"/>
       <use x="57.177734" xlink:href="#OpenSans-Regular-46"/>
       <use x="83.789062" xlink:href="#OpenSans-Regular-48"/>
      </g>
     </g>
    </g>
    <g id="text_14">
     <!-- Brightness -->
     <defs>
      <path d="M 9.8125 71.390625 
L 29.984375 71.390625 
Q 44.1875 71.390625 50.53125 67.140625 
Q 56.890625 62.890625 56.890625 53.71875 
Q 56.890625 47.359375 53.34375 43.234375 
Q 49.8125 39.109375 43.015625 37.890625 
L 43.015625 37.40625 
Q 59.28125 34.625 59.28125 20.3125 
Q 59.28125 10.75 52.8125 5.375 
Q 46.34375 0 34.71875 0 
L 9.8125 0 
z
M 18.109375 40.828125 
L 31.78125 40.828125 
Q 40.578125 40.828125 44.4375 43.578125 
Q 48.296875 46.34375 48.296875 52.875 
Q 48.296875 58.890625 44 61.546875 
Q 39.703125 64.203125 30.328125 64.203125 
L 18.109375 64.203125 
z
M 18.109375 33.796875 
L 18.109375 7.078125 
L 33.015625 7.078125 
Q 41.65625 7.078125 46.015625 10.421875 
Q 50.390625 13.765625 50.390625 20.90625 
Q 50.390625 27.546875 45.921875 30.671875 
Q 41.453125 33.796875 32.328125 33.796875 
z
" id="OpenSans-Regular-66"/>
      <path d="M 33.015625 54.5 
Q 36.578125 54.5 39.40625 53.90625 
L 38.28125 46.390625 
Q 34.96875 47.125 32.421875 47.125 
Q 25.921875 47.125 21.3125 41.84375 
Q 16.703125 36.578125 16.703125 28.71875 
L 16.703125 0 
L 8.59375 0 
L 8.59375 53.515625 
L 15.28125 53.515625 
L 16.21875 43.609375 
L 16.609375 43.609375 
Q 19.578125 48.828125 23.78125 51.65625 
Q 27.984375 54.5 33.015625 54.5 
z
" id="OpenSans-Regular-114"/>
      <path d="M 52.390625 53.515625 
L 52.390625 48.390625 
L 42.484375 47.21875 
Q 43.84375 45.515625 44.921875 42.75 
Q 46 39.984375 46 36.53125 
Q 46 28.65625 40.625 23.96875 
Q 35.25 19.28125 25.875 19.28125 
Q 23.484375 19.28125 21.390625 19.671875 
Q 16.21875 16.9375 16.21875 12.796875 
Q 16.21875 10.59375 18.015625 9.546875 
Q 19.828125 8.5 24.21875 8.5 
L 33.6875 8.5 
Q 42.390625 8.5 47.046875 4.828125 
Q 51.703125 1.171875 51.703125 -5.8125 
Q 51.703125 -14.703125 44.578125 -19.359375 
Q 37.453125 -24.03125 23.78125 -24.03125 
Q 13.28125 -24.03125 7.59375 -20.125 
Q 1.90625 -16.21875 1.90625 -9.078125 
Q 1.90625 -4.203125 5.03125 -0.625 
Q 8.15625 2.9375 13.8125 4.203125 
Q 11.765625 5.125 10.375 7.078125 
Q 8.984375 9.03125 8.984375 11.625 
Q 8.984375 14.546875 10.546875 16.75 
Q 12.109375 18.953125 15.484375 21 
Q 11.328125 22.703125 8.71875 26.796875 
Q 6.109375 30.90625 6.109375 36.1875 
Q 6.109375 44.96875 11.375 49.734375 
Q 16.65625 54.5 26.3125 54.5 
Q 30.515625 54.5 33.890625 53.515625 
z
M 9.71875 -8.984375 
Q 9.71875 -13.328125 13.375 -15.578125 
Q 17.046875 -17.828125 23.875 -17.828125 
Q 34.078125 -17.828125 38.984375 -14.765625 
Q 43.890625 -11.71875 43.890625 -6.5 
Q 43.890625 -2.15625 41.203125 -0.46875 
Q 38.53125 1.21875 31.109375 1.21875 
L 21.390625 1.21875 
Q 15.875 1.21875 12.796875 -1.40625 
Q 9.71875 -4.046875 9.71875 -8.984375 
z
M 14.109375 36.375 
Q 14.109375 30.765625 17.28125 27.875 
Q 20.453125 25 26.125 25 
Q 37.984375 25 37.984375 36.53125 
Q 37.984375 48.578125 25.984375 48.578125 
Q 20.265625 48.578125 17.1875 45.5 
Q 14.109375 42.4375 14.109375 36.375 
z
" id="OpenSans-Regular-103"/>
      <path d="M 45.21875 0 
L 45.21875 34.625 
Q 45.21875 41.15625 42.234375 44.375 
Q 39.265625 47.609375 32.90625 47.609375 
Q 24.46875 47.609375 20.578125 43.015625 
Q 16.703125 38.421875 16.703125 27.984375 
L 16.703125 0 
L 8.59375 0 
L 8.59375 75.984375 
L 16.703125 75.984375 
L 16.703125 52.984375 
Q 16.703125 48.828125 16.3125 46.09375 
L 16.796875 46.09375 
Q 19.1875 49.953125 23.609375 52.171875 
Q 28.03125 54.390625 33.6875 54.390625 
Q 43.5 54.390625 48.40625 49.71875 
Q 53.328125 45.0625 53.328125 34.90625 
L 53.328125 0 
z
" id="OpenSans-Regular-104"/>
      <path d="M 25.875 5.71875 
Q 28.03125 5.71875 30.03125 6.03125 
Q 32.03125 6.34375 33.203125 6.6875 
L 33.203125 0.484375 
Q 31.890625 -0.140625 29.328125 -0.5625 
Q 26.765625 -0.984375 24.703125 -0.984375 
Q 9.1875 -0.984375 9.1875 15.375 
L 9.1875 47.21875 
L 1.515625 47.21875 
L 1.515625 51.125 
L 9.1875 54.5 
L 12.59375 65.921875 
L 17.28125 65.921875 
L 17.28125 53.515625 
L 32.8125 53.515625 
L 32.8125 47.21875 
L 17.28125 47.21875 
L 17.28125 15.71875 
Q 17.28125 10.890625 19.578125 8.296875 
Q 21.875 5.71875 25.875 5.71875 
z
" id="OpenSans-Regular-116"/>
      <path d="M 45.21875 0 
L 45.21875 34.625 
Q 45.21875 41.15625 42.234375 44.375 
Q 39.265625 47.609375 32.90625 47.609375 
Q 24.515625 47.609375 20.609375 43.0625 
Q 16.703125 38.53125 16.703125 28.078125 
L 16.703125 0 
L 8.59375 0 
L 8.59375 53.515625 
L 15.1875 53.515625 
L 16.5 46.1875 
L 16.890625 46.1875 
Q 19.390625 50.140625 23.875 52.3125 
Q 28.375 54.5 33.890625 54.5 
Q 43.5625 54.5 48.4375 49.828125 
Q 53.328125 45.171875 53.328125 34.90625 
L 53.328125 0 
z
" id="OpenSans-Regular-110"/>
      <path d="M 43.109375 14.59375 
Q 43.109375 7.125 37.546875 3.0625 
Q 31.984375 -0.984375 21.921875 -0.984375 
Q 11.28125 -0.984375 5.328125 2.390625 
L 5.328125 9.90625 
Q 9.1875 7.953125 13.59375 6.828125 
Q 18.015625 5.71875 22.125 5.71875 
Q 28.46875 5.71875 31.875 7.734375 
Q 35.296875 9.765625 35.296875 13.921875 
Q 35.296875 17.046875 32.59375 19.265625 
Q 29.890625 21.484375 22.015625 24.515625 
Q 14.546875 27.296875 11.390625 29.375 
Q 8.25 31.453125 6.703125 34.078125 
Q 5.171875 36.71875 5.171875 40.375 
Q 5.171875 46.921875 10.5 50.703125 
Q 15.828125 54.5 25.09375 54.5 
Q 33.734375 54.5 42 50.984375 
L 39.109375 44.390625 
Q 31.0625 47.703125 24.515625 47.703125 
Q 18.75 47.703125 15.8125 45.890625 
Q 12.890625 44.09375 12.890625 40.921875 
Q 12.890625 38.765625 13.984375 37.25 
Q 15.09375 35.75 17.53125 34.375 
Q 19.96875 33.015625 26.90625 30.421875 
Q 36.421875 26.953125 39.765625 23.4375 
Q 43.109375 19.921875 43.109375 14.59375 
z
" id="OpenSans-Regular-115"/>
     </defs>
     <g transform="translate(30.101562 199.291281)rotate(-90)scale(0.1 -0.1)">
      <use xlink:href="#OpenSans-Regular-66"/>
      <use x="64.794922" xlink:href="#OpenSans-Regular-114"/>
      <use x="105.615234" xlink:href="#OpenSans-Regular-105"/>
      <use x="130.908203" xlink:href="#OpenSans-Regular-103"/>
      <use x="185.693359" xlink:href="#OpenSans-Regular-104"/>
      <use x="247.070312" xlink:href="#OpenSans-Regular-116"/>
      <use x="282.373047" xlink:href="#OpenSans-Regular-110"/>
      <use x="343.75" xlink:href="#OpenSans-Regular-101"/>
      <use x="399.853516" xlink:href="#OpenSans-Regular-115"/>
      <use x="447.558594" xlink:href="#OpenSans-Regular-115"/>
     </g>
    </g>
   </g>
   <g id="line2d_13">
    <path clip-path="url(#p76d7dc70fe)" d="M 57.6 307.584 
L 91.88352 283.375602 
L 125.80992 259.148389 
L 159.73632 234.648567 
L 193.66272 209.873067 
L 227.232 185.083979 
L 260.80128 160.018912 
L 294.37056 134.674792 
L 327.58272 109.322629 
L 360.79488 83.691236 
L 394.00704 57.777538 
L 414.36288 41.754075 
L 414.36288 41.754075 
" style="fill:none;stroke:#00b2ff;stroke-dasharray:3,6;stroke-dashoffset:0;stroke-width:1.5;"/>
   </g>
   <g id="line2d_14">
    <path clip-path="url(#p76d7dc70fe)" d="M 57.6 307.584 
L 73.31328 299.342959 
L 88.66944 291.042695 
L 104.0256 282.491315 
L 119.38176 273.681222 
L 134.3808 264.81876 
L 149.37984 255.6945 
L 164.02176 246.527564 
L 178.66368 237.096375 
L 192.94848 227.633272 
L 207.23328 217.904124 
L 221.51808 207.901453 
L 235.44576 197.878156 
L 249.37344 187.580206 
L 263.30112 177.000078 
L 276.87168 166.412444 
L 290.44224 155.54223 
L 304.0128 144.381896 
L 317.22624 133.229112 
L 330.43968 121.786599 
L 343.65312 110.046831 
L 356.50944 98.331697 
L 369.36576 86.320554 
L 382.22208 74.005923 
L 395.0784 61.380135 
L 407.93472 48.435328 
L 414.36288 41.840782 
L 414.36288 41.840782 
" style="fill:none;stroke:#0084bd;stroke-dasharray:6,3;stroke-dashoffset:0;stroke-width:1.5;"/>
   </g>
   <g id="line2d_15">
    <path clip-path="url(#p76d7dc70fe)" d="M 57.6 307.584 
L 70.81344 304.766761 
L 83.66976 301.796819 
L 95.81184 298.767739 
L 107.5968 295.603226 
L 119.02464 292.307507 
L 130.09536 288.886019 
L 140.80896 285.345445 
L 151.16544 281.693742 
L 161.1648 277.940156 
L 171.16416 273.948389 
L 180.8064 269.859477 
L 190.09152 265.68598 
L 199.37664 261.267118 
L 208.30464 256.7734 
L 217.23264 252.025933 
L 225.80352 247.216346 
L 234.3744 242.146327 
L 242.58816 237.030135 
L 250.80192 231.648746 
L 258.65856 226.240509 
L 266.5152 220.564422 
L 274.37184 214.607218 
L 281.87136 208.645774 
L 289.37088 202.402814 
L 296.8704 195.865043 
L 304.0128 189.351778 
L 311.1552 182.545908 
L 318.2976 175.434289 
L 325.44 168.003186 
L 332.5824 160.238245 
L 339.36768 152.538681 
L 346.15296 144.510878 
L 352.93824 136.140843 
L 359.72352 127.413985 
L 366.5088 118.315092 
L 373.29408 108.828306 
L 379.72224 99.468037 
L 386.1504 89.730152 
L 392.57856 79.599416 
L 399.00672 69.059979 
L 405.43488 58.095355 
L 411.86304 46.68839 
L 414.36288 42.129074 
L 414.36288 42.129074 
" style="fill:none;stroke:#000000;stroke-linecap:square;stroke-width:1.5;"/>
   </g>
   <g id="line2d_16">
    <path clip-path="url(#p76d7dc70fe)" d="M 57.6 307.584 
L 76.52736 306.554371 
L 93.66912 305.403467 
L 109.3824 304.125474 
L 123.6672 302.741359 
L 136.88064 301.238084 
L 149.02272 299.636289 
L 160.45056 297.906224 
L 171.16416 296.06038 
L 181.16352 294.116051 
L 190.80576 292.013177 
L 199.73376 289.843014 
L 208.30464 287.535393 
L 216.5184 285.096067 
L 224.37504 282.533112 
L 231.87456 279.857016 
L 239.01696 277.08073 
L 246.15936 274.062708 
L 252.94464 270.952527 
L 259.3728 267.769563 
L 265.80096 264.33822 
L 271.872 260.851994 
L 277.94304 257.10938 
L 283.65696 253.335842 
L 289.37088 249.301661 
L 295.0848 244.988834 
L 300.4416 240.675395 
L 305.7984 236.083232 
L 311.1552 231.194333 
L 316.512 225.989524 
L 321.51168 220.828693 
L 326.51136 215.357268 
L 331.51104 209.556558 
L 336.51072 203.406743 
L 341.5104 196.886816 
L 346.51008 189.9745 
L 351.15264 183.183954 
L 355.7952 176.014723 
L 360.43776 168.445689 
L 365.08032 160.454556 
L 369.72288 152.017786 
L 374.36544 143.110527 
L 379.008 133.706542 
L 383.65056 123.778129 
L 388.29312 113.296044 
L 392.93568 102.229409 
L 397.57824 90.545627 
L 402.2208 78.210282 
L 406.50624 66.214108 
L 410.79168 53.601709 
L 414.36288 42.59786 
L 414.36288 42.59786 
" style="fill:none;stroke:#bd0084;stroke-dasharray:9,3,3,3;stroke-dashoffset:0;stroke-width:1.5;"/>
   </g>
   <g id="line2d_17">
    <path clip-path="url(#p76d7dc70fe)" d="M 57.6 307.584 
L 91.16928 307.169323 
L 116.88192 306.639302 
L 137.952 305.987481 
L 155.45088 305.230545 
L 170.80704 304.346227 
L 184.02048 303.370319 
L 196.16256 302.251538 
L 206.87616 301.046694 
L 216.87552 299.699348 
L 225.80352 298.280396 
L 234.3744 296.693305 
L 242.23104 295.014186 
L 249.73056 293.181386 
L 256.51584 291.302954 
L 262.944 289.305735 
L 269.37216 287.071095 
L 275.4432 284.717204 
L 281.15712 282.26164 
L 286.51392 279.725884 
L 291.87072 276.941308 
L 296.8704 274.096373 
L 301.87008 270.991714 
L 306.51264 267.855565 
L 311.1552 264.454395 
L 315.79776 260.76581 
L 320.0832 257.084889 
L 324.36864 253.117745 
L 328.65408 248.842122 
L 332.93952 244.234034 
L 336.86784 239.695847 
L 340.79616 234.835205 
L 344.72448 229.629195 
L 348.6528 224.053279 
L 352.58112 218.081173 
L 356.50944 211.684726 
L 360.43776 204.833786 
L 364.36608 197.496062 
L 367.93728 190.373928 
L 371.50848 182.793193 
L 375.07968 174.724327 
L 378.65088 166.135899 
L 382.22208 156.994454 
L 385.79328 147.264383 
L 389.36448 136.907783 
L 392.93568 125.884312 
L 396.50688 114.151029 
L 400.07808 101.662229 
L 403.64928 88.369263 
L 407.22048 74.22035 
L 410.79168 59.160376 
L 414.36288 43.130675 
L 414.36288 43.130675 
" style="fill:none;stroke:#ff00b2;stroke-dasharray:4.5,6,1.5,6;stroke-dashoffset:0;stroke-width:1.5;"/>
   </g>
   <g id="patch_3">
    <path d="M 57.6 307.584 
L 57.6 41.472 
" style="fill:none;stroke:#000000;stroke-linecap:square;stroke-linejoin:miter;stroke-width:0.8;"/>
   </g>
   <g id="patch_4">
    <path d="M 414.72 307.584 
L 414.72 41.472 
" style="fill:none;stroke:#000000;stroke-linecap:square;stroke-linejoin:miter;stroke-width:0.8;"/>
   </g>
   <g id="patch_5">
    <path d="M 57.6 307.584 
L 414.72 307.584 
" style="fill:none;stroke:#000000;stroke-linecap:square;stroke-linejoin:miter;stroke-width:0.8;"/>
   </g>
   <g id="patch_6">
    <path d="M 57.6 41.472 
L 414.72 41.472 
" style="fill:none;stroke:#000000;stroke-linecap:square;stroke-linejoin:miter;stroke-width:0.8;"/>
   </g>
   <g id="text_15">
    <!-- Exponential Brightness Function -->
    <defs>
     <path d="M 38.484375 0 
L 6.296875 0 
L 6.296875 71.390625 
L 38.484375 71.390625 
L 38.484375 59.90625 
L 19.578125 59.90625 
L 19.578125 42.921875 
L 37.109375 42.921875 
L 37.109375 31.390625 
L 19.578125 31.390625 
L 19.578125 11.625 
L 38.484375 11.625 
z
" id="OpenSansCondensed-Bold-69"/>
     <path d="M 14.890625 27.78125 
L 1.3125 54.390625 
L 14.796875 54.390625 
L 22.015625 37.796875 
L 28.71875 54.390625 
L 42.09375 54.390625 
L 28.421875 27.78125 
L 42.671875 0 
L 29.109375 0 
L 21.390625 17.390625 
L 14.203125 0 
L 0.6875 0 
z
" id="OpenSansCondensed-Bold-120"/>
     <path d="M 29.78125 -0.984375 
Q 26.265625 -0.984375 23.546875 0.609375 
Q 20.84375 2.203125 18.5 6.203125 
L 17.828125 6.203125 
Q 18.609375 -0.4375 18.609375 -1.8125 
L 18.609375 -24.03125 
L 5.515625 -24.03125 
L 5.515625 54.390625 
L 15.578125 54.390625 
L 17.828125 47.3125 
L 18.40625 47.3125 
Q 22.46875 55.421875 30.171875 55.421875 
Q 37.59375 55.421875 41.796875 48.0625 
Q 46 40.71875 46 27.296875 
Q 46 14.0625 41.65625 6.53125 
Q 37.3125 -0.984375 29.78125 -0.984375 
z
M 25.78125 44.390625 
Q 21.96875 44.390625 20.28125 40.84375 
Q 18.609375 37.3125 18.5 29.109375 
L 18.5 27.390625 
Q 18.5 18.40625 20.203125 14.296875 
Q 21.921875 10.203125 25.875 10.203125 
Q 32.71875 10.203125 32.71875 27.484375 
Q 32.71875 35.984375 31.03125 40.1875 
Q 29.34375 44.390625 25.78125 44.390625 
z
" id="OpenSansCondensed-Bold-112"/>
     <path d="M 45.796875 27.296875 
Q 45.796875 13.921875 40.125 6.46875 
Q 34.46875 -0.984375 24.609375 -0.984375 
Q 18.359375 -0.984375 13.578125 2.4375 
Q 8.796875 5.859375 6.203125 12.28125 
Q 3.609375 18.703125 3.609375 27.296875 
Q 3.609375 40.53125 9.21875 47.96875 
Q 14.84375 55.421875 24.8125 55.421875 
Q 34.421875 55.421875 40.109375 47.828125 
Q 45.796875 40.234375 45.796875 27.296875 
z
M 16.890625 27.296875 
Q 16.890625 18.796875 18.75 14.453125 
Q 20.609375 10.109375 24.703125 10.109375 
Q 32.515625 10.109375 32.515625 27.296875 
Q 32.515625 35.84375 30.640625 40.0625 
Q 28.765625 44.28125 24.703125 44.28125 
Q 20.609375 44.28125 18.75 40.0625 
Q 16.890625 35.84375 16.890625 27.296875 
z
" id="OpenSansCondensed-Bold-111"/>
     <path d="M 32.625 0 
L 32.625 32.421875 
Q 32.625 38.328125 31.203125 41.359375 
Q 29.78125 44.390625 26.609375 44.390625 
Q 22.40625 44.390625 20.453125 40.203125 
Q 18.5 36.03125 18.5 26.125 
L 18.5 0 
L 5.515625 0 
L 5.515625 54.390625 
L 15.828125 54.390625 
L 17.390625 47.40625 
L 18.21875 47.40625 
Q 19.96875 51.171875 23.234375 53.296875 
Q 26.515625 55.421875 30.90625 55.421875 
Q 38.328125 55.421875 42.015625 50.34375 
Q 45.703125 45.265625 45.703125 35.5 
L 45.703125 0 
z
" id="OpenSansCondensed-Bold-110"/>
     <path d="M 25.59375 -0.984375 
Q 15.375 -0.984375 9.484375 6.265625 
Q 3.609375 13.53125 3.609375 26.8125 
Q 3.609375 40.28125 8.9375 47.84375 
Q 14.265625 55.421875 23.78125 55.421875 
Q 32.671875 55.421875 37.796875 48.953125 
Q 42.921875 42.484375 42.921875 30.8125 
L 42.921875 23.875 
L 16.796875 23.875 
Q 16.9375 16.609375 19.765625 13.0625 
Q 22.609375 9.515625 27.59375 9.515625 
Q 33.9375 9.515625 40.578125 13.484375 
L 40.578125 2.78125 
Q 34.328125 -0.984375 25.59375 -0.984375 
z
M 23.6875 45.40625 
Q 20.90625 45.40625 19.09375 42.453125 
Q 17.28125 39.5 17 33.296875 
L 30.171875 33.296875 
Q 30.078125 39.265625 28.359375 42.328125 
Q 26.65625 45.40625 23.6875 45.40625 
z
" id="OpenSansCondensed-Bold-101"/>
     <path d="M 24.421875 10.015625 
Q 27.15625 10.015625 30.328125 11.375 
L 30.328125 1.21875 
Q 27.15625 -0.984375 20.796875 -0.984375 
Q 13.71875 -0.984375 10.296875 3.234375 
Q 6.890625 7.46875 6.890625 15.921875 
L 6.890625 44.09375 
L 1.609375 44.09375 
L 1.609375 49.90625 
L 8.40625 54.59375 
L 11.71875 66.109375 
L 20.015625 66.109375 
L 20.015625 54.390625 
L 29.890625 54.390625 
L 29.890625 44.09375 
L 20.015625 44.09375 
L 20.015625 15.484375 
Q 20.015625 10.015625 24.421875 10.015625 
z
" id="OpenSansCondensed-Bold-116"/>
     <path d="M 18.609375 0 
L 5.609375 0 
L 5.609375 54.390625 
L 18.609375 54.390625 
z
M 5.078125 68.609375 
Q 5.078125 71.828125 6.953125 73.703125 
Q 8.84375 75.59375 12.203125 75.59375 
Q 15.375 75.59375 17.28125 73.703125 
Q 19.1875 71.828125 19.1875 68.609375 
Q 19.1875 65.28125 17.234375 63.453125 
Q 15.28125 61.625 12.203125 61.625 
Q 8.984375 61.625 7.03125 63.453125 
Q 5.078125 65.28125 5.078125 68.609375 
z
" id="OpenSansCondensed-Bold-105"/>
     <path d="M 32.171875 0 
L 29.59375 7.421875 
L 29.296875 7.421875 
Q 26.421875 2.640625 23.34375 0.828125 
Q 20.265625 -0.984375 15.578125 -0.984375 
Q 9.578125 -0.984375 6.125 3.515625 
Q 2.6875 8.015625 2.6875 16.015625 
Q 2.6875 24.609375 7.390625 28.78125 
Q 12.109375 32.953125 21.484375 33.40625 
L 28.71875 33.6875 
L 28.71875 37.59375 
Q 28.71875 45.21875 22.125 45.21875 
Q 17.234375 45.21875 10.890625 41.40625 
L 6.390625 50.390625 
Q 14.5 55.515625 24.03125 55.515625 
Q 32.671875 55.515625 37.1875 50.5625 
Q 41.703125 45.609375 41.703125 36.53125 
L 41.703125 0 
z
M 20.90625 9.1875 
Q 24.46875 9.1875 26.59375 12.375 
Q 28.71875 15.578125 28.71875 20.90625 
L 28.71875 25.484375 
L 24.703125 25.296875 
Q 20.265625 25.046875 18.1875 22.75 
Q 16.109375 20.453125 16.109375 15.921875 
Q 16.109375 9.1875 20.90625 9.1875 
z
" id="OpenSansCondensed-Bold-97"/>
     <path d="M 18.5 0 
L 5.515625 0 
L 5.515625 75.984375 
L 18.5 75.984375 
z
" id="OpenSansCondensed-Bold-108"/>
     <path id="OpenSansCondensed-Bold-32"/>
     <path d="M 6.296875 71.390625 
L 24.515625 71.390625 
Q 35.640625 71.390625 40.71875 67.0625 
Q 45.796875 62.75 45.796875 53.328125 
Q 45.796875 47.125 43.109375 42.9375 
Q 40.4375 38.765625 35.796875 37.890625 
L 35.796875 37.40625 
Q 41.84375 35.890625 44.53125 31.734375 
Q 47.21875 27.59375 47.21875 20.703125 
Q 47.21875 10.984375 42.015625 5.484375 
Q 36.8125 0 27.78125 0 
L 6.296875 0 
z
M 18.796875 42.671875 
L 24.90625 42.671875 
Q 29.109375 42.671875 30.8125 44.921875 
Q 32.515625 47.171875 32.515625 51.609375 
Q 32.515625 56.0625 30.5625 57.984375 
Q 28.609375 59.90625 24.421875 59.90625 
L 18.796875 59.90625 
z
M 18.796875 31.59375 
L 18.796875 11.625 
L 25.484375 11.625 
Q 29.640625 11.625 31.65625 14.15625 
Q 33.6875 16.703125 33.6875 22.015625 
Q 33.6875 31.59375 25.296875 31.59375 
z
" id="OpenSansCondensed-Bold-66"/>
     <path d="M 28.71875 55.421875 
Q 31.109375 55.421875 33.40625 54.6875 
L 31.890625 42.09375 
Q 30.515625 42.578125 28.328125 42.578125 
Q 23.578125 42.578125 21.03125 38.84375 
Q 18.5 35.109375 18.5 27.984375 
L 18.5 0 
L 5.515625 0 
L 5.515625 54.390625 
L 16.21875 54.390625 
L 17.671875 45.90625 
L 18.109375 45.90625 
Q 20.265625 51.03125 22.796875 53.21875 
Q 25.34375 55.421875 28.71875 55.421875 
z
" id="OpenSansCondensed-Bold-114"/>
     <path d="M 44.671875 54.296875 
L 44.671875 46.6875 
L 38.1875 45.21875 
Q 40.09375 41.796875 40.09375 36.625 
Q 40.09375 27.984375 35.40625 23.09375 
Q 30.71875 18.21875 22.3125 18.21875 
Q 19.875 18.21875 18.703125 18.609375 
Q 17.78125 17.78125 16.9375 16.75 
Q 16.109375 15.71875 16.109375 14.203125 
Q 16.109375 10.796875 22.015625 10.796875 
L 29.890625 10.796875 
Q 36.8125 10.796875 40.546875 7.0625 
Q 44.28125 3.328125 44.28125 -4.203125 
Q 44.28125 -13.671875 37.9375 -18.84375 
Q 31.59375 -24.03125 19.671875 -24.03125 
Q 10.640625 -24.03125 5.75 -20.09375 
Q 0.875 -16.15625 0.875 -8.890625 
Q 0.875 -4.34375 3.65625 -0.890625 
Q 6.453125 2.546875 11.375 4.109375 
Q 8.890625 5.078125 7.296875 7.125 
Q 5.71875 9.1875 5.71875 11.921875 
Q 5.71875 13.578125 6.203125 14.921875 
Q 6.6875 16.265625 7.59375 17.453125 
Q 8.5 18.65625 11.28125 21 
Q 7.90625 23.046875 5.953125 27.296875 
Q 4 31.546875 4 36.71875 
Q 4 45.65625 8.6875 50.53125 
Q 13.375 55.421875 22.125 55.421875 
Q 23.78125 55.421875 25.921875 55.046875 
Q 28.078125 54.6875 29.203125 54.296875 
z
M 12.703125 -7.90625 
Q 12.703125 -11.140625 14.71875 -12.859375 
Q 16.75 -14.59375 20.515625 -14.59375 
Q 26.421875 -14.59375 29.375 -12.34375 
Q 32.328125 -10.109375 32.328125 -6.203125 
Q 32.328125 -3.125 30.734375 -1.859375 
Q 29.15625 -0.59375 24.8125 -0.59375 
L 18.5 -0.59375 
Q 15.875 -0.59375 14.28125 -2.5625 
Q 12.703125 -4.546875 12.703125 -7.90625 
z
M 16.703125 36.625 
Q 16.703125 27 22.125 27 
Q 27.390625 27 27.390625 36.71875 
Q 27.390625 46.6875 22.125 46.6875 
Q 16.703125 46.6875 16.703125 36.625 
z
" id="OpenSansCondensed-Bold-103"/>
     <path d="M 32.625 0 
L 32.625 32.421875 
Q 32.625 44.390625 26.609375 44.390625 
Q 22.125 44.390625 20.3125 39.671875 
Q 18.5 34.96875 18.5 26.125 
L 18.5 0 
L 5.515625 0 
L 5.515625 75.984375 
L 18.5 75.984375 
L 18.5 59.078125 
Q 18.5 55.8125 17.921875 47.40625 
L 18.609375 47.40625 
Q 22.515625 55.421875 30.609375 55.421875 
Q 38.09375 55.421875 41.890625 50.359375 
Q 45.703125 45.3125 45.703125 35.5 
L 45.703125 0 
z
" id="OpenSansCondensed-Bold-104"/>
     <path d="M 34.71875 15.921875 
Q 34.71875 7.953125 30.046875 3.484375 
Q 25.390625 -0.984375 16.3125 -0.984375 
Q 8.25 -0.984375 2.984375 2.203125 
L 2.984375 13.484375 
Q 5.671875 11.625 9.25 10.40625 
Q 12.84375 9.1875 15.578125 9.1875 
Q 18.609375 9.1875 20.1875 10.671875 
Q 21.78125 12.15625 21.78125 14.59375 
Q 21.78125 17.09375 20.109375 18.9375 
Q 18.453125 20.796875 14.015625 23.484375 
Q 8.109375 27 5.546875 30.984375 
Q 2.984375 34.96875 2.984375 40.375 
Q 2.984375 47.3125 7.734375 51.359375 
Q 12.5 55.421875 20.796875 55.421875 
Q 28.03125 55.421875 34.421875 51.609375 
L 30.171875 42.28125 
Q 24.953125 45.125 21 45.125 
Q 18.5 45.125 17.25 43.796875 
Q 16.015625 42.484375 16.015625 40.578125 
Q 16.015625 38.375 17.546875 36.671875 
Q 19.09375 34.96875 23.296875 32.421875 
Q 28.375 29.34375 30.421875 27.1875 
Q 32.46875 25.046875 33.59375 22.3125 
Q 34.71875 19.578125 34.71875 15.921875 
z
" id="OpenSansCondensed-Bold-115"/>
     <path d="M 19.484375 0 
L 6.296875 0 
L 6.296875 71.390625 
L 38.28125 71.390625 
L 38.28125 59.90625 
L 19.484375 59.90625 
L 19.484375 40.09375 
L 37.015625 40.09375 
L 37.015625 28.609375 
L 19.484375 28.609375 
z
" id="OpenSansCondensed-Bold-70"/>
     <path d="M 34.90625 0 
L 33.296875 6.984375 
L 32.625 6.984375 
Q 30.8125 3.265625 27.46875 1.140625 
Q 24.125 -0.984375 19.828125 -0.984375 
Q 12.5 -0.984375 8.734375 4 
Q 4.984375 8.984375 4.984375 18.890625 
L 4.984375 54.390625 
L 18.109375 54.390625 
L 18.109375 22.015625 
Q 18.109375 16.0625 19.53125 13.03125 
Q 20.953125 10.015625 24.125 10.015625 
Q 28.328125 10.015625 30.25 14.203125 
Q 32.171875 18.40625 32.171875 28.328125 
L 32.171875 54.390625 
L 45.3125 54.390625 
L 45.3125 0 
z
" id="OpenSansCondensed-Bold-117"/>
     <path d="M 23.484375 -0.984375 
Q 13.765625 -0.984375 8.6875 6.09375 
Q 3.609375 13.1875 3.609375 26.90625 
Q 3.609375 41.265625 8.421875 48.34375 
Q 13.234375 55.421875 23.296875 55.421875 
Q 26.3125 55.421875 29.625 54.53125 
Q 32.953125 53.65625 35.59375 52 
L 31.890625 41.890625 
Q 27.828125 44.28125 24.703125 44.28125 
Q 20.5625 44.28125 18.71875 39.953125 
Q 16.890625 35.640625 16.890625 27 
Q 16.890625 18.5625 18.703125 14.375 
Q 20.515625 10.203125 24.609375 10.203125 
Q 29.5 10.203125 34.8125 13.625 
L 34.8125 2.203125 
Q 29.6875 -0.984375 23.484375 -0.984375 
z
" id="OpenSansCondensed-Bold-99"/>
    </defs>
    <g transform="translate(135.835 35.472)scale(0.16 -0.16)">
     <use xlink:href="#OpenSansCondensed-Bold-69"/>
     <use x="42.578125" xlink:href="#OpenSansCondensed-Bold-120"/>
     <use x="85.986328" xlink:href="#OpenSansCondensed-Bold-112"/>
     <use x="135.595703" xlink:href="#OpenSansCondensed-Bold-111"/>
     <use x="185.009766" xlink:href="#OpenSansCondensed-Bold-110"/>
     <use x="235.693359" xlink:href="#OpenSansCondensed-Bold-101"/>
     <use x="281.689453" xlink:href="#OpenSansCondensed-Bold-110"/>
     <use x="332.373047" xlink:href="#OpenSansCondensed-Bold-116"/>
     <use x="364.794922" xlink:href="#OpenSansCondensed-Bold-105"/>
     <use x="389.013672" xlink:href="#OpenSansCondensed-Bold-97"/>
     <use x="435.693359" xlink:href="#OpenSansCondensed-Bold-108"/>
     <use x="459.570312" xlink:href="#OpenSansCondensed-Bold-32"/>
     <use x="484.277344" xlink:href="#OpenSansCondensed-Bold-66"/>
     <use x="534.960938" xlink:href="#OpenSansCondensed-Bold-114"/>
     <use x="568.652344" xlink:href="#OpenSansCondensed-Bold-105"/>
     <use x="592.871094" xlink:href="#OpenSansCondensed-Bold-103"/>
     <use x="638.574219" xlink:href="#OpenSansCondensed-Bold-104"/>
     <use x="689.257812" xlink:href="#OpenSansCondensed-Bold-116"/>
     <use x="721.679688" xlink:href="#OpenSansCondensed-Bold-110"/>
     <use x="772.363281" xlink:href="#OpenSansCondensed-Bold-101"/>
     <use x="818.359375" xlink:href="#OpenSansCondensed-Bold-115"/>
     <use x="855.761719" xlink:href="#OpenSansCondensed-Bold-115"/>
     <use x="893.164062" xlink:href="#OpenSansCondensed-Bold-32"/>
     <use x="917.871094" xlink:href="#OpenSansCondensed-Bold-70"/>
     <use x="958.789062" xlink:href="#OpenSansCondensed-Bold-117"/>
     <use x="1009.472656" xlink:href="#OpenSansCondensed-Bold-110"/>
     <use x="1060.15625" xlink:href="#OpenSansCondensed-Bold-99"/>
     <use x="1097.265625" xlink:href="#OpenSansCondensed-Bold-116"/>
     <use x="1129.6875" xlink:href="#OpenSansCondensed-Bold-105"/>
     <use x="1153.90625" xlink:href="#OpenSansCondensed-Bold-111"/>
     <use x="1203.320312" xlink:href="#OpenSansCondensed-Bold-110"/>
    </g>
   </g>
   <g id="legend_1">
    <g id="patch_7">
     <path d="M 64.6 124.479813 
L 139.303125 124.479813 
Q 141.303125 124.479813 141.303125 122.479813 
L 141.303125 48.472 
Q 141.303125 46.472 139.303125 46.472 
L 64.6 46.472 
Q 62.6 46.472 62.6 48.472 
L 62.6 122.479813 
Q 62.6 124.479813 64.6 124.479813 
z
" style="fill:#ffffff;opacity:0.8;stroke:#cccccc;stroke-linejoin:miter;"/>
    </g>
    <g id="line2d_18">
     <path d="M 66.6 54.570438 
L 86.6 54.570438 
" style="fill:none;stroke:#00b2ff;stroke-dasharray:3,6;stroke-dashoffset:0;stroke-width:1.5;"/>
    </g>
    <g id="line2d_19"/>
    <g id="text_16">
     <!-- k = 8 -->
     <defs>
      <path d="M 16.609375 27.390625 
Q 18.703125 30.375 23 35.203125 
L 40.28125 53.515625 
L 49.90625 53.515625 
L 28.21875 30.71875 
L 51.421875 0 
L 41.609375 0 
L 22.703125 25.296875 
L 16.609375 20.015625 
L 16.609375 0 
L 8.59375 0 
L 8.59375 75.984375 
L 16.609375 75.984375 
L 16.609375 35.6875 
Q 16.609375 33.015625 16.21875 27.390625 
z
" id="OpenSans-Regular-107"/>
      <path id="OpenSans-Regular-32"/>
      <path d="M 5.8125 41.890625 
L 5.8125 48.578125 
L 51.21875 48.578125 
L 51.21875 41.890625 
z
M 5.8125 21.921875 
L 5.8125 28.609375 
L 51.21875 28.609375 
L 51.21875 21.921875 
z
" id="OpenSans-Regular-61"/>
     </defs>
     <g transform="translate(94.6 58.070438)scale(0.1 -0.1)">
      <use xlink:href="#OpenSans-Regular-107"/>
      <use x="52.490234" xlink:href="#OpenSans-Regular-32"/>
      <use x="78.466797" xlink:href="#OpenSans-Regular-61"/>
      <use x="135.644531" xlink:href="#OpenSans-Regular-32"/>
      <use x="161.621094" xlink:href="#OpenSans-Regular-56"/>
     </g>
    </g>
    <g id="line2d_20">
     <path d="M 66.6 69.572 
L 86.6 69.572 
" style="fill:none;stroke:#0084bd;stroke-dasharray:6,3;stroke-dashoffset:0;stroke-width:1.5;"/>
    </g>
    <g id="line2d_21"/>
    <g id="text_17">
     <!-- k = 1 -->
     <g transform="translate(94.6 73.072)scale(0.1 -0.1)">
      <use xlink:href="#OpenSans-Regular-107"/>
      <use x="52.490234" xlink:href="#OpenSans-Regular-32"/>
      <use x="78.466797" xlink:href="#OpenSans-Regular-61"/>
      <use x="135.644531" xlink:href="#OpenSans-Regular-32"/>
      <use x="161.621094" xlink:href="#OpenSans-Regular-49"/>
     </g>
    </g>
    <g id="line2d_22">
     <path d="M 66.6 84.573563 
L 86.6 84.573563 
" style="fill:none;stroke:#000000;stroke-linecap:square;stroke-width:1.5;"/>
    </g>
    <g id="line2d_23"/>
    <g id="text_18">
     <!-- k = 1/8 -->
     <defs>
      <path d="M 35.6875 71.390625 
L 9.078125 0 
L 0.984375 0 
L 27.59375 71.390625 
z
" id="OpenSans-Regular-47"/>
     </defs>
     <g transform="translate(94.6 88.073563)scale(0.1 -0.1)">
      <use xlink:href="#OpenSans-Regular-107"/>
      <use x="52.490234" xlink:href="#OpenSans-Regular-32"/>
      <use x="78.466797" xlink:href="#OpenSans-Regular-61"/>
      <use x="135.644531" xlink:href="#OpenSans-Regular-32"/>
      <use x="161.621094" xlink:href="#OpenSans-Regular-49"/>
      <use x="218.798828" xlink:href="#OpenSans-Regular-47"/>
      <use x="255.517578" xlink:href="#OpenSans-Regular-56"/>
     </g>
    </g>
    <g id="line2d_24">
     <path d="M 66.6 99.575125 
L 86.6 99.575125 
" style="fill:none;stroke:#bd0084;stroke-dasharray:9,3,3,3;stroke-dashoffset:0;stroke-width:1.5;"/>
    </g>
    <g id="line2d_25"/>
    <g id="text_19">
     <!-- k = 1/64 -->
     <g transform="translate(94.6 103.075125)scale(0.1 -0.1)">
      <use xlink:href="#OpenSans-Regular-107"/>
      <use x="52.490234" xlink:href="#OpenSans-Regular-32"/>
      <use x="78.466797" xlink:href="#OpenSans-Regular-61"/>
      <use x="135.644531" xlink:href="#OpenSans-Regular-32"/>
      <use x="161.621094" xlink:href="#OpenSans-Regular-49"/>
      <use x="218.798828" xlink:href="#OpenSans-Regular-47"/>
      <use x="255.517578" xlink:href="#OpenSans-Regular-54"/>
      <use x="312.695312" xlink:href="#OpenSans-Regular-52"/>
     </g>
    </g>
    <g id="line2d_26">
     <path d="M 66.6 114.576688 
L 86.6 114.576688 
" style="fill:none;stroke:#ff00b2;stroke-dasharray:4.5,6,1.5,6;stroke-dashoffset:0;stroke-width:1.5;"/>
    </g>
    <g id="line2d_27"/>
    <g id="text_20">
     <!-- k = 1/512 -->
     <defs>
      <path d="M 27.203125 43.609375 
Q 38.484375 43.609375 44.953125 38.015625 
Q 51.421875 32.421875 51.421875 22.703125 
Q 51.421875 11.625 44.359375 5.3125 
Q 37.3125 -0.984375 24.90625 -0.984375 
Q 12.84375 -0.984375 6.5 2.875 
L 6.5 10.6875 
Q 9.90625 8.5 14.984375 7.25 
Q 20.0625 6 25 6 
Q 33.59375 6 38.34375 10.046875 
Q 43.109375 14.109375 43.109375 21.78125 
Q 43.109375 36.71875 24.8125 36.71875 
Q 20.171875 36.71875 12.40625 35.296875 
L 8.203125 37.984375 
L 10.890625 71.390625 
L 46.390625 71.390625 
L 46.390625 63.921875 
L 17.828125 63.921875 
L 16.015625 42.484375 
Q 21.625 43.609375 27.203125 43.609375 
z
" id="OpenSans-Regular-53"/>
     </defs>
     <g transform="translate(94.6 118.076688)scale(0.1 -0.1)">
      <use xlink:href="#OpenSans-Regular-107"/>
      <use x="52.490234" xlink:href="#OpenSans-Regular-32"/>
      <use x="78.466797" xlink:href="#OpenSans-Regular-61"/>
      <use x="135.644531" xlink:href="#OpenSans-Regular-32"/>
      <use x="161.621094" xlink:href="#OpenSans-Regular-49"/>
      <use x="218.798828" xlink:href="#OpenSans-Regular-47"/>
      <use x="255.517578" xlink:href="#OpenSans-Regular-53"/>
      <use x="312.695312" xlink:href="#OpenSans-Regular-49"/>
      <use x="369.873047" xlink:href="#OpenSans-Regular-50"/>
     </g>
    </g>
   </g>
  </g>
 </g>
 <defs>
  <clipPath id="p76d7dc70fe">
   <rect height="266.112" width="357.12" x="57.6" y="41.472"/>
  </clipPath>
 </defs>
</svg>
