<?xml version="1.0" encoding="utf-8" standalone="no"?>
<!DOCTYPE svg PUBLIC "-//W3C//DTD SVG 1.1//EN"
  "http://www.w3.org/Graphics/SVG/1.1/DTD/svg11.dtd">
<!-- Created with matplotlib (https://matplotlib.org/) -->
<svg height="345.6pt" version="1.1" viewBox="0 0 460.8 345.6" width="460.8pt" xmlns="http://www.w3.org/2000/svg" xmlns:xlink="http://www.w3.org/1999/xlink">
 <defs>
  <style type="text/css">
*{stroke-linecap:butt;stroke-linejoin:round;}
  </style>
 </defs>
 <g id="figure_1">
  <g id="patch_1">
   <path d="M 0 345.6 
L 460.8 345.6 
L 460.8 0 
L 0 0 
z
" style="fill:#ffffff;"/>
  </g>
  <g id="axes_1">
   <g id="patch_2">
    <path d="M 57.6 130.176 
L 414.72 130.176 
L 414.72 41.472 
L 57.6 41.472 
z
" style="fill:#ffffff;"/>
   </g>
   <g id="matplotlib.axis_1">
    <g id="xtick_1">
     <g id="line2d_1">
      <defs>
       <path d="M 0 0 
L 0 3.5 
" id="m49dfd48f98" style="stroke:#000000;stroke-width:0.8;"/>
      </defs>
      <g>
       <use style="stroke:#000000;stroke-width:0.8;" x="57.6" xlink:href="#m49dfd48f98" y="130.176"/>
      </g>
     </g>
    </g>
    <g id="xtick_2">
     <g id="line2d_2">
      <g>
       <use style="stroke:#000000;stroke-width:0.8;" x="101.014588" xlink:href="#m49dfd48f98" y="130.176"/>
      </g>
     </g>
    </g>
    <g id="xtick_3">
     <g id="line2d_3">
      <g>
       <use style="stroke:#000000;stroke-width:0.8;" x="145.829647" xlink:href="#m49dfd48f98" y="130.176"/>
      </g>
     </g>
    </g>
    <g id="xtick_4">
     <g id="line2d_4">
      <g>
       <use style="stroke:#000000;stroke-width:0.8;" x="190.644706" xlink:href="#m49dfd48f98" y="130.176"/>
      </g>
     </g>
    </g>
    <g id="xtick_5">
     <g id="line2d_5">
      <g>
       <use style="stroke:#000000;stroke-width:0.8;" x="235.459765" xlink:href="#m49dfd48f98" y="130.176"/>
      </g>
     </g>
    </g>
    <g id="xtick_6">
     <g id="line2d_6">
      <g>
       <use style="stroke:#000000;stroke-width:0.8;" x="280.274824" xlink:href="#m49dfd48f98" y="130.176"/>
      </g>
     </g>
    </g>
    <g id="xtick_7">
     <g id="line2d_7">
      <g>
       <use style="stroke:#000000;stroke-width:0.8;" x="325.089882" xlink:href="#m49dfd48f98" y="130.176"/>
      </g>
     </g>
    </g>
    <g id="xtick_8">
     <g id="line2d_8">
      <g>
       <use style="stroke:#000000;stroke-width:0.8;" x="369.904941" xlink:href="#m49dfd48f98" y="130.176"/>
      </g>
     </g>
    </g>
    <g id="xtick_9">
     <g id="line2d_9">
      <g>
       <use style="stroke:#000000;stroke-width:0.8;" x="414.72" xlink:href="#m49dfd48f98" y="130.176"/>
      </g>
     </g>
    </g>
   </g>
   <g id="matplotlib.axis_2">
    <g id="ytick_1">
     <g id="line2d_10">
      <defs>
       <path d="M 0 0 
L -3.5 0 
" id="mf15fbbb814" style="stroke:#000000;stroke-width:0.8;"/>
      </defs>
      <g>
       <use style="stroke:#000000;stroke-width:0.8;" x="57.6" xlink:href="#mf15fbbb814" y="126.144"/>
      </g>
     </g>
    </g>
    <g id="ytick_2">
     <g id="line2d_11">
      <g>
       <use style="stroke:#000000;stroke-width:0.8;" x="57.6" xlink:href="#mf15fbbb814" y="103.761719"/>
      </g>
     </g>
    </g>
    <g id="ytick_3">
     <g id="line2d_12">
      <g>
       <use style="stroke:#000000;stroke-width:0.8;" x="57.6" xlink:href="#mf15fbbb814" y="81.379439"/>
      </g>
     </g>
    </g>
    <g id="ytick_4">
     <g id="line2d_13">
      <g>
       <use style="stroke:#000000;stroke-width:0.8;" x="57.6" xlink:href="#mf15fbbb814" y="58.997158"/>
      </g>
     </g>
    </g>
   </g>
   <g id="line2d_14">
    <path clip-path="url(#p61a9429975)" d="M 179.647462 130.176 
L 179.647462 41.472 
" style="fill:none;stroke:#808080;stroke-dasharray:5.55,2.4;stroke-dashoffset:0;stroke-width:1.5;"/>
   </g>
   <g id="line2d_15">
    <path clip-path="url(#p61a9429975)" d="M 57.6 126.088044 
L 61.801412 126.139524 
L 96.813176 126.114903 
L 119.220706 125.74 
L 124.822588 125.477008 
L 129.024 124.979002 
L 131.824941 124.533595 
L 133.225412 124.272841 
L 134.625882 123.872199 
L 136.026353 123.601373 
L 137.426824 122.954525 
L 138.827294 122.538215 
L 141.628235 121.244519 
L 144.429176 119.56249 
L 148.630588 116.071974 
L 150.031059 114.450377 
L 152.832 111.432127 
L 154.232471 109.620281 
L 155.632941 107.363028 
L 157.033412 105.388911 
L 158.433882 102.859713 
L 164.035765 93.681859 
L 166.836706 88.138887 
L 168.237176 86.081956 
L 169.637647 83.690409 
L 171.038118 81.602142 
L 172.438588 79.254241 
L 175.239529 76.561653 
L 176.64 75.492899 
L 178.040471 74.19025 
L 179.440941 73.79856 
L 180.841412 73.780654 
L 182.241882 73.517663 
L 183.642353 73.728056 
L 185.042824 75.214239 
L 186.443294 75.021752 
L 187.843765 77.387559 
L 189.244235 78.85136 
L 190.644706 80.724757 
L 192.045176 83.407273 
L 193.445647 85.235906 
L 194.846118 88.295563 
L 196.246588 90.850501 
L 197.647059 93.168186 
L 206.049882 109.427794 
L 210.251294 115.737359 
L 211.651765 117.207874 
L 213.052235 118.967122 
L 215.853176 121.323976 
L 218.654118 122.941096 
L 220.054588 123.637185 
L 221.455059 124.164287 
L 224.256 124.902903 
L 228.457412 125.643756 
L 234.059294 125.940321 
L 238.260706 126.065662 
L 414.72 126.144 
L 414.72 126.144 
" style="fill:none;stroke:#ff0000;stroke-linecap:square;stroke-width:1.5;"/>
   </g>
   <g id="patch_3">
    <path d="M 57.6 130.176 
L 57.6 41.472 
" style="fill:none;stroke:#000000;stroke-linecap:square;stroke-linejoin:miter;stroke-width:0.8;"/>
   </g>
   <g id="patch_4">
    <path d="M 414.72 130.176 
L 414.72 41.472 
" style="fill:none;stroke:#000000;stroke-linecap:square;stroke-linejoin:miter;stroke-width:0.8;"/>
   </g>
   <g id="patch_5">
    <path d="M 57.6 130.176 
L 414.72 130.176 
" style="fill:none;stroke:#000000;stroke-linecap:square;stroke-linejoin:miter;stroke-width:0.8;"/>
   </g>
   <g id="patch_6">
    <path d="M 57.6 41.472 
L 414.72 41.472 
" style="fill:none;stroke:#000000;stroke-linecap:square;stroke-linejoin:miter;stroke-width:0.8;"/>
   </g>
   <g id="legend_1">
    <g id="patch_7">
     <path d="M 357.799688 79.475125 
L 407.72 79.475125 
Q 409.72 79.475125 409.72 77.475125 
L 409.72 48.472 
Q 409.72 46.472 407.72 46.472 
L 357.799688 46.472 
Q 355.799688 46.472 355.799688 48.472 
L 355.799688 77.475125 
Q 355.799688 79.475125 357.799688 79.475125 
z
" style="fill:#ffffff;opacity:0.8;stroke:#cccccc;stroke-linejoin:miter;"/>
    </g>
    <g id="line2d_16">
     <path d="M 359.799688 54.570437 
L 379.799688 54.570437 
" style="fill:none;stroke:#ff0000;stroke-linecap:square;stroke-width:1.5;"/>
    </g>
    <g id="line2d_17"/>
    <g id="text_1">
     <!-- Red -->
     <defs>
      <path d="M 18.109375 29.6875 
L 18.109375 0 
L 9.8125 0 
L 9.8125 71.390625 
L 29.390625 71.390625 
Q 42.53125 71.390625 48.796875 66.359375 
Q 55.078125 61.328125 55.078125 51.21875 
Q 55.078125 37.0625 40.71875 32.078125 
L 60.109375 0 
L 50.296875 0 
L 33.015625 29.6875 
z
M 18.109375 36.8125 
L 29.5 36.8125 
Q 38.28125 36.8125 42.375 40.296875 
Q 46.484375 43.796875 46.484375 50.78125 
Q 46.484375 57.859375 42.3125 60.984375 
Q 38.140625 64.109375 28.90625 64.109375 
L 18.109375 64.109375 
z
" id="OpenSans-Regular-82"/>
      <path d="M 31.203125 -0.984375 
Q 19.34375 -0.984375 12.46875 6.25 
Q 5.609375 13.484375 5.609375 26.3125 
Q 5.609375 39.265625 11.984375 46.875 
Q 18.359375 54.5 29.109375 54.5 
Q 39.15625 54.5 45.015625 47.875 
Q 50.875 41.265625 50.875 30.421875 
L 50.875 25.296875 
L 14.015625 25.296875 
Q 14.265625 15.875 18.78125 10.984375 
Q 23.296875 6.109375 31.5 6.109375 
Q 40.140625 6.109375 48.578125 9.71875 
L 48.578125 2.484375 
Q 44.28125 0.640625 40.453125 -0.171875 
Q 36.625 -0.984375 31.203125 -0.984375 
z
M 29 47.703125 
Q 22.5625 47.703125 18.71875 43.5 
Q 14.890625 39.3125 14.203125 31.890625 
L 42.1875 31.890625 
Q 42.1875 39.546875 38.765625 43.625 
Q 35.359375 47.703125 29 47.703125 
z
" id="OpenSans-Regular-101"/>
      <path d="M 45.015625 7.171875 
L 44.578125 7.171875 
Q 38.96875 -0.984375 27.78125 -0.984375 
Q 17.28125 -0.984375 11.4375 6.1875 
Q 5.609375 13.375 5.609375 26.609375 
Q 5.609375 39.84375 11.46875 47.171875 
Q 17.328125 54.5 27.78125 54.5 
Q 38.671875 54.5 44.484375 46.578125 
L 45.125 46.578125 
L 44.78125 50.4375 
L 44.578125 54.203125 
L 44.578125 75.984375 
L 52.6875 75.984375 
L 52.6875 0 
L 46.09375 0 
z
M 28.8125 5.8125 
Q 37.109375 5.8125 40.84375 10.328125 
Q 44.578125 14.84375 44.578125 24.90625 
L 44.578125 26.609375 
Q 44.578125 37.984375 40.796875 42.84375 
Q 37.015625 47.703125 28.71875 47.703125 
Q 21.578125 47.703125 17.796875 42.15625 
Q 14.015625 36.625 14.015625 26.515625 
Q 14.015625 16.265625 17.765625 11.03125 
Q 21.53125 5.8125 28.8125 5.8125 
z
" id="OpenSans-Regular-100"/>
     </defs>
     <g transform="translate(387.799688 58.070437)scale(0.1 -0.1)">
      <use xlink:href="#OpenSans-Regular-82"/>
      <use x="61.816406" xlink:href="#OpenSans-Regular-101"/>
      <use x="117.919922" xlink:href="#OpenSans-Regular-100"/>
     </g>
    </g>
    <g id="line2d_18">
     <path d="M 359.799688 69.572 
L 379.799688 69.572 
" style="fill:none;stroke:#808080;stroke-dasharray:5.55,2.4;stroke-dashoffset:0;stroke-width:1.5;"/>
    </g>
    <g id="line2d_19"/>
    <g id="text_2">
     <!-- 87 -->
     <defs>
      <path d="M 28.515625 72.40625 
Q 38.28125 72.40625 43.984375 67.859375 
Q 49.703125 63.328125 49.703125 55.328125 
Q 49.703125 50.046875 46.4375 45.703125 
Q 43.171875 41.359375 35.984375 37.796875 
Q 44.671875 33.640625 48.328125 29.078125 
Q 52 24.515625 52 18.5 
Q 52 9.625 45.796875 4.3125 
Q 39.59375 -0.984375 28.8125 -0.984375 
Q 17.390625 -0.984375 11.234375 4.015625 
Q 5.078125 9.03125 5.078125 18.21875 
Q 5.078125 30.46875 20.015625 37.3125 
Q 13.28125 41.109375 10.34375 45.53125 
Q 7.421875 49.953125 7.421875 55.421875 
Q 7.421875 63.1875 13.15625 67.796875 
Q 18.890625 72.40625 28.515625 72.40625 
z
M 13.09375 18.015625 
Q 13.09375 12.15625 17.15625 8.875 
Q 21.234375 5.609375 28.609375 5.609375 
Q 35.890625 5.609375 39.9375 9.03125 
Q 44 12.453125 44 18.40625 
Q 44 23.140625 40.1875 26.828125 
Q 36.375 30.515625 26.90625 33.984375 
Q 19.625 30.859375 16.359375 27.078125 
Q 13.09375 23.296875 13.09375 18.015625 
z
M 28.421875 65.828125 
Q 22.3125 65.828125 18.84375 62.890625 
Q 15.375 59.96875 15.375 55.078125 
Q 15.375 50.59375 18.25 47.359375 
Q 21.140625 44.140625 28.90625 40.921875 
Q 35.890625 43.84375 38.796875 47.21875 
Q 41.703125 50.59375 41.703125 55.078125 
Q 41.703125 60.015625 38.15625 62.921875 
Q 34.625 65.828125 28.421875 65.828125 
z
" id="OpenSans-Regular-56"/>
      <path d="M 13.921875 0 
L 43.5 63.921875 
L 4.59375 63.921875 
L 4.59375 71.390625 
L 52.09375 71.390625 
L 52.09375 64.890625 
L 22.90625 0 
z
" id="OpenSans-Regular-55"/>
     </defs>
     <g transform="translate(387.799688 73.072)scale(0.1 -0.1)">
      <use xlink:href="#OpenSans-Regular-56"/>
      <use x="57.177734" xlink:href="#OpenSans-Regular-55"/>
     </g>
    </g>
   </g>
  </g>
  <g id="axes_2">
   <g id="patch_8">
    <path d="M 57.6 218.88 
L 414.72 218.88 
L 414.72 130.176 
L 57.6 130.176 
z
" style="fill:#ffffff;"/>
   </g>
   <g id="matplotlib.axis_3">
    <g id="xtick_10">
     <g id="line2d_20">
      <g>
       <use style="stroke:#000000;stroke-width:0.8;" x="57.6" xlink:href="#m49dfd48f98" y="218.88"/>
      </g>
     </g>
    </g>
    <g id="xtick_11">
     <g id="line2d_21">
      <g>
       <use style="stroke:#000000;stroke-width:0.8;" x="101.014588" xlink:href="#m49dfd48f98" y="218.88"/>
      </g>
     </g>
    </g>
    <g id="xtick_12">
     <g id="line2d_22">
      <g>
       <use style="stroke:#000000;stroke-width:0.8;" x="145.829647" xlink:href="#m49dfd48f98" y="218.88"/>
      </g>
     </g>
    </g>
    <g id="xtick_13">
     <g id="line2d_23">
      <g>
       <use style="stroke:#000000;stroke-width:0.8;" x="190.644706" xlink:href="#m49dfd48f98" y="218.88"/>
      </g>
     </g>
    </g>
    <g id="xtick_14">
     <g id="line2d_24">
      <g>
       <use style="stroke:#000000;stroke-width:0.8;" x="235.459765" xlink:href="#m49dfd48f98" y="218.88"/>
      </g>
     </g>
    </g>
    <g id="xtick_15">
     <g id="line2d_25">
      <g>
       <use style="stroke:#000000;stroke-width:0.8;" x="280.274824" xlink:href="#m49dfd48f98" y="218.88"/>
      </g>
     </g>
    </g>
    <g id="xtick_16">
     <g id="line2d_26">
      <g>
       <use style="stroke:#000000;stroke-width:0.8;" x="325.089882" xlink:href="#m49dfd48f98" y="218.88"/>
      </g>
     </g>
    </g>
    <g id="xtick_17">
     <g id="line2d_27">
      <g>
       <use style="stroke:#000000;stroke-width:0.8;" x="369.904941" xlink:href="#m49dfd48f98" y="218.88"/>
      </g>
     </g>
    </g>
    <g id="xtick_18">
     <g id="line2d_28">
      <g>
       <use style="stroke:#000000;stroke-width:0.8;" x="414.72" xlink:href="#m49dfd48f98" y="218.88"/>
      </g>
     </g>
    </g>
   </g>
   <g id="matplotlib.axis_4">
    <g id="ytick_5">
     <g id="line2d_29">
      <g>
       <use style="stroke:#000000;stroke-width:0.8;" x="57.6" xlink:href="#mf15fbbb814" y="214.848"/>
      </g>
     </g>
    </g>
    <g id="ytick_6">
     <g id="line2d_30">
      <g>
       <use style="stroke:#000000;stroke-width:0.8;" x="57.6" xlink:href="#mf15fbbb814" y="192.465719"/>
      </g>
     </g>
    </g>
    <g id="ytick_7">
     <g id="line2d_31">
      <g>
       <use style="stroke:#000000;stroke-width:0.8;" x="57.6" xlink:href="#mf15fbbb814" y="170.083439"/>
      </g>
     </g>
    </g>
    <g id="ytick_8">
     <g id="line2d_32">
      <g>
       <use style="stroke:#000000;stroke-width:0.8;" x="57.6" xlink:href="#mf15fbbb814" y="147.701158"/>
      </g>
     </g>
    </g>
    <g id="text_3">
     <!-- Count -->
     <defs>
      <path d="M 40.375 64.984375 
Q 28.609375 64.984375 21.796875 57.140625 
Q 14.984375 49.3125 14.984375 35.6875 
Q 14.984375 21.6875 21.546875 14.03125 
Q 28.125 6.390625 40.28125 6.390625 
Q 47.75 6.390625 57.328125 9.078125 
L 57.328125 1.8125 
Q 49.90625 -0.984375 39.015625 -0.984375 
Q 23.25 -0.984375 14.671875 8.59375 
Q 6.109375 18.171875 6.109375 35.796875 
Q 6.109375 46.828125 10.234375 55.125 
Q 14.359375 63.421875 22.140625 67.90625 
Q 29.9375 72.40625 40.484375 72.40625 
Q 51.703125 72.40625 60.109375 68.3125 
L 56.59375 61.1875 
Q 48.484375 64.984375 40.375 64.984375 
z
" id="OpenSans-Regular-67"/>
      <path d="M 54.78125 26.8125 
Q 54.78125 13.71875 48.1875 6.359375 
Q 41.609375 -0.984375 29.984375 -0.984375 
Q 22.796875 -0.984375 17.234375 2.390625 
Q 11.671875 5.765625 8.640625 12.0625 
Q 5.609375 18.359375 5.609375 26.8125 
Q 5.609375 39.890625 12.15625 47.1875 
Q 18.703125 54.5 30.328125 54.5 
Q 41.546875 54.5 48.15625 47.015625 
Q 54.78125 39.546875 54.78125 26.8125 
z
M 14.015625 26.8125 
Q 14.015625 16.546875 18.109375 11.171875 
Q 22.21875 5.8125 30.171875 5.8125 
Q 38.140625 5.8125 42.265625 11.15625 
Q 46.390625 16.5 46.390625 26.8125 
Q 46.390625 37.015625 42.265625 42.3125 
Q 38.140625 47.609375 30.078125 47.609375 
Q 22.125 47.609375 18.0625 42.375 
Q 14.015625 37.15625 14.015625 26.8125 
z
" id="OpenSans-Regular-111"/>
      <path d="M 16.21875 53.515625 
L 16.21875 18.796875 
Q 16.21875 12.25 19.1875 9.03125 
Q 22.171875 5.8125 28.515625 5.8125 
Q 36.921875 5.8125 40.796875 10.390625 
Q 44.671875 14.984375 44.671875 25.390625 
L 44.671875 53.515625 
L 52.78125 53.515625 
L 52.78125 0 
L 46.09375 0 
L 44.921875 7.171875 
L 44.484375 7.171875 
Q 42 3.21875 37.578125 1.109375 
Q 33.15625 -0.984375 27.484375 -0.984375 
Q 17.71875 -0.984375 12.859375 3.65625 
Q 8.015625 8.296875 8.015625 18.5 
L 8.015625 53.515625 
z
" id="OpenSans-Regular-117"/>
      <path d="M 45.21875 0 
L 45.21875 34.625 
Q 45.21875 41.15625 42.234375 44.375 
Q 39.265625 47.609375 32.90625 47.609375 
Q 24.515625 47.609375 20.609375 43.0625 
Q 16.703125 38.53125 16.703125 28.078125 
L 16.703125 0 
L 8.59375 0 
L 8.59375 53.515625 
L 15.1875 53.515625 
L 16.5 46.1875 
L 16.890625 46.1875 
Q 19.390625 50.140625 23.875 52.3125 
Q 28.375 54.5 33.890625 54.5 
Q 43.5625 54.5 48.4375 49.828125 
Q 53.328125 45.171875 53.328125 34.90625 
L 53.328125 0 
z
" id="OpenSans-Regular-110"/>
      <path d="M 25.875 5.71875 
Q 28.03125 5.71875 30.03125 6.03125 
Q 32.03125 6.34375 33.203125 6.6875 
L 33.203125 0.484375 
Q 31.890625 -0.140625 29.328125 -0.5625 
Q 26.765625 -0.984375 24.703125 -0.984375 
Q 9.1875 -0.984375 9.1875 15.375 
L 9.1875 47.21875 
L 1.515625 47.21875 
L 1.515625 51.125 
L 9.1875 54.5 
L 12.59375 65.921875 
L 17.28125 65.921875 
L 17.28125 53.515625 
L 32.8125 53.515625 
L 32.8125 47.21875 
L 17.28125 47.21875 
L 17.28125 15.71875 
Q 17.28125 10.890625 19.578125 8.296875 
Q 21.875 5.71875 25.875 5.71875 
z
" id="OpenSans-Regular-116"/>
     </defs>
     <g transform="translate(44.196875 188.605344)rotate(-90)scale(0.1 -0.1)">
      <use xlink:href="#OpenSans-Regular-67"/>
      <use x="63.085938" xlink:href="#OpenSans-Regular-111"/>
      <use x="123.486328" xlink:href="#OpenSans-Regular-117"/>
      <use x="184.863281" xlink:href="#OpenSans-Regular-110"/>
      <use x="246.240234" xlink:href="#OpenSans-Regular-116"/>
     </g>
    </g>
   </g>
   <g id="line2d_33">
    <path clip-path="url(#p23edbf936a)" d="M 192.119782 218.88 
L 192.119782 130.176 
" style="fill:none;stroke:#808080;stroke-dasharray:5.55,2.4;stroke-dashoffset:0;stroke-width:1.5;"/>
   </g>
   <g id="line2d_34">
    <path clip-path="url(#p23edbf936a)" d="M 57.6 214.848 
L 147.230118 214.748399 
L 151.431529 214.471978 
L 154.232471 214.084764 
L 157.033412 213.376365 
L 159.834353 212.075955 
L 162.635294 210.106314 
L 164.035765 208.786878 
L 166.836706 205.604118 
L 171.038118 198.286231 
L 173.839059 191.918473 
L 175.239529 188.421241 
L 176.64 184.377882 
L 178.040471 181.179454 
L 179.440941 177.40804 
L 182.241882 169.223959 
L 183.642353 165.413376 
L 185.042824 161.121573 
L 189.244235 146.526088 
L 190.644706 142.364103 
L 193.445647 136.55702 
L 194.846118 134.534781 
L 196.246588 134.208 
L 197.647059 135.503934 
L 199.047529 137.511625 
L 200.448 141.383759 
L 201.848471 146.759983 
L 203.248941 152.602877 
L 204.649412 160.555302 
L 206.049882 169.234031 
L 208.850824 185.298913 
L 211.651765 198.390309 
L 213.052235 203.261812 
L 214.452706 206.898933 
L 215.853176 209.635167 
L 217.253647 211.622713 
L 218.654118 212.869406 
L 220.054588 213.793795 
L 221.455059 214.239202 
L 222.855529 214.541363 
L 224.256 214.72154 
L 228.457412 214.830094 
L 245.263059 214.848 
L 414.72 214.848 
L 414.72 214.848 
" style="fill:none;stroke:#008000;stroke-linecap:square;stroke-width:1.5;"/>
   </g>
   <g id="patch_9">
    <path d="M 57.6 218.88 
L 57.6 130.176 
" style="fill:none;stroke:#000000;stroke-linecap:square;stroke-linejoin:miter;stroke-width:0.8;"/>
   </g>
   <g id="patch_10">
    <path d="M 414.72 218.88 
L 414.72 130.176 
" style="fill:none;stroke:#000000;stroke-linecap:square;stroke-linejoin:miter;stroke-width:0.8;"/>
   </g>
   <g id="patch_11">
    <path d="M 57.6 218.88 
L 414.72 218.88 
" style="fill:none;stroke:#000000;stroke-linecap:square;stroke-linejoin:miter;stroke-width:0.8;"/>
   </g>
   <g id="patch_12">
    <path d="M 57.6 130.176 
L 414.72 130.176 
" style="fill:none;stroke:#000000;stroke-linecap:square;stroke-linejoin:miter;stroke-width:0.8;"/>
   </g>
   <g id="legend_2">
    <g id="patch_13">
     <path d="M 346.998125 168.179125 
L 407.72 168.179125 
Q 409.72 168.179125 409.72 166.179125 
L 409.72 137.176 
Q 409.72 135.176 407.72 135.176 
L 346.998125 135.176 
Q 344.998125 135.176 344.998125 137.176 
L 344.998125 166.179125 
Q 344.998125 168.179125 346.998125 168.179125 
z
" style="fill:#ffffff;opacity:0.8;stroke:#cccccc;stroke-linejoin:miter;"/>
    </g>
    <g id="line2d_35">
     <path d="M 348.998125 143.274438 
L 368.998125 143.274438 
" style="fill:none;stroke:#008000;stroke-linecap:square;stroke-width:1.5;"/>
    </g>
    <g id="line2d_36"/>
    <g id="text_4">
     <!-- Green -->
     <defs>
      <path d="M 41.21875 37.40625 
L 65.484375 37.40625 
L 65.484375 2.6875 
Q 59.8125 0.875 53.953125 -0.046875 
Q 48.09375 -0.984375 40.375 -0.984375 
Q 24.171875 -0.984375 15.140625 8.65625 
Q 6.109375 18.3125 6.109375 35.6875 
Q 6.109375 46.828125 10.578125 55.203125 
Q 15.046875 63.578125 23.4375 67.984375 
Q 31.84375 72.40625 43.109375 72.40625 
Q 54.546875 72.40625 64.40625 68.21875 
L 61.1875 60.890625 
Q 51.515625 64.984375 42.578125 64.984375 
Q 29.546875 64.984375 22.21875 57.21875 
Q 14.890625 49.46875 14.890625 35.6875 
Q 14.890625 21.234375 21.9375 13.765625 
Q 29 6.296875 42.671875 6.296875 
Q 50.09375 6.296875 57.171875 8.015625 
L 57.171875 29.984375 
L 41.21875 29.984375 
z
" id="OpenSans-Regular-71"/>
      <path d="M 33.015625 54.5 
Q 36.578125 54.5 39.40625 53.90625 
L 38.28125 46.390625 
Q 34.96875 47.125 32.421875 47.125 
Q 25.921875 47.125 21.3125 41.84375 
Q 16.703125 36.578125 16.703125 28.71875 
L 16.703125 0 
L 8.59375 0 
L 8.59375 53.515625 
L 15.28125 53.515625 
L 16.21875 43.609375 
L 16.609375 43.609375 
Q 19.578125 48.828125 23.78125 51.65625 
Q 27.984375 54.5 33.015625 54.5 
z
" id="OpenSans-Regular-114"/>
     </defs>
     <g transform="translate(376.998125 146.774438)scale(0.1 -0.1)">
      <use xlink:href="#OpenSans-Regular-71"/>
      <use x="72.802734" xlink:href="#OpenSans-Regular-114"/>
      <use x="113.623047" xlink:href="#OpenSans-Regular-101"/>
      <use x="169.726562" xlink:href="#OpenSans-Regular-101"/>
      <use x="225.830078" xlink:href="#OpenSans-Regular-110"/>
     </g>
    </g>
    <g id="line2d_37">
     <path d="M 348.998125 158.276 
L 368.998125 158.276 
" style="fill:none;stroke:#808080;stroke-dasharray:5.55,2.4;stroke-dashoffset:0;stroke-width:1.5;"/>
    </g>
    <g id="line2d_38"/>
    <g id="text_5">
     <!-- 96 -->
     <defs>
      <path d="M 51.8125 40.921875 
Q 51.8125 -0.984375 19.390625 -0.984375 
Q 13.71875 -0.984375 10.40625 0 
L 10.40625 6.984375 
Q 14.3125 5.71875 19.28125 5.71875 
Q 31 5.71875 36.984375 12.96875 
Q 42.96875 20.21875 43.5 35.203125 
L 42.921875 35.203125 
Q 40.234375 31.15625 35.78125 29.03125 
Q 31.34375 26.90625 25.78125 26.90625 
Q 16.3125 26.90625 10.734375 32.5625 
Q 5.171875 38.234375 5.171875 48.390625 
Q 5.171875 59.515625 11.390625 65.953125 
Q 17.625 72.40625 27.78125 72.40625 
Q 35.0625 72.40625 40.5 68.671875 
Q 45.953125 64.9375 48.875 57.78125 
Q 51.8125 50.640625 51.8125 40.921875 
z
M 27.78125 65.484375 
Q 20.796875 65.484375 16.984375 60.984375 
Q 13.1875 56.5 13.1875 48.484375 
Q 13.1875 41.453125 16.703125 37.421875 
Q 20.21875 33.40625 27.390625 33.40625 
Q 31.84375 33.40625 35.578125 35.203125 
Q 39.3125 37.015625 41.453125 40.140625 
Q 43.609375 43.265625 43.609375 46.6875 
Q 43.609375 51.8125 41.59375 56.15625 
Q 39.59375 60.5 36 62.984375 
Q 32.421875 65.484375 27.78125 65.484375 
z
" id="OpenSans-Regular-57"/>
      <path d="M 5.71875 30.515625 
Q 5.71875 51.5625 13.890625 61.984375 
Q 22.078125 72.40625 38.09375 72.40625 
Q 43.609375 72.40625 46.78125 71.484375 
L 46.78125 64.5 
Q 43.015625 65.71875 38.1875 65.71875 
Q 26.703125 65.71875 20.640625 58.5625 
Q 14.59375 51.421875 14.015625 36.078125 
L 14.59375 36.078125 
Q 19.96875 44.484375 31.59375 44.484375 
Q 41.21875 44.484375 46.75 38.671875 
Q 52.296875 32.859375 52.296875 22.90625 
Q 52.296875 11.765625 46.21875 5.390625 
Q 40.140625 -0.984375 29.78125 -0.984375 
Q 18.703125 -0.984375 12.203125 7.34375 
Q 5.71875 15.671875 5.71875 30.515625 
z
M 29.6875 5.90625 
Q 36.625 5.90625 40.453125 10.28125 
Q 44.28125 14.65625 44.28125 22.90625 
Q 44.28125 29.984375 40.71875 34.03125 
Q 37.15625 38.09375 30.078125 38.09375 
Q 25.6875 38.09375 22.015625 36.28125 
Q 18.359375 34.46875 16.1875 31.296875 
Q 14.015625 28.125 14.015625 24.703125 
Q 14.015625 19.671875 15.96875 15.328125 
Q 17.921875 10.984375 21.5 8.4375 
Q 25.09375 5.90625 29.6875 5.90625 
z
" id="OpenSans-Regular-54"/>
     </defs>
     <g transform="translate(376.998125 161.776)scale(0.1 -0.1)">
      <use xlink:href="#OpenSans-Regular-57"/>
      <use x="57.177734" xlink:href="#OpenSans-Regular-54"/>
     </g>
    </g>
   </g>
  </g>
  <g id="axes_3">
   <g id="patch_14">
    <path d="M 57.6 307.584 
L 414.72 307.584 
L 414.72 218.88 
L 57.6 218.88 
z
" style="fill:#ffffff;"/>
   </g>
   <g id="matplotlib.axis_5">
    <g id="xtick_19">
     <g id="line2d_39">
      <g>
       <use style="stroke:#000000;stroke-width:0.8;" x="57.6" xlink:href="#m49dfd48f98" y="307.584"/>
      </g>
     </g>
     <g id="text_6">
      <!-- 00 -->
      <defs>
       <path d="M 52.203125 35.796875 
Q 52.203125 17.28125 46.359375 8.140625 
Q 40.53125 -0.984375 28.515625 -0.984375 
Q 17 -0.984375 10.984375 8.359375 
Q 4.984375 17.71875 4.984375 35.796875 
Q 4.984375 54.4375 10.796875 63.46875 
Q 16.609375 72.515625 28.515625 72.515625 
Q 40.140625 72.515625 46.171875 63.078125 
Q 52.203125 53.65625 52.203125 35.796875 
z
M 13.1875 35.796875 
Q 13.1875 20.21875 16.84375 13.109375 
Q 20.515625 6 28.515625 6 
Q 36.625 6 40.25 13.203125 
Q 43.890625 20.40625 43.890625 35.796875 
Q 43.890625 51.171875 40.25 58.328125 
Q 36.625 65.484375 28.515625 65.484375 
Q 20.515625 65.484375 16.84375 58.421875 
Q 13.1875 51.375 13.1875 35.796875 
z
" id="OpenSans-Regular-48"/>
      </defs>
      <g transform="translate(51.882812 322.182437)scale(0.1 -0.1)">
       <use xlink:href="#OpenSans-Regular-48"/>
       <use x="57.177734" xlink:href="#OpenSans-Regular-48"/>
      </g>
     </g>
    </g>
    <g id="xtick_20">
     <g id="line2d_40">
      <g>
       <use style="stroke:#000000;stroke-width:0.8;" x="101.014588" xlink:href="#m49dfd48f98" y="307.584"/>
      </g>
     </g>
     <g id="text_7">
      <!-- 1F -->
      <defs>
       <path d="M 34.90625 0 
L 27 0 
L 27 50.875 
Q 27 57.234375 27.390625 62.890625 
Q 26.375 61.859375 25.09375 60.734375 
Q 23.828125 59.625 13.484375 51.21875 
L 9.1875 56.78125 
L 28.078125 71.390625 
L 34.90625 71.390625 
z
" id="OpenSans-Regular-49"/>
       <path d="M 18.109375 0 
L 9.8125 0 
L 9.8125 71.390625 
L 49.609375 71.390625 
L 49.609375 64.015625 
L 18.109375 64.015625 
L 18.109375 37.890625 
L 47.703125 37.890625 
L 47.703125 30.515625 
L 18.109375 30.515625 
z
" id="OpenSans-Regular-70"/>
      </defs>
      <g transform="translate(95.575526 322.182437)scale(0.1 -0.1)">
       <use xlink:href="#OpenSans-Regular-49"/>
       <use x="57.177734" xlink:href="#OpenSans-Regular-70"/>
      </g>
     </g>
    </g>
    <g id="xtick_21">
     <g id="line2d_41">
      <g>
       <use style="stroke:#000000;stroke-width:0.8;" x="145.829647" xlink:href="#m49dfd48f98" y="307.584"/>
      </g>
     </g>
     <g id="text_8">
      <!-- 3F -->
      <defs>
       <path d="M 49.125 54.59375 
Q 49.125 47.75 45.28125 43.40625 
Q 41.453125 39.0625 34.421875 37.59375 
L 34.421875 37.203125 
Q 43.015625 36.140625 47.15625 31.734375 
Q 51.3125 27.34375 51.3125 20.21875 
Q 51.3125 10.015625 44.234375 4.515625 
Q 37.15625 -0.984375 24.125 -0.984375 
Q 18.453125 -0.984375 13.734375 -0.125 
Q 9.03125 0.734375 4.59375 2.875 
L 4.59375 10.59375 
Q 9.234375 8.296875 14.484375 7.09375 
Q 19.734375 5.90625 24.421875 5.90625 
Q 42.921875 5.90625 42.921875 20.40625 
Q 42.921875 33.40625 22.515625 33.40625 
L 15.484375 33.40625 
L 15.484375 40.375 
L 22.609375 40.375 
Q 30.953125 40.375 35.828125 44.0625 
Q 40.71875 47.75 40.71875 54.296875 
Q 40.71875 59.515625 37.125 62.5 
Q 33.546875 65.484375 27.390625 65.484375 
Q 22.703125 65.484375 18.546875 64.203125 
Q 14.40625 62.9375 9.078125 59.515625 
L 4.984375 64.984375 
Q 9.375 68.453125 15.109375 70.421875 
Q 20.84375 72.40625 27.203125 72.40625 
Q 37.59375 72.40625 43.359375 67.640625 
Q 49.125 62.890625 49.125 54.59375 
z
" id="OpenSans-Regular-51"/>
      </defs>
      <g transform="translate(140.390585 322.182437)scale(0.1 -0.1)">
       <use xlink:href="#OpenSans-Regular-51"/>
       <use x="57.177734" xlink:href="#OpenSans-Regular-70"/>
      </g>
     </g>
    </g>
    <g id="xtick_22">
     <g id="line2d_42">
      <g>
       <use style="stroke:#000000;stroke-width:0.8;" x="190.644706" xlink:href="#m49dfd48f98" y="307.584"/>
      </g>
     </g>
     <g id="text_9">
      <!-- 5F -->
      <defs>
       <path d="M 27.203125 43.609375 
Q 38.484375 43.609375 44.953125 38.015625 
Q 51.421875 32.421875 51.421875 22.703125 
Q 51.421875 11.625 44.359375 5.3125 
Q 37.3125 -0.984375 24.90625 -0.984375 
Q 12.84375 -0.984375 6.5 2.875 
L 6.5 10.6875 
Q 9.90625 8.5 14.984375 7.25 
Q 20.0625 6 25 6 
Q 33.59375 6 38.34375 10.046875 
Q 43.109375 14.109375 43.109375 21.78125 
Q 43.109375 36.71875 24.8125 36.71875 
Q 20.171875 36.71875 12.40625 35.296875 
L 8.203125 37.984375 
L 10.890625 71.390625 
L 46.390625 71.390625 
L 46.390625 63.921875 
L 17.828125 63.921875 
L 16.015625 42.484375 
Q 21.625 43.609375 27.203125 43.609375 
z
" id="OpenSans-Regular-53"/>
      </defs>
      <g transform="translate(185.205643 322.182437)scale(0.1 -0.1)">
       <use xlink:href="#OpenSans-Regular-53"/>
       <use x="57.177734" xlink:href="#OpenSans-Regular-70"/>
      </g>
     </g>
    </g>
    <g id="xtick_23">
     <g id="line2d_43">
      <g>
       <use style="stroke:#000000;stroke-width:0.8;" x="235.459765" xlink:href="#m49dfd48f98" y="307.584"/>
      </g>
     </g>
     <g id="text_10">
      <!-- 7F -->
      <g transform="translate(230.020702 322.182437)scale(0.1 -0.1)">
       <use xlink:href="#OpenSans-Regular-55"/>
       <use x="57.177734" xlink:href="#OpenSans-Regular-70"/>
      </g>
     </g>
    </g>
    <g id="xtick_24">
     <g id="line2d_44">
      <g>
       <use style="stroke:#000000;stroke-width:0.8;" x="280.274824" xlink:href="#m49dfd48f98" y="307.584"/>
      </g>
     </g>
     <g id="text_11">
      <!-- 9F -->
      <g transform="translate(274.835761 322.182437)scale(0.1 -0.1)">
       <use xlink:href="#OpenSans-Regular-57"/>
       <use x="57.177734" xlink:href="#OpenSans-Regular-70"/>
      </g>
     </g>
    </g>
    <g id="xtick_25">
     <g id="line2d_45">
      <g>
       <use style="stroke:#000000;stroke-width:0.8;" x="325.089882" xlink:href="#m49dfd48f98" y="307.584"/>
      </g>
     </g>
     <g id="text_12">
      <!-- BF -->
      <defs>
       <path d="M 9.8125 71.390625 
L 29.984375 71.390625 
Q 44.1875 71.390625 50.53125 67.140625 
Q 56.890625 62.890625 56.890625 53.71875 
Q 56.890625 47.359375 53.34375 43.234375 
Q 49.8125 39.109375 43.015625 37.890625 
L 43.015625 37.40625 
Q 59.28125 34.625 59.28125 20.3125 
Q 59.28125 10.75 52.8125 5.375 
Q 46.34375 0 34.71875 0 
L 9.8125 0 
z
M 18.109375 40.828125 
L 31.78125 40.828125 
Q 40.578125 40.828125 44.4375 43.578125 
Q 48.296875 46.34375 48.296875 52.875 
Q 48.296875 58.890625 44 61.546875 
Q 39.703125 64.203125 30.328125 64.203125 
L 18.109375 64.203125 
z
M 18.109375 33.796875 
L 18.109375 7.078125 
L 33.015625 7.078125 
Q 41.65625 7.078125 46.015625 10.421875 
Q 50.390625 13.765625 50.390625 20.90625 
Q 50.390625 27.546875 45.921875 30.671875 
Q 41.453125 33.796875 32.328125 33.796875 
z
" id="OpenSans-Regular-66"/>
      </defs>
      <g transform="translate(319.26957 322.182437)scale(0.1 -0.1)">
       <use xlink:href="#OpenSans-Regular-66"/>
       <use x="64.794922" xlink:href="#OpenSans-Regular-70"/>
      </g>
     </g>
    </g>
    <g id="xtick_26">
     <g id="line2d_46">
      <g>
       <use style="stroke:#000000;stroke-width:0.8;" x="369.904941" xlink:href="#m49dfd48f98" y="307.584"/>
      </g>
     </g>
     <g id="text_13">
      <!-- DF -->
      <defs>
       <path d="M 66.796875 36.375 
Q 66.796875 18.703125 57.203125 9.34375 
Q 47.609375 0 29.59375 0 
L 9.8125 0 
L 9.8125 71.390625 
L 31.6875 71.390625 
Q 48.34375 71.390625 57.5625 62.15625 
Q 66.796875 52.9375 66.796875 36.375 
z
M 58.015625 36.078125 
Q 58.015625 50.046875 51 57.125 
Q 44 64.203125 30.171875 64.203125 
L 18.109375 64.203125 
L 18.109375 7.171875 
L 28.21875 7.171875 
Q 43.0625 7.171875 50.53125 14.46875 
Q 58.015625 21.78125 58.015625 36.078125 
z
" id="OpenSans-Regular-68"/>
      </defs>
      <g transform="translate(363.67916 322.182437)scale(0.1 -0.1)">
       <use xlink:href="#OpenSans-Regular-68"/>
       <use x="72.900391" xlink:href="#OpenSans-Regular-70"/>
      </g>
     </g>
    </g>
    <g id="xtick_27">
     <g id="line2d_47">
      <g>
       <use style="stroke:#000000;stroke-width:0.8;" x="414.72" xlink:href="#m49dfd48f98" y="307.584"/>
      </g>
     </g>
     <g id="text_14">
      <!-- FF -->
      <g transform="translate(409.559063 322.182437)scale(0.1 -0.1)">
       <use xlink:href="#OpenSans-Regular-70"/>
       <use x="51.611328" xlink:href="#OpenSans-Regular-70"/>
      </g>
     </g>
    </g>
    <g id="text_15">
     <!-- Pixel value -->
     <defs>
      <path d="M 55.078125 50.59375 
Q 55.078125 39.75 47.671875 33.90625 
Q 40.28125 28.078125 26.515625 28.078125 
L 18.109375 28.078125 
L 18.109375 0 
L 9.8125 0 
L 9.8125 71.390625 
L 28.328125 71.390625 
Q 55.078125 71.390625 55.078125 50.59375 
z
M 18.109375 35.203125 
L 25.59375 35.203125 
Q 36.625 35.203125 41.546875 38.765625 
Q 46.484375 42.328125 46.484375 50.203125 
Q 46.484375 57.28125 41.84375 60.734375 
Q 37.203125 64.203125 27.390625 64.203125 
L 18.109375 64.203125 
z
" id="OpenSans-Regular-80"/>
      <path d="M 16.703125 0 
L 8.59375 0 
L 8.59375 53.515625 
L 16.703125 53.515625 
z
M 7.90625 68.015625 
Q 7.90625 70.796875 9.265625 72.09375 
Q 10.640625 73.390625 12.703125 73.390625 
Q 14.65625 73.390625 16.0625 72.0625 
Q 17.484375 70.75 17.484375 68.015625 
Q 17.484375 65.28125 16.0625 63.9375 
Q 14.65625 62.59375 12.703125 62.59375 
Q 10.640625 62.59375 9.265625 63.9375 
Q 7.90625 65.28125 7.90625 68.015625 
z
" id="OpenSans-Regular-105"/>
      <path d="M 21.484375 27.390625 
L 2.875 53.515625 
L 12.109375 53.515625 
L 26.21875 33.015625 
L 40.28125 53.515625 
L 49.421875 53.515625 
L 30.8125 27.390625 
L 50.390625 0 
L 41.21875 0 
L 26.21875 21.6875 
L 11.078125 0 
L 1.90625 0 
z
" id="OpenSans-Regular-120"/>
      <path d="M 16.703125 0 
L 8.59375 0 
L 8.59375 75.984375 
L 16.703125 75.984375 
z
" id="OpenSans-Regular-108"/>
      <path id="OpenSans-Regular-32"/>
      <path d="M 20.3125 0 
L 0 53.515625 
L 8.6875 53.515625 
L 20.21875 21.78125 
Q 24.125 10.640625 24.8125 7.328125 
L 25.203125 7.328125 
Q 25.734375 9.90625 28.59375 18.03125 
Q 31.453125 26.171875 41.40625 53.515625 
L 50.09375 53.515625 
L 29.78125 0 
z
" id="OpenSans-Regular-118"/>
      <path d="M 41.5 0 
L 39.890625 7.625 
L 39.5 7.625 
Q 35.5 2.59375 31.515625 0.796875 
Q 27.546875 -0.984375 21.578125 -0.984375 
Q 13.625 -0.984375 9.109375 3.125 
Q 4.59375 7.234375 4.59375 14.796875 
Q 4.59375 31 30.515625 31.78125 
L 39.59375 32.078125 
L 39.59375 35.40625 
Q 39.59375 41.703125 36.890625 44.703125 
Q 34.1875 47.703125 28.21875 47.703125 
Q 21.53125 47.703125 13.09375 43.609375 
L 10.59375 49.8125 
Q 14.546875 51.953125 19.25 53.171875 
Q 23.96875 54.390625 28.71875 54.390625 
Q 38.28125 54.390625 42.890625 50.140625 
Q 47.515625 45.90625 47.515625 36.53125 
L 47.515625 0 
z
M 23.1875 5.71875 
Q 30.765625 5.71875 35.078125 9.859375 
Q 39.40625 14.015625 39.40625 21.484375 
L 39.40625 26.3125 
L 31.296875 25.984375 
Q 21.625 25.640625 17.359375 22.96875 
Q 13.09375 20.3125 13.09375 14.703125 
Q 13.09375 10.296875 15.75 8 
Q 18.40625 5.71875 23.1875 5.71875 
z
" id="OpenSans-Regular-97"/>
     </defs>
     <g transform="translate(211.471719 336.184)scale(0.1 -0.1)">
      <use xlink:href="#OpenSans-Regular-80"/>
      <use x="60.205078" xlink:href="#OpenSans-Regular-105"/>
      <use x="85.498047" xlink:href="#OpenSans-Regular-120"/>
      <use x="137.890625" xlink:href="#OpenSans-Regular-101"/>
      <use x="193.994141" xlink:href="#OpenSans-Regular-108"/>
      <use x="219.287109" xlink:href="#OpenSans-Regular-32"/>
      <use x="245.263672" xlink:href="#OpenSans-Regular-118"/>
      <use x="295.361328" xlink:href="#OpenSans-Regular-97"/>
      <use x="350.976562" xlink:href="#OpenSans-Regular-108"/>
      <use x="376.269531" xlink:href="#OpenSans-Regular-117"/>
      <use x="437.646484" xlink:href="#OpenSans-Regular-101"/>
     </g>
    </g>
   </g>
   <g id="matplotlib.axis_6">
    <g id="ytick_9">
     <g id="line2d_48">
      <g>
       <use style="stroke:#000000;stroke-width:0.8;" x="57.6" xlink:href="#mf15fbbb814" y="303.552"/>
      </g>
     </g>
    </g>
    <g id="ytick_10">
     <g id="line2d_49">
      <g>
       <use style="stroke:#000000;stroke-width:0.8;" x="57.6" xlink:href="#mf15fbbb814" y="281.169719"/>
      </g>
     </g>
    </g>
    <g id="ytick_11">
     <g id="line2d_50">
      <g>
       <use style="stroke:#000000;stroke-width:0.8;" x="57.6" xlink:href="#mf15fbbb814" y="258.787439"/>
      </g>
     </g>
    </g>
    <g id="ytick_12">
     <g id="line2d_51">
      <g>
       <use style="stroke:#000000;stroke-width:0.8;" x="57.6" xlink:href="#mf15fbbb814" y="236.405158"/>
      </g>
     </g>
    </g>
   </g>
   <g id="line2d_52">
    <path clip-path="url(#pe1cfe85549)" d="M 308.872321 307.584 
L 308.872321 218.88 
" style="fill:none;stroke:#808080;stroke-dasharray:5.55,2.4;stroke-dashoffset:0;stroke-width:1.5;"/>
   </g>
   <g id="line2d_53">
    <path clip-path="url(#pe1cfe85549)" d="M 57.6 303.552 
L 242.462118 303.461352 
L 245.263059 303.33713 
L 248.064 303.096521 
L 253.665882 302.131844 
L 255.066353 301.655102 
L 256.466824 301.43016 
L 259.267765 300.403932 
L 260.668235 300.02791 
L 262.068706 299.236696 
L 264.869647 298.433172 
L 269.071059 296.31469 
L 270.471529 295.376872 
L 271.872 294.774789 
L 273.272471 293.776539 
L 274.672941 292.538799 
L 276.073412 291.468926 
L 277.473882 289.567551 
L 278.874353 288.070176 
L 280.274824 286.225877 
L 281.675294 284.069344 
L 283.075765 282.306739 
L 285.876706 278.021652 
L 287.277176 276.494061 
L 288.677647 274.702359 
L 290.078118 273.113217 
L 291.478588 272.430558 
L 292.879059 270.598568 
L 294.279529 270.034535 
L 295.68 269.310468 
L 297.080471 268.750911 
L 298.480941 268.363697 
L 299.881412 268.273049 
L 301.281882 267.722445 
L 304.082824 267.181913 
L 305.483294 267.515409 
L 306.883765 266.776794 
L 308.284235 266.724195 
L 309.684706 266.358245 
L 311.085176 266.123231 
L 312.485647 266.333625 
L 315.286588 266.368317 
L 319.488 266.07399 
L 320.888471 266.164638 
L 322.288941 265.666633 
L 323.689412 265.900527 
L 325.089882 265.056715 
L 326.490353 264.801557 
L 327.890824 264.679574 
L 330.691765 265.222344 
L 332.092235 266.482467 
L 333.492706 269.094479 
L 334.893176 271.384186 
L 336.293647 274.425938 
L 340.495059 286.829079 
L 343.296 293.946644 
L 344.696471 296.728762 
L 346.096941 298.969228 
L 347.497412 300.616564 
L 348.897882 301.778204 
L 350.298353 302.511224 
L 351.698824 302.996919 
L 354.499765 303.377418 
L 358.701176 303.528499 
L 375.506824 303.552 
L 414.72 303.552 
L 414.72 303.552 
" style="fill:none;stroke:#0000ff;stroke-linecap:square;stroke-width:1.5;"/>
   </g>
   <g id="patch_15">
    <path d="M 57.6 307.584 
L 57.6 218.88 
" style="fill:none;stroke:#000000;stroke-linecap:square;stroke-linejoin:miter;stroke-width:0.8;"/>
   </g>
   <g id="patch_16">
    <path d="M 414.72 307.584 
L 414.72 218.88 
" style="fill:none;stroke:#000000;stroke-linecap:square;stroke-linejoin:miter;stroke-width:0.8;"/>
   </g>
   <g id="patch_17">
    <path d="M 57.6 307.584 
L 414.72 307.584 
" style="fill:none;stroke:#000000;stroke-linecap:square;stroke-linejoin:miter;stroke-width:0.8;"/>
   </g>
   <g id="patch_18">
    <path d="M 57.6 218.88 
L 414.72 218.88 
" style="fill:none;stroke:#000000;stroke-linecap:square;stroke-linejoin:miter;stroke-width:0.8;"/>
   </g>
   <g id="legend_3">
    <g id="patch_19">
     <path d="M 354.962188 256.883125 
L 407.72 256.883125 
Q 409.72 256.883125 409.72 254.883125 
L 409.72 225.88 
Q 409.72 223.88 407.72 223.88 
L 354.962188 223.88 
Q 352.962188 223.88 352.962188 225.88 
L 352.962188 254.883125 
Q 352.962188 256.883125 354.962188 256.883125 
z
" style="fill:#ffffff;opacity:0.8;stroke:#cccccc;stroke-linejoin:miter;"/>
    </g>
    <g id="line2d_54">
     <path d="M 356.962188 231.978437 
L 376.962188 231.978437 
" style="fill:none;stroke:#0000ff;stroke-linecap:square;stroke-width:1.5;"/>
    </g>
    <g id="line2d_55"/>
    <g id="text_16">
     <!-- Blue -->
     <g transform="translate(384.962188 235.478437)scale(0.1 -0.1)">
      <use xlink:href="#OpenSans-Regular-66"/>
      <use x="64.794922" xlink:href="#OpenSans-Regular-108"/>
      <use x="90.087891" xlink:href="#OpenSans-Regular-117"/>
      <use x="151.464844" xlink:href="#OpenSans-Regular-101"/>
     </g>
    </g>
    <g id="line2d_56">
     <path d="M 356.962188 246.98 
L 376.962188 246.98 
" style="fill:none;stroke:#808080;stroke-dasharray:5.55,2.4;stroke-dashoffset:0;stroke-width:1.5;"/>
    </g>
    <g id="line2d_57"/>
    <g id="text_17">
     <!-- 179 -->
     <g transform="translate(384.962188 250.48)scale(0.1 -0.1)">
      <use xlink:href="#OpenSans-Regular-49"/>
      <use x="57.177734" xlink:href="#OpenSans-Regular-55"/>
      <use x="114.355469" xlink:href="#OpenSans-Regular-57"/>
     </g>
    </g>
   </g>
  </g>
  <g id="text_18">
   <!-- LED Full Power Histogram -->
   <defs>
    <path d="M 6.296875 0 
L 6.296875 71.390625 
L 19.578125 71.390625 
L 19.578125 11.625 
L 37.984375 11.625 
L 37.984375 0 
z
" id="OpenSansCondensed-Bold-76"/>
    <path d="M 38.484375 0 
L 6.296875 0 
L 6.296875 71.390625 
L 38.484375 71.390625 
L 38.484375 59.90625 
L 19.578125 59.90625 
L 19.578125 42.921875 
L 37.109375 42.921875 
L 37.109375 31.390625 
L 19.578125 31.390625 
L 19.578125 11.625 
L 38.484375 11.625 
z
" id="OpenSansCondensed-Bold-69"/>
    <path d="M 51.703125 36.375 
Q 51.703125 18.703125 44.5 9.34375 
Q 37.3125 0 23.78125 0 
L 6.296875 0 
L 6.296875 71.390625 
L 25.390625 71.390625 
Q 37.84375 71.390625 44.765625 62.1875 
Q 51.703125 52.984375 51.703125 36.375 
z
M 38.09375 35.984375 
Q 38.09375 59.90625 24.90625 59.90625 
L 19.578125 59.90625 
L 19.578125 11.625 
L 23.875 11.625 
Q 31.15625 11.625 34.625 17.703125 
Q 38.09375 23.78125 38.09375 35.984375 
z
" id="OpenSansCondensed-Bold-68"/>
    <path id="OpenSansCondensed-Bold-32"/>
    <path d="M 19.484375 0 
L 6.296875 0 
L 6.296875 71.390625 
L 38.28125 71.390625 
L 38.28125 59.90625 
L 19.484375 59.90625 
L 19.484375 40.09375 
L 37.015625 40.09375 
L 37.015625 28.609375 
L 19.484375 28.609375 
z
" id="OpenSansCondensed-Bold-70"/>
    <path d="M 34.90625 0 
L 33.296875 6.984375 
L 32.625 6.984375 
Q 30.8125 3.265625 27.46875 1.140625 
Q 24.125 -0.984375 19.828125 -0.984375 
Q 12.5 -0.984375 8.734375 4 
Q 4.984375 8.984375 4.984375 18.890625 
L 4.984375 54.390625 
L 18.109375 54.390625 
L 18.109375 22.015625 
Q 18.109375 16.0625 19.53125 13.03125 
Q 20.953125 10.015625 24.125 10.015625 
Q 28.328125 10.015625 30.25 14.203125 
Q 32.171875 18.40625 32.171875 28.328125 
L 32.171875 54.390625 
L 45.3125 54.390625 
L 45.3125 0 
z
" id="OpenSansCondensed-Bold-117"/>
    <path d="M 18.5 0 
L 5.515625 0 
L 5.515625 75.984375 
L 18.5 75.984375 
z
" id="OpenSansCondensed-Bold-108"/>
    <path d="M 45.21875 49.421875 
Q 45.21875 38.03125 39.46875 31.953125 
Q 33.734375 25.875 22.90625 25.875 
L 19.578125 25.875 
L 19.578125 0 
L 6.296875 0 
L 6.296875 71.390625 
L 24.421875 71.390625 
Q 45.21875 71.390625 45.21875 49.421875 
z
M 19.578125 37.40625 
L 22.125 37.40625 
Q 27 37.40625 29.390625 40.09375 
Q 31.78125 42.78125 31.78125 48.875 
Q 31.78125 54.5 29.578125 57.203125 
Q 27.390625 59.90625 22.796875 59.90625 
L 19.578125 59.90625 
z
" id="OpenSansCondensed-Bold-80"/>
    <path d="M 45.796875 27.296875 
Q 45.796875 13.921875 40.125 6.46875 
Q 34.46875 -0.984375 24.609375 -0.984375 
Q 18.359375 -0.984375 13.578125 2.4375 
Q 8.796875 5.859375 6.203125 12.28125 
Q 3.609375 18.703125 3.609375 27.296875 
Q 3.609375 40.53125 9.21875 47.96875 
Q 14.84375 55.421875 24.8125 55.421875 
Q 34.421875 55.421875 40.109375 47.828125 
Q 45.796875 40.234375 45.796875 27.296875 
z
M 16.890625 27.296875 
Q 16.890625 18.796875 18.75 14.453125 
Q 20.609375 10.109375 24.703125 10.109375 
Q 32.515625 10.109375 32.515625 27.296875 
Q 32.515625 35.84375 30.640625 40.0625 
Q 28.765625 44.28125 24.703125 44.28125 
Q 20.609375 44.28125 18.75 40.0625 
Q 16.890625 35.84375 16.890625 27.296875 
z
" id="OpenSansCondensed-Bold-111"/>
    <path d="M 43.40625 0 
L 37.984375 31.59375 
L 36.078125 44.921875 
L 35.890625 44.921875 
Q 35.15625 38.421875 34.71875 35.515625 
Q 34.28125 32.625 28.515625 0 
L 11.8125 0 
L 0.984375 54.390625 
L 14.015625 54.390625 
L 19 24.421875 
Q 19.875 19.4375 20.609375 9.8125 
L 20.90625 9.8125 
Q 21 12.40625 21.578125 17.703125 
Q 22.171875 23 22.40625 24.515625 
L 27.78125 54.390625 
L 44.484375 54.390625 
L 49.8125 24.421875 
Q 50.734375 19.625 51.421875 9.8125 
L 51.609375 9.8125 
Q 52.296875 18.5625 53.328125 24.421875 
L 58.5 54.390625 
L 71.1875 54.390625 
L 60.296875 0 
z
" id="OpenSansCondensed-Bold-119"/>
    <path d="M 25.59375 -0.984375 
Q 15.375 -0.984375 9.484375 6.265625 
Q 3.609375 13.53125 3.609375 26.8125 
Q 3.609375 40.28125 8.9375 47.84375 
Q 14.265625 55.421875 23.78125 55.421875 
Q 32.671875 55.421875 37.796875 48.953125 
Q 42.921875 42.484375 42.921875 30.8125 
L 42.921875 23.875 
L 16.796875 23.875 
Q 16.9375 16.609375 19.765625 13.0625 
Q 22.609375 9.515625 27.59375 9.515625 
Q 33.9375 9.515625 40.578125 13.484375 
L 40.578125 2.78125 
Q 34.328125 -0.984375 25.59375 -0.984375 
z
M 23.6875 45.40625 
Q 20.90625 45.40625 19.09375 42.453125 
Q 17.28125 39.5 17 33.296875 
L 30.171875 33.296875 
Q 30.078125 39.265625 28.359375 42.328125 
Q 26.65625 45.40625 23.6875 45.40625 
z
" id="OpenSansCondensed-Bold-101"/>
    <path d="M 28.71875 55.421875 
Q 31.109375 55.421875 33.40625 54.6875 
L 31.890625 42.09375 
Q 30.515625 42.578125 28.328125 42.578125 
Q 23.578125 42.578125 21.03125 38.84375 
Q 18.5 35.109375 18.5 27.984375 
L 18.5 0 
L 5.515625 0 
L 5.515625 54.390625 
L 16.21875 54.390625 
L 17.671875 45.90625 
L 18.109375 45.90625 
Q 20.265625 51.03125 22.796875 53.21875 
Q 25.34375 55.421875 28.71875 55.421875 
z
" id="OpenSansCondensed-Bold-114"/>
    <path d="M 50.390625 0 
L 37.109375 0 
L 37.109375 31.296875 
L 19.578125 31.296875 
L 19.578125 0 
L 6.296875 0 
L 6.296875 71.390625 
L 19.578125 71.390625 
L 19.578125 43.015625 
L 37.109375 43.015625 
L 37.109375 71.390625 
L 50.390625 71.390625 
z
" id="OpenSansCondensed-Bold-72"/>
    <path d="M 18.609375 0 
L 5.609375 0 
L 5.609375 54.390625 
L 18.609375 54.390625 
z
M 5.078125 68.609375 
Q 5.078125 71.828125 6.953125 73.703125 
Q 8.84375 75.59375 12.203125 75.59375 
Q 15.375 75.59375 17.28125 73.703125 
Q 19.1875 71.828125 19.1875 68.609375 
Q 19.1875 65.28125 17.234375 63.453125 
Q 15.28125 61.625 12.203125 61.625 
Q 8.984375 61.625 7.03125 63.453125 
Q 5.078125 65.28125 5.078125 68.609375 
z
" id="OpenSansCondensed-Bold-105"/>
    <path d="M 34.71875 15.921875 
Q 34.71875 7.953125 30.046875 3.484375 
Q 25.390625 -0.984375 16.3125 -0.984375 
Q 8.25 -0.984375 2.984375 2.203125 
L 2.984375 13.484375 
Q 5.671875 11.625 9.25 10.40625 
Q 12.84375 9.1875 15.578125 9.1875 
Q 18.609375 9.1875 20.1875 10.671875 
Q 21.78125 12.15625 21.78125 14.59375 
Q 21.78125 17.09375 20.109375 18.9375 
Q 18.453125 20.796875 14.015625 23.484375 
Q 8.109375 27 5.546875 30.984375 
Q 2.984375 34.96875 2.984375 40.375 
Q 2.984375 47.3125 7.734375 51.359375 
Q 12.5 55.421875 20.796875 55.421875 
Q 28.03125 55.421875 34.421875 51.609375 
L 30.171875 42.28125 
Q 24.953125 45.125 21 45.125 
Q 18.5 45.125 17.25 43.796875 
Q 16.015625 42.484375 16.015625 40.578125 
Q 16.015625 38.375 17.546875 36.671875 
Q 19.09375 34.96875 23.296875 32.421875 
Q 28.375 29.34375 30.421875 27.1875 
Q 32.46875 25.046875 33.59375 22.3125 
Q 34.71875 19.578125 34.71875 15.921875 
z
" id="OpenSansCondensed-Bold-115"/>
    <path d="M 24.421875 10.015625 
Q 27.15625 10.015625 30.328125 11.375 
L 30.328125 1.21875 
Q 27.15625 -0.984375 20.796875 -0.984375 
Q 13.71875 -0.984375 10.296875 3.234375 
Q 6.890625 7.46875 6.890625 15.921875 
L 6.890625 44.09375 
L 1.609375 44.09375 
L 1.609375 49.90625 
L 8.40625 54.59375 
L 11.71875 66.109375 
L 20.015625 66.109375 
L 20.015625 54.390625 
L 29.890625 54.390625 
L 29.890625 44.09375 
L 20.015625 44.09375 
L 20.015625 15.484375 
Q 20.015625 10.015625 24.421875 10.015625 
z
" id="OpenSansCondensed-Bold-116"/>
    <path d="M 44.671875 54.296875 
L 44.671875 46.6875 
L 38.1875 45.21875 
Q 40.09375 41.796875 40.09375 36.625 
Q 40.09375 27.984375 35.40625 23.09375 
Q 30.71875 18.21875 22.3125 18.21875 
Q 19.875 18.21875 18.703125 18.609375 
Q 17.78125 17.78125 16.9375 16.75 
Q 16.109375 15.71875 16.109375 14.203125 
Q 16.109375 10.796875 22.015625 10.796875 
L 29.890625 10.796875 
Q 36.8125 10.796875 40.546875 7.0625 
Q 44.28125 3.328125 44.28125 -4.203125 
Q 44.28125 -13.671875 37.9375 -18.84375 
Q 31.59375 -24.03125 19.671875 -24.03125 
Q 10.640625 -24.03125 5.75 -20.09375 
Q 0.875 -16.15625 0.875 -8.890625 
Q 0.875 -4.34375 3.65625 -0.890625 
Q 6.453125 2.546875 11.375 4.109375 
Q 8.890625 5.078125 7.296875 7.125 
Q 5.71875 9.1875 5.71875 11.921875 
Q 5.71875 13.578125 6.203125 14.921875 
Q 6.6875 16.265625 7.59375 17.453125 
Q 8.5 18.65625 11.28125 21 
Q 7.90625 23.046875 5.953125 27.296875 
Q 4 31.546875 4 36.71875 
Q 4 45.65625 8.6875 50.53125 
Q 13.375 55.421875 22.125 55.421875 
Q 23.78125 55.421875 25.921875 55.046875 
Q 28.078125 54.6875 29.203125 54.296875 
z
M 12.703125 -7.90625 
Q 12.703125 -11.140625 14.71875 -12.859375 
Q 16.75 -14.59375 20.515625 -14.59375 
Q 26.421875 -14.59375 29.375 -12.34375 
Q 32.328125 -10.109375 32.328125 -6.203125 
Q 32.328125 -3.125 30.734375 -1.859375 
Q 29.15625 -0.59375 24.8125 -0.59375 
L 18.5 -0.59375 
Q 15.875 -0.59375 14.28125 -2.5625 
Q 12.703125 -4.546875 12.703125 -7.90625 
z
M 16.703125 36.625 
Q 16.703125 27 22.125 27 
Q 27.390625 27 27.390625 36.71875 
Q 27.390625 46.6875 22.125 46.6875 
Q 16.703125 46.6875 16.703125 36.625 
z
" id="OpenSansCondensed-Bold-103"/>
    <path d="M 32.171875 0 
L 29.59375 7.421875 
L 29.296875 7.421875 
Q 26.421875 2.640625 23.34375 0.828125 
Q 20.265625 -0.984375 15.578125 -0.984375 
Q 9.578125 -0.984375 6.125 3.515625 
Q 2.6875 8.015625 2.6875 16.015625 
Q 2.6875 24.609375 7.390625 28.78125 
Q 12.109375 32.953125 21.484375 33.40625 
L 28.71875 33.6875 
L 28.71875 37.59375 
Q 28.71875 45.21875 22.125 45.21875 
Q 17.234375 45.21875 10.890625 41.40625 
L 6.390625 50.390625 
Q 14.5 55.515625 24.03125 55.515625 
Q 32.671875 55.515625 37.1875 50.5625 
Q 41.703125 45.609375 41.703125 36.53125 
L 41.703125 0 
z
M 20.90625 9.1875 
Q 24.46875 9.1875 26.59375 12.375 
Q 28.71875 15.578125 28.71875 20.90625 
L 28.71875 25.484375 
L 24.703125 25.296875 
Q 20.265625 25.046875 18.1875 22.75 
Q 16.109375 20.453125 16.109375 15.921875 
Q 16.109375 9.1875 20.90625 9.1875 
z
" id="OpenSansCondensed-Bold-97"/>
    <path d="M 59.515625 0 
L 59.515625 32.421875 
Q 59.515625 44.390625 53.609375 44.390625 
Q 49.3125 44.390625 47.453125 40.109375 
Q 45.609375 35.84375 45.609375 26.421875 
L 45.609375 0 
L 32.515625 0 
L 32.515625 32.421875 
Q 32.515625 44.390625 26.515625 44.390625 
Q 22.3125 44.390625 20.40625 40.140625 
Q 18.5 35.890625 18.5 26.125 
L 18.5 0 
L 5.515625 0 
L 5.515625 54.390625 
L 15.828125 54.390625 
L 17.390625 47.40625 
L 18.21875 47.40625 
Q 20.171875 51.5625 23.5625 53.484375 
Q 26.953125 55.421875 30.8125 55.421875 
Q 40.765625 55.421875 44.09375 46 
L 44.578125 46 
Q 48.734375 55.421875 57.90625 55.421875 
Q 65.140625 55.421875 68.875 50.34375 
Q 72.609375 45.265625 72.609375 35.5 
L 72.609375 0 
z
" id="OpenSansCondensed-Bold-109"/>
   </defs>
   <g transform="translate(149.99125 19.0695)scale(0.16 -0.16)">
    <use xlink:href="#OpenSansCondensed-Bold-76"/>
    <use x="40.185547" xlink:href="#OpenSansCondensed-Bold-69"/>
    <use x="82.763672" xlink:href="#OpenSansCondensed-Bold-68"/>
    <use x="138.574219" xlink:href="#OpenSansCondensed-Bold-32"/>
    <use x="163.28125" xlink:href="#OpenSansCondensed-Bold-70"/>
    <use x="204.199219" xlink:href="#OpenSansCondensed-Bold-117"/>
    <use x="254.882812" xlink:href="#OpenSansCondensed-Bold-108"/>
    <use x="278.759766" xlink:href="#OpenSansCondensed-Bold-108"/>
    <use x="302.636719" xlink:href="#OpenSansCondensed-Bold-32"/>
    <use x="327.34375" xlink:href="#OpenSansCondensed-Bold-80"/>
    <use x="375.244141" xlink:href="#OpenSansCondensed-Bold-111"/>
    <use x="424.658203" xlink:href="#OpenSansCondensed-Bold-119"/>
    <use x="496.875" xlink:href="#OpenSansCondensed-Bold-101"/>
    <use x="542.871094" xlink:href="#OpenSansCondensed-Bold-114"/>
    <use x="576.5625" xlink:href="#OpenSansCondensed-Bold-32"/>
    <use x="601.269531" xlink:href="#OpenSansCondensed-Bold-72"/>
    <use x="657.958984" xlink:href="#OpenSansCondensed-Bold-105"/>
    <use x="682.177734" xlink:href="#OpenSansCondensed-Bold-115"/>
    <use x="719.580078" xlink:href="#OpenSansCondensed-Bold-116"/>
    <use x="752.001953" xlink:href="#OpenSansCondensed-Bold-111"/>
    <use x="801.416016" xlink:href="#OpenSansCondensed-Bold-103"/>
    <use x="847.119141" xlink:href="#OpenSansCondensed-Bold-114"/>
    <use x="880.810547" xlink:href="#OpenSansCondensed-Bold-97"/>
    <use x="927.490234" xlink:href="#OpenSansCondensed-Bold-109"/>
   </g>
  </g>
 </g>
 <defs>
  <clipPath id="p61a9429975">
   <rect height="88.704" width="357.12" x="57.6" y="41.472"/>
  </clipPath>
  <clipPath id="p23edbf936a">
   <rect height="88.704" width="357.12" x="57.6" y="130.176"/>
  </clipPath>
  <clipPath id="pe1cfe85549">
   <rect height="88.704" width="357.12" x="57.6" y="218.88"/>
  </clipPath>
 </defs>
</svg>
